G04 #@! TF.GenerationSoftware,KiCad,Pcbnew,(5.1.9)-1*
G04 #@! TF.CreationDate,2021-05-27T01:04:45-06:00*
G04 #@! TF.ProjectId,cga_proto_boards,6367615f-7072-46f7-946f-5f626f617264,rev?*
G04 #@! TF.SameCoordinates,Original*
G04 #@! TF.FileFunction,Legend,Top*
G04 #@! TF.FilePolarity,Positive*
%FSLAX46Y46*%
G04 Gerber Fmt 4.6, Leading zero omitted, Abs format (unit mm)*
G04 Created by KiCad (PCBNEW (5.1.9)-1) date 2021-05-27 01:04:45*
%MOMM*%
%LPD*%
G01*
G04 APERTURE LIST*
%ADD10C,0.150000*%
%ADD11C,0.120000*%
%ADD12C,0.381000*%
%ADD13C,0.200000*%
%ADD14O,1.600000X2.200000*%
%ADD15C,1.500000*%
%ADD16C,1.600000*%
%ADD17R,1.200000X1.500000*%
%ADD18R,1.500000X1.200000*%
%ADD19C,1.200000*%
%ADD20C,2.100000*%
%ADD21C,1.750000*%
%ADD22C,0.402000*%
%ADD23C,1.752600*%
%ADD24C,0.700000*%
%ADD25C,4.400000*%
%ADD26R,1.900000X0.800000*%
%ADD27R,1.752600X1.752600*%
%ADD28O,1.700000X1.700000*%
%ADD29C,1.700000*%
%ADD30R,1.700000X1.700000*%
G04 APERTURE END LIST*
D10*
X86129761Y-40710357D02*
X86177380Y-40805595D01*
X86177380Y-40996071D01*
X86129761Y-41091309D01*
X86082142Y-41138928D01*
X85986904Y-41186547D01*
X85701190Y-41186547D01*
X85605952Y-41138928D01*
X85558333Y-41091309D01*
X85510714Y-40996071D01*
X85510714Y-40805595D01*
X85558333Y-40710357D01*
X85510714Y-39853214D02*
X86320238Y-39853214D01*
X86415476Y-39900833D01*
X86463095Y-39948452D01*
X86510714Y-40043690D01*
X86510714Y-40186547D01*
X86463095Y-40281785D01*
X86129761Y-39853214D02*
X86177380Y-39948452D01*
X86177380Y-40138928D01*
X86129761Y-40234166D01*
X86082142Y-40281785D01*
X85986904Y-40329404D01*
X85701190Y-40329404D01*
X85605952Y-40281785D01*
X85558333Y-40234166D01*
X85510714Y-40138928D01*
X85510714Y-39948452D01*
X85558333Y-39853214D01*
X86177380Y-38948452D02*
X85653571Y-38948452D01*
X85558333Y-38996071D01*
X85510714Y-39091309D01*
X85510714Y-39281785D01*
X85558333Y-39377023D01*
X86129761Y-38948452D02*
X86177380Y-39043690D01*
X86177380Y-39281785D01*
X86129761Y-39377023D01*
X86034523Y-39424642D01*
X85939285Y-39424642D01*
X85844047Y-39377023D01*
X85796428Y-39281785D01*
X85796428Y-39043690D01*
X85748809Y-38948452D01*
X86272619Y-38710357D02*
X86272619Y-37948452D01*
X85510714Y-37710357D02*
X86510714Y-37710357D01*
X85558333Y-37710357D02*
X85510714Y-37615119D01*
X85510714Y-37424642D01*
X85558333Y-37329404D01*
X85605952Y-37281785D01*
X85701190Y-37234166D01*
X85986904Y-37234166D01*
X86082142Y-37281785D01*
X86129761Y-37329404D01*
X86177380Y-37424642D01*
X86177380Y-37615119D01*
X86129761Y-37710357D01*
X86177380Y-36805595D02*
X85510714Y-36805595D01*
X85701190Y-36805595D02*
X85605952Y-36757976D01*
X85558333Y-36710357D01*
X85510714Y-36615119D01*
X85510714Y-36519880D01*
X86177380Y-36043690D02*
X86129761Y-36138928D01*
X86082142Y-36186547D01*
X85986904Y-36234166D01*
X85701190Y-36234166D01*
X85605952Y-36186547D01*
X85558333Y-36138928D01*
X85510714Y-36043690D01*
X85510714Y-35900833D01*
X85558333Y-35805595D01*
X85605952Y-35757976D01*
X85701190Y-35710357D01*
X85986904Y-35710357D01*
X86082142Y-35757976D01*
X86129761Y-35805595D01*
X86177380Y-35900833D01*
X86177380Y-36043690D01*
X85510714Y-35424642D02*
X85510714Y-35043690D01*
X85177380Y-35281785D02*
X86034523Y-35281785D01*
X86129761Y-35234166D01*
X86177380Y-35138928D01*
X86177380Y-35043690D01*
X86177380Y-34567500D02*
X86129761Y-34662738D01*
X86082142Y-34710357D01*
X85986904Y-34757976D01*
X85701190Y-34757976D01*
X85605952Y-34710357D01*
X85558333Y-34662738D01*
X85510714Y-34567500D01*
X85510714Y-34424642D01*
X85558333Y-34329404D01*
X85605952Y-34281785D01*
X85701190Y-34234166D01*
X85986904Y-34234166D01*
X86082142Y-34281785D01*
X86129761Y-34329404D01*
X86177380Y-34424642D01*
X86177380Y-34567500D01*
X86272619Y-34043690D02*
X86272619Y-33281785D01*
X86177380Y-33043690D02*
X85177380Y-33043690D01*
X85558333Y-33043690D02*
X85510714Y-32948452D01*
X85510714Y-32757976D01*
X85558333Y-32662738D01*
X85605952Y-32615119D01*
X85701190Y-32567500D01*
X85986904Y-32567500D01*
X86082142Y-32615119D01*
X86129761Y-32662738D01*
X86177380Y-32757976D01*
X86177380Y-32948452D01*
X86129761Y-33043690D01*
X86177380Y-31996071D02*
X86129761Y-32091309D01*
X86082142Y-32138928D01*
X85986904Y-32186547D01*
X85701190Y-32186547D01*
X85605952Y-32138928D01*
X85558333Y-32091309D01*
X85510714Y-31996071D01*
X85510714Y-31853214D01*
X85558333Y-31757976D01*
X85605952Y-31710357D01*
X85701190Y-31662738D01*
X85986904Y-31662738D01*
X86082142Y-31710357D01*
X86129761Y-31757976D01*
X86177380Y-31853214D01*
X86177380Y-31996071D01*
X86177380Y-30805595D02*
X85653571Y-30805595D01*
X85558333Y-30853214D01*
X85510714Y-30948452D01*
X85510714Y-31138928D01*
X85558333Y-31234166D01*
X86129761Y-30805595D02*
X86177380Y-30900833D01*
X86177380Y-31138928D01*
X86129761Y-31234166D01*
X86034523Y-31281785D01*
X85939285Y-31281785D01*
X85844047Y-31234166D01*
X85796428Y-31138928D01*
X85796428Y-30900833D01*
X85748809Y-30805595D01*
X86177380Y-30329404D02*
X85510714Y-30329404D01*
X85701190Y-30329404D02*
X85605952Y-30281785D01*
X85558333Y-30234166D01*
X85510714Y-30138928D01*
X85510714Y-30043690D01*
X86177380Y-29281785D02*
X85177380Y-29281785D01*
X86129761Y-29281785D02*
X86177380Y-29377023D01*
X86177380Y-29567500D01*
X86129761Y-29662738D01*
X86082142Y-29710357D01*
X85986904Y-29757976D01*
X85701190Y-29757976D01*
X85605952Y-29710357D01*
X85558333Y-29662738D01*
X85510714Y-29567500D01*
X85510714Y-29377023D01*
X85558333Y-29281785D01*
X86272619Y-29043690D02*
X86272619Y-28281785D01*
X86129761Y-28091309D02*
X86177380Y-27996071D01*
X86177380Y-27805595D01*
X86129761Y-27710357D01*
X86034523Y-27662738D01*
X85986904Y-27662738D01*
X85891666Y-27710357D01*
X85844047Y-27805595D01*
X85844047Y-27948452D01*
X85796428Y-28043690D01*
X85701190Y-28091309D01*
X85653571Y-28091309D01*
X85558333Y-28043690D01*
X85510714Y-27948452D01*
X85510714Y-27805595D01*
X85558333Y-27710357D01*
X86177380Y-27234166D02*
X85510714Y-27234166D01*
X85177380Y-27234166D02*
X85225000Y-27281785D01*
X85272619Y-27234166D01*
X85225000Y-27186547D01*
X85177380Y-27234166D01*
X85272619Y-27234166D01*
X86177380Y-26329404D02*
X85177380Y-26329404D01*
X86129761Y-26329404D02*
X86177380Y-26424642D01*
X86177380Y-26615119D01*
X86129761Y-26710357D01*
X86082142Y-26757976D01*
X85986904Y-26805595D01*
X85701190Y-26805595D01*
X85605952Y-26757976D01*
X85558333Y-26710357D01*
X85510714Y-26615119D01*
X85510714Y-26424642D01*
X85558333Y-26329404D01*
X86129761Y-25472261D02*
X86177380Y-25567500D01*
X86177380Y-25757976D01*
X86129761Y-25853214D01*
X86034523Y-25900833D01*
X85653571Y-25900833D01*
X85558333Y-25853214D01*
X85510714Y-25757976D01*
X85510714Y-25567500D01*
X85558333Y-25472261D01*
X85653571Y-25424642D01*
X85748809Y-25424642D01*
X85844047Y-25900833D01*
X86272619Y-25234166D02*
X86272619Y-24472261D01*
X85510714Y-24329404D02*
X86177380Y-24091309D01*
X85510714Y-23853214D01*
X86177380Y-22948452D02*
X86177380Y-23519880D01*
X86177380Y-23234166D02*
X85177380Y-23234166D01*
X85320238Y-23329404D01*
X85415476Y-23424642D01*
X85463095Y-23519880D01*
X79954380Y-33250095D02*
X78954380Y-33250095D01*
X78954380Y-33012000D01*
X79002000Y-32869142D01*
X79097238Y-32773904D01*
X79192476Y-32726285D01*
X79382952Y-32678666D01*
X79525809Y-32678666D01*
X79716285Y-32726285D01*
X79811523Y-32773904D01*
X79906761Y-32869142D01*
X79954380Y-33012000D01*
X79954380Y-33250095D01*
X78954380Y-32059619D02*
X78954380Y-31964380D01*
X79002000Y-31869142D01*
X79049619Y-31821523D01*
X79144857Y-31773904D01*
X79335333Y-31726285D01*
X79573428Y-31726285D01*
X79763904Y-31773904D01*
X79859142Y-31821523D01*
X79906761Y-31869142D01*
X79954380Y-31964380D01*
X79954380Y-32059619D01*
X79906761Y-32154857D01*
X79859142Y-32202476D01*
X79763904Y-32250095D01*
X79573428Y-32297714D01*
X79335333Y-32297714D01*
X79144857Y-32250095D01*
X79049619Y-32202476D01*
X79002000Y-32154857D01*
X78954380Y-32059619D01*
X82875380Y-35155095D02*
X81875380Y-35155095D01*
X81875380Y-34917000D01*
X81923000Y-34774142D01*
X82018238Y-34678904D01*
X82113476Y-34631285D01*
X82303952Y-34583666D01*
X82446809Y-34583666D01*
X82637285Y-34631285D01*
X82732523Y-34678904D01*
X82827761Y-34774142D01*
X82875380Y-34917000D01*
X82875380Y-35155095D01*
X81970619Y-34202714D02*
X81923000Y-34155095D01*
X81875380Y-34059857D01*
X81875380Y-33821761D01*
X81923000Y-33726523D01*
X81970619Y-33678904D01*
X82065857Y-33631285D01*
X82161095Y-33631285D01*
X82303952Y-33678904D01*
X82875380Y-34250333D01*
X82875380Y-33631285D01*
X77922380Y-33250095D02*
X76922380Y-33250095D01*
X76922380Y-33012000D01*
X76970000Y-32869142D01*
X77065238Y-32773904D01*
X77160476Y-32726285D01*
X77350952Y-32678666D01*
X77493809Y-32678666D01*
X77684285Y-32726285D01*
X77779523Y-32773904D01*
X77874761Y-32869142D01*
X77922380Y-33012000D01*
X77922380Y-33250095D01*
X76922380Y-32345333D02*
X76922380Y-31726285D01*
X77303333Y-32059619D01*
X77303333Y-31916761D01*
X77350952Y-31821523D01*
X77398571Y-31773904D01*
X77493809Y-31726285D01*
X77731904Y-31726285D01*
X77827142Y-31773904D01*
X77874761Y-31821523D01*
X77922380Y-31916761D01*
X77922380Y-32202476D01*
X77874761Y-32297714D01*
X77827142Y-32345333D01*
X74874380Y-35155095D02*
X73874380Y-35155095D01*
X73874380Y-34917000D01*
X73922000Y-34774142D01*
X74017238Y-34678904D01*
X74112476Y-34631285D01*
X74302952Y-34583666D01*
X74445809Y-34583666D01*
X74636285Y-34631285D01*
X74731523Y-34678904D01*
X74826761Y-34774142D01*
X74874380Y-34917000D01*
X74874380Y-35155095D01*
X74874380Y-33631285D02*
X74874380Y-34202714D01*
X74874380Y-33917000D02*
X73874380Y-33917000D01*
X74017238Y-34012238D01*
X74112476Y-34107476D01*
X74160095Y-34202714D01*
X62650000Y-36097333D02*
X62750000Y-36130666D01*
X62916666Y-36130666D01*
X62983333Y-36097333D01*
X63016666Y-36064000D01*
X63050000Y-35997333D01*
X63050000Y-35930666D01*
X63016666Y-35864000D01*
X62983333Y-35830666D01*
X62916666Y-35797333D01*
X62783333Y-35764000D01*
X62716666Y-35730666D01*
X62683333Y-35697333D01*
X62650000Y-35630666D01*
X62650000Y-35564000D01*
X62683333Y-35497333D01*
X62716666Y-35464000D01*
X62783333Y-35430666D01*
X62950000Y-35430666D01*
X63050000Y-35464000D01*
X63350000Y-36130666D02*
X63350000Y-35430666D01*
X63516666Y-35430666D01*
X63616666Y-35464000D01*
X63683333Y-35530666D01*
X63716666Y-35597333D01*
X63750000Y-35730666D01*
X63750000Y-35830666D01*
X63716666Y-35964000D01*
X63683333Y-36030666D01*
X63616666Y-36097333D01*
X63516666Y-36130666D01*
X63350000Y-36130666D01*
X64016666Y-35930666D02*
X64350000Y-35930666D01*
X63950000Y-36130666D02*
X64183333Y-35430666D01*
X64416666Y-36130666D01*
X62793666Y-33684333D02*
X62893666Y-33717666D01*
X63060333Y-33717666D01*
X63127000Y-33684333D01*
X63160333Y-33651000D01*
X63193666Y-33584333D01*
X63193666Y-33517666D01*
X63160333Y-33451000D01*
X63127000Y-33417666D01*
X63060333Y-33384333D01*
X62927000Y-33351000D01*
X62860333Y-33317666D01*
X62827000Y-33284333D01*
X62793666Y-33217666D01*
X62793666Y-33151000D01*
X62827000Y-33084333D01*
X62860333Y-33051000D01*
X62927000Y-33017666D01*
X63093666Y-33017666D01*
X63193666Y-33051000D01*
X63893666Y-33651000D02*
X63860333Y-33684333D01*
X63760333Y-33717666D01*
X63693666Y-33717666D01*
X63593666Y-33684333D01*
X63527000Y-33617666D01*
X63493666Y-33551000D01*
X63460333Y-33417666D01*
X63460333Y-33317666D01*
X63493666Y-33184333D01*
X63527000Y-33117666D01*
X63593666Y-33051000D01*
X63693666Y-33017666D01*
X63760333Y-33017666D01*
X63860333Y-33051000D01*
X63893666Y-33084333D01*
X64527000Y-33717666D02*
X64193666Y-33717666D01*
X64193666Y-33017666D01*
X62566666Y-30223666D02*
X62800000Y-30923666D01*
X63033333Y-30223666D01*
X63666666Y-30857000D02*
X63633333Y-30890333D01*
X63533333Y-30923666D01*
X63466666Y-30923666D01*
X63366666Y-30890333D01*
X63300000Y-30823666D01*
X63266666Y-30757000D01*
X63233333Y-30623666D01*
X63233333Y-30523666D01*
X63266666Y-30390333D01*
X63300000Y-30323666D01*
X63366666Y-30257000D01*
X63466666Y-30223666D01*
X63533333Y-30223666D01*
X63633333Y-30257000D01*
X63666666Y-30290333D01*
X64366666Y-30857000D02*
X64333333Y-30890333D01*
X64233333Y-30923666D01*
X64166666Y-30923666D01*
X64066666Y-30890333D01*
X64000000Y-30823666D01*
X63966666Y-30757000D01*
X63933333Y-30623666D01*
X63933333Y-30523666D01*
X63966666Y-30390333D01*
X64000000Y-30323666D01*
X64066666Y-30257000D01*
X64166666Y-30223666D01*
X64233333Y-30223666D01*
X64333333Y-30257000D01*
X64366666Y-30290333D01*
X62839666Y-27971000D02*
X62773000Y-27937666D01*
X62673000Y-27937666D01*
X62573000Y-27971000D01*
X62506333Y-28037666D01*
X62473000Y-28104333D01*
X62439666Y-28237666D01*
X62439666Y-28337666D01*
X62473000Y-28471000D01*
X62506333Y-28537666D01*
X62573000Y-28604333D01*
X62673000Y-28637666D01*
X62739666Y-28637666D01*
X62839666Y-28604333D01*
X62873000Y-28571000D01*
X62873000Y-28337666D01*
X62739666Y-28337666D01*
X63173000Y-28637666D02*
X63173000Y-27937666D01*
X63573000Y-28637666D01*
X63573000Y-27937666D01*
X63906333Y-28637666D02*
X63906333Y-27937666D01*
X64073000Y-27937666D01*
X64173000Y-27971000D01*
X64239666Y-28037666D01*
X64273000Y-28104333D01*
X64306333Y-28237666D01*
X64306333Y-28337666D01*
X64273000Y-28471000D01*
X64239666Y-28537666D01*
X64173000Y-28604333D01*
X64073000Y-28637666D01*
X63906333Y-28637666D01*
G04 #@! TO.C,T1*
X79744000Y-17526000D02*
X73644000Y-17526000D01*
X79744000Y-29626000D02*
X73644000Y-29626000D01*
X79744000Y-17526000D02*
X79744000Y-29626000D01*
X73644000Y-17526000D02*
X73644000Y-29626000D01*
X79494000Y-17526000D02*
X79494000Y-15526000D01*
X73894000Y-17526000D02*
X73894000Y-15526000D01*
X79494000Y-15526000D02*
X73894000Y-15526000D01*
G04 #@! TO.C,RT2*
X77724000Y-41275000D02*
X77724000Y-41783000D01*
X77724000Y-35179000D02*
X77724000Y-35687000D01*
X76962000Y-35687000D02*
X78486000Y-35687000D01*
X76708000Y-35941000D02*
X76962000Y-35687000D01*
X76708000Y-36195000D02*
X76708000Y-35941000D01*
X76962000Y-36449000D02*
X76708000Y-36195000D01*
X76962000Y-40513000D02*
X76962000Y-36449000D01*
X76708000Y-40767000D02*
X76962000Y-40513000D01*
X76708000Y-41021000D02*
X76708000Y-40767000D01*
X76962000Y-41275000D02*
X76708000Y-41021000D01*
X78486000Y-41275000D02*
X76962000Y-41275000D01*
X78740000Y-41021000D02*
X78486000Y-41275000D01*
X78740000Y-40767000D02*
X78740000Y-41021000D01*
X78486000Y-40513000D02*
X78740000Y-40767000D01*
X78486000Y-36449000D02*
X78486000Y-40513000D01*
X78740000Y-36195000D02*
X78486000Y-36449000D01*
X78740000Y-35941000D02*
X78740000Y-36195000D01*
X78486000Y-35687000D02*
X78740000Y-35941000D01*
G04 #@! TO.C,RT1*
X80264000Y-41275000D02*
X80264000Y-41783000D01*
X80264000Y-35179000D02*
X80264000Y-35687000D01*
X79502000Y-35687000D02*
X81026000Y-35687000D01*
X79248000Y-35941000D02*
X79502000Y-35687000D01*
X79248000Y-36195000D02*
X79248000Y-35941000D01*
X79502000Y-36449000D02*
X79248000Y-36195000D01*
X79502000Y-40513000D02*
X79502000Y-36449000D01*
X79248000Y-40767000D02*
X79502000Y-40513000D01*
X79248000Y-41021000D02*
X79248000Y-40767000D01*
X79502000Y-41275000D02*
X79248000Y-41021000D01*
X81026000Y-41275000D02*
X79502000Y-41275000D01*
X81280000Y-41021000D02*
X81026000Y-41275000D01*
X81280000Y-40767000D02*
X81280000Y-41021000D01*
X81026000Y-40513000D02*
X81280000Y-40767000D01*
X81026000Y-36449000D02*
X81026000Y-40513000D01*
X81280000Y-36195000D02*
X81026000Y-36449000D01*
X81280000Y-35941000D02*
X81280000Y-36195000D01*
X81026000Y-35687000D02*
X81280000Y-35941000D01*
G04 #@! TO.C,RQ1*
X39624000Y-33782000D02*
X40132000Y-33782000D01*
X33528000Y-33782000D02*
X34036000Y-33782000D01*
X34036000Y-34544000D02*
X34036000Y-33020000D01*
X34290000Y-34798000D02*
X34036000Y-34544000D01*
X34544000Y-34798000D02*
X34290000Y-34798000D01*
X34798000Y-34544000D02*
X34544000Y-34798000D01*
X38862000Y-34544000D02*
X34798000Y-34544000D01*
X39116000Y-34798000D02*
X38862000Y-34544000D01*
X39370000Y-34798000D02*
X39116000Y-34798000D01*
X39624000Y-34544000D02*
X39370000Y-34798000D01*
X39624000Y-33020000D02*
X39624000Y-34544000D01*
X39370000Y-32766000D02*
X39624000Y-33020000D01*
X39116000Y-32766000D02*
X39370000Y-32766000D01*
X38862000Y-33020000D02*
X39116000Y-32766000D01*
X34798000Y-33020000D02*
X38862000Y-33020000D01*
X34544000Y-32766000D02*
X34798000Y-33020000D01*
X34290000Y-32766000D02*
X34544000Y-32766000D01*
X34036000Y-33020000D02*
X34290000Y-32766000D01*
D11*
G04 #@! TO.C,Reset*
X64633000Y-17620000D02*
X64633000Y-21520000D01*
X66793000Y-21290000D02*
X70193000Y-21290000D01*
X65153000Y-21290000D02*
X65153000Y-21520000D01*
X65153000Y-21290000D02*
X65693000Y-21290000D01*
X71833000Y-21290000D02*
X71833000Y-21520000D01*
X64633000Y-17620000D02*
X72353000Y-17620000D01*
X72353000Y-17620000D02*
X72353000Y-21520000D01*
X71293000Y-21290000D02*
X71833000Y-21290000D01*
G04 #@! TO.C,Q2*
X40511000Y-30917000D02*
X39051000Y-30917000D01*
X40511000Y-27757000D02*
X37351000Y-27757000D01*
X40511000Y-27757000D02*
X40511000Y-28687000D01*
X40511000Y-30917000D02*
X40511000Y-29987000D01*
D12*
G04 #@! TO.C,U1*
X28956000Y-38354000D02*
X28956000Y-40894000D01*
X26416000Y-40894000D02*
X28956000Y-40894000D01*
X26416000Y-23114000D02*
X26416000Y-40894000D01*
X28956000Y-23114000D02*
X26416000Y-23114000D01*
D10*
G36*
X35435360Y-27072432D02*
G01*
X35635360Y-27072432D01*
X35635360Y-27172432D01*
X35435360Y-27172432D01*
X35435360Y-27072432D01*
G37*
X35435360Y-27072432D02*
X35635360Y-27072432D01*
X35635360Y-27172432D01*
X35435360Y-27172432D01*
X35435360Y-27072432D01*
G36*
X34835360Y-27472432D02*
G01*
X35635360Y-27472432D01*
X35635360Y-27572432D01*
X34835360Y-27572432D01*
X34835360Y-27472432D01*
G37*
X34835360Y-27472432D02*
X35635360Y-27472432D01*
X35635360Y-27572432D01*
X34835360Y-27572432D01*
X34835360Y-27472432D01*
G36*
X34835360Y-27072432D02*
G01*
X34935360Y-27072432D01*
X34935360Y-27572432D01*
X34835360Y-27572432D01*
X34835360Y-27072432D01*
G37*
X34835360Y-27072432D02*
X34935360Y-27072432D01*
X34935360Y-27572432D01*
X34835360Y-27572432D01*
X34835360Y-27072432D01*
G36*
X35235360Y-27272432D02*
G01*
X35335360Y-27272432D01*
X35335360Y-27372432D01*
X35235360Y-27372432D01*
X35235360Y-27272432D01*
G37*
X35235360Y-27272432D02*
X35335360Y-27272432D01*
X35335360Y-27372432D01*
X35235360Y-27372432D01*
X35235360Y-27272432D01*
G36*
X34835360Y-27072432D02*
G01*
X35135360Y-27072432D01*
X35135360Y-27172432D01*
X34835360Y-27172432D01*
X34835360Y-27072432D01*
G37*
X34835360Y-27072432D02*
X35135360Y-27072432D01*
X35135360Y-27172432D01*
X34835360Y-27172432D01*
X34835360Y-27072432D01*
D12*
X31496000Y-38354000D02*
X31496000Y-40894000D01*
X28956000Y-38354000D02*
X31496000Y-38354000D01*
X59436000Y-23114000D02*
X28956000Y-23114000D01*
X59436000Y-40894000D02*
X59436000Y-23114000D01*
X28956000Y-40894000D02*
X59436000Y-40894000D01*
G04 #@! TO.C,*
D10*
G04 #@! TO.C,RT2*
X76585904Y-38893695D02*
X76204952Y-39160361D01*
X76585904Y-39350838D02*
X75785904Y-39350838D01*
X75785904Y-39046076D01*
X75824000Y-38969885D01*
X75862095Y-38931790D01*
X75938285Y-38893695D01*
X76052571Y-38893695D01*
X76128761Y-38931790D01*
X76166857Y-38969885D01*
X76204952Y-39046076D01*
X76204952Y-39350838D01*
X75785904Y-38665123D02*
X75785904Y-38207980D01*
X76585904Y-38436552D02*
X75785904Y-38436552D01*
X75862095Y-37979409D02*
X75824000Y-37941314D01*
X75785904Y-37865123D01*
X75785904Y-37674647D01*
X75824000Y-37598457D01*
X75862095Y-37560361D01*
X75938285Y-37522266D01*
X76014476Y-37522266D01*
X76128761Y-37560361D01*
X76585904Y-38017504D01*
X76585904Y-37522266D01*
G04 #@! TO.C,RT1*
X82149904Y-38893695D02*
X81768952Y-39160361D01*
X82149904Y-39350838D02*
X81349904Y-39350838D01*
X81349904Y-39046076D01*
X81388000Y-38969885D01*
X81426095Y-38931790D01*
X81502285Y-38893695D01*
X81616571Y-38893695D01*
X81692761Y-38931790D01*
X81730857Y-38969885D01*
X81768952Y-39046076D01*
X81768952Y-39350838D01*
X81349904Y-38665123D02*
X81349904Y-38207980D01*
X82149904Y-38436552D02*
X81349904Y-38436552D01*
X82149904Y-37522266D02*
X82149904Y-37979409D01*
X82149904Y-37750838D02*
X81349904Y-37750838D01*
X81464190Y-37827028D01*
X81540380Y-37903219D01*
X81578476Y-37979409D01*
G04 #@! TO.C,RQ1*
X36252219Y-35643904D02*
X35985552Y-35262952D01*
X35795076Y-35643904D02*
X35795076Y-34843904D01*
X36099838Y-34843904D01*
X36176028Y-34882000D01*
X36214123Y-34920095D01*
X36252219Y-34996285D01*
X36252219Y-35110571D01*
X36214123Y-35186761D01*
X36176028Y-35224857D01*
X36099838Y-35262952D01*
X35795076Y-35262952D01*
X37128409Y-35720095D02*
X37052219Y-35682000D01*
X36976028Y-35605809D01*
X36861742Y-35491523D01*
X36785552Y-35453428D01*
X36709361Y-35453428D01*
X36747457Y-35643904D02*
X36671266Y-35605809D01*
X36595076Y-35529619D01*
X36556980Y-35377238D01*
X36556980Y-35110571D01*
X36595076Y-34958190D01*
X36671266Y-34882000D01*
X36747457Y-34843904D01*
X36899838Y-34843904D01*
X36976028Y-34882000D01*
X37052219Y-34958190D01*
X37090314Y-35110571D01*
X37090314Y-35377238D01*
X37052219Y-35529619D01*
X36976028Y-35605809D01*
X36899838Y-35643904D01*
X36747457Y-35643904D01*
X37852219Y-35643904D02*
X37395076Y-35643904D01*
X37623647Y-35643904D02*
X37623647Y-34843904D01*
X37547457Y-34958190D01*
X37471266Y-35034380D01*
X37395076Y-35072476D01*
G04 #@! TO.C,Reset*
X67254904Y-22452380D02*
X66921571Y-21976190D01*
X66683476Y-22452380D02*
X66683476Y-21452380D01*
X67064428Y-21452380D01*
X67159666Y-21500000D01*
X67207285Y-21547619D01*
X67254904Y-21642857D01*
X67254904Y-21785714D01*
X67207285Y-21880952D01*
X67159666Y-21928571D01*
X67064428Y-21976190D01*
X66683476Y-21976190D01*
X68064428Y-22404761D02*
X67969190Y-22452380D01*
X67778714Y-22452380D01*
X67683476Y-22404761D01*
X67635857Y-22309523D01*
X67635857Y-21928571D01*
X67683476Y-21833333D01*
X67778714Y-21785714D01*
X67969190Y-21785714D01*
X68064428Y-21833333D01*
X68112047Y-21928571D01*
X68112047Y-22023809D01*
X67635857Y-22119047D01*
X68493000Y-22404761D02*
X68588238Y-22452380D01*
X68778714Y-22452380D01*
X68873952Y-22404761D01*
X68921571Y-22309523D01*
X68921571Y-22261904D01*
X68873952Y-22166666D01*
X68778714Y-22119047D01*
X68635857Y-22119047D01*
X68540619Y-22071428D01*
X68493000Y-21976190D01*
X68493000Y-21928571D01*
X68540619Y-21833333D01*
X68635857Y-21785714D01*
X68778714Y-21785714D01*
X68873952Y-21833333D01*
X69731095Y-22404761D02*
X69635857Y-22452380D01*
X69445380Y-22452380D01*
X69350142Y-22404761D01*
X69302523Y-22309523D01*
X69302523Y-21928571D01*
X69350142Y-21833333D01*
X69445380Y-21785714D01*
X69635857Y-21785714D01*
X69731095Y-21833333D01*
X69778714Y-21928571D01*
X69778714Y-22023809D01*
X69302523Y-22119047D01*
X70064428Y-21785714D02*
X70445380Y-21785714D01*
X70207285Y-21452380D02*
X70207285Y-22309523D01*
X70254904Y-22404761D01*
X70350142Y-22452380D01*
X70445380Y-22452380D01*
G04 #@! TO.C,H3*
D13*
X71945666Y-43648380D02*
X72279000Y-44648380D01*
X72612333Y-43648380D01*
X73517095Y-44553142D02*
X73469476Y-44600761D01*
X73326619Y-44648380D01*
X73231380Y-44648380D01*
X73088523Y-44600761D01*
X72993285Y-44505523D01*
X72945666Y-44410285D01*
X72898047Y-44219809D01*
X72898047Y-44076952D01*
X72945666Y-43886476D01*
X72993285Y-43791238D01*
X73088523Y-43696000D01*
X73231380Y-43648380D01*
X73326619Y-43648380D01*
X73469476Y-43696000D01*
X73517095Y-43743619D01*
X74517095Y-44553142D02*
X74469476Y-44600761D01*
X74326619Y-44648380D01*
X74231380Y-44648380D01*
X74088523Y-44600761D01*
X73993285Y-44505523D01*
X73945666Y-44410285D01*
X73898047Y-44219809D01*
X73898047Y-44076952D01*
X73945666Y-43886476D01*
X73993285Y-43791238D01*
X74088523Y-43696000D01*
X74231380Y-43648380D01*
X74326619Y-43648380D01*
X74469476Y-43696000D01*
X74517095Y-43743619D01*
G04 #@! TO.C,H2*
X68580095Y-43696000D02*
X68484857Y-43648380D01*
X68342000Y-43648380D01*
X68199142Y-43696000D01*
X68103904Y-43791238D01*
X68056285Y-43886476D01*
X68008666Y-44076952D01*
X68008666Y-44219809D01*
X68056285Y-44410285D01*
X68103904Y-44505523D01*
X68199142Y-44600761D01*
X68342000Y-44648380D01*
X68437238Y-44648380D01*
X68580095Y-44600761D01*
X68627714Y-44553142D01*
X68627714Y-44219809D01*
X68437238Y-44219809D01*
X69056285Y-44648380D02*
X69056285Y-43648380D01*
X69627714Y-44648380D01*
X69627714Y-43648380D01*
X70103904Y-44648380D02*
X70103904Y-43648380D01*
X70342000Y-43648380D01*
X70484857Y-43696000D01*
X70580095Y-43791238D01*
X70627714Y-43886476D01*
X70675333Y-44076952D01*
X70675333Y-44219809D01*
X70627714Y-44410285D01*
X70580095Y-44505523D01*
X70484857Y-44600761D01*
X70342000Y-44648380D01*
X70103904Y-44648380D01*
G04 #@! TO.C,H1*
X64611380Y-44648380D02*
X64135190Y-44648380D01*
X64135190Y-43648380D01*
X64944714Y-44124571D02*
X65278047Y-44124571D01*
X65420904Y-44648380D02*
X64944714Y-44648380D01*
X64944714Y-43648380D01*
X65420904Y-43648380D01*
X65849476Y-44648380D02*
X65849476Y-43648380D01*
X66087571Y-43648380D01*
X66230428Y-43696000D01*
X66325666Y-43791238D01*
X66373285Y-43886476D01*
X66420904Y-44076952D01*
X66420904Y-44219809D01*
X66373285Y-44410285D01*
X66325666Y-44505523D01*
X66230428Y-44600761D01*
X66087571Y-44648380D01*
X65849476Y-44648380D01*
X66801857Y-44600761D02*
X66897095Y-44648380D01*
X67087571Y-44648380D01*
X67182809Y-44600761D01*
X67230428Y-44505523D01*
X67230428Y-44457904D01*
X67182809Y-44362666D01*
X67087571Y-44315047D01*
X66944714Y-44315047D01*
X66849476Y-44267428D01*
X66801857Y-44172190D01*
X66801857Y-44124571D01*
X66849476Y-44029333D01*
X66944714Y-43981714D01*
X67087571Y-43981714D01*
X67182809Y-44029333D01*
G04 #@! TO.C,Q2*
D10*
X43465761Y-29884619D02*
X43370523Y-29837000D01*
X43275285Y-29741761D01*
X43132428Y-29598904D01*
X43037190Y-29551285D01*
X42941952Y-29551285D01*
X42989571Y-29789380D02*
X42894333Y-29741761D01*
X42799095Y-29646523D01*
X42751476Y-29456047D01*
X42751476Y-29122714D01*
X42799095Y-28932238D01*
X42894333Y-28837000D01*
X42989571Y-28789380D01*
X43180047Y-28789380D01*
X43275285Y-28837000D01*
X43370523Y-28932238D01*
X43418142Y-29122714D01*
X43418142Y-29456047D01*
X43370523Y-29646523D01*
X43275285Y-29741761D01*
X43180047Y-29789380D01*
X42989571Y-29789380D01*
X43799095Y-28884619D02*
X43846714Y-28837000D01*
X43941952Y-28789380D01*
X44180047Y-28789380D01*
X44275285Y-28837000D01*
X44322904Y-28884619D01*
X44370523Y-28979857D01*
X44370523Y-29075095D01*
X44322904Y-29217952D01*
X43751476Y-29789380D01*
X44370523Y-29789380D01*
G04 #@! TO.C,U1*
X57715190Y-18992857D02*
X57829476Y-19030952D01*
X57867571Y-19069047D01*
X57905666Y-19145238D01*
X57905666Y-19259523D01*
X57867571Y-19335714D01*
X57829476Y-19373809D01*
X57753285Y-19411904D01*
X57448523Y-19411904D01*
X57448523Y-18611904D01*
X57715190Y-18611904D01*
X57791380Y-18650000D01*
X57829476Y-18688095D01*
X57867571Y-18764285D01*
X57867571Y-18840476D01*
X57829476Y-18916666D01*
X57791380Y-18954761D01*
X57715190Y-18992857D01*
X57448523Y-18992857D01*
X58210428Y-18688095D02*
X58248523Y-18650000D01*
X58324714Y-18611904D01*
X58515190Y-18611904D01*
X58591380Y-18650000D01*
X58629476Y-18688095D01*
X58667571Y-18764285D01*
X58667571Y-18840476D01*
X58629476Y-18954761D01*
X58172333Y-19411904D01*
X58667571Y-19411904D01*
X50025333Y-18992857D02*
X49758666Y-18992857D01*
X49758666Y-19411904D02*
X49758666Y-18611904D01*
X50139619Y-18611904D01*
X50368190Y-18611904D02*
X50901523Y-18611904D01*
X50558666Y-19411904D01*
X47485333Y-18992857D02*
X47218666Y-18992857D01*
X47218666Y-19411904D02*
X47218666Y-18611904D01*
X47599619Y-18611904D01*
X48247238Y-18611904D02*
X48094857Y-18611904D01*
X48018666Y-18650000D01*
X47980571Y-18688095D01*
X47904380Y-18802380D01*
X47866285Y-18954761D01*
X47866285Y-19259523D01*
X47904380Y-19335714D01*
X47942476Y-19373809D01*
X48018666Y-19411904D01*
X48171047Y-19411904D01*
X48247238Y-19373809D01*
X48285333Y-19335714D01*
X48323428Y-19259523D01*
X48323428Y-19069047D01*
X48285333Y-18992857D01*
X48247238Y-18954761D01*
X48171047Y-18916666D01*
X48018666Y-18916666D01*
X47942476Y-18954761D01*
X47904380Y-18992857D01*
X47866285Y-19069047D01*
X45072333Y-18992857D02*
X44805666Y-18992857D01*
X44805666Y-19411904D02*
X44805666Y-18611904D01*
X45186619Y-18611904D01*
X45872333Y-18611904D02*
X45491380Y-18611904D01*
X45453285Y-18992857D01*
X45491380Y-18954761D01*
X45567571Y-18916666D01*
X45758047Y-18916666D01*
X45834238Y-18954761D01*
X45872333Y-18992857D01*
X45910428Y-19069047D01*
X45910428Y-19259523D01*
X45872333Y-19335714D01*
X45834238Y-19373809D01*
X45758047Y-19411904D01*
X45567571Y-19411904D01*
X45491380Y-19373809D01*
X45453285Y-19335714D01*
X32315190Y-18992857D02*
X32429476Y-19030952D01*
X32467571Y-19069047D01*
X32505666Y-19145238D01*
X32505666Y-19259523D01*
X32467571Y-19335714D01*
X32429476Y-19373809D01*
X32353285Y-19411904D01*
X32048523Y-19411904D01*
X32048523Y-18611904D01*
X32315190Y-18611904D01*
X32391380Y-18650000D01*
X32429476Y-18688095D01*
X32467571Y-18764285D01*
X32467571Y-18840476D01*
X32429476Y-18916666D01*
X32391380Y-18954761D01*
X32315190Y-18992857D01*
X32048523Y-18992857D01*
X33000904Y-18611904D02*
X33077095Y-18611904D01*
X33153285Y-18650000D01*
X33191380Y-18688095D01*
X33229476Y-18764285D01*
X33267571Y-18916666D01*
X33267571Y-19107142D01*
X33229476Y-19259523D01*
X33191380Y-19335714D01*
X33153285Y-19373809D01*
X33077095Y-19411904D01*
X33000904Y-19411904D01*
X32924714Y-19373809D01*
X32886619Y-19335714D01*
X32848523Y-19259523D01*
X32810428Y-19107142D01*
X32810428Y-18916666D01*
X32848523Y-18764285D01*
X32886619Y-18688095D01*
X32924714Y-18650000D01*
X33000904Y-18611904D01*
X34569476Y-18650000D02*
X34493285Y-18611904D01*
X34379000Y-18611904D01*
X34264714Y-18650000D01*
X34188523Y-18726190D01*
X34150428Y-18802380D01*
X34112333Y-18954761D01*
X34112333Y-19069047D01*
X34150428Y-19221428D01*
X34188523Y-19297619D01*
X34264714Y-19373809D01*
X34379000Y-19411904D01*
X34455190Y-19411904D01*
X34569476Y-19373809D01*
X34607571Y-19335714D01*
X34607571Y-19069047D01*
X34455190Y-19069047D01*
X34950428Y-19411904D02*
X34950428Y-18611904D01*
X35407571Y-19411904D01*
X35407571Y-18611904D01*
X35788523Y-19411904D02*
X35788523Y-18611904D01*
X35979000Y-18611904D01*
X36093285Y-18650000D01*
X36169476Y-18726190D01*
X36207571Y-18802380D01*
X36245666Y-18954761D01*
X36245666Y-19069047D01*
X36207571Y-19221428D01*
X36169476Y-19297619D01*
X36093285Y-19373809D01*
X35979000Y-19411904D01*
X35788523Y-19411904D01*
X37280904Y-19411904D02*
X37014238Y-19030952D01*
X36823761Y-19411904D02*
X36823761Y-18611904D01*
X37128523Y-18611904D01*
X37204714Y-18650000D01*
X37242809Y-18688095D01*
X37280904Y-18764285D01*
X37280904Y-18878571D01*
X37242809Y-18954761D01*
X37204714Y-18992857D01*
X37128523Y-19030952D01*
X36823761Y-19030952D01*
X37585666Y-19373809D02*
X37699952Y-19411904D01*
X37890428Y-19411904D01*
X37966619Y-19373809D01*
X38004714Y-19335714D01*
X38042809Y-19259523D01*
X38042809Y-19183333D01*
X38004714Y-19107142D01*
X37966619Y-19069047D01*
X37890428Y-19030952D01*
X37738047Y-18992857D01*
X37661857Y-18954761D01*
X37623761Y-18916666D01*
X37585666Y-18840476D01*
X37585666Y-18764285D01*
X37623761Y-18688095D01*
X37661857Y-18650000D01*
X37738047Y-18611904D01*
X37928523Y-18611904D01*
X38042809Y-18650000D01*
X38271380Y-18611904D02*
X38728523Y-18611904D01*
X38499952Y-19411904D02*
X38499952Y-18611904D01*
X39192333Y-18611904D02*
X39459000Y-19411904D01*
X39725666Y-18611904D01*
X40449476Y-19335714D02*
X40411380Y-19373809D01*
X40297095Y-19411904D01*
X40220904Y-19411904D01*
X40106619Y-19373809D01*
X40030428Y-19297619D01*
X39992333Y-19221428D01*
X39954238Y-19069047D01*
X39954238Y-18954761D01*
X39992333Y-18802380D01*
X40030428Y-18726190D01*
X40106619Y-18650000D01*
X40220904Y-18611904D01*
X40297095Y-18611904D01*
X40411380Y-18650000D01*
X40449476Y-18688095D01*
X41249476Y-19335714D02*
X41211380Y-19373809D01*
X41097095Y-19411904D01*
X41020904Y-19411904D01*
X40906619Y-19373809D01*
X40830428Y-19297619D01*
X40792333Y-19221428D01*
X40754238Y-19069047D01*
X40754238Y-18954761D01*
X40792333Y-18802380D01*
X40830428Y-18726190D01*
X40906619Y-18650000D01*
X41020904Y-18611904D01*
X41097095Y-18611904D01*
X41211380Y-18650000D01*
X41249476Y-18688095D01*
X42532333Y-18992857D02*
X42265666Y-18992857D01*
X42265666Y-19411904D02*
X42265666Y-18611904D01*
X42646619Y-18611904D01*
X43294238Y-18878571D02*
X43294238Y-19411904D01*
X43103761Y-18573809D02*
X42913285Y-19145238D01*
X43408523Y-19145238D01*
X52635190Y-18992857D02*
X52749476Y-19030952D01*
X52787571Y-19069047D01*
X52825666Y-19145238D01*
X52825666Y-19259523D01*
X52787571Y-19335714D01*
X52749476Y-19373809D01*
X52673285Y-19411904D01*
X52368523Y-19411904D01*
X52368523Y-18611904D01*
X52635190Y-18611904D01*
X52711380Y-18650000D01*
X52749476Y-18688095D01*
X52787571Y-18764285D01*
X52787571Y-18840476D01*
X52749476Y-18916666D01*
X52711380Y-18954761D01*
X52635190Y-18992857D01*
X52368523Y-18992857D01*
X53587571Y-19411904D02*
X53130428Y-19411904D01*
X53359000Y-19411904D02*
X53359000Y-18611904D01*
X53282809Y-18726190D01*
X53206619Y-18802380D01*
X53130428Y-18840476D01*
X55175190Y-18992857D02*
X55289476Y-19030952D01*
X55327571Y-19069047D01*
X55365666Y-19145238D01*
X55365666Y-19259523D01*
X55327571Y-19335714D01*
X55289476Y-19373809D01*
X55213285Y-19411904D01*
X54908523Y-19411904D01*
X54908523Y-18611904D01*
X55175190Y-18611904D01*
X55251380Y-18650000D01*
X55289476Y-18688095D01*
X55327571Y-18764285D01*
X55327571Y-18840476D01*
X55289476Y-18916666D01*
X55251380Y-18954761D01*
X55175190Y-18992857D01*
X54908523Y-18992857D01*
X55632333Y-18611904D02*
X56127571Y-18611904D01*
X55860904Y-18916666D01*
X55975190Y-18916666D01*
X56051380Y-18954761D01*
X56089476Y-18992857D01*
X56127571Y-19069047D01*
X56127571Y-19259523D01*
X56089476Y-19335714D01*
X56051380Y-19373809D01*
X55975190Y-19411904D01*
X55746619Y-19411904D01*
X55670428Y-19373809D01*
X55632333Y-19335714D01*
X60168666Y-44908000D02*
X60268666Y-44941333D01*
X60302000Y-44974666D01*
X60335333Y-45041333D01*
X60335333Y-45141333D01*
X60302000Y-45208000D01*
X60268666Y-45241333D01*
X60202000Y-45274666D01*
X59935333Y-45274666D01*
X59935333Y-44574666D01*
X60168666Y-44574666D01*
X60235333Y-44608000D01*
X60268666Y-44641333D01*
X60302000Y-44708000D01*
X60302000Y-44774666D01*
X60268666Y-44841333D01*
X60235333Y-44874666D01*
X60168666Y-44908000D01*
X59935333Y-44908000D01*
X60968666Y-44574666D02*
X60635333Y-44574666D01*
X60602000Y-44908000D01*
X60635333Y-44874666D01*
X60702000Y-44841333D01*
X60868666Y-44841333D01*
X60935333Y-44874666D01*
X60968666Y-44908000D01*
X61002000Y-44974666D01*
X61002000Y-45141333D01*
X60968666Y-45208000D01*
X60935333Y-45241333D01*
X60868666Y-45274666D01*
X60702000Y-45274666D01*
X60635333Y-45241333D01*
X60602000Y-45208000D01*
X57588190Y-44900857D02*
X57702476Y-44938952D01*
X57740571Y-44977047D01*
X57778666Y-45053238D01*
X57778666Y-45167523D01*
X57740571Y-45243714D01*
X57702476Y-45281809D01*
X57626285Y-45319904D01*
X57321523Y-45319904D01*
X57321523Y-44519904D01*
X57588190Y-44519904D01*
X57664380Y-44558000D01*
X57702476Y-44596095D01*
X57740571Y-44672285D01*
X57740571Y-44748476D01*
X57702476Y-44824666D01*
X57664380Y-44862761D01*
X57588190Y-44900857D01*
X57321523Y-44900857D01*
X58464380Y-44786571D02*
X58464380Y-45319904D01*
X58273904Y-44481809D02*
X58083428Y-45053238D01*
X58578666Y-45053238D01*
X54819619Y-44900857D02*
X55086285Y-44900857D01*
X55200571Y-45319904D02*
X54819619Y-45319904D01*
X54819619Y-44519904D01*
X55200571Y-44519904D01*
X55886285Y-44519904D02*
X55733904Y-44519904D01*
X55657714Y-44558000D01*
X55619619Y-44596095D01*
X55543428Y-44710380D01*
X55505333Y-44862761D01*
X55505333Y-45167523D01*
X55543428Y-45243714D01*
X55581523Y-45281809D01*
X55657714Y-45319904D01*
X55810095Y-45319904D01*
X55886285Y-45281809D01*
X55924380Y-45243714D01*
X55962476Y-45167523D01*
X55962476Y-44977047D01*
X55924380Y-44900857D01*
X55886285Y-44862761D01*
X55810095Y-44824666D01*
X55657714Y-44824666D01*
X55581523Y-44862761D01*
X55543428Y-44900857D01*
X55505333Y-44977047D01*
X52368523Y-45319904D02*
X52368523Y-44519904D01*
X52559000Y-44519904D01*
X52673285Y-44558000D01*
X52749476Y-44634190D01*
X52787571Y-44710380D01*
X52825666Y-44862761D01*
X52825666Y-44977047D01*
X52787571Y-45129428D01*
X52749476Y-45205619D01*
X52673285Y-45281809D01*
X52559000Y-45319904D01*
X52368523Y-45319904D01*
X53092333Y-44519904D02*
X53625666Y-44519904D01*
X53282809Y-45319904D01*
X50158666Y-45243714D02*
X50120571Y-45281809D01*
X50006285Y-45319904D01*
X49930095Y-45319904D01*
X49815809Y-45281809D01*
X49739619Y-45205619D01*
X49701523Y-45129428D01*
X49663428Y-44977047D01*
X49663428Y-44862761D01*
X49701523Y-44710380D01*
X49739619Y-44634190D01*
X49815809Y-44558000D01*
X49930095Y-44519904D01*
X50006285Y-44519904D01*
X50120571Y-44558000D01*
X50158666Y-44596095D01*
X50844380Y-44519904D02*
X50692000Y-44519904D01*
X50615809Y-44558000D01*
X50577714Y-44596095D01*
X50501523Y-44710380D01*
X50463428Y-44862761D01*
X50463428Y-45167523D01*
X50501523Y-45243714D01*
X50539619Y-45281809D01*
X50615809Y-45319904D01*
X50768190Y-45319904D01*
X50844380Y-45281809D01*
X50882476Y-45243714D01*
X50920571Y-45167523D01*
X50920571Y-44977047D01*
X50882476Y-44900857D01*
X50844380Y-44862761D01*
X50768190Y-44824666D01*
X50615809Y-44824666D01*
X50539619Y-44862761D01*
X50501523Y-44900857D01*
X50463428Y-44977047D01*
X47161523Y-45319904D02*
X47161523Y-44519904D01*
X47352000Y-44519904D01*
X47466285Y-44558000D01*
X47542476Y-44634190D01*
X47580571Y-44710380D01*
X47618666Y-44862761D01*
X47618666Y-44977047D01*
X47580571Y-45129428D01*
X47542476Y-45205619D01*
X47466285Y-45281809D01*
X47352000Y-45319904D01*
X47161523Y-45319904D01*
X48304380Y-44786571D02*
X48304380Y-45319904D01*
X48113904Y-44481809D02*
X47923428Y-45053238D01*
X48418666Y-45053238D01*
X37109476Y-44558000D02*
X37033285Y-44519904D01*
X36919000Y-44519904D01*
X36804714Y-44558000D01*
X36728523Y-44634190D01*
X36690428Y-44710380D01*
X36652333Y-44862761D01*
X36652333Y-44977047D01*
X36690428Y-45129428D01*
X36728523Y-45205619D01*
X36804714Y-45281809D01*
X36919000Y-45319904D01*
X36995190Y-45319904D01*
X37109476Y-45281809D01*
X37147571Y-45243714D01*
X37147571Y-44977047D01*
X36995190Y-44977047D01*
X37490428Y-45319904D02*
X37490428Y-44519904D01*
X37947571Y-45319904D01*
X37947571Y-44519904D01*
X38328523Y-45319904D02*
X38328523Y-44519904D01*
X38519000Y-44519904D01*
X38633285Y-44558000D01*
X38709476Y-44634190D01*
X38747571Y-44710380D01*
X38785666Y-44862761D01*
X38785666Y-44977047D01*
X38747571Y-45129428D01*
X38709476Y-45205619D01*
X38633285Y-45281809D01*
X38519000Y-45319904D01*
X38328523Y-45319904D01*
X39649476Y-44558000D02*
X39573285Y-44519904D01*
X39459000Y-44519904D01*
X39344714Y-44558000D01*
X39268523Y-44634190D01*
X39230428Y-44710380D01*
X39192333Y-44862761D01*
X39192333Y-44977047D01*
X39230428Y-45129428D01*
X39268523Y-45205619D01*
X39344714Y-45281809D01*
X39459000Y-45319904D01*
X39535190Y-45319904D01*
X39649476Y-45281809D01*
X39687571Y-45243714D01*
X39687571Y-44977047D01*
X39535190Y-44977047D01*
X40030428Y-45319904D02*
X40030428Y-44519904D01*
X40487571Y-45319904D01*
X40487571Y-44519904D01*
X40868523Y-45319904D02*
X40868523Y-44519904D01*
X41059000Y-44519904D01*
X41173285Y-44558000D01*
X41249476Y-44634190D01*
X41287571Y-44710380D01*
X41325666Y-44862761D01*
X41325666Y-44977047D01*
X41287571Y-45129428D01*
X41249476Y-45205619D01*
X41173285Y-45281809D01*
X41059000Y-45319904D01*
X40868523Y-45319904D01*
X42081523Y-45319904D02*
X42081523Y-44519904D01*
X42272000Y-44519904D01*
X42386285Y-44558000D01*
X42462476Y-44634190D01*
X42500571Y-44710380D01*
X42538666Y-44862761D01*
X42538666Y-44977047D01*
X42500571Y-45129428D01*
X42462476Y-45205619D01*
X42386285Y-45281809D01*
X42272000Y-45319904D01*
X42081523Y-45319904D01*
X43300571Y-45319904D02*
X42843428Y-45319904D01*
X43072000Y-45319904D02*
X43072000Y-44519904D01*
X42995809Y-44634190D01*
X42919619Y-44710380D01*
X42843428Y-44748476D01*
X44621523Y-45319904D02*
X44621523Y-44519904D01*
X44812000Y-44519904D01*
X44926285Y-44558000D01*
X45002476Y-44634190D01*
X45040571Y-44710380D01*
X45078666Y-44862761D01*
X45078666Y-44977047D01*
X45040571Y-45129428D01*
X45002476Y-45205619D01*
X44926285Y-45281809D01*
X44812000Y-45319904D01*
X44621523Y-45319904D01*
X45573904Y-44519904D02*
X45650095Y-44519904D01*
X45726285Y-44558000D01*
X45764380Y-44596095D01*
X45802476Y-44672285D01*
X45840571Y-44824666D01*
X45840571Y-45015142D01*
X45802476Y-45167523D01*
X45764380Y-45243714D01*
X45726285Y-45281809D01*
X45650095Y-45319904D01*
X45573904Y-45319904D01*
X45497714Y-45281809D01*
X45459619Y-45243714D01*
X45421523Y-45167523D01*
X45383428Y-45015142D01*
X45383428Y-44824666D01*
X45421523Y-44672285D01*
X45459619Y-44596095D01*
X45497714Y-44558000D01*
X45573904Y-44519904D01*
X34588523Y-45319904D02*
X34588523Y-44519904D01*
X34779000Y-44519904D01*
X34893285Y-44558000D01*
X34969476Y-44634190D01*
X35007571Y-44710380D01*
X35045666Y-44862761D01*
X35045666Y-44977047D01*
X35007571Y-45129428D01*
X34969476Y-45205619D01*
X34893285Y-45281809D01*
X34779000Y-45319904D01*
X34588523Y-45319904D01*
X35350428Y-44596095D02*
X35388523Y-44558000D01*
X35464714Y-44519904D01*
X35655190Y-44519904D01*
X35731380Y-44558000D01*
X35769476Y-44596095D01*
X35807571Y-44672285D01*
X35807571Y-44748476D01*
X35769476Y-44862761D01*
X35312333Y-45319904D01*
X35807571Y-45319904D01*
X32048523Y-45319904D02*
X32048523Y-44519904D01*
X32239000Y-44519904D01*
X32353285Y-44558000D01*
X32429476Y-44634190D01*
X32467571Y-44710380D01*
X32505666Y-44862761D01*
X32505666Y-44977047D01*
X32467571Y-45129428D01*
X32429476Y-45205619D01*
X32353285Y-45281809D01*
X32239000Y-45319904D01*
X32048523Y-45319904D01*
X32772333Y-44519904D02*
X33267571Y-44519904D01*
X33000904Y-44824666D01*
X33115190Y-44824666D01*
X33191380Y-44862761D01*
X33229476Y-44900857D01*
X33267571Y-44977047D01*
X33267571Y-45167523D01*
X33229476Y-45243714D01*
X33191380Y-45281809D01*
X33115190Y-45319904D01*
X32886619Y-45319904D01*
X32810428Y-45281809D01*
X32772333Y-45243714D01*
X59955142Y-37041142D02*
X60040857Y-37069714D01*
X60069428Y-37098285D01*
X60098000Y-37155428D01*
X60098000Y-37241142D01*
X60069428Y-37298285D01*
X60040857Y-37326857D01*
X59983714Y-37355428D01*
X59755142Y-37355428D01*
X59755142Y-36755428D01*
X59955142Y-36755428D01*
X60012285Y-36784000D01*
X60040857Y-36812571D01*
X60069428Y-36869714D01*
X60069428Y-36926857D01*
X60040857Y-36984000D01*
X60012285Y-37012571D01*
X59955142Y-37041142D01*
X59755142Y-37041142D01*
X60298000Y-36755428D02*
X60698000Y-36755428D01*
X60440857Y-37355428D01*
X59998000Y-26881142D02*
X59798000Y-26881142D01*
X59798000Y-27195428D02*
X59798000Y-26595428D01*
X60083714Y-26595428D01*
X60426571Y-26595428D02*
X60483714Y-26595428D01*
X60540857Y-26624000D01*
X60569428Y-26652571D01*
X60598000Y-26709714D01*
X60626571Y-26824000D01*
X60626571Y-26966857D01*
X60598000Y-27081142D01*
X60569428Y-27138285D01*
X60540857Y-27166857D01*
X60483714Y-27195428D01*
X60426571Y-27195428D01*
X60369428Y-27166857D01*
X60340857Y-27138285D01*
X60312285Y-27081142D01*
X60283714Y-26966857D01*
X60283714Y-26824000D01*
X60312285Y-26709714D01*
X60340857Y-26652571D01*
X60369428Y-26624000D01*
X60426571Y-26595428D01*
X60295666Y-19000000D02*
X60395666Y-19033333D01*
X60429000Y-19066666D01*
X60462333Y-19133333D01*
X60462333Y-19233333D01*
X60429000Y-19300000D01*
X60395666Y-19333333D01*
X60329000Y-19366666D01*
X60062333Y-19366666D01*
X60062333Y-18666666D01*
X60295666Y-18666666D01*
X60362333Y-18700000D01*
X60395666Y-18733333D01*
X60429000Y-18800000D01*
X60429000Y-18866666D01*
X60395666Y-18933333D01*
X60362333Y-18966666D01*
X60295666Y-19000000D01*
X60062333Y-19000000D01*
X61062333Y-18666666D02*
X60929000Y-18666666D01*
X60862333Y-18700000D01*
X60829000Y-18733333D01*
X60762333Y-18833333D01*
X60729000Y-18966666D01*
X60729000Y-19233333D01*
X60762333Y-19300000D01*
X60795666Y-19333333D01*
X60862333Y-19366666D01*
X60995666Y-19366666D01*
X61062333Y-19333333D01*
X61095666Y-19300000D01*
X61129000Y-19233333D01*
X61129000Y-19066666D01*
X61095666Y-19000000D01*
X61062333Y-18966666D01*
X60995666Y-18933333D01*
X60862333Y-18933333D01*
X60795666Y-18966666D01*
X60762333Y-19000000D01*
X60729000Y-19066666D01*
X60098000Y-32218285D02*
X60069428Y-32246857D01*
X59983714Y-32275428D01*
X59926571Y-32275428D01*
X59840857Y-32246857D01*
X59783714Y-32189714D01*
X59755142Y-32132571D01*
X59726571Y-32018285D01*
X59726571Y-31932571D01*
X59755142Y-31818285D01*
X59783714Y-31761142D01*
X59840857Y-31704000D01*
X59926571Y-31675428D01*
X59983714Y-31675428D01*
X60069428Y-31704000D01*
X60098000Y-31732571D01*
X60298000Y-31675428D02*
X60698000Y-31675428D01*
X60440857Y-32275428D01*
X59871000Y-29421142D02*
X59671000Y-29421142D01*
X59671000Y-29735428D02*
X59671000Y-29135428D01*
X59956714Y-29135428D01*
X60499571Y-29735428D02*
X60156714Y-29735428D01*
X60328142Y-29735428D02*
X60328142Y-29135428D01*
X60271000Y-29221142D01*
X60213857Y-29278285D01*
X60156714Y-29306857D01*
X59755142Y-34815428D02*
X59755142Y-34215428D01*
X59898000Y-34215428D01*
X59983714Y-34244000D01*
X60040857Y-34301142D01*
X60069428Y-34358285D01*
X60098000Y-34472571D01*
X60098000Y-34558285D01*
X60069428Y-34672571D01*
X60040857Y-34729714D01*
X59983714Y-34786857D01*
X59898000Y-34815428D01*
X59755142Y-34815428D01*
X60640857Y-34215428D02*
X60355142Y-34215428D01*
X60326571Y-34501142D01*
X60355142Y-34472571D01*
X60412285Y-34444000D01*
X60555142Y-34444000D01*
X60612285Y-34472571D01*
X60640857Y-34501142D01*
X60669428Y-34558285D01*
X60669428Y-34701142D01*
X60640857Y-34758285D01*
X60612285Y-34786857D01*
X60555142Y-34815428D01*
X60412285Y-34815428D01*
X60355142Y-34786857D01*
X60326571Y-34758285D01*
G04 #@! TD*
%LPC*%
D14*
G04 #@! TO.C,T1*
X78994000Y-23726000D03*
D15*
X76694000Y-19126000D03*
X76694000Y-26126000D03*
D14*
X78994000Y-20726000D03*
X78994000Y-27726000D03*
X74394000Y-28826000D03*
X83594000Y-28826000D03*
D15*
X81294000Y-19126000D03*
X81294000Y-26126000D03*
G04 #@! TD*
D16*
G04 #@! TO.C,RT2*
X77724000Y-42381000D03*
X77724000Y-34581000D03*
D17*
X77724000Y-37131000D03*
X77724000Y-39831000D03*
G04 #@! TD*
D16*
G04 #@! TO.C,RT1*
X80264000Y-42381000D03*
X80264000Y-34581000D03*
D17*
X80264000Y-37131000D03*
X80264000Y-39831000D03*
G04 #@! TD*
D16*
G04 #@! TO.C,RQ1*
X40730000Y-33782000D03*
X32930000Y-33782000D03*
D18*
X35480000Y-33782000D03*
X38180000Y-33782000D03*
G04 #@! TD*
D19*
G04 #@! TO.C,Reset*
X68493000Y-19110000D03*
D20*
X71993000Y-22810000D03*
D21*
X70993000Y-20320000D03*
X65993000Y-20320000D03*
D20*
X64983000Y-22810000D03*
G04 #@! TD*
G04 #@! TO.C,J2*
G36*
G01*
X82083000Y-33262000D02*
X82083000Y-31762000D01*
G75*
G02*
X82084000Y-31761000I1000J0D01*
G01*
X82784000Y-31761000D01*
G75*
G02*
X82785000Y-31762000I0J-1000D01*
G01*
X82785000Y-33262000D01*
G75*
G02*
X82784000Y-33263000I-1000J0D01*
G01*
X82084000Y-33263000D01*
G75*
G02*
X82083000Y-33262000I0J1000D01*
G01*
G37*
G36*
G01*
X81183000Y-33262000D02*
X81183000Y-31762000D01*
G75*
G02*
X81184000Y-31761000I1000J0D01*
G01*
X81884000Y-31761000D01*
G75*
G02*
X81885000Y-31762000I0J-1000D01*
G01*
X81885000Y-33262000D01*
G75*
G02*
X81884000Y-33263000I-1000J0D01*
G01*
X81184000Y-33263000D01*
G75*
G02*
X81183000Y-33262000I0J1000D01*
G01*
G37*
G36*
G01*
X80283000Y-33262000D02*
X80283000Y-31762000D01*
G75*
G02*
X80284000Y-31761000I1000J0D01*
G01*
X80984000Y-31761000D01*
G75*
G02*
X80985000Y-31762000I0J-1000D01*
G01*
X80985000Y-33262000D01*
G75*
G02*
X80984000Y-33263000I-1000J0D01*
G01*
X80284000Y-33263000D01*
G75*
G02*
X80283000Y-33262000I0J1000D01*
G01*
G37*
D22*
X82434000Y-32512000D03*
X81534000Y-32512000D03*
X80634000Y-32512000D03*
G04 #@! TD*
G04 #@! TO.C,J1*
G36*
G01*
X75987000Y-33262000D02*
X75987000Y-31762000D01*
G75*
G02*
X75988000Y-31761000I1000J0D01*
G01*
X76688000Y-31761000D01*
G75*
G02*
X76689000Y-31762000I0J-1000D01*
G01*
X76689000Y-33262000D01*
G75*
G02*
X76688000Y-33263000I-1000J0D01*
G01*
X75988000Y-33263000D01*
G75*
G02*
X75987000Y-33262000I0J1000D01*
G01*
G37*
G36*
G01*
X75087000Y-33262000D02*
X75087000Y-31762000D01*
G75*
G02*
X75088000Y-31761000I1000J0D01*
G01*
X75788000Y-31761000D01*
G75*
G02*
X75789000Y-31762000I0J-1000D01*
G01*
X75789000Y-33262000D01*
G75*
G02*
X75788000Y-33263000I-1000J0D01*
G01*
X75088000Y-33263000D01*
G75*
G02*
X75087000Y-33262000I0J1000D01*
G01*
G37*
G36*
G01*
X74187000Y-33262000D02*
X74187000Y-31762000D01*
G75*
G02*
X74188000Y-31761000I1000J0D01*
G01*
X74888000Y-31761000D01*
G75*
G02*
X74889000Y-31762000I0J-1000D01*
G01*
X74889000Y-33262000D01*
G75*
G02*
X74888000Y-33263000I-1000J0D01*
G01*
X74188000Y-33263000D01*
G75*
G02*
X74187000Y-33262000I0J1000D01*
G01*
G37*
X76338000Y-32512000D03*
X75438000Y-32512000D03*
X74538000Y-32512000D03*
G04 #@! TD*
D23*
G04 #@! TO.C,H3*
X73279000Y-42418000D03*
G04 #@! TD*
G04 #@! TO.C,H2*
X69342000Y-42418000D03*
G04 #@! TD*
G04 #@! TO.C,H1*
X65659000Y-42418000D03*
G04 #@! TD*
D24*
G04 #@! TO.C,Screw4*
X30122726Y-42902274D03*
X28956000Y-42419000D03*
X27789274Y-42902274D03*
X27306000Y-44069000D03*
X27789274Y-45235726D03*
X28956000Y-45719000D03*
X30122726Y-45235726D03*
X30606000Y-44069000D03*
D25*
X28956000Y-44069000D03*
G04 #@! TD*
G04 #@! TO.C,Screw1*
X28956000Y-20193000D03*
D24*
X30606000Y-20193000D03*
X30122726Y-21359726D03*
X28956000Y-21843000D03*
X27789274Y-21359726D03*
X27306000Y-20193000D03*
X27789274Y-19026274D03*
X28956000Y-18543000D03*
X30122726Y-19026274D03*
G04 #@! TD*
G04 #@! TO.C,Screw2*
X88923726Y-19026274D03*
X87757000Y-18543000D03*
X86590274Y-19026274D03*
X86107000Y-20193000D03*
X86590274Y-21359726D03*
X87757000Y-21843000D03*
X88923726Y-21359726D03*
X89407000Y-20193000D03*
D25*
X87757000Y-20193000D03*
G04 #@! TD*
G04 #@! TO.C,Screw3*
X87757000Y-44069000D03*
D24*
X89407000Y-44069000D03*
X88923726Y-45235726D03*
X87757000Y-45719000D03*
X86590274Y-45235726D03*
X86107000Y-44069000D03*
X86590274Y-42902274D03*
X87757000Y-42419000D03*
X88923726Y-42902274D03*
G04 #@! TD*
D26*
G04 #@! TO.C,Q2*
X38251000Y-28387000D03*
X38251000Y-30287000D03*
X41251000Y-29337000D03*
G04 #@! TD*
D27*
G04 #@! TO.C,U1*
X30226000Y-39852600D03*
D23*
X32766000Y-39395400D03*
X35306000Y-39852600D03*
X37846000Y-39395400D03*
X40386000Y-39852600D03*
X42926000Y-39395400D03*
X45466000Y-39852600D03*
X48006000Y-39395400D03*
X50546000Y-39852600D03*
X53086000Y-39395400D03*
X55626000Y-39852600D03*
X58166000Y-24612600D03*
X55626000Y-24155400D03*
X53086000Y-24612600D03*
X50546000Y-24155400D03*
X48006000Y-24612600D03*
X45466000Y-24155400D03*
X42926000Y-24612600D03*
X40386000Y-24155400D03*
X37846000Y-24612600D03*
X35306000Y-24155400D03*
X32766000Y-24612600D03*
X58166000Y-39395400D03*
X30226000Y-24155400D03*
X58394600Y-26924000D03*
X57937400Y-29464000D03*
X58394600Y-32004000D03*
X57937400Y-34544000D03*
X58394600Y-37084000D03*
G04 #@! TD*
D28*
G04 #@! TO.C,O2*
X69215000Y-28067000D03*
X69215000Y-30607000D03*
X69215000Y-33147000D03*
D29*
X69215000Y-35687000D03*
G04 #@! TD*
D28*
G04 #@! TO.C,O1*
X65405000Y-35687000D03*
X65405000Y-33147000D03*
X65405000Y-30607000D03*
D29*
X65405000Y-28067000D03*
G04 #@! TD*
D28*
G04 #@! TO.C,Cs2*
X52909000Y-21056600D03*
X60529000Y-20599400D03*
D29*
X47829000Y-21056600D03*
D28*
X57989000Y-21056600D03*
X50369000Y-20599400D03*
X55449000Y-20599400D03*
X45339000Y-20599400D03*
X42799000Y-21056600D03*
X40259000Y-20599400D03*
X37719000Y-21056600D03*
X35179000Y-20599400D03*
D30*
X32639000Y-21056600D03*
G04 #@! TD*
D28*
G04 #@! TO.C,Cs1*
X52909000Y-43408600D03*
X60529000Y-42951400D03*
D29*
X47829000Y-43408600D03*
D28*
X57989000Y-43408600D03*
X50369000Y-42951400D03*
X55449000Y-42951400D03*
X45339000Y-42951400D03*
X42799000Y-43408600D03*
X40259000Y-42951400D03*
X37719000Y-43408600D03*
X35179000Y-42951400D03*
D30*
X32639000Y-43408600D03*
G04 #@! TD*
D28*
G04 #@! TO.C,Cb1*
X61950600Y-26924000D03*
X61493400Y-29464000D03*
X61950600Y-32004000D03*
X61493400Y-34544000D03*
D29*
X61950600Y-37084000D03*
G04 #@! TD*
M02*
