G04 #@! TF.GenerationSoftware,KiCad,Pcbnew,(5.1.9)-1*
G04 #@! TF.CreationDate,2021-05-27T01:04:45-06:00*
G04 #@! TF.ProjectId,cga_proto_boards,6367615f-7072-46f7-946f-5f626f617264,rev?*
G04 #@! TF.SameCoordinates,Original*
G04 #@! TF.FileFunction,Copper,L2,Bot*
G04 #@! TF.FilePolarity,Positive*
%FSLAX46Y46*%
G04 Gerber Fmt 4.6, Leading zero omitted, Abs format (unit mm)*
G04 Created by KiCad (PCBNEW (5.1.9)-1) date 2021-05-27 01:04:45*
%MOMM*%
%LPD*%
G01*
G04 APERTURE LIST*
G04 #@! TA.AperFunction,ComponentPad*
%ADD10O,1.600000X2.200000*%
G04 #@! TD*
G04 #@! TA.AperFunction,ComponentPad*
%ADD11C,1.600000*%
G04 #@! TD*
G04 #@! TA.AperFunction,SMDPad,CuDef*
%ADD12R,0.500000X2.900000*%
G04 #@! TD*
G04 #@! TA.AperFunction,SMDPad,CuDef*
%ADD13R,1.200000X1.500000*%
G04 #@! TD*
G04 #@! TA.AperFunction,SMDPad,CuDef*
%ADD14R,2.900000X0.500000*%
G04 #@! TD*
G04 #@! TA.AperFunction,SMDPad,CuDef*
%ADD15R,1.500000X1.200000*%
G04 #@! TD*
G04 #@! TA.AperFunction,ComponentPad*
%ADD16C,2.100000*%
G04 #@! TD*
G04 #@! TA.AperFunction,ComponentPad*
%ADD17C,1.750000*%
G04 #@! TD*
G04 #@! TA.AperFunction,SMDPad,CuDef*
%ADD18R,0.700000X1.500000*%
G04 #@! TD*
G04 #@! TA.AperFunction,ComponentPad*
%ADD19C,0.400000*%
G04 #@! TD*
G04 #@! TA.AperFunction,ComponentPad*
%ADD20C,1.752600*%
G04 #@! TD*
G04 #@! TA.AperFunction,ComponentPad*
%ADD21C,0.700000*%
G04 #@! TD*
G04 #@! TA.AperFunction,ComponentPad*
%ADD22C,4.400000*%
G04 #@! TD*
G04 #@! TA.AperFunction,SMDPad,CuDef*
%ADD23R,1.900000X0.800000*%
G04 #@! TD*
G04 #@! TA.AperFunction,ComponentPad*
%ADD24R,1.752600X1.752600*%
G04 #@! TD*
G04 #@! TA.AperFunction,ComponentPad*
%ADD25O,1.700000X1.700000*%
G04 #@! TD*
G04 #@! TA.AperFunction,ComponentPad*
%ADD26C,1.700000*%
G04 #@! TD*
G04 #@! TA.AperFunction,ComponentPad*
%ADD27R,1.700000X1.700000*%
G04 #@! TD*
G04 #@! TA.AperFunction,ViaPad*
%ADD28C,0.800000*%
G04 #@! TD*
G04 #@! TA.AperFunction,Conductor*
%ADD29C,0.250000*%
G04 #@! TD*
G04 #@! TA.AperFunction,Conductor*
%ADD30C,0.254000*%
G04 #@! TD*
G04 #@! TA.AperFunction,Conductor*
%ADD31C,0.100000*%
G04 #@! TD*
G04 APERTURE END LIST*
D10*
G04 #@! TO.P,T1,3*
G04 #@! TO.N,GND*
X78994000Y-23726000D03*
G04 #@! TO.P,T1,4*
G04 #@! TO.N,VCC*
X78994000Y-20726000D03*
G04 #@! TO.P,T1,2*
G04 #@! TO.N,TRRS2*
X78994000Y-27726000D03*
G04 #@! TO.P,T1,1*
G04 #@! TO.N,TRRS1*
X74394000Y-28826000D03*
X83594000Y-28826000D03*
G04 #@! TD*
D11*
G04 #@! TO.P,RT2,1*
G04 #@! TO.N,VCC*
X77724000Y-42381000D03*
G04 #@! TO.P,RT2,2*
G04 #@! TO.N,TRRS1*
X77724000Y-34581000D03*
D12*
G04 #@! TO.P,RT2,1*
G04 #@! TO.N,VCC*
X77724000Y-40981000D03*
D13*
X77724000Y-39831000D03*
G04 #@! TO.P,RT2,2*
G04 #@! TO.N,TRRS1*
X77724000Y-37131000D03*
D12*
X77724000Y-35981000D03*
G04 #@! TD*
D11*
G04 #@! TO.P,RT1,1*
G04 #@! TO.N,VCC*
X80264000Y-42381000D03*
G04 #@! TO.P,RT1,2*
G04 #@! TO.N,TRRS2*
X80264000Y-34581000D03*
D12*
G04 #@! TO.P,RT1,1*
G04 #@! TO.N,VCC*
X80264000Y-40981000D03*
D13*
X80264000Y-39831000D03*
G04 #@! TO.P,RT1,2*
G04 #@! TO.N,TRRS2*
X80264000Y-37131000D03*
D12*
X80264000Y-35981000D03*
G04 #@! TD*
D11*
G04 #@! TO.P,RQ1,1*
G04 #@! TO.N,LEDs*
X40730000Y-33782000D03*
G04 #@! TO.P,RQ1,2*
G04 #@! TO.N,GND*
X32930000Y-33782000D03*
D14*
G04 #@! TO.P,RQ1,1*
G04 #@! TO.N,LEDs*
X39330000Y-33782000D03*
D15*
X38180000Y-33782000D03*
G04 #@! TO.P,RQ1,2*
G04 #@! TO.N,GND*
X35480000Y-33782000D03*
D14*
X34330000Y-33782000D03*
G04 #@! TD*
D16*
G04 #@! TO.P,Reset,*
G04 #@! TO.N,*
X71993000Y-22810000D03*
D17*
G04 #@! TO.P,Reset,1*
G04 #@! TO.N,RESET*
X70993000Y-20320000D03*
G04 #@! TO.P,Reset,2*
G04 #@! TO.N,GND*
X65993000Y-20320000D03*
D16*
G04 #@! TO.P,Reset,*
G04 #@! TO.N,*
X64983000Y-22810000D03*
G04 #@! TD*
D18*
G04 #@! TO.P,J2,3*
G04 #@! TO.N,TX*
X82434000Y-32512000D03*
G04 #@! TO.P,J2,2*
G04 #@! TO.N,TRRS2*
X81534000Y-32512000D03*
G04 #@! TO.P,J2,1*
G04 #@! TO.N,SDA*
X80634000Y-32512000D03*
D19*
G04 #@! TO.P,J2,3*
G04 #@! TO.N,TX*
X82434000Y-32512000D03*
G04 #@! TO.P,J2,2*
G04 #@! TO.N,TRRS2*
X81534000Y-32512000D03*
G04 #@! TO.P,J2,1*
G04 #@! TO.N,SDA*
X80634000Y-32512000D03*
G04 #@! TD*
D18*
G04 #@! TO.P,J1,3*
G04 #@! TO.N,RX*
X76338000Y-32512000D03*
G04 #@! TO.P,J1,2*
G04 #@! TO.N,TRRS1*
X75438000Y-32512000D03*
G04 #@! TO.P,J1,1*
G04 #@! TO.N,SCL*
X74538000Y-32512000D03*
D19*
G04 #@! TO.P,J1,3*
G04 #@! TO.N,RX*
X76338000Y-32512000D03*
G04 #@! TO.P,J1,2*
G04 #@! TO.N,TRRS1*
X75438000Y-32512000D03*
G04 #@! TO.P,J1,1*
G04 #@! TO.N,SCL*
X74538000Y-32512000D03*
G04 #@! TD*
D20*
G04 #@! TO.P,H3,1*
G04 #@! TO.N,VCC*
X73279000Y-42418000D03*
G04 #@! TD*
G04 #@! TO.P,H2,1*
G04 #@! TO.N,GND*
X69342000Y-42418000D03*
G04 #@! TD*
G04 #@! TO.P,H1,1*
G04 #@! TO.N,LEDsOut*
X65659000Y-42418000D03*
G04 #@! TD*
D21*
G04 #@! TO.P,Screw4,1*
G04 #@! TO.N,GND*
X30122726Y-42902274D03*
X28956000Y-42419000D03*
X27789274Y-42902274D03*
X27306000Y-44069000D03*
X27789274Y-45235726D03*
X28956000Y-45719000D03*
X30122726Y-45235726D03*
X30606000Y-44069000D03*
D22*
X28956000Y-44069000D03*
G04 #@! TD*
G04 #@! TO.P,Screw1,1*
G04 #@! TO.N,GND*
X28956000Y-20193000D03*
D21*
X30606000Y-20193000D03*
X30122726Y-21359726D03*
X28956000Y-21843000D03*
X27789274Y-21359726D03*
X27306000Y-20193000D03*
X27789274Y-19026274D03*
X28956000Y-18543000D03*
X30122726Y-19026274D03*
G04 #@! TD*
G04 #@! TO.P,Screw2,1*
G04 #@! TO.N,GND*
X88923726Y-19026274D03*
X87757000Y-18543000D03*
X86590274Y-19026274D03*
X86107000Y-20193000D03*
X86590274Y-21359726D03*
X87757000Y-21843000D03*
X88923726Y-21359726D03*
X89407000Y-20193000D03*
D22*
X87757000Y-20193000D03*
G04 #@! TD*
G04 #@! TO.P,Screw3,1*
G04 #@! TO.N,GND*
X87757000Y-44069000D03*
D21*
X89407000Y-44069000D03*
X88923726Y-45235726D03*
X87757000Y-45719000D03*
X86590274Y-45235726D03*
X86107000Y-44069000D03*
X86590274Y-42902274D03*
X87757000Y-42419000D03*
X88923726Y-42902274D03*
G04 #@! TD*
D23*
G04 #@! TO.P,Q1,3*
G04 #@! TO.N,LEDsOut*
X41251000Y-29337000D03*
G04 #@! TO.P,Q1,2*
G04 #@! TO.N,GND*
X38251000Y-28387000D03*
G04 #@! TO.P,Q1,1*
G04 #@! TO.N,LEDs*
X38251000Y-30287000D03*
G04 #@! TD*
D24*
G04 #@! TO.P,U1,1*
G04 #@! TO.N,TX*
X30226000Y-39852600D03*
D20*
G04 #@! TO.P,U1,2*
G04 #@! TO.N,RX*
X32766000Y-39395400D03*
G04 #@! TO.P,U1,3*
G04 #@! TO.N,GND*
X35306000Y-39852600D03*
G04 #@! TO.P,U1,4*
X37846000Y-39395400D03*
G04 #@! TO.P,U1,5*
G04 #@! TO.N,SDA*
X40386000Y-39852600D03*
G04 #@! TO.P,U1,6*
G04 #@! TO.N,SCL*
X42926000Y-39395400D03*
G04 #@! TO.P,U1,7*
G04 #@! TO.N,row0*
X45466000Y-39852600D03*
G04 #@! TO.P,U1,8*
G04 #@! TO.N,row1*
X48006000Y-39395400D03*
G04 #@! TO.P,U1,9*
G04 #@! TO.N,row2*
X50546000Y-39852600D03*
G04 #@! TO.P,U1,10*
G04 #@! TO.N,row3*
X53086000Y-39395400D03*
G04 #@! TO.P,U1,11*
G04 #@! TO.N,row4*
X55626000Y-39852600D03*
G04 #@! TO.P,U1,13*
G04 #@! TO.N,col7*
X58166000Y-24612600D03*
G04 #@! TO.P,U1,14*
G04 #@! TO.N,col6*
X55626000Y-24155400D03*
G04 #@! TO.P,U1,15*
G04 #@! TO.N,col5*
X53086000Y-24612600D03*
G04 #@! TO.P,U1,16*
G04 #@! TO.N,col4*
X50546000Y-24155400D03*
G04 #@! TO.P,U1,17*
G04 #@! TO.N,col3*
X48006000Y-24612600D03*
G04 #@! TO.P,U1,18*
G04 #@! TO.N,col2*
X45466000Y-24155400D03*
G04 #@! TO.P,U1,19*
G04 #@! TO.N,col1*
X42926000Y-24612600D03*
G04 #@! TO.P,U1,20*
G04 #@! TO.N,col0*
X40386000Y-24155400D03*
G04 #@! TO.P,U1,21*
G04 #@! TO.N,VCC*
X37846000Y-24612600D03*
G04 #@! TO.P,U1,22*
G04 #@! TO.N,RESET*
X35306000Y-24155400D03*
G04 #@! TO.P,U1,23*
G04 #@! TO.N,GND*
X32766000Y-24612600D03*
G04 #@! TO.P,U1,12*
G04 #@! TO.N,RGB*
X58166000Y-39395400D03*
G04 #@! TO.P,U1,24*
G04 #@! TO.N,Net-(U1-Pad24)*
X30226000Y-24155400D03*
G04 #@! TO.P,U1,29*
G04 #@! TO.N,encoder2b*
X58394600Y-26924000D03*
G04 #@! TO.P,U1,28*
G04 #@! TO.N,encoder2a*
X57937400Y-29464000D03*
G04 #@! TO.P,U1,27*
G04 #@! TO.N,encoder1b*
X58394600Y-32004000D03*
G04 #@! TO.P,U1,26*
G04 #@! TO.N,encoder1a*
X57937400Y-34544000D03*
G04 #@! TO.P,U1,25*
G04 #@! TO.N,LEDs*
X58394600Y-37084000D03*
G04 #@! TD*
D25*
G04 #@! TO.P,O2,4*
G04 #@! TO.N,SDA*
X69215000Y-28067000D03*
G04 #@! TO.P,O2,3*
G04 #@! TO.N,SCL*
X69215000Y-30607000D03*
G04 #@! TO.P,O2,2*
G04 #@! TO.N,VCC*
X69215000Y-33147000D03*
D26*
G04 #@! TO.P,O2,1*
G04 #@! TO.N,GND*
X69215000Y-35687000D03*
G04 #@! TD*
D25*
G04 #@! TO.P,O1,4*
G04 #@! TO.N,SDA*
X65405000Y-35687000D03*
G04 #@! TO.P,O1,3*
G04 #@! TO.N,SCL*
X65405000Y-33147000D03*
G04 #@! TO.P,O1,2*
G04 #@! TO.N,VCC*
X65405000Y-30607000D03*
D26*
G04 #@! TO.P,O1,1*
G04 #@! TO.N,GND*
X65405000Y-28067000D03*
G04 #@! TD*
D25*
G04 #@! TO.P,Cs2,9*
G04 #@! TO.N,col4*
X52909000Y-21056600D03*
G04 #@! TO.P,Cs2,12*
G04 #@! TO.N,col7*
X60529000Y-20599400D03*
D26*
G04 #@! TO.P,Cs2,7*
G04 #@! TO.N,col2*
X47829000Y-21056600D03*
D25*
G04 #@! TO.P,Cs2,11*
G04 #@! TO.N,col6*
X57989000Y-21056600D03*
G04 #@! TO.P,Cs2,8*
G04 #@! TO.N,col3*
X50369000Y-20599400D03*
G04 #@! TO.P,Cs2,10*
G04 #@! TO.N,col5*
X55449000Y-20599400D03*
G04 #@! TO.P,Cs2,6*
G04 #@! TO.N,col1*
X45339000Y-20599400D03*
G04 #@! TO.P,Cs2,5*
G04 #@! TO.N,col0*
X42799000Y-21056600D03*
G04 #@! TO.P,Cs2,4*
G04 #@! TO.N,VCC*
X40259000Y-20599400D03*
G04 #@! TO.P,Cs2,3*
G04 #@! TO.N,RESET*
X37719000Y-21056600D03*
G04 #@! TO.P,Cs2,2*
G04 #@! TO.N,GND*
X35179000Y-20599400D03*
D27*
G04 #@! TO.P,Cs2,1*
G04 #@! TO.N,Net-(Cs2-Pad1)*
X32639000Y-21056600D03*
G04 #@! TD*
D25*
G04 #@! TO.P,Cs1,9*
G04 #@! TO.N,row2*
X52909000Y-43408600D03*
G04 #@! TO.P,Cs1,12*
G04 #@! TO.N,RGB*
X60529000Y-42951400D03*
D26*
G04 #@! TO.P,Cs1,7*
G04 #@! TO.N,row0*
X47829000Y-43408600D03*
D25*
G04 #@! TO.P,Cs1,11*
G04 #@! TO.N,row4*
X57989000Y-43408600D03*
G04 #@! TO.P,Cs1,8*
G04 #@! TO.N,row1*
X50369000Y-42951400D03*
G04 #@! TO.P,Cs1,10*
G04 #@! TO.N,row3*
X55449000Y-42951400D03*
G04 #@! TO.P,Cs1,6*
G04 #@! TO.N,SCL*
X45339000Y-42951400D03*
G04 #@! TO.P,Cs1,5*
G04 #@! TO.N,SDA*
X42799000Y-43408600D03*
G04 #@! TO.P,Cs1,4*
G04 #@! TO.N,GND*
X40259000Y-42951400D03*
G04 #@! TO.P,Cs1,3*
X37719000Y-43408600D03*
G04 #@! TO.P,Cs1,2*
G04 #@! TO.N,RX*
X35179000Y-42951400D03*
D27*
G04 #@! TO.P,Cs1,1*
G04 #@! TO.N,TX*
X32639000Y-43408600D03*
G04 #@! TD*
D25*
G04 #@! TO.P,Cb1,5*
G04 #@! TO.N,encoder2b*
X61950600Y-26924000D03*
G04 #@! TO.P,Cb1,4*
G04 #@! TO.N,encoder2a*
X61493400Y-29464000D03*
G04 #@! TO.P,Cb1,3*
G04 #@! TO.N,encoder1b*
X61950600Y-32004000D03*
G04 #@! TO.P,Cb1,2*
G04 #@! TO.N,encoder1a*
X61493400Y-34544000D03*
D26*
G04 #@! TO.P,Cb1,1*
G04 #@! TO.N,LEDs*
X61950600Y-37084000D03*
G04 #@! TD*
D28*
G04 #@! TO.N,GND*
X75565000Y-37306250D03*
X73025000Y-34925000D03*
X51593750Y-34925000D03*
G04 #@! TO.N,LEDsOut*
X46831250Y-29368750D03*
G04 #@! TD*
D29*
G04 #@! TO.N,LEDs*
X38251000Y-33711000D02*
X38180000Y-33782000D01*
X38251000Y-30287000D02*
X38251000Y-33711000D01*
X42254000Y-32258000D02*
X40730000Y-33782000D01*
X52070000Y-32258000D02*
X42254000Y-32258000D01*
X56896000Y-37084000D02*
X52070000Y-32258000D01*
X58521600Y-37084000D02*
X56896000Y-37084000D01*
G04 #@! TO.N,SCL*
X69562840Y-30607000D02*
X69215000Y-30607000D01*
X65405000Y-33147000D02*
X67468750Y-35210750D01*
X67468750Y-35210750D02*
X67468750Y-36512500D01*
X67818251Y-36862001D02*
X73469249Y-36862001D01*
X67468750Y-36512500D02*
X67818251Y-36862001D01*
X74538000Y-35793250D02*
X74538000Y-32512000D01*
X73469249Y-36862001D02*
X74538000Y-35793250D01*
G04 #@! TO.N,SDA*
X80576000Y-32512000D02*
X80576000Y-32314590D01*
X66860301Y-43470949D02*
X66860301Y-39079051D01*
X65747649Y-44583601D02*
X66860301Y-43470949D01*
X43974001Y-44583601D02*
X42799000Y-43408600D01*
X65747649Y-44583601D02*
X43974001Y-44583601D01*
X66860301Y-39079051D02*
X65405000Y-37623750D01*
X65405000Y-37623750D02*
X65405000Y-35687000D01*
X82550000Y-35213002D02*
X80634000Y-33297002D01*
X80634000Y-33297002D02*
X80634000Y-32512000D01*
X82550000Y-42862500D02*
X82550000Y-35213002D01*
X80962500Y-44450000D02*
X82550000Y-42862500D01*
X68262500Y-44450000D02*
X80962500Y-44450000D01*
X67283449Y-43470949D02*
X68262500Y-44450000D01*
X66860301Y-43470949D02*
X67283449Y-43470949D01*
G04 #@! TO.N,GND*
X35433000Y-33829000D02*
X35480000Y-33782000D01*
X35499000Y-33763000D02*
X35480000Y-33782000D01*
X69342000Y-35814000D02*
X69215000Y-35687000D01*
G04 #@! TO.N,TRRS2*
X81476000Y-30335000D02*
X78867000Y-27726000D01*
X81476000Y-32512000D02*
X81476000Y-30335000D01*
G04 #@! TO.N,TRRS1*
X75380000Y-33368370D02*
X75380000Y-32512000D01*
X76592630Y-34581000D02*
X75380000Y-33368370D01*
X77724000Y-34581000D02*
X76592630Y-34581000D01*
G04 #@! TO.N,VCC*
X66675000Y-30607000D02*
X69215000Y-33147000D01*
X65405000Y-30607000D02*
X66675000Y-30607000D01*
X63627000Y-28829000D02*
X65405000Y-30607000D01*
X63627000Y-26543000D02*
X63627000Y-28829000D01*
X59817000Y-22733000D02*
X63627000Y-26543000D01*
X39852600Y-22733000D02*
X59817000Y-22733000D01*
X37973000Y-24612600D02*
X39852600Y-22733000D01*
X71437500Y-30924500D02*
X69215000Y-33147000D01*
X71437500Y-29368750D02*
X71437500Y-30924500D01*
X73818750Y-26987500D02*
X71437500Y-29368750D01*
X74612500Y-26987500D02*
X73818750Y-26987500D01*
X78849001Y-31224001D02*
X74612500Y-26987500D01*
X78849001Y-39855999D02*
X78849001Y-31224001D01*
X77724000Y-40981000D02*
X78849001Y-39855999D01*
X80264000Y-42381000D02*
X77724000Y-42381000D01*
X73316000Y-42381000D02*
X73279000Y-42418000D01*
X77724000Y-42381000D02*
X73316000Y-42381000D01*
G04 #@! TO.N,LEDsOut*
X65659000Y-42418000D02*
X65659000Y-38671500D01*
X62870199Y-35882699D02*
X56520199Y-35882699D01*
X65659000Y-38671500D02*
X62870199Y-35882699D01*
X56520199Y-35882699D02*
X50006250Y-29368750D01*
X41282750Y-29368750D02*
X41251000Y-29337000D01*
X50006250Y-29368750D02*
X46831250Y-29368750D01*
X46831250Y-29368750D02*
X41282750Y-29368750D01*
G04 #@! TO.N,TX*
X34474150Y-45243750D02*
X32639000Y-43408600D01*
X80168750Y-45243750D02*
X34474150Y-45243750D01*
X82376000Y-32512000D02*
X82426000Y-32562000D01*
X80168750Y-45243750D02*
X81756250Y-45243750D01*
X81756250Y-45243750D02*
X83343750Y-43656250D01*
X83343750Y-33421750D02*
X82434000Y-32512000D01*
X83343750Y-43656250D02*
X83343750Y-33421750D01*
G04 #@! TD*
D30*
G04 #@! TO.N,GND*
X67705733Y-18150713D02*
X67533713Y-18322733D01*
X67398557Y-18525008D01*
X67305460Y-18749764D01*
X67258000Y-18988363D01*
X67258000Y-19231637D01*
X67305460Y-19470236D01*
X67398557Y-19694992D01*
X67533713Y-19897267D01*
X67705733Y-20069287D01*
X67908008Y-20204443D01*
X68132764Y-20297540D01*
X68371363Y-20345000D01*
X68614637Y-20345000D01*
X68853236Y-20297540D01*
X69077992Y-20204443D01*
X69127626Y-20171278D01*
X69483000Y-20171278D01*
X69483000Y-20468722D01*
X69541029Y-20760451D01*
X69654856Y-21035253D01*
X69820107Y-21282569D01*
X70030431Y-21492893D01*
X70277747Y-21658144D01*
X70552549Y-21771971D01*
X70647444Y-21790847D01*
X70499772Y-22011853D01*
X70372754Y-22318504D01*
X70308000Y-22644042D01*
X70308000Y-22975958D01*
X70372754Y-23301496D01*
X70499772Y-23608147D01*
X70684175Y-23884125D01*
X70918875Y-24118825D01*
X71194853Y-24303228D01*
X71501504Y-24430246D01*
X71827042Y-24495000D01*
X72158958Y-24495000D01*
X72484496Y-24430246D01*
X72791147Y-24303228D01*
X73067125Y-24118825D01*
X73301825Y-23884125D01*
X73322622Y-23853000D01*
X77559000Y-23853000D01*
X77559000Y-24153000D01*
X77611350Y-24430514D01*
X77716834Y-24692483D01*
X77871399Y-24928839D01*
X78069105Y-25130500D01*
X78302354Y-25289715D01*
X78562182Y-25400367D01*
X78644961Y-25417904D01*
X78867000Y-25295915D01*
X78867000Y-23853000D01*
X79121000Y-23853000D01*
X79121000Y-25295915D01*
X79343039Y-25417904D01*
X79425818Y-25400367D01*
X79685646Y-25289715D01*
X79918895Y-25130500D01*
X80116601Y-24928839D01*
X80271166Y-24692483D01*
X80376650Y-24430514D01*
X80429000Y-24153000D01*
X80429000Y-23853000D01*
X79121000Y-23853000D01*
X78867000Y-23853000D01*
X77559000Y-23853000D01*
X73322622Y-23853000D01*
X73486228Y-23608147D01*
X73613246Y-23301496D01*
X73678000Y-22975958D01*
X73678000Y-22644042D01*
X73613246Y-22318504D01*
X73486228Y-22011853D01*
X73301825Y-21735875D01*
X73067125Y-21501175D01*
X72791147Y-21316772D01*
X72484496Y-21189754D01*
X72258012Y-21144703D01*
X72331144Y-21035253D01*
X72444971Y-20760451D01*
X72503000Y-20468722D01*
X72503000Y-20171278D01*
X72444971Y-19879549D01*
X72331144Y-19604747D01*
X72165893Y-19357431D01*
X71955569Y-19147107D01*
X71708253Y-18981856D01*
X71433451Y-18868029D01*
X71141722Y-18810000D01*
X70844278Y-18810000D01*
X70552549Y-18868029D01*
X70277747Y-18981856D01*
X70030431Y-19147107D01*
X69820107Y-19357431D01*
X69654856Y-19604747D01*
X69541029Y-19879549D01*
X69483000Y-20171278D01*
X69127626Y-20171278D01*
X69280267Y-20069287D01*
X69452287Y-19897267D01*
X69587443Y-19694992D01*
X69680540Y-19470236D01*
X69728000Y-19231637D01*
X69728000Y-18988363D01*
X69680540Y-18749764D01*
X69587443Y-18525008D01*
X69452287Y-18322733D01*
X69280267Y-18150713D01*
X69238043Y-18122500D01*
X75738815Y-18122500D01*
X75618201Y-18243114D01*
X75466629Y-18469957D01*
X75362225Y-18722011D01*
X75309000Y-18989589D01*
X75309000Y-19262411D01*
X75362225Y-19529989D01*
X75466629Y-19782043D01*
X75618201Y-20008886D01*
X75811114Y-20201799D01*
X76037957Y-20353371D01*
X76290011Y-20457775D01*
X76557589Y-20511000D01*
X76830411Y-20511000D01*
X77097989Y-20457775D01*
X77350043Y-20353371D01*
X77573946Y-20203764D01*
X77559000Y-20355509D01*
X77559000Y-21096492D01*
X77579764Y-21307309D01*
X77661818Y-21577808D01*
X77795068Y-21827101D01*
X77974393Y-22045608D01*
X78192900Y-22224932D01*
X78202814Y-22230231D01*
X78069105Y-22321500D01*
X77871399Y-22523161D01*
X77716834Y-22759517D01*
X77611350Y-23021486D01*
X77559000Y-23299000D01*
X77559000Y-23599000D01*
X78867000Y-23599000D01*
X78867000Y-23579000D01*
X79121000Y-23579000D01*
X79121000Y-23599000D01*
X80429000Y-23599000D01*
X80429000Y-23299000D01*
X80376650Y-23021486D01*
X80271166Y-22759517D01*
X80116601Y-22523161D01*
X79918895Y-22321500D01*
X79785187Y-22230231D01*
X79795101Y-22224932D01*
X79846469Y-22182775D01*
X85946830Y-22182775D01*
X86186976Y-22570018D01*
X86680877Y-22830641D01*
X87216133Y-22989901D01*
X87772174Y-23041678D01*
X88327632Y-22983981D01*
X88861161Y-22819028D01*
X89327024Y-22570018D01*
X89567170Y-22182775D01*
X87757000Y-20372605D01*
X85946830Y-22182775D01*
X79846469Y-22182775D01*
X80013608Y-22045608D01*
X80192932Y-21827101D01*
X80326182Y-21577808D01*
X80408236Y-21307308D01*
X80429000Y-21096491D01*
X80429000Y-20355508D01*
X80414054Y-20203764D01*
X80637957Y-20353371D01*
X80890011Y-20457775D01*
X81157589Y-20511000D01*
X81430411Y-20511000D01*
X81697989Y-20457775D01*
X81950043Y-20353371D01*
X82167345Y-20208174D01*
X84908322Y-20208174D01*
X84966019Y-20763632D01*
X85130972Y-21297161D01*
X85379982Y-21763024D01*
X85767225Y-22003170D01*
X87577395Y-20193000D01*
X85767225Y-18382830D01*
X85379982Y-18622976D01*
X85119359Y-19116877D01*
X84960099Y-19652133D01*
X84908322Y-20208174D01*
X82167345Y-20208174D01*
X82176886Y-20201799D01*
X82369799Y-20008886D01*
X82521371Y-19782043D01*
X82625775Y-19529989D01*
X82679000Y-19262411D01*
X82679000Y-18989589D01*
X82625775Y-18722011D01*
X82521371Y-18469957D01*
X82369799Y-18243114D01*
X82249185Y-18122500D01*
X85996891Y-18122500D01*
X85946830Y-18203225D01*
X87757000Y-20013395D01*
X87771143Y-19999253D01*
X87950748Y-20178858D01*
X87936605Y-20193000D01*
X89746775Y-22003170D01*
X89827501Y-21953108D01*
X89827500Y-42308891D01*
X89746775Y-42258830D01*
X87936605Y-44069000D01*
X87950748Y-44083143D01*
X87771143Y-44262748D01*
X87757000Y-44248605D01*
X85946830Y-46058775D01*
X86016581Y-46171250D01*
X30696419Y-46171250D01*
X30766170Y-46058775D01*
X28956000Y-44248605D01*
X28941858Y-44262748D01*
X28762253Y-44083143D01*
X28776395Y-44069000D01*
X29135605Y-44069000D01*
X30945775Y-45879170D01*
X31333018Y-45639024D01*
X31593641Y-45145123D01*
X31671022Y-44885053D01*
X31789000Y-44896672D01*
X33052270Y-44896672D01*
X33910351Y-45754753D01*
X33934149Y-45783751D01*
X33963147Y-45807549D01*
X34049873Y-45878724D01*
X34148602Y-45931496D01*
X34181903Y-45949296D01*
X34325164Y-45992753D01*
X34436817Y-46003750D01*
X34436827Y-46003750D01*
X34474149Y-46007426D01*
X34511472Y-46003750D01*
X81718928Y-46003750D01*
X81756250Y-46007426D01*
X81793572Y-46003750D01*
X81793583Y-46003750D01*
X81905236Y-45992753D01*
X82048497Y-45949296D01*
X82180526Y-45878724D01*
X82296251Y-45783751D01*
X82320054Y-45754747D01*
X83854754Y-44220048D01*
X83883751Y-44196251D01*
X83915345Y-44157754D01*
X83975730Y-44084174D01*
X84908322Y-44084174D01*
X84966019Y-44639632D01*
X85130972Y-45173161D01*
X85379982Y-45639024D01*
X85767225Y-45879170D01*
X87577395Y-44069000D01*
X85767225Y-42258830D01*
X85379982Y-42498976D01*
X85119359Y-42992877D01*
X84960099Y-43528133D01*
X84908322Y-44084174D01*
X83975730Y-44084174D01*
X83978724Y-44080527D01*
X84049296Y-43948497D01*
X84058061Y-43919602D01*
X84092753Y-43805236D01*
X84103750Y-43693583D01*
X84103750Y-43693574D01*
X84107426Y-43656251D01*
X84103750Y-43618928D01*
X84103750Y-42079225D01*
X85946830Y-42079225D01*
X87757000Y-43889395D01*
X89567170Y-42079225D01*
X89327024Y-41691982D01*
X88833123Y-41431359D01*
X88297867Y-41272099D01*
X87741826Y-41220322D01*
X87186368Y-41278019D01*
X86652839Y-41442972D01*
X86186976Y-41691982D01*
X85946830Y-42079225D01*
X84103750Y-42079225D01*
X84103750Y-33459075D01*
X84107426Y-33421750D01*
X84103750Y-33384425D01*
X84103750Y-33384417D01*
X84092753Y-33272764D01*
X84049296Y-33129503D01*
X83978724Y-32997474D01*
X83883751Y-32881749D01*
X83854753Y-32857951D01*
X83422072Y-32425271D01*
X83422072Y-31762000D01*
X83409812Y-31637518D01*
X83373502Y-31517820D01*
X83314537Y-31407506D01*
X83235185Y-31310815D01*
X83138494Y-31231463D01*
X83028180Y-31172498D01*
X82908482Y-31136188D01*
X82784000Y-31123928D01*
X82236000Y-31123928D01*
X82236000Y-30372322D01*
X82239676Y-30334999D01*
X82236000Y-30297676D01*
X82236000Y-30297667D01*
X82225003Y-30186014D01*
X82181546Y-30042753D01*
X82110974Y-29910724D01*
X82016001Y-29794999D01*
X81987003Y-29771201D01*
X80671311Y-28455509D01*
X82159000Y-28455509D01*
X82159000Y-29196492D01*
X82179764Y-29407309D01*
X82261818Y-29677808D01*
X82395068Y-29927101D01*
X82574393Y-30145608D01*
X82792900Y-30324932D01*
X83042193Y-30458182D01*
X83312692Y-30540236D01*
X83594000Y-30567943D01*
X83875309Y-30540236D01*
X84145808Y-30458182D01*
X84395101Y-30324932D01*
X84613608Y-30145608D01*
X84792932Y-29927101D01*
X84926182Y-29677808D01*
X85008236Y-29407308D01*
X85029000Y-29196491D01*
X85029000Y-28455508D01*
X85008236Y-28244691D01*
X84926182Y-27974192D01*
X84792932Y-27724899D01*
X84613607Y-27506392D01*
X84395100Y-27327068D01*
X84145807Y-27193818D01*
X83875308Y-27111764D01*
X83594000Y-27084057D01*
X83312691Y-27111764D01*
X83042192Y-27193818D01*
X82792899Y-27327068D01*
X82574392Y-27506393D01*
X82395068Y-27724900D01*
X82261818Y-27974193D01*
X82179764Y-28244692D01*
X82159000Y-28455509D01*
X80671311Y-28455509D01*
X80418536Y-28202734D01*
X80429000Y-28096491D01*
X80429000Y-27355508D01*
X80414054Y-27203764D01*
X80637957Y-27353371D01*
X80890011Y-27457775D01*
X81157589Y-27511000D01*
X81430411Y-27511000D01*
X81697989Y-27457775D01*
X81950043Y-27353371D01*
X82176886Y-27201799D01*
X82369799Y-27008886D01*
X82521371Y-26782043D01*
X82625775Y-26529989D01*
X82679000Y-26262411D01*
X82679000Y-25989589D01*
X82625775Y-25722011D01*
X82521371Y-25469957D01*
X82369799Y-25243114D01*
X82176886Y-25050201D01*
X81950043Y-24898629D01*
X81697989Y-24794225D01*
X81430411Y-24741000D01*
X81157589Y-24741000D01*
X80890011Y-24794225D01*
X80637957Y-24898629D01*
X80411114Y-25050201D01*
X80218201Y-25243114D01*
X80066629Y-25469957D01*
X79962225Y-25722011D01*
X79909000Y-25989589D01*
X79909000Y-26262411D01*
X79922819Y-26331884D01*
X79795100Y-26227068D01*
X79545807Y-26093818D01*
X79275308Y-26011764D01*
X78994000Y-25984057D01*
X78712691Y-26011764D01*
X78442192Y-26093818D01*
X78192899Y-26227068D01*
X78065181Y-26331884D01*
X78079000Y-26262411D01*
X78079000Y-25989589D01*
X78025775Y-25722011D01*
X77921371Y-25469957D01*
X77769799Y-25243114D01*
X77576886Y-25050201D01*
X77350043Y-24898629D01*
X77097989Y-24794225D01*
X76830411Y-24741000D01*
X76557589Y-24741000D01*
X76290011Y-24794225D01*
X76037957Y-24898629D01*
X75811114Y-25050201D01*
X75618201Y-25243114D01*
X75466629Y-25469957D01*
X75362225Y-25722011D01*
X75309000Y-25989589D01*
X75309000Y-26262411D01*
X75362225Y-26529989D01*
X75455870Y-26756069D01*
X75176304Y-26476503D01*
X75152501Y-26447499D01*
X75036776Y-26352526D01*
X74904747Y-26281954D01*
X74761486Y-26238497D01*
X74649833Y-26227500D01*
X74649822Y-26227500D01*
X74612500Y-26223824D01*
X74575178Y-26227500D01*
X73856072Y-26227500D01*
X73818749Y-26223824D01*
X73781426Y-26227500D01*
X73781417Y-26227500D01*
X73669764Y-26238497D01*
X73526503Y-26281954D01*
X73394473Y-26352526D01*
X73343919Y-26394015D01*
X73278749Y-26447499D01*
X73254951Y-26476497D01*
X70926503Y-28804946D01*
X70897499Y-28828749D01*
X70866655Y-28866333D01*
X70802526Y-28944474D01*
X70748925Y-29044754D01*
X70731954Y-29076504D01*
X70688497Y-29219765D01*
X70677500Y-29331418D01*
X70677500Y-29331428D01*
X70673824Y-29368750D01*
X70677500Y-29406073D01*
X70677501Y-30347629D01*
X70642932Y-30173842D01*
X70530990Y-29903589D01*
X70368475Y-29660368D01*
X70161632Y-29453525D01*
X69987240Y-29337000D01*
X70161632Y-29220475D01*
X70368475Y-29013632D01*
X70530990Y-28770411D01*
X70642932Y-28500158D01*
X70700000Y-28213260D01*
X70700000Y-27920740D01*
X70642932Y-27633842D01*
X70530990Y-27363589D01*
X70368475Y-27120368D01*
X70161632Y-26913525D01*
X69918411Y-26751010D01*
X69648158Y-26639068D01*
X69361260Y-26582000D01*
X69068740Y-26582000D01*
X68781842Y-26639068D01*
X68511589Y-26751010D01*
X68268368Y-26913525D01*
X68061525Y-27120368D01*
X67899010Y-27363589D01*
X67787068Y-27633842D01*
X67730000Y-27920740D01*
X67730000Y-28213260D01*
X67787068Y-28500158D01*
X67899010Y-28770411D01*
X68061525Y-29013632D01*
X68268368Y-29220475D01*
X68442760Y-29337000D01*
X68268368Y-29453525D01*
X68061525Y-29660368D01*
X67899010Y-29903589D01*
X67787068Y-30173842D01*
X67730000Y-30460740D01*
X67730000Y-30587199D01*
X67238804Y-30096003D01*
X67215001Y-30066999D01*
X67099276Y-29972026D01*
X66967247Y-29901454D01*
X66823986Y-29857997D01*
X66712333Y-29847000D01*
X66712322Y-29847000D01*
X66681125Y-29843927D01*
X66558475Y-29660368D01*
X66351632Y-29453525D01*
X66178271Y-29337689D01*
X66253792Y-29095397D01*
X65405000Y-28246605D01*
X65390858Y-28260748D01*
X65211253Y-28081143D01*
X65225395Y-28067000D01*
X65584605Y-28067000D01*
X66433397Y-28915792D01*
X66682472Y-28838157D01*
X66808371Y-28574117D01*
X66880339Y-28290589D01*
X66895611Y-27998469D01*
X66853599Y-27708981D01*
X66755919Y-27433253D01*
X66682472Y-27295843D01*
X66433397Y-27218208D01*
X65584605Y-28067000D01*
X65225395Y-28067000D01*
X65211253Y-28052858D01*
X65390858Y-27873253D01*
X65405000Y-27887395D01*
X66253792Y-27038603D01*
X66176157Y-26789528D01*
X65912117Y-26663629D01*
X65628589Y-26591661D01*
X65336469Y-26576389D01*
X65046981Y-26618401D01*
X64771253Y-26716081D01*
X64633843Y-26789528D01*
X64556209Y-27038601D01*
X64440104Y-26922496D01*
X64387000Y-26975600D01*
X64387000Y-26580325D01*
X64390676Y-26543000D01*
X64387000Y-26505675D01*
X64387000Y-26505667D01*
X64376003Y-26394014D01*
X64332546Y-26250753D01*
X64261974Y-26118724D01*
X64167001Y-26002999D01*
X64138004Y-25979202D01*
X60802844Y-22644042D01*
X63298000Y-22644042D01*
X63298000Y-22975958D01*
X63362754Y-23301496D01*
X63489772Y-23608147D01*
X63674175Y-23884125D01*
X63908875Y-24118825D01*
X64184853Y-24303228D01*
X64491504Y-24430246D01*
X64817042Y-24495000D01*
X65148958Y-24495000D01*
X65474496Y-24430246D01*
X65781147Y-24303228D01*
X66057125Y-24118825D01*
X66291825Y-23884125D01*
X66476228Y-23608147D01*
X66603246Y-23301496D01*
X66668000Y-22975958D01*
X66668000Y-22644042D01*
X66603246Y-22318504D01*
X66476228Y-22011853D01*
X66332487Y-21796730D01*
X66354963Y-21793501D01*
X66635474Y-21694572D01*
X66778975Y-21617868D01*
X66859635Y-21366240D01*
X65993000Y-20499605D01*
X65978858Y-20513748D01*
X65799253Y-20334143D01*
X65813395Y-20320000D01*
X66172605Y-20320000D01*
X67039240Y-21186635D01*
X67290868Y-21105975D01*
X67419267Y-20837671D01*
X67492855Y-20549474D01*
X67508804Y-20252457D01*
X67466501Y-19958037D01*
X67367572Y-19677526D01*
X67290868Y-19534025D01*
X67039240Y-19453365D01*
X66172605Y-20320000D01*
X65813395Y-20320000D01*
X64946760Y-19453365D01*
X64695132Y-19534025D01*
X64566733Y-19802329D01*
X64493145Y-20090526D01*
X64477196Y-20387543D01*
X64519499Y-20681963D01*
X64618428Y-20962474D01*
X64695132Y-21105975D01*
X64778438Y-21132679D01*
X64491504Y-21189754D01*
X64184853Y-21316772D01*
X63908875Y-21501175D01*
X63674175Y-21735875D01*
X63489772Y-22011853D01*
X63362754Y-22318504D01*
X63298000Y-22644042D01*
X60802844Y-22644042D01*
X60380804Y-22222003D01*
X60357001Y-22192999D01*
X60241276Y-22098026D01*
X60116829Y-22031507D01*
X60382740Y-22084400D01*
X60675260Y-22084400D01*
X60962158Y-22027332D01*
X61232411Y-21915390D01*
X61475632Y-21752875D01*
X61682475Y-21546032D01*
X61844990Y-21302811D01*
X61956932Y-21032558D01*
X62014000Y-20745660D01*
X62014000Y-20453140D01*
X61956932Y-20166242D01*
X61844990Y-19895989D01*
X61682475Y-19652768D01*
X61475632Y-19445925D01*
X61232411Y-19283410D01*
X61209114Y-19273760D01*
X65126365Y-19273760D01*
X65993000Y-20140395D01*
X66859635Y-19273760D01*
X66778975Y-19022132D01*
X66510671Y-18893733D01*
X66222474Y-18820145D01*
X65925457Y-18804196D01*
X65631037Y-18846499D01*
X65350526Y-18945428D01*
X65207025Y-19022132D01*
X65126365Y-19273760D01*
X61209114Y-19273760D01*
X60962158Y-19171468D01*
X60675260Y-19114400D01*
X60382740Y-19114400D01*
X60095842Y-19171468D01*
X59825589Y-19283410D01*
X59582368Y-19445925D01*
X59375525Y-19652768D01*
X59213010Y-19895989D01*
X59129678Y-20097171D01*
X58935632Y-19903125D01*
X58692411Y-19740610D01*
X58422158Y-19628668D01*
X58135260Y-19571600D01*
X57842740Y-19571600D01*
X57555842Y-19628668D01*
X57285589Y-19740610D01*
X57042368Y-19903125D01*
X56848322Y-20097171D01*
X56764990Y-19895989D01*
X56602475Y-19652768D01*
X56395632Y-19445925D01*
X56152411Y-19283410D01*
X55882158Y-19171468D01*
X55595260Y-19114400D01*
X55302740Y-19114400D01*
X55015842Y-19171468D01*
X54745589Y-19283410D01*
X54502368Y-19445925D01*
X54295525Y-19652768D01*
X54133010Y-19895989D01*
X54049678Y-20097171D01*
X53855632Y-19903125D01*
X53612411Y-19740610D01*
X53342158Y-19628668D01*
X53055260Y-19571600D01*
X52762740Y-19571600D01*
X52475842Y-19628668D01*
X52205589Y-19740610D01*
X51962368Y-19903125D01*
X51768322Y-20097171D01*
X51684990Y-19895989D01*
X51522475Y-19652768D01*
X51315632Y-19445925D01*
X51072411Y-19283410D01*
X50802158Y-19171468D01*
X50515260Y-19114400D01*
X50222740Y-19114400D01*
X49935842Y-19171468D01*
X49665589Y-19283410D01*
X49422368Y-19445925D01*
X49215525Y-19652768D01*
X49053010Y-19895989D01*
X48969678Y-20097171D01*
X48775632Y-19903125D01*
X48532411Y-19740610D01*
X48262158Y-19628668D01*
X47975260Y-19571600D01*
X47682740Y-19571600D01*
X47395842Y-19628668D01*
X47125589Y-19740610D01*
X46882368Y-19903125D01*
X46723677Y-20061816D01*
X46654990Y-19895989D01*
X46492475Y-19652768D01*
X46285632Y-19445925D01*
X46042411Y-19283410D01*
X45772158Y-19171468D01*
X45485260Y-19114400D01*
X45192740Y-19114400D01*
X44905842Y-19171468D01*
X44635589Y-19283410D01*
X44392368Y-19445925D01*
X44185525Y-19652768D01*
X44023010Y-19895989D01*
X43939678Y-20097171D01*
X43745632Y-19903125D01*
X43502411Y-19740610D01*
X43232158Y-19628668D01*
X42945260Y-19571600D01*
X42652740Y-19571600D01*
X42365842Y-19628668D01*
X42095589Y-19740610D01*
X41852368Y-19903125D01*
X41658322Y-20097171D01*
X41574990Y-19895989D01*
X41412475Y-19652768D01*
X41205632Y-19445925D01*
X40962411Y-19283410D01*
X40692158Y-19171468D01*
X40405260Y-19114400D01*
X40112740Y-19114400D01*
X39825842Y-19171468D01*
X39555589Y-19283410D01*
X39312368Y-19445925D01*
X39105525Y-19652768D01*
X38943010Y-19895989D01*
X38859678Y-20097171D01*
X38665632Y-19903125D01*
X38422411Y-19740610D01*
X38152158Y-19628668D01*
X37865260Y-19571600D01*
X37572740Y-19571600D01*
X37285842Y-19628668D01*
X37015589Y-19740610D01*
X36772368Y-19903125D01*
X36571386Y-20104107D01*
X36523157Y-19968148D01*
X36374178Y-19718045D01*
X36179269Y-19501812D01*
X35945920Y-19327759D01*
X35683099Y-19202575D01*
X35535890Y-19157924D01*
X35306000Y-19279245D01*
X35306000Y-20472400D01*
X35326000Y-20472400D01*
X35326000Y-20726400D01*
X35306000Y-20726400D01*
X35306000Y-21919555D01*
X35535890Y-22040876D01*
X35683099Y-21996225D01*
X35945920Y-21871041D01*
X36179269Y-21696988D01*
X36314680Y-21546762D01*
X36403010Y-21760011D01*
X36565525Y-22003232D01*
X36772368Y-22210075D01*
X37015589Y-22372590D01*
X37285842Y-22484532D01*
X37572740Y-22541600D01*
X37865260Y-22541600D01*
X38152158Y-22484532D01*
X38422411Y-22372590D01*
X38665632Y-22210075D01*
X38872475Y-22003232D01*
X39034990Y-21760011D01*
X39118322Y-21558829D01*
X39312368Y-21752875D01*
X39555589Y-21915390D01*
X39717839Y-21982596D01*
X39703614Y-21983997D01*
X39560353Y-22027454D01*
X39428324Y-22098026D01*
X39312599Y-22192999D01*
X39288801Y-22221997D01*
X38332502Y-23178296D01*
X38286830Y-23159378D01*
X37994850Y-23101300D01*
X37697150Y-23101300D01*
X37405170Y-23159378D01*
X37130131Y-23273303D01*
X36882602Y-23438696D01*
X36714558Y-23606740D01*
X36645297Y-23439531D01*
X36479904Y-23192002D01*
X36269398Y-22981496D01*
X36021869Y-22816103D01*
X35746830Y-22702178D01*
X35454850Y-22644100D01*
X35157150Y-22644100D01*
X34865170Y-22702178D01*
X34590131Y-22816103D01*
X34342602Y-22981496D01*
X34132096Y-23192002D01*
X33966703Y-23439531D01*
X33852778Y-23714570D01*
X33844704Y-23755160D01*
X33813169Y-23745037D01*
X32945605Y-24612600D01*
X33813169Y-25480163D01*
X34064929Y-25399346D01*
X34177486Y-25164188D01*
X34342602Y-25329304D01*
X34590131Y-25494697D01*
X34865170Y-25608622D01*
X35157150Y-25666700D01*
X35454850Y-25666700D01*
X35746830Y-25608622D01*
X36021869Y-25494697D01*
X36269398Y-25329304D01*
X36437442Y-25161260D01*
X36506703Y-25328469D01*
X36672096Y-25575998D01*
X36882602Y-25786504D01*
X37130131Y-25951897D01*
X37405170Y-26065822D01*
X37697150Y-26123900D01*
X37994850Y-26123900D01*
X38286830Y-26065822D01*
X38561869Y-25951897D01*
X38809398Y-25786504D01*
X39019904Y-25575998D01*
X39185297Y-25328469D01*
X39254558Y-25161260D01*
X39422602Y-25329304D01*
X39670131Y-25494697D01*
X39945170Y-25608622D01*
X40237150Y-25666700D01*
X40534850Y-25666700D01*
X40826830Y-25608622D01*
X41101869Y-25494697D01*
X41349398Y-25329304D01*
X41517442Y-25161260D01*
X41586703Y-25328469D01*
X41752096Y-25575998D01*
X41962602Y-25786504D01*
X42210131Y-25951897D01*
X42485170Y-26065822D01*
X42777150Y-26123900D01*
X43074850Y-26123900D01*
X43366830Y-26065822D01*
X43641869Y-25951897D01*
X43889398Y-25786504D01*
X44099904Y-25575998D01*
X44265297Y-25328469D01*
X44334558Y-25161260D01*
X44502602Y-25329304D01*
X44750131Y-25494697D01*
X45025170Y-25608622D01*
X45317150Y-25666700D01*
X45614850Y-25666700D01*
X45906830Y-25608622D01*
X46181869Y-25494697D01*
X46429398Y-25329304D01*
X46597442Y-25161260D01*
X46666703Y-25328469D01*
X46832096Y-25575998D01*
X47042602Y-25786504D01*
X47290131Y-25951897D01*
X47565170Y-26065822D01*
X47857150Y-26123900D01*
X48154850Y-26123900D01*
X48446830Y-26065822D01*
X48721869Y-25951897D01*
X48969398Y-25786504D01*
X49179904Y-25575998D01*
X49345297Y-25328469D01*
X49414558Y-25161260D01*
X49582602Y-25329304D01*
X49830131Y-25494697D01*
X50105170Y-25608622D01*
X50397150Y-25666700D01*
X50694850Y-25666700D01*
X50986830Y-25608622D01*
X51261869Y-25494697D01*
X51509398Y-25329304D01*
X51677442Y-25161260D01*
X51746703Y-25328469D01*
X51912096Y-25575998D01*
X52122602Y-25786504D01*
X52370131Y-25951897D01*
X52645170Y-26065822D01*
X52937150Y-26123900D01*
X53234850Y-26123900D01*
X53526830Y-26065822D01*
X53801869Y-25951897D01*
X54049398Y-25786504D01*
X54259904Y-25575998D01*
X54425297Y-25328469D01*
X54494558Y-25161260D01*
X54662602Y-25329304D01*
X54910131Y-25494697D01*
X55185170Y-25608622D01*
X55477150Y-25666700D01*
X55774850Y-25666700D01*
X56066830Y-25608622D01*
X56341869Y-25494697D01*
X56589398Y-25329304D01*
X56757442Y-25161260D01*
X56826703Y-25328469D01*
X56992096Y-25575998D01*
X57202602Y-25786504D01*
X57317813Y-25863485D01*
X57220696Y-25960602D01*
X57055303Y-26208131D01*
X56941378Y-26483170D01*
X56883300Y-26775150D01*
X56883300Y-27072850D01*
X56941378Y-27364830D01*
X57055303Y-27639869D01*
X57220696Y-27887398D01*
X57388740Y-28055442D01*
X57221531Y-28124703D01*
X56974002Y-28290096D01*
X56763496Y-28500602D01*
X56598103Y-28748131D01*
X56484178Y-29023170D01*
X56426100Y-29315150D01*
X56426100Y-29612850D01*
X56484178Y-29904830D01*
X56598103Y-30179869D01*
X56763496Y-30427398D01*
X56974002Y-30637904D01*
X57221531Y-30803297D01*
X57388740Y-30872558D01*
X57220696Y-31040602D01*
X57055303Y-31288131D01*
X56941378Y-31563170D01*
X56883300Y-31855150D01*
X56883300Y-32152850D01*
X56941378Y-32444830D01*
X57055303Y-32719869D01*
X57220696Y-32967398D01*
X57388740Y-33135442D01*
X57221531Y-33204703D01*
X56974002Y-33370096D01*
X56763496Y-33580602D01*
X56598103Y-33828131D01*
X56484178Y-34103170D01*
X56426100Y-34395150D01*
X56426100Y-34692850D01*
X56431301Y-34719000D01*
X50570054Y-28857753D01*
X50546251Y-28828749D01*
X50430526Y-28733776D01*
X50298497Y-28663204D01*
X50155236Y-28619747D01*
X50043583Y-28608750D01*
X50043572Y-28608750D01*
X50006250Y-28605074D01*
X49968928Y-28608750D01*
X47534961Y-28608750D01*
X47491024Y-28564813D01*
X47321506Y-28451545D01*
X47133148Y-28373524D01*
X46933189Y-28333750D01*
X46729311Y-28333750D01*
X46529352Y-28373524D01*
X46340994Y-28451545D01*
X46171476Y-28564813D01*
X46127539Y-28608750D01*
X42745565Y-28608750D01*
X42731537Y-28582506D01*
X42652185Y-28485815D01*
X42555494Y-28406463D01*
X42445180Y-28347498D01*
X42325482Y-28311188D01*
X42201000Y-28298928D01*
X40301000Y-28298928D01*
X40176518Y-28311188D01*
X40056820Y-28347498D01*
X39946506Y-28406463D01*
X39849815Y-28485815D01*
X39770463Y-28582506D01*
X39761857Y-28598607D01*
X39677250Y-28514000D01*
X38378000Y-28514000D01*
X38378000Y-28534000D01*
X38124000Y-28534000D01*
X38124000Y-28514000D01*
X36824750Y-28514000D01*
X36666000Y-28672750D01*
X36662928Y-28787000D01*
X36675188Y-28911482D01*
X36711498Y-29031180D01*
X36770463Y-29141494D01*
X36849815Y-29238185D01*
X36946506Y-29317537D01*
X36982918Y-29337000D01*
X36946506Y-29356463D01*
X36849815Y-29435815D01*
X36770463Y-29532506D01*
X36711498Y-29642820D01*
X36675188Y-29762518D01*
X36662928Y-29887000D01*
X36662928Y-30687000D01*
X36675188Y-30811482D01*
X36711498Y-30931180D01*
X36770463Y-31041494D01*
X36849815Y-31138185D01*
X36946506Y-31217537D01*
X37056820Y-31276502D01*
X37176518Y-31312812D01*
X37301000Y-31325072D01*
X37491000Y-31325072D01*
X37491001Y-32543928D01*
X37430000Y-32543928D01*
X37305518Y-32556188D01*
X37185820Y-32592498D01*
X37075506Y-32651463D01*
X36978815Y-32730815D01*
X36899463Y-32827506D01*
X36840498Y-32937820D01*
X36830000Y-32972427D01*
X36819502Y-32937820D01*
X36760537Y-32827506D01*
X36681185Y-32730815D01*
X36584494Y-32651463D01*
X36474180Y-32592498D01*
X36354482Y-32556188D01*
X36230000Y-32543928D01*
X35765750Y-32547000D01*
X35607000Y-32705750D01*
X35607000Y-32894394D01*
X35353000Y-32895062D01*
X35353000Y-32705750D01*
X35194250Y-32547000D01*
X34730000Y-32543928D01*
X34605518Y-32556188D01*
X34485820Y-32592498D01*
X34375506Y-32651463D01*
X34278815Y-32730815D01*
X34199463Y-32827506D01*
X34140498Y-32937820D01*
X34127597Y-32980347D01*
X34044250Y-32897000D01*
X33636467Y-32895928D01*
X33743097Y-32789298D01*
X33671514Y-32545329D01*
X33416004Y-32424429D01*
X33141816Y-32355700D01*
X32859488Y-32341783D01*
X32579870Y-32383213D01*
X32313708Y-32478397D01*
X32188486Y-32545329D01*
X32116903Y-32789298D01*
X32419910Y-33092305D01*
X32352668Y-33172756D01*
X32292715Y-33282536D01*
X32282750Y-33314355D01*
X31937298Y-32968903D01*
X31693329Y-33040486D01*
X31572429Y-33295996D01*
X31503700Y-33570184D01*
X31489783Y-33852512D01*
X31531213Y-34132130D01*
X31626397Y-34398292D01*
X31693329Y-34523514D01*
X31937298Y-34595097D01*
X32282750Y-34249645D01*
X32292715Y-34281464D01*
X32352668Y-34391244D01*
X32419910Y-34471695D01*
X32116903Y-34774702D01*
X32188486Y-35018671D01*
X32443996Y-35139571D01*
X32718184Y-35208300D01*
X33000512Y-35222217D01*
X33280130Y-35180787D01*
X33546292Y-35085603D01*
X33671514Y-35018671D01*
X33743097Y-34774702D01*
X33636467Y-34668072D01*
X34044250Y-34667000D01*
X34127597Y-34583653D01*
X34140498Y-34626180D01*
X34199463Y-34736494D01*
X34278815Y-34833185D01*
X34375506Y-34912537D01*
X34485820Y-34971502D01*
X34605518Y-35007812D01*
X34730000Y-35020072D01*
X35194250Y-35017000D01*
X35353000Y-34858250D01*
X35353000Y-34668938D01*
X35607000Y-34669606D01*
X35607000Y-34858250D01*
X35765750Y-35017000D01*
X36230000Y-35020072D01*
X36354482Y-35007812D01*
X36474180Y-34971502D01*
X36584494Y-34912537D01*
X36681185Y-34833185D01*
X36760537Y-34736494D01*
X36819502Y-34626180D01*
X36830000Y-34591573D01*
X36840498Y-34626180D01*
X36899463Y-34736494D01*
X36978815Y-34833185D01*
X37075506Y-34912537D01*
X37185820Y-34971502D01*
X37305518Y-35007812D01*
X37430000Y-35020072D01*
X38930000Y-35020072D01*
X39054482Y-35007812D01*
X39174180Y-34971502D01*
X39284494Y-34912537D01*
X39381185Y-34833185D01*
X39460537Y-34736494D01*
X39496041Y-34670072D01*
X39597531Y-34670072D01*
X39615363Y-34696759D01*
X39815241Y-34896637D01*
X40050273Y-35053680D01*
X40311426Y-35161853D01*
X40588665Y-35217000D01*
X40871335Y-35217000D01*
X41148574Y-35161853D01*
X41409727Y-35053680D01*
X41644759Y-34896637D01*
X41844637Y-34696759D01*
X42001680Y-34461727D01*
X42109853Y-34200574D01*
X42165000Y-33923335D01*
X42165000Y-33640665D01*
X42128688Y-33458114D01*
X42568803Y-33018000D01*
X51755199Y-33018000D01*
X56332201Y-37595003D01*
X56355999Y-37624001D01*
X56471724Y-37718974D01*
X56603753Y-37789546D01*
X56747014Y-37833003D01*
X56858667Y-37844000D01*
X56858675Y-37844000D01*
X56896000Y-37847676D01*
X56933325Y-37844000D01*
X57084790Y-37844000D01*
X57220696Y-38047398D01*
X57317813Y-38144515D01*
X57202602Y-38221496D01*
X56992096Y-38432002D01*
X56826703Y-38679531D01*
X56757442Y-38846740D01*
X56589398Y-38678696D01*
X56341869Y-38513303D01*
X56066830Y-38399378D01*
X55774850Y-38341300D01*
X55477150Y-38341300D01*
X55185170Y-38399378D01*
X54910131Y-38513303D01*
X54662602Y-38678696D01*
X54494558Y-38846740D01*
X54425297Y-38679531D01*
X54259904Y-38432002D01*
X54049398Y-38221496D01*
X53801869Y-38056103D01*
X53526830Y-37942178D01*
X53234850Y-37884100D01*
X52937150Y-37884100D01*
X52645170Y-37942178D01*
X52370131Y-38056103D01*
X52122602Y-38221496D01*
X51912096Y-38432002D01*
X51746703Y-38679531D01*
X51677442Y-38846740D01*
X51509398Y-38678696D01*
X51261869Y-38513303D01*
X50986830Y-38399378D01*
X50694850Y-38341300D01*
X50397150Y-38341300D01*
X50105170Y-38399378D01*
X49830131Y-38513303D01*
X49582602Y-38678696D01*
X49414558Y-38846740D01*
X49345297Y-38679531D01*
X49179904Y-38432002D01*
X48969398Y-38221496D01*
X48721869Y-38056103D01*
X48446830Y-37942178D01*
X48154850Y-37884100D01*
X47857150Y-37884100D01*
X47565170Y-37942178D01*
X47290131Y-38056103D01*
X47042602Y-38221496D01*
X46832096Y-38432002D01*
X46666703Y-38679531D01*
X46597442Y-38846740D01*
X46429398Y-38678696D01*
X46181869Y-38513303D01*
X45906830Y-38399378D01*
X45614850Y-38341300D01*
X45317150Y-38341300D01*
X45025170Y-38399378D01*
X44750131Y-38513303D01*
X44502602Y-38678696D01*
X44334558Y-38846740D01*
X44265297Y-38679531D01*
X44099904Y-38432002D01*
X43889398Y-38221496D01*
X43641869Y-38056103D01*
X43366830Y-37942178D01*
X43074850Y-37884100D01*
X42777150Y-37884100D01*
X42485170Y-37942178D01*
X42210131Y-38056103D01*
X41962602Y-38221496D01*
X41752096Y-38432002D01*
X41586703Y-38679531D01*
X41517442Y-38846740D01*
X41349398Y-38678696D01*
X41101869Y-38513303D01*
X40826830Y-38399378D01*
X40534850Y-38341300D01*
X40237150Y-38341300D01*
X39945170Y-38399378D01*
X39670131Y-38513303D01*
X39422602Y-38678696D01*
X39254914Y-38846384D01*
X39221802Y-38752473D01*
X39144929Y-38608654D01*
X38893169Y-38527837D01*
X38025605Y-39395400D01*
X38893169Y-40262963D01*
X38924704Y-40252840D01*
X38932778Y-40293430D01*
X39046703Y-40568469D01*
X39212096Y-40815998D01*
X39422602Y-41026504D01*
X39670131Y-41191897D01*
X39945170Y-41305822D01*
X40237150Y-41363900D01*
X40534850Y-41363900D01*
X40826830Y-41305822D01*
X41101869Y-41191897D01*
X41349398Y-41026504D01*
X41559904Y-40815998D01*
X41725297Y-40568469D01*
X41794558Y-40401260D01*
X41962602Y-40569304D01*
X42210131Y-40734697D01*
X42485170Y-40848622D01*
X42777150Y-40906700D01*
X43074850Y-40906700D01*
X43366830Y-40848622D01*
X43641869Y-40734697D01*
X43889398Y-40569304D01*
X44057442Y-40401260D01*
X44126703Y-40568469D01*
X44292096Y-40815998D01*
X44502602Y-41026504D01*
X44750131Y-41191897D01*
X45025170Y-41305822D01*
X45317150Y-41363900D01*
X45614850Y-41363900D01*
X45906830Y-41305822D01*
X46181869Y-41191897D01*
X46429398Y-41026504D01*
X46639904Y-40815998D01*
X46805297Y-40568469D01*
X46874558Y-40401260D01*
X47042602Y-40569304D01*
X47290131Y-40734697D01*
X47565170Y-40848622D01*
X47857150Y-40906700D01*
X48154850Y-40906700D01*
X48446830Y-40848622D01*
X48721869Y-40734697D01*
X48969398Y-40569304D01*
X49137442Y-40401260D01*
X49206703Y-40568469D01*
X49372096Y-40815998D01*
X49582602Y-41026504D01*
X49830131Y-41191897D01*
X50105170Y-41305822D01*
X50397150Y-41363900D01*
X50694850Y-41363900D01*
X50986830Y-41305822D01*
X51261869Y-41191897D01*
X51509398Y-41026504D01*
X51719904Y-40815998D01*
X51885297Y-40568469D01*
X51954558Y-40401260D01*
X52122602Y-40569304D01*
X52370131Y-40734697D01*
X52645170Y-40848622D01*
X52937150Y-40906700D01*
X53234850Y-40906700D01*
X53526830Y-40848622D01*
X53801869Y-40734697D01*
X54049398Y-40569304D01*
X54217442Y-40401260D01*
X54286703Y-40568469D01*
X54452096Y-40815998D01*
X54662602Y-41026504D01*
X54910131Y-41191897D01*
X55185170Y-41305822D01*
X55477150Y-41363900D01*
X55774850Y-41363900D01*
X56066830Y-41305822D01*
X56341869Y-41191897D01*
X56589398Y-41026504D01*
X56799904Y-40815998D01*
X56965297Y-40568469D01*
X57034558Y-40401260D01*
X57202602Y-40569304D01*
X57450131Y-40734697D01*
X57725170Y-40848622D01*
X58017150Y-40906700D01*
X58314850Y-40906700D01*
X58606830Y-40848622D01*
X58881869Y-40734697D01*
X59129398Y-40569304D01*
X59339904Y-40358798D01*
X59505297Y-40111269D01*
X59619222Y-39836230D01*
X59677300Y-39544250D01*
X59677300Y-39246550D01*
X59619222Y-38954570D01*
X59505297Y-38679531D01*
X59339904Y-38432002D01*
X59242787Y-38334885D01*
X59357998Y-38257904D01*
X59568504Y-38047398D01*
X59733897Y-37799869D01*
X59847822Y-37524830D01*
X59905900Y-37232850D01*
X59905900Y-36935150D01*
X59847822Y-36643170D01*
X59847627Y-36642699D01*
X60526041Y-36642699D01*
X60522668Y-36650842D01*
X60465600Y-36937740D01*
X60465600Y-37230260D01*
X60522668Y-37517158D01*
X60634610Y-37787411D01*
X60797125Y-38030632D01*
X61003968Y-38237475D01*
X61247189Y-38399990D01*
X61517442Y-38511932D01*
X61804340Y-38569000D01*
X62096860Y-38569000D01*
X62383758Y-38511932D01*
X62654011Y-38399990D01*
X62897232Y-38237475D01*
X63104075Y-38030632D01*
X63266590Y-37787411D01*
X63378532Y-37517158D01*
X63387047Y-37474349D01*
X64899001Y-38986303D01*
X64899000Y-41108190D01*
X64695602Y-41244096D01*
X64485096Y-41454602D01*
X64319703Y-41702131D01*
X64205778Y-41977170D01*
X64147700Y-42269150D01*
X64147700Y-42566850D01*
X64205778Y-42858830D01*
X64319703Y-43133869D01*
X64485096Y-43381398D01*
X64695602Y-43591904D01*
X64943131Y-43757297D01*
X65103203Y-43823601D01*
X61732208Y-43823601D01*
X61844990Y-43654811D01*
X61956932Y-43384558D01*
X62014000Y-43097660D01*
X62014000Y-42805140D01*
X61956932Y-42518242D01*
X61844990Y-42247989D01*
X61682475Y-42004768D01*
X61475632Y-41797925D01*
X61232411Y-41635410D01*
X60962158Y-41523468D01*
X60675260Y-41466400D01*
X60382740Y-41466400D01*
X60095842Y-41523468D01*
X59825589Y-41635410D01*
X59582368Y-41797925D01*
X59375525Y-42004768D01*
X59213010Y-42247989D01*
X59129678Y-42449171D01*
X58935632Y-42255125D01*
X58692411Y-42092610D01*
X58422158Y-41980668D01*
X58135260Y-41923600D01*
X57842740Y-41923600D01*
X57555842Y-41980668D01*
X57285589Y-42092610D01*
X57042368Y-42255125D01*
X56848322Y-42449171D01*
X56764990Y-42247989D01*
X56602475Y-42004768D01*
X56395632Y-41797925D01*
X56152411Y-41635410D01*
X55882158Y-41523468D01*
X55595260Y-41466400D01*
X55302740Y-41466400D01*
X55015842Y-41523468D01*
X54745589Y-41635410D01*
X54502368Y-41797925D01*
X54295525Y-42004768D01*
X54133010Y-42247989D01*
X54049678Y-42449171D01*
X53855632Y-42255125D01*
X53612411Y-42092610D01*
X53342158Y-41980668D01*
X53055260Y-41923600D01*
X52762740Y-41923600D01*
X52475842Y-41980668D01*
X52205589Y-42092610D01*
X51962368Y-42255125D01*
X51768322Y-42449171D01*
X51684990Y-42247989D01*
X51522475Y-42004768D01*
X51315632Y-41797925D01*
X51072411Y-41635410D01*
X50802158Y-41523468D01*
X50515260Y-41466400D01*
X50222740Y-41466400D01*
X49935842Y-41523468D01*
X49665589Y-41635410D01*
X49422368Y-41797925D01*
X49215525Y-42004768D01*
X49053010Y-42247989D01*
X48969678Y-42449171D01*
X48775632Y-42255125D01*
X48532411Y-42092610D01*
X48262158Y-41980668D01*
X47975260Y-41923600D01*
X47682740Y-41923600D01*
X47395842Y-41980668D01*
X47125589Y-42092610D01*
X46882368Y-42255125D01*
X46723677Y-42413816D01*
X46654990Y-42247989D01*
X46492475Y-42004768D01*
X46285632Y-41797925D01*
X46042411Y-41635410D01*
X45772158Y-41523468D01*
X45485260Y-41466400D01*
X45192740Y-41466400D01*
X44905842Y-41523468D01*
X44635589Y-41635410D01*
X44392368Y-41797925D01*
X44185525Y-42004768D01*
X44023010Y-42247989D01*
X43939678Y-42449171D01*
X43745632Y-42255125D01*
X43502411Y-42092610D01*
X43232158Y-41980668D01*
X42945260Y-41923600D01*
X42652740Y-41923600D01*
X42365842Y-41980668D01*
X42095589Y-42092610D01*
X41852368Y-42255125D01*
X41651386Y-42456107D01*
X41603157Y-42320148D01*
X41454178Y-42070045D01*
X41259269Y-41853812D01*
X41025920Y-41679759D01*
X40763099Y-41554575D01*
X40615890Y-41509924D01*
X40386000Y-41631245D01*
X40386000Y-42824400D01*
X40406000Y-42824400D01*
X40406000Y-43078400D01*
X40386000Y-43078400D01*
X40386000Y-44271555D01*
X40615890Y-44392876D01*
X40763099Y-44348225D01*
X41025920Y-44223041D01*
X41259269Y-44048988D01*
X41394680Y-43898762D01*
X41483010Y-44112011D01*
X41645525Y-44355232D01*
X41774043Y-44483750D01*
X38739494Y-44483750D01*
X38914178Y-44289955D01*
X39063157Y-44039852D01*
X39116062Y-43890710D01*
X39258731Y-44048988D01*
X39492080Y-44223041D01*
X39754901Y-44348225D01*
X39902110Y-44392876D01*
X40132000Y-44271555D01*
X40132000Y-43078400D01*
X40112000Y-43078400D01*
X40112000Y-42824400D01*
X40132000Y-42824400D01*
X40132000Y-41631245D01*
X39902110Y-41509924D01*
X39754901Y-41554575D01*
X39492080Y-41679759D01*
X39258731Y-41853812D01*
X39063822Y-42070045D01*
X38914843Y-42320148D01*
X38861938Y-42469290D01*
X38719269Y-42311012D01*
X38485920Y-42136959D01*
X38223099Y-42011775D01*
X38075890Y-41967124D01*
X37846000Y-42088445D01*
X37846000Y-43281600D01*
X37866000Y-43281600D01*
X37866000Y-43535600D01*
X37846000Y-43535600D01*
X37846000Y-43555600D01*
X37592000Y-43555600D01*
X37592000Y-43535600D01*
X37572000Y-43535600D01*
X37572000Y-43281600D01*
X37592000Y-43281600D01*
X37592000Y-42088445D01*
X37362110Y-41967124D01*
X37214901Y-42011775D01*
X36952080Y-42136959D01*
X36718731Y-42311012D01*
X36583320Y-42461238D01*
X36494990Y-42247989D01*
X36332475Y-42004768D01*
X36125632Y-41797925D01*
X35882411Y-41635410D01*
X35612158Y-41523468D01*
X35325260Y-41466400D01*
X35032740Y-41466400D01*
X34745842Y-41523468D01*
X34475589Y-41635410D01*
X34232368Y-41797925D01*
X34025525Y-42004768D01*
X33949420Y-42118668D01*
X33940185Y-42107415D01*
X33843494Y-42028063D01*
X33733180Y-41969098D01*
X33613482Y-41932788D01*
X33489000Y-41920528D01*
X31789000Y-41920528D01*
X31664518Y-41932788D01*
X31544820Y-41969098D01*
X31434506Y-42028063D01*
X31337815Y-42107415D01*
X31258463Y-42204106D01*
X31199498Y-42314420D01*
X31173518Y-42400063D01*
X30945775Y-42258830D01*
X29135605Y-44069000D01*
X28776395Y-44069000D01*
X26966225Y-42258830D01*
X26853750Y-42328581D01*
X26853750Y-42079225D01*
X27145830Y-42079225D01*
X28956000Y-43889395D01*
X30766170Y-42079225D01*
X30526024Y-41691982D01*
X30032123Y-41431359D01*
X29815725Y-41366972D01*
X31102300Y-41366972D01*
X31226782Y-41354712D01*
X31346480Y-41318402D01*
X31456794Y-41259437D01*
X31553485Y-41180085D01*
X31632837Y-41083394D01*
X31691802Y-40973080D01*
X31728112Y-40853382D01*
X31740372Y-40728900D01*
X31740372Y-40507074D01*
X31802602Y-40569304D01*
X32050131Y-40734697D01*
X32325170Y-40848622D01*
X32617150Y-40906700D01*
X32914850Y-40906700D01*
X32949694Y-40899769D01*
X34438437Y-40899769D01*
X34519254Y-41151529D01*
X34787779Y-41280057D01*
X35076219Y-41353729D01*
X35373491Y-41369713D01*
X35668167Y-41327396D01*
X35948927Y-41228402D01*
X36092746Y-41151529D01*
X36173563Y-40899769D01*
X35306000Y-40032205D01*
X34438437Y-40899769D01*
X32949694Y-40899769D01*
X33206830Y-40848622D01*
X33481869Y-40734697D01*
X33729398Y-40569304D01*
X33897086Y-40401616D01*
X33930198Y-40495527D01*
X34007071Y-40639346D01*
X34258831Y-40720163D01*
X35126395Y-39852600D01*
X35485605Y-39852600D01*
X36353169Y-40720163D01*
X36604929Y-40639346D01*
X36699115Y-40442569D01*
X36978437Y-40442569D01*
X37059254Y-40694329D01*
X37327779Y-40822857D01*
X37616219Y-40896529D01*
X37913491Y-40912513D01*
X38208167Y-40870196D01*
X38488927Y-40771202D01*
X38632746Y-40694329D01*
X38713563Y-40442569D01*
X37846000Y-39575005D01*
X36978437Y-40442569D01*
X36699115Y-40442569D01*
X36733457Y-40370821D01*
X36763872Y-40251741D01*
X36798831Y-40262963D01*
X37666395Y-39395400D01*
X36798831Y-38527837D01*
X36547071Y-38608654D01*
X36418543Y-38877179D01*
X36388128Y-38996259D01*
X36353169Y-38985037D01*
X35485605Y-39852600D01*
X35126395Y-39852600D01*
X34258831Y-38985037D01*
X34227296Y-38995160D01*
X34219222Y-38954570D01*
X34157447Y-38805431D01*
X34438437Y-38805431D01*
X35306000Y-39672995D01*
X36173563Y-38805431D01*
X36092746Y-38553671D01*
X35824221Y-38425143D01*
X35535781Y-38351471D01*
X35475524Y-38348231D01*
X36978437Y-38348231D01*
X37846000Y-39215795D01*
X38713563Y-38348231D01*
X38632746Y-38096471D01*
X38364221Y-37967943D01*
X38075781Y-37894271D01*
X37778509Y-37878287D01*
X37483833Y-37920604D01*
X37203073Y-38019598D01*
X37059254Y-38096471D01*
X36978437Y-38348231D01*
X35475524Y-38348231D01*
X35238509Y-38335487D01*
X34943833Y-38377804D01*
X34663073Y-38476798D01*
X34519254Y-38553671D01*
X34438437Y-38805431D01*
X34157447Y-38805431D01*
X34105297Y-38679531D01*
X33939904Y-38432002D01*
X33729398Y-38221496D01*
X33481869Y-38056103D01*
X33206830Y-37942178D01*
X32914850Y-37884100D01*
X32617150Y-37884100D01*
X32325170Y-37942178D01*
X32050131Y-38056103D01*
X31802602Y-38221496D01*
X31592096Y-38432002D01*
X31538240Y-38512604D01*
X31456794Y-38445763D01*
X31346480Y-38386798D01*
X31226782Y-38350488D01*
X31102300Y-38338228D01*
X29349700Y-38338228D01*
X29225218Y-38350488D01*
X29105520Y-38386798D01*
X28995206Y-38445763D01*
X28898515Y-38525115D01*
X28819163Y-38621806D01*
X28760198Y-38732120D01*
X28723888Y-38851818D01*
X28711628Y-38976300D01*
X28711628Y-40728900D01*
X28723888Y-40853382D01*
X28760198Y-40973080D01*
X28819163Y-41083394D01*
X28898515Y-41180085D01*
X28948404Y-41221028D01*
X28940826Y-41220322D01*
X28385368Y-41278019D01*
X27851839Y-41442972D01*
X27385976Y-41691982D01*
X27145830Y-42079225D01*
X26853750Y-42079225D01*
X26853750Y-27987000D01*
X36662928Y-27987000D01*
X36666000Y-28101250D01*
X36824750Y-28260000D01*
X38124000Y-28260000D01*
X38124000Y-27510750D01*
X38378000Y-27510750D01*
X38378000Y-28260000D01*
X39677250Y-28260000D01*
X39836000Y-28101250D01*
X39839072Y-27987000D01*
X39826812Y-27862518D01*
X39790502Y-27742820D01*
X39731537Y-27632506D01*
X39652185Y-27535815D01*
X39555494Y-27456463D01*
X39445180Y-27397498D01*
X39325482Y-27361188D01*
X39201000Y-27348928D01*
X38536750Y-27352000D01*
X38378000Y-27510750D01*
X38124000Y-27510750D01*
X37965250Y-27352000D01*
X37301000Y-27348928D01*
X37176518Y-27361188D01*
X37056820Y-27397498D01*
X36946506Y-27456463D01*
X36849815Y-27535815D01*
X36770463Y-27632506D01*
X36711498Y-27742820D01*
X36675188Y-27862518D01*
X36662928Y-27987000D01*
X26853750Y-27987000D01*
X26853750Y-22182775D01*
X27145830Y-22182775D01*
X27385976Y-22570018D01*
X27879877Y-22830641D01*
X28415133Y-22989901D01*
X28971174Y-23041678D01*
X29229224Y-23014874D01*
X29052096Y-23192002D01*
X28886703Y-23439531D01*
X28772778Y-23714570D01*
X28714700Y-24006550D01*
X28714700Y-24304250D01*
X28772778Y-24596230D01*
X28886703Y-24871269D01*
X29052096Y-25118798D01*
X29262602Y-25329304D01*
X29510131Y-25494697D01*
X29785170Y-25608622D01*
X30077150Y-25666700D01*
X30374850Y-25666700D01*
X30409694Y-25659769D01*
X31898437Y-25659769D01*
X31979254Y-25911529D01*
X32247779Y-26040057D01*
X32536219Y-26113729D01*
X32833491Y-26129713D01*
X33128167Y-26087396D01*
X33408927Y-25988402D01*
X33552746Y-25911529D01*
X33633563Y-25659769D01*
X32766000Y-24792205D01*
X31898437Y-25659769D01*
X30409694Y-25659769D01*
X30666830Y-25608622D01*
X30941869Y-25494697D01*
X31189398Y-25329304D01*
X31357086Y-25161616D01*
X31390198Y-25255527D01*
X31467071Y-25399346D01*
X31718831Y-25480163D01*
X32586395Y-24612600D01*
X31718831Y-23745037D01*
X31687296Y-23755160D01*
X31679222Y-23714570D01*
X31617447Y-23565431D01*
X31898437Y-23565431D01*
X32766000Y-24432995D01*
X33633563Y-23565431D01*
X33552746Y-23313671D01*
X33284221Y-23185143D01*
X32995781Y-23111471D01*
X32698509Y-23095487D01*
X32403833Y-23137804D01*
X32123073Y-23236798D01*
X31979254Y-23313671D01*
X31898437Y-23565431D01*
X31617447Y-23565431D01*
X31565297Y-23439531D01*
X31399904Y-23192002D01*
X31189398Y-22981496D01*
X30941869Y-22816103D01*
X30666830Y-22702178D01*
X30384016Y-22645923D01*
X30526024Y-22570018D01*
X30766170Y-22182775D01*
X28956000Y-20372605D01*
X27145830Y-22182775D01*
X26853750Y-22182775D01*
X26853750Y-21933419D01*
X26966225Y-22003170D01*
X28776395Y-20193000D01*
X29135605Y-20193000D01*
X30945775Y-22003170D01*
X31150928Y-21875946D01*
X31150928Y-21906600D01*
X31163188Y-22031082D01*
X31199498Y-22150780D01*
X31258463Y-22261094D01*
X31337815Y-22357785D01*
X31434506Y-22437137D01*
X31544820Y-22496102D01*
X31664518Y-22532412D01*
X31789000Y-22544672D01*
X33489000Y-22544672D01*
X33613482Y-22532412D01*
X33733180Y-22496102D01*
X33843494Y-22437137D01*
X33940185Y-22357785D01*
X34019537Y-22261094D01*
X34078502Y-22150780D01*
X34114812Y-22031082D01*
X34127072Y-21906600D01*
X34127072Y-21639677D01*
X34178731Y-21696988D01*
X34412080Y-21871041D01*
X34674901Y-21996225D01*
X34822110Y-22040876D01*
X35052000Y-21919555D01*
X35052000Y-20726400D01*
X35032000Y-20726400D01*
X35032000Y-20472400D01*
X35052000Y-20472400D01*
X35052000Y-19279245D01*
X34822110Y-19157924D01*
X34674901Y-19202575D01*
X34412080Y-19327759D01*
X34178731Y-19501812D01*
X33983822Y-19718045D01*
X33952571Y-19770508D01*
X33940185Y-19755415D01*
X33843494Y-19676063D01*
X33733180Y-19617098D01*
X33613482Y-19580788D01*
X33489000Y-19568528D01*
X31789000Y-19568528D01*
X31732069Y-19574135D01*
X31582028Y-19088839D01*
X31333018Y-18622976D01*
X30945775Y-18382830D01*
X29135605Y-20193000D01*
X28776395Y-20193000D01*
X28762253Y-20178858D01*
X28941858Y-19999253D01*
X28956000Y-20013395D01*
X30766170Y-18203225D01*
X30716109Y-18122500D01*
X67747957Y-18122500D01*
X67705733Y-18150713D01*
G04 #@! TA.AperFunction,Conductor*
D31*
G36*
X67705733Y-18150713D02*
G01*
X67533713Y-18322733D01*
X67398557Y-18525008D01*
X67305460Y-18749764D01*
X67258000Y-18988363D01*
X67258000Y-19231637D01*
X67305460Y-19470236D01*
X67398557Y-19694992D01*
X67533713Y-19897267D01*
X67705733Y-20069287D01*
X67908008Y-20204443D01*
X68132764Y-20297540D01*
X68371363Y-20345000D01*
X68614637Y-20345000D01*
X68853236Y-20297540D01*
X69077992Y-20204443D01*
X69127626Y-20171278D01*
X69483000Y-20171278D01*
X69483000Y-20468722D01*
X69541029Y-20760451D01*
X69654856Y-21035253D01*
X69820107Y-21282569D01*
X70030431Y-21492893D01*
X70277747Y-21658144D01*
X70552549Y-21771971D01*
X70647444Y-21790847D01*
X70499772Y-22011853D01*
X70372754Y-22318504D01*
X70308000Y-22644042D01*
X70308000Y-22975958D01*
X70372754Y-23301496D01*
X70499772Y-23608147D01*
X70684175Y-23884125D01*
X70918875Y-24118825D01*
X71194853Y-24303228D01*
X71501504Y-24430246D01*
X71827042Y-24495000D01*
X72158958Y-24495000D01*
X72484496Y-24430246D01*
X72791147Y-24303228D01*
X73067125Y-24118825D01*
X73301825Y-23884125D01*
X73322622Y-23853000D01*
X77559000Y-23853000D01*
X77559000Y-24153000D01*
X77611350Y-24430514D01*
X77716834Y-24692483D01*
X77871399Y-24928839D01*
X78069105Y-25130500D01*
X78302354Y-25289715D01*
X78562182Y-25400367D01*
X78644961Y-25417904D01*
X78867000Y-25295915D01*
X78867000Y-23853000D01*
X79121000Y-23853000D01*
X79121000Y-25295915D01*
X79343039Y-25417904D01*
X79425818Y-25400367D01*
X79685646Y-25289715D01*
X79918895Y-25130500D01*
X80116601Y-24928839D01*
X80271166Y-24692483D01*
X80376650Y-24430514D01*
X80429000Y-24153000D01*
X80429000Y-23853000D01*
X79121000Y-23853000D01*
X78867000Y-23853000D01*
X77559000Y-23853000D01*
X73322622Y-23853000D01*
X73486228Y-23608147D01*
X73613246Y-23301496D01*
X73678000Y-22975958D01*
X73678000Y-22644042D01*
X73613246Y-22318504D01*
X73486228Y-22011853D01*
X73301825Y-21735875D01*
X73067125Y-21501175D01*
X72791147Y-21316772D01*
X72484496Y-21189754D01*
X72258012Y-21144703D01*
X72331144Y-21035253D01*
X72444971Y-20760451D01*
X72503000Y-20468722D01*
X72503000Y-20171278D01*
X72444971Y-19879549D01*
X72331144Y-19604747D01*
X72165893Y-19357431D01*
X71955569Y-19147107D01*
X71708253Y-18981856D01*
X71433451Y-18868029D01*
X71141722Y-18810000D01*
X70844278Y-18810000D01*
X70552549Y-18868029D01*
X70277747Y-18981856D01*
X70030431Y-19147107D01*
X69820107Y-19357431D01*
X69654856Y-19604747D01*
X69541029Y-19879549D01*
X69483000Y-20171278D01*
X69127626Y-20171278D01*
X69280267Y-20069287D01*
X69452287Y-19897267D01*
X69587443Y-19694992D01*
X69680540Y-19470236D01*
X69728000Y-19231637D01*
X69728000Y-18988363D01*
X69680540Y-18749764D01*
X69587443Y-18525008D01*
X69452287Y-18322733D01*
X69280267Y-18150713D01*
X69238043Y-18122500D01*
X75738815Y-18122500D01*
X75618201Y-18243114D01*
X75466629Y-18469957D01*
X75362225Y-18722011D01*
X75309000Y-18989589D01*
X75309000Y-19262411D01*
X75362225Y-19529989D01*
X75466629Y-19782043D01*
X75618201Y-20008886D01*
X75811114Y-20201799D01*
X76037957Y-20353371D01*
X76290011Y-20457775D01*
X76557589Y-20511000D01*
X76830411Y-20511000D01*
X77097989Y-20457775D01*
X77350043Y-20353371D01*
X77573946Y-20203764D01*
X77559000Y-20355509D01*
X77559000Y-21096492D01*
X77579764Y-21307309D01*
X77661818Y-21577808D01*
X77795068Y-21827101D01*
X77974393Y-22045608D01*
X78192900Y-22224932D01*
X78202814Y-22230231D01*
X78069105Y-22321500D01*
X77871399Y-22523161D01*
X77716834Y-22759517D01*
X77611350Y-23021486D01*
X77559000Y-23299000D01*
X77559000Y-23599000D01*
X78867000Y-23599000D01*
X78867000Y-23579000D01*
X79121000Y-23579000D01*
X79121000Y-23599000D01*
X80429000Y-23599000D01*
X80429000Y-23299000D01*
X80376650Y-23021486D01*
X80271166Y-22759517D01*
X80116601Y-22523161D01*
X79918895Y-22321500D01*
X79785187Y-22230231D01*
X79795101Y-22224932D01*
X79846469Y-22182775D01*
X85946830Y-22182775D01*
X86186976Y-22570018D01*
X86680877Y-22830641D01*
X87216133Y-22989901D01*
X87772174Y-23041678D01*
X88327632Y-22983981D01*
X88861161Y-22819028D01*
X89327024Y-22570018D01*
X89567170Y-22182775D01*
X87757000Y-20372605D01*
X85946830Y-22182775D01*
X79846469Y-22182775D01*
X80013608Y-22045608D01*
X80192932Y-21827101D01*
X80326182Y-21577808D01*
X80408236Y-21307308D01*
X80429000Y-21096491D01*
X80429000Y-20355508D01*
X80414054Y-20203764D01*
X80637957Y-20353371D01*
X80890011Y-20457775D01*
X81157589Y-20511000D01*
X81430411Y-20511000D01*
X81697989Y-20457775D01*
X81950043Y-20353371D01*
X82167345Y-20208174D01*
X84908322Y-20208174D01*
X84966019Y-20763632D01*
X85130972Y-21297161D01*
X85379982Y-21763024D01*
X85767225Y-22003170D01*
X87577395Y-20193000D01*
X85767225Y-18382830D01*
X85379982Y-18622976D01*
X85119359Y-19116877D01*
X84960099Y-19652133D01*
X84908322Y-20208174D01*
X82167345Y-20208174D01*
X82176886Y-20201799D01*
X82369799Y-20008886D01*
X82521371Y-19782043D01*
X82625775Y-19529989D01*
X82679000Y-19262411D01*
X82679000Y-18989589D01*
X82625775Y-18722011D01*
X82521371Y-18469957D01*
X82369799Y-18243114D01*
X82249185Y-18122500D01*
X85996891Y-18122500D01*
X85946830Y-18203225D01*
X87757000Y-20013395D01*
X87771143Y-19999253D01*
X87950748Y-20178858D01*
X87936605Y-20193000D01*
X89746775Y-22003170D01*
X89827501Y-21953108D01*
X89827500Y-42308891D01*
X89746775Y-42258830D01*
X87936605Y-44069000D01*
X87950748Y-44083143D01*
X87771143Y-44262748D01*
X87757000Y-44248605D01*
X85946830Y-46058775D01*
X86016581Y-46171250D01*
X30696419Y-46171250D01*
X30766170Y-46058775D01*
X28956000Y-44248605D01*
X28941858Y-44262748D01*
X28762253Y-44083143D01*
X28776395Y-44069000D01*
X29135605Y-44069000D01*
X30945775Y-45879170D01*
X31333018Y-45639024D01*
X31593641Y-45145123D01*
X31671022Y-44885053D01*
X31789000Y-44896672D01*
X33052270Y-44896672D01*
X33910351Y-45754753D01*
X33934149Y-45783751D01*
X33963147Y-45807549D01*
X34049873Y-45878724D01*
X34148602Y-45931496D01*
X34181903Y-45949296D01*
X34325164Y-45992753D01*
X34436817Y-46003750D01*
X34436827Y-46003750D01*
X34474149Y-46007426D01*
X34511472Y-46003750D01*
X81718928Y-46003750D01*
X81756250Y-46007426D01*
X81793572Y-46003750D01*
X81793583Y-46003750D01*
X81905236Y-45992753D01*
X82048497Y-45949296D01*
X82180526Y-45878724D01*
X82296251Y-45783751D01*
X82320054Y-45754747D01*
X83854754Y-44220048D01*
X83883751Y-44196251D01*
X83915345Y-44157754D01*
X83975730Y-44084174D01*
X84908322Y-44084174D01*
X84966019Y-44639632D01*
X85130972Y-45173161D01*
X85379982Y-45639024D01*
X85767225Y-45879170D01*
X87577395Y-44069000D01*
X85767225Y-42258830D01*
X85379982Y-42498976D01*
X85119359Y-42992877D01*
X84960099Y-43528133D01*
X84908322Y-44084174D01*
X83975730Y-44084174D01*
X83978724Y-44080527D01*
X84049296Y-43948497D01*
X84058061Y-43919602D01*
X84092753Y-43805236D01*
X84103750Y-43693583D01*
X84103750Y-43693574D01*
X84107426Y-43656251D01*
X84103750Y-43618928D01*
X84103750Y-42079225D01*
X85946830Y-42079225D01*
X87757000Y-43889395D01*
X89567170Y-42079225D01*
X89327024Y-41691982D01*
X88833123Y-41431359D01*
X88297867Y-41272099D01*
X87741826Y-41220322D01*
X87186368Y-41278019D01*
X86652839Y-41442972D01*
X86186976Y-41691982D01*
X85946830Y-42079225D01*
X84103750Y-42079225D01*
X84103750Y-33459075D01*
X84107426Y-33421750D01*
X84103750Y-33384425D01*
X84103750Y-33384417D01*
X84092753Y-33272764D01*
X84049296Y-33129503D01*
X83978724Y-32997474D01*
X83883751Y-32881749D01*
X83854753Y-32857951D01*
X83422072Y-32425271D01*
X83422072Y-31762000D01*
X83409812Y-31637518D01*
X83373502Y-31517820D01*
X83314537Y-31407506D01*
X83235185Y-31310815D01*
X83138494Y-31231463D01*
X83028180Y-31172498D01*
X82908482Y-31136188D01*
X82784000Y-31123928D01*
X82236000Y-31123928D01*
X82236000Y-30372322D01*
X82239676Y-30334999D01*
X82236000Y-30297676D01*
X82236000Y-30297667D01*
X82225003Y-30186014D01*
X82181546Y-30042753D01*
X82110974Y-29910724D01*
X82016001Y-29794999D01*
X81987003Y-29771201D01*
X80671311Y-28455509D01*
X82159000Y-28455509D01*
X82159000Y-29196492D01*
X82179764Y-29407309D01*
X82261818Y-29677808D01*
X82395068Y-29927101D01*
X82574393Y-30145608D01*
X82792900Y-30324932D01*
X83042193Y-30458182D01*
X83312692Y-30540236D01*
X83594000Y-30567943D01*
X83875309Y-30540236D01*
X84145808Y-30458182D01*
X84395101Y-30324932D01*
X84613608Y-30145608D01*
X84792932Y-29927101D01*
X84926182Y-29677808D01*
X85008236Y-29407308D01*
X85029000Y-29196491D01*
X85029000Y-28455508D01*
X85008236Y-28244691D01*
X84926182Y-27974192D01*
X84792932Y-27724899D01*
X84613607Y-27506392D01*
X84395100Y-27327068D01*
X84145807Y-27193818D01*
X83875308Y-27111764D01*
X83594000Y-27084057D01*
X83312691Y-27111764D01*
X83042192Y-27193818D01*
X82792899Y-27327068D01*
X82574392Y-27506393D01*
X82395068Y-27724900D01*
X82261818Y-27974193D01*
X82179764Y-28244692D01*
X82159000Y-28455509D01*
X80671311Y-28455509D01*
X80418536Y-28202734D01*
X80429000Y-28096491D01*
X80429000Y-27355508D01*
X80414054Y-27203764D01*
X80637957Y-27353371D01*
X80890011Y-27457775D01*
X81157589Y-27511000D01*
X81430411Y-27511000D01*
X81697989Y-27457775D01*
X81950043Y-27353371D01*
X82176886Y-27201799D01*
X82369799Y-27008886D01*
X82521371Y-26782043D01*
X82625775Y-26529989D01*
X82679000Y-26262411D01*
X82679000Y-25989589D01*
X82625775Y-25722011D01*
X82521371Y-25469957D01*
X82369799Y-25243114D01*
X82176886Y-25050201D01*
X81950043Y-24898629D01*
X81697989Y-24794225D01*
X81430411Y-24741000D01*
X81157589Y-24741000D01*
X80890011Y-24794225D01*
X80637957Y-24898629D01*
X80411114Y-25050201D01*
X80218201Y-25243114D01*
X80066629Y-25469957D01*
X79962225Y-25722011D01*
X79909000Y-25989589D01*
X79909000Y-26262411D01*
X79922819Y-26331884D01*
X79795100Y-26227068D01*
X79545807Y-26093818D01*
X79275308Y-26011764D01*
X78994000Y-25984057D01*
X78712691Y-26011764D01*
X78442192Y-26093818D01*
X78192899Y-26227068D01*
X78065181Y-26331884D01*
X78079000Y-26262411D01*
X78079000Y-25989589D01*
X78025775Y-25722011D01*
X77921371Y-25469957D01*
X77769799Y-25243114D01*
X77576886Y-25050201D01*
X77350043Y-24898629D01*
X77097989Y-24794225D01*
X76830411Y-24741000D01*
X76557589Y-24741000D01*
X76290011Y-24794225D01*
X76037957Y-24898629D01*
X75811114Y-25050201D01*
X75618201Y-25243114D01*
X75466629Y-25469957D01*
X75362225Y-25722011D01*
X75309000Y-25989589D01*
X75309000Y-26262411D01*
X75362225Y-26529989D01*
X75455870Y-26756069D01*
X75176304Y-26476503D01*
X75152501Y-26447499D01*
X75036776Y-26352526D01*
X74904747Y-26281954D01*
X74761486Y-26238497D01*
X74649833Y-26227500D01*
X74649822Y-26227500D01*
X74612500Y-26223824D01*
X74575178Y-26227500D01*
X73856072Y-26227500D01*
X73818749Y-26223824D01*
X73781426Y-26227500D01*
X73781417Y-26227500D01*
X73669764Y-26238497D01*
X73526503Y-26281954D01*
X73394473Y-26352526D01*
X73343919Y-26394015D01*
X73278749Y-26447499D01*
X73254951Y-26476497D01*
X70926503Y-28804946D01*
X70897499Y-28828749D01*
X70866655Y-28866333D01*
X70802526Y-28944474D01*
X70748925Y-29044754D01*
X70731954Y-29076504D01*
X70688497Y-29219765D01*
X70677500Y-29331418D01*
X70677500Y-29331428D01*
X70673824Y-29368750D01*
X70677500Y-29406073D01*
X70677501Y-30347629D01*
X70642932Y-30173842D01*
X70530990Y-29903589D01*
X70368475Y-29660368D01*
X70161632Y-29453525D01*
X69987240Y-29337000D01*
X70161632Y-29220475D01*
X70368475Y-29013632D01*
X70530990Y-28770411D01*
X70642932Y-28500158D01*
X70700000Y-28213260D01*
X70700000Y-27920740D01*
X70642932Y-27633842D01*
X70530990Y-27363589D01*
X70368475Y-27120368D01*
X70161632Y-26913525D01*
X69918411Y-26751010D01*
X69648158Y-26639068D01*
X69361260Y-26582000D01*
X69068740Y-26582000D01*
X68781842Y-26639068D01*
X68511589Y-26751010D01*
X68268368Y-26913525D01*
X68061525Y-27120368D01*
X67899010Y-27363589D01*
X67787068Y-27633842D01*
X67730000Y-27920740D01*
X67730000Y-28213260D01*
X67787068Y-28500158D01*
X67899010Y-28770411D01*
X68061525Y-29013632D01*
X68268368Y-29220475D01*
X68442760Y-29337000D01*
X68268368Y-29453525D01*
X68061525Y-29660368D01*
X67899010Y-29903589D01*
X67787068Y-30173842D01*
X67730000Y-30460740D01*
X67730000Y-30587199D01*
X67238804Y-30096003D01*
X67215001Y-30066999D01*
X67099276Y-29972026D01*
X66967247Y-29901454D01*
X66823986Y-29857997D01*
X66712333Y-29847000D01*
X66712322Y-29847000D01*
X66681125Y-29843927D01*
X66558475Y-29660368D01*
X66351632Y-29453525D01*
X66178271Y-29337689D01*
X66253792Y-29095397D01*
X65405000Y-28246605D01*
X65390858Y-28260748D01*
X65211253Y-28081143D01*
X65225395Y-28067000D01*
X65584605Y-28067000D01*
X66433397Y-28915792D01*
X66682472Y-28838157D01*
X66808371Y-28574117D01*
X66880339Y-28290589D01*
X66895611Y-27998469D01*
X66853599Y-27708981D01*
X66755919Y-27433253D01*
X66682472Y-27295843D01*
X66433397Y-27218208D01*
X65584605Y-28067000D01*
X65225395Y-28067000D01*
X65211253Y-28052858D01*
X65390858Y-27873253D01*
X65405000Y-27887395D01*
X66253792Y-27038603D01*
X66176157Y-26789528D01*
X65912117Y-26663629D01*
X65628589Y-26591661D01*
X65336469Y-26576389D01*
X65046981Y-26618401D01*
X64771253Y-26716081D01*
X64633843Y-26789528D01*
X64556209Y-27038601D01*
X64440104Y-26922496D01*
X64387000Y-26975600D01*
X64387000Y-26580325D01*
X64390676Y-26543000D01*
X64387000Y-26505675D01*
X64387000Y-26505667D01*
X64376003Y-26394014D01*
X64332546Y-26250753D01*
X64261974Y-26118724D01*
X64167001Y-26002999D01*
X64138004Y-25979202D01*
X60802844Y-22644042D01*
X63298000Y-22644042D01*
X63298000Y-22975958D01*
X63362754Y-23301496D01*
X63489772Y-23608147D01*
X63674175Y-23884125D01*
X63908875Y-24118825D01*
X64184853Y-24303228D01*
X64491504Y-24430246D01*
X64817042Y-24495000D01*
X65148958Y-24495000D01*
X65474496Y-24430246D01*
X65781147Y-24303228D01*
X66057125Y-24118825D01*
X66291825Y-23884125D01*
X66476228Y-23608147D01*
X66603246Y-23301496D01*
X66668000Y-22975958D01*
X66668000Y-22644042D01*
X66603246Y-22318504D01*
X66476228Y-22011853D01*
X66332487Y-21796730D01*
X66354963Y-21793501D01*
X66635474Y-21694572D01*
X66778975Y-21617868D01*
X66859635Y-21366240D01*
X65993000Y-20499605D01*
X65978858Y-20513748D01*
X65799253Y-20334143D01*
X65813395Y-20320000D01*
X66172605Y-20320000D01*
X67039240Y-21186635D01*
X67290868Y-21105975D01*
X67419267Y-20837671D01*
X67492855Y-20549474D01*
X67508804Y-20252457D01*
X67466501Y-19958037D01*
X67367572Y-19677526D01*
X67290868Y-19534025D01*
X67039240Y-19453365D01*
X66172605Y-20320000D01*
X65813395Y-20320000D01*
X64946760Y-19453365D01*
X64695132Y-19534025D01*
X64566733Y-19802329D01*
X64493145Y-20090526D01*
X64477196Y-20387543D01*
X64519499Y-20681963D01*
X64618428Y-20962474D01*
X64695132Y-21105975D01*
X64778438Y-21132679D01*
X64491504Y-21189754D01*
X64184853Y-21316772D01*
X63908875Y-21501175D01*
X63674175Y-21735875D01*
X63489772Y-22011853D01*
X63362754Y-22318504D01*
X63298000Y-22644042D01*
X60802844Y-22644042D01*
X60380804Y-22222003D01*
X60357001Y-22192999D01*
X60241276Y-22098026D01*
X60116829Y-22031507D01*
X60382740Y-22084400D01*
X60675260Y-22084400D01*
X60962158Y-22027332D01*
X61232411Y-21915390D01*
X61475632Y-21752875D01*
X61682475Y-21546032D01*
X61844990Y-21302811D01*
X61956932Y-21032558D01*
X62014000Y-20745660D01*
X62014000Y-20453140D01*
X61956932Y-20166242D01*
X61844990Y-19895989D01*
X61682475Y-19652768D01*
X61475632Y-19445925D01*
X61232411Y-19283410D01*
X61209114Y-19273760D01*
X65126365Y-19273760D01*
X65993000Y-20140395D01*
X66859635Y-19273760D01*
X66778975Y-19022132D01*
X66510671Y-18893733D01*
X66222474Y-18820145D01*
X65925457Y-18804196D01*
X65631037Y-18846499D01*
X65350526Y-18945428D01*
X65207025Y-19022132D01*
X65126365Y-19273760D01*
X61209114Y-19273760D01*
X60962158Y-19171468D01*
X60675260Y-19114400D01*
X60382740Y-19114400D01*
X60095842Y-19171468D01*
X59825589Y-19283410D01*
X59582368Y-19445925D01*
X59375525Y-19652768D01*
X59213010Y-19895989D01*
X59129678Y-20097171D01*
X58935632Y-19903125D01*
X58692411Y-19740610D01*
X58422158Y-19628668D01*
X58135260Y-19571600D01*
X57842740Y-19571600D01*
X57555842Y-19628668D01*
X57285589Y-19740610D01*
X57042368Y-19903125D01*
X56848322Y-20097171D01*
X56764990Y-19895989D01*
X56602475Y-19652768D01*
X56395632Y-19445925D01*
X56152411Y-19283410D01*
X55882158Y-19171468D01*
X55595260Y-19114400D01*
X55302740Y-19114400D01*
X55015842Y-19171468D01*
X54745589Y-19283410D01*
X54502368Y-19445925D01*
X54295525Y-19652768D01*
X54133010Y-19895989D01*
X54049678Y-20097171D01*
X53855632Y-19903125D01*
X53612411Y-19740610D01*
X53342158Y-19628668D01*
X53055260Y-19571600D01*
X52762740Y-19571600D01*
X52475842Y-19628668D01*
X52205589Y-19740610D01*
X51962368Y-19903125D01*
X51768322Y-20097171D01*
X51684990Y-19895989D01*
X51522475Y-19652768D01*
X51315632Y-19445925D01*
X51072411Y-19283410D01*
X50802158Y-19171468D01*
X50515260Y-19114400D01*
X50222740Y-19114400D01*
X49935842Y-19171468D01*
X49665589Y-19283410D01*
X49422368Y-19445925D01*
X49215525Y-19652768D01*
X49053010Y-19895989D01*
X48969678Y-20097171D01*
X48775632Y-19903125D01*
X48532411Y-19740610D01*
X48262158Y-19628668D01*
X47975260Y-19571600D01*
X47682740Y-19571600D01*
X47395842Y-19628668D01*
X47125589Y-19740610D01*
X46882368Y-19903125D01*
X46723677Y-20061816D01*
X46654990Y-19895989D01*
X46492475Y-19652768D01*
X46285632Y-19445925D01*
X46042411Y-19283410D01*
X45772158Y-19171468D01*
X45485260Y-19114400D01*
X45192740Y-19114400D01*
X44905842Y-19171468D01*
X44635589Y-19283410D01*
X44392368Y-19445925D01*
X44185525Y-19652768D01*
X44023010Y-19895989D01*
X43939678Y-20097171D01*
X43745632Y-19903125D01*
X43502411Y-19740610D01*
X43232158Y-19628668D01*
X42945260Y-19571600D01*
X42652740Y-19571600D01*
X42365842Y-19628668D01*
X42095589Y-19740610D01*
X41852368Y-19903125D01*
X41658322Y-20097171D01*
X41574990Y-19895989D01*
X41412475Y-19652768D01*
X41205632Y-19445925D01*
X40962411Y-19283410D01*
X40692158Y-19171468D01*
X40405260Y-19114400D01*
X40112740Y-19114400D01*
X39825842Y-19171468D01*
X39555589Y-19283410D01*
X39312368Y-19445925D01*
X39105525Y-19652768D01*
X38943010Y-19895989D01*
X38859678Y-20097171D01*
X38665632Y-19903125D01*
X38422411Y-19740610D01*
X38152158Y-19628668D01*
X37865260Y-19571600D01*
X37572740Y-19571600D01*
X37285842Y-19628668D01*
X37015589Y-19740610D01*
X36772368Y-19903125D01*
X36571386Y-20104107D01*
X36523157Y-19968148D01*
X36374178Y-19718045D01*
X36179269Y-19501812D01*
X35945920Y-19327759D01*
X35683099Y-19202575D01*
X35535890Y-19157924D01*
X35306000Y-19279245D01*
X35306000Y-20472400D01*
X35326000Y-20472400D01*
X35326000Y-20726400D01*
X35306000Y-20726400D01*
X35306000Y-21919555D01*
X35535890Y-22040876D01*
X35683099Y-21996225D01*
X35945920Y-21871041D01*
X36179269Y-21696988D01*
X36314680Y-21546762D01*
X36403010Y-21760011D01*
X36565525Y-22003232D01*
X36772368Y-22210075D01*
X37015589Y-22372590D01*
X37285842Y-22484532D01*
X37572740Y-22541600D01*
X37865260Y-22541600D01*
X38152158Y-22484532D01*
X38422411Y-22372590D01*
X38665632Y-22210075D01*
X38872475Y-22003232D01*
X39034990Y-21760011D01*
X39118322Y-21558829D01*
X39312368Y-21752875D01*
X39555589Y-21915390D01*
X39717839Y-21982596D01*
X39703614Y-21983997D01*
X39560353Y-22027454D01*
X39428324Y-22098026D01*
X39312599Y-22192999D01*
X39288801Y-22221997D01*
X38332502Y-23178296D01*
X38286830Y-23159378D01*
X37994850Y-23101300D01*
X37697150Y-23101300D01*
X37405170Y-23159378D01*
X37130131Y-23273303D01*
X36882602Y-23438696D01*
X36714558Y-23606740D01*
X36645297Y-23439531D01*
X36479904Y-23192002D01*
X36269398Y-22981496D01*
X36021869Y-22816103D01*
X35746830Y-22702178D01*
X35454850Y-22644100D01*
X35157150Y-22644100D01*
X34865170Y-22702178D01*
X34590131Y-22816103D01*
X34342602Y-22981496D01*
X34132096Y-23192002D01*
X33966703Y-23439531D01*
X33852778Y-23714570D01*
X33844704Y-23755160D01*
X33813169Y-23745037D01*
X32945605Y-24612600D01*
X33813169Y-25480163D01*
X34064929Y-25399346D01*
X34177486Y-25164188D01*
X34342602Y-25329304D01*
X34590131Y-25494697D01*
X34865170Y-25608622D01*
X35157150Y-25666700D01*
X35454850Y-25666700D01*
X35746830Y-25608622D01*
X36021869Y-25494697D01*
X36269398Y-25329304D01*
X36437442Y-25161260D01*
X36506703Y-25328469D01*
X36672096Y-25575998D01*
X36882602Y-25786504D01*
X37130131Y-25951897D01*
X37405170Y-26065822D01*
X37697150Y-26123900D01*
X37994850Y-26123900D01*
X38286830Y-26065822D01*
X38561869Y-25951897D01*
X38809398Y-25786504D01*
X39019904Y-25575998D01*
X39185297Y-25328469D01*
X39254558Y-25161260D01*
X39422602Y-25329304D01*
X39670131Y-25494697D01*
X39945170Y-25608622D01*
X40237150Y-25666700D01*
X40534850Y-25666700D01*
X40826830Y-25608622D01*
X41101869Y-25494697D01*
X41349398Y-25329304D01*
X41517442Y-25161260D01*
X41586703Y-25328469D01*
X41752096Y-25575998D01*
X41962602Y-25786504D01*
X42210131Y-25951897D01*
X42485170Y-26065822D01*
X42777150Y-26123900D01*
X43074850Y-26123900D01*
X43366830Y-26065822D01*
X43641869Y-25951897D01*
X43889398Y-25786504D01*
X44099904Y-25575998D01*
X44265297Y-25328469D01*
X44334558Y-25161260D01*
X44502602Y-25329304D01*
X44750131Y-25494697D01*
X45025170Y-25608622D01*
X45317150Y-25666700D01*
X45614850Y-25666700D01*
X45906830Y-25608622D01*
X46181869Y-25494697D01*
X46429398Y-25329304D01*
X46597442Y-25161260D01*
X46666703Y-25328469D01*
X46832096Y-25575998D01*
X47042602Y-25786504D01*
X47290131Y-25951897D01*
X47565170Y-26065822D01*
X47857150Y-26123900D01*
X48154850Y-26123900D01*
X48446830Y-26065822D01*
X48721869Y-25951897D01*
X48969398Y-25786504D01*
X49179904Y-25575998D01*
X49345297Y-25328469D01*
X49414558Y-25161260D01*
X49582602Y-25329304D01*
X49830131Y-25494697D01*
X50105170Y-25608622D01*
X50397150Y-25666700D01*
X50694850Y-25666700D01*
X50986830Y-25608622D01*
X51261869Y-25494697D01*
X51509398Y-25329304D01*
X51677442Y-25161260D01*
X51746703Y-25328469D01*
X51912096Y-25575998D01*
X52122602Y-25786504D01*
X52370131Y-25951897D01*
X52645170Y-26065822D01*
X52937150Y-26123900D01*
X53234850Y-26123900D01*
X53526830Y-26065822D01*
X53801869Y-25951897D01*
X54049398Y-25786504D01*
X54259904Y-25575998D01*
X54425297Y-25328469D01*
X54494558Y-25161260D01*
X54662602Y-25329304D01*
X54910131Y-25494697D01*
X55185170Y-25608622D01*
X55477150Y-25666700D01*
X55774850Y-25666700D01*
X56066830Y-25608622D01*
X56341869Y-25494697D01*
X56589398Y-25329304D01*
X56757442Y-25161260D01*
X56826703Y-25328469D01*
X56992096Y-25575998D01*
X57202602Y-25786504D01*
X57317813Y-25863485D01*
X57220696Y-25960602D01*
X57055303Y-26208131D01*
X56941378Y-26483170D01*
X56883300Y-26775150D01*
X56883300Y-27072850D01*
X56941378Y-27364830D01*
X57055303Y-27639869D01*
X57220696Y-27887398D01*
X57388740Y-28055442D01*
X57221531Y-28124703D01*
X56974002Y-28290096D01*
X56763496Y-28500602D01*
X56598103Y-28748131D01*
X56484178Y-29023170D01*
X56426100Y-29315150D01*
X56426100Y-29612850D01*
X56484178Y-29904830D01*
X56598103Y-30179869D01*
X56763496Y-30427398D01*
X56974002Y-30637904D01*
X57221531Y-30803297D01*
X57388740Y-30872558D01*
X57220696Y-31040602D01*
X57055303Y-31288131D01*
X56941378Y-31563170D01*
X56883300Y-31855150D01*
X56883300Y-32152850D01*
X56941378Y-32444830D01*
X57055303Y-32719869D01*
X57220696Y-32967398D01*
X57388740Y-33135442D01*
X57221531Y-33204703D01*
X56974002Y-33370096D01*
X56763496Y-33580602D01*
X56598103Y-33828131D01*
X56484178Y-34103170D01*
X56426100Y-34395150D01*
X56426100Y-34692850D01*
X56431301Y-34719000D01*
X50570054Y-28857753D01*
X50546251Y-28828749D01*
X50430526Y-28733776D01*
X50298497Y-28663204D01*
X50155236Y-28619747D01*
X50043583Y-28608750D01*
X50043572Y-28608750D01*
X50006250Y-28605074D01*
X49968928Y-28608750D01*
X47534961Y-28608750D01*
X47491024Y-28564813D01*
X47321506Y-28451545D01*
X47133148Y-28373524D01*
X46933189Y-28333750D01*
X46729311Y-28333750D01*
X46529352Y-28373524D01*
X46340994Y-28451545D01*
X46171476Y-28564813D01*
X46127539Y-28608750D01*
X42745565Y-28608750D01*
X42731537Y-28582506D01*
X42652185Y-28485815D01*
X42555494Y-28406463D01*
X42445180Y-28347498D01*
X42325482Y-28311188D01*
X42201000Y-28298928D01*
X40301000Y-28298928D01*
X40176518Y-28311188D01*
X40056820Y-28347498D01*
X39946506Y-28406463D01*
X39849815Y-28485815D01*
X39770463Y-28582506D01*
X39761857Y-28598607D01*
X39677250Y-28514000D01*
X38378000Y-28514000D01*
X38378000Y-28534000D01*
X38124000Y-28534000D01*
X38124000Y-28514000D01*
X36824750Y-28514000D01*
X36666000Y-28672750D01*
X36662928Y-28787000D01*
X36675188Y-28911482D01*
X36711498Y-29031180D01*
X36770463Y-29141494D01*
X36849815Y-29238185D01*
X36946506Y-29317537D01*
X36982918Y-29337000D01*
X36946506Y-29356463D01*
X36849815Y-29435815D01*
X36770463Y-29532506D01*
X36711498Y-29642820D01*
X36675188Y-29762518D01*
X36662928Y-29887000D01*
X36662928Y-30687000D01*
X36675188Y-30811482D01*
X36711498Y-30931180D01*
X36770463Y-31041494D01*
X36849815Y-31138185D01*
X36946506Y-31217537D01*
X37056820Y-31276502D01*
X37176518Y-31312812D01*
X37301000Y-31325072D01*
X37491000Y-31325072D01*
X37491001Y-32543928D01*
X37430000Y-32543928D01*
X37305518Y-32556188D01*
X37185820Y-32592498D01*
X37075506Y-32651463D01*
X36978815Y-32730815D01*
X36899463Y-32827506D01*
X36840498Y-32937820D01*
X36830000Y-32972427D01*
X36819502Y-32937820D01*
X36760537Y-32827506D01*
X36681185Y-32730815D01*
X36584494Y-32651463D01*
X36474180Y-32592498D01*
X36354482Y-32556188D01*
X36230000Y-32543928D01*
X35765750Y-32547000D01*
X35607000Y-32705750D01*
X35607000Y-32894394D01*
X35353000Y-32895062D01*
X35353000Y-32705750D01*
X35194250Y-32547000D01*
X34730000Y-32543928D01*
X34605518Y-32556188D01*
X34485820Y-32592498D01*
X34375506Y-32651463D01*
X34278815Y-32730815D01*
X34199463Y-32827506D01*
X34140498Y-32937820D01*
X34127597Y-32980347D01*
X34044250Y-32897000D01*
X33636467Y-32895928D01*
X33743097Y-32789298D01*
X33671514Y-32545329D01*
X33416004Y-32424429D01*
X33141816Y-32355700D01*
X32859488Y-32341783D01*
X32579870Y-32383213D01*
X32313708Y-32478397D01*
X32188486Y-32545329D01*
X32116903Y-32789298D01*
X32419910Y-33092305D01*
X32352668Y-33172756D01*
X32292715Y-33282536D01*
X32282750Y-33314355D01*
X31937298Y-32968903D01*
X31693329Y-33040486D01*
X31572429Y-33295996D01*
X31503700Y-33570184D01*
X31489783Y-33852512D01*
X31531213Y-34132130D01*
X31626397Y-34398292D01*
X31693329Y-34523514D01*
X31937298Y-34595097D01*
X32282750Y-34249645D01*
X32292715Y-34281464D01*
X32352668Y-34391244D01*
X32419910Y-34471695D01*
X32116903Y-34774702D01*
X32188486Y-35018671D01*
X32443996Y-35139571D01*
X32718184Y-35208300D01*
X33000512Y-35222217D01*
X33280130Y-35180787D01*
X33546292Y-35085603D01*
X33671514Y-35018671D01*
X33743097Y-34774702D01*
X33636467Y-34668072D01*
X34044250Y-34667000D01*
X34127597Y-34583653D01*
X34140498Y-34626180D01*
X34199463Y-34736494D01*
X34278815Y-34833185D01*
X34375506Y-34912537D01*
X34485820Y-34971502D01*
X34605518Y-35007812D01*
X34730000Y-35020072D01*
X35194250Y-35017000D01*
X35353000Y-34858250D01*
X35353000Y-34668938D01*
X35607000Y-34669606D01*
X35607000Y-34858250D01*
X35765750Y-35017000D01*
X36230000Y-35020072D01*
X36354482Y-35007812D01*
X36474180Y-34971502D01*
X36584494Y-34912537D01*
X36681185Y-34833185D01*
X36760537Y-34736494D01*
X36819502Y-34626180D01*
X36830000Y-34591573D01*
X36840498Y-34626180D01*
X36899463Y-34736494D01*
X36978815Y-34833185D01*
X37075506Y-34912537D01*
X37185820Y-34971502D01*
X37305518Y-35007812D01*
X37430000Y-35020072D01*
X38930000Y-35020072D01*
X39054482Y-35007812D01*
X39174180Y-34971502D01*
X39284494Y-34912537D01*
X39381185Y-34833185D01*
X39460537Y-34736494D01*
X39496041Y-34670072D01*
X39597531Y-34670072D01*
X39615363Y-34696759D01*
X39815241Y-34896637D01*
X40050273Y-35053680D01*
X40311426Y-35161853D01*
X40588665Y-35217000D01*
X40871335Y-35217000D01*
X41148574Y-35161853D01*
X41409727Y-35053680D01*
X41644759Y-34896637D01*
X41844637Y-34696759D01*
X42001680Y-34461727D01*
X42109853Y-34200574D01*
X42165000Y-33923335D01*
X42165000Y-33640665D01*
X42128688Y-33458114D01*
X42568803Y-33018000D01*
X51755199Y-33018000D01*
X56332201Y-37595003D01*
X56355999Y-37624001D01*
X56471724Y-37718974D01*
X56603753Y-37789546D01*
X56747014Y-37833003D01*
X56858667Y-37844000D01*
X56858675Y-37844000D01*
X56896000Y-37847676D01*
X56933325Y-37844000D01*
X57084790Y-37844000D01*
X57220696Y-38047398D01*
X57317813Y-38144515D01*
X57202602Y-38221496D01*
X56992096Y-38432002D01*
X56826703Y-38679531D01*
X56757442Y-38846740D01*
X56589398Y-38678696D01*
X56341869Y-38513303D01*
X56066830Y-38399378D01*
X55774850Y-38341300D01*
X55477150Y-38341300D01*
X55185170Y-38399378D01*
X54910131Y-38513303D01*
X54662602Y-38678696D01*
X54494558Y-38846740D01*
X54425297Y-38679531D01*
X54259904Y-38432002D01*
X54049398Y-38221496D01*
X53801869Y-38056103D01*
X53526830Y-37942178D01*
X53234850Y-37884100D01*
X52937150Y-37884100D01*
X52645170Y-37942178D01*
X52370131Y-38056103D01*
X52122602Y-38221496D01*
X51912096Y-38432002D01*
X51746703Y-38679531D01*
X51677442Y-38846740D01*
X51509398Y-38678696D01*
X51261869Y-38513303D01*
X50986830Y-38399378D01*
X50694850Y-38341300D01*
X50397150Y-38341300D01*
X50105170Y-38399378D01*
X49830131Y-38513303D01*
X49582602Y-38678696D01*
X49414558Y-38846740D01*
X49345297Y-38679531D01*
X49179904Y-38432002D01*
X48969398Y-38221496D01*
X48721869Y-38056103D01*
X48446830Y-37942178D01*
X48154850Y-37884100D01*
X47857150Y-37884100D01*
X47565170Y-37942178D01*
X47290131Y-38056103D01*
X47042602Y-38221496D01*
X46832096Y-38432002D01*
X46666703Y-38679531D01*
X46597442Y-38846740D01*
X46429398Y-38678696D01*
X46181869Y-38513303D01*
X45906830Y-38399378D01*
X45614850Y-38341300D01*
X45317150Y-38341300D01*
X45025170Y-38399378D01*
X44750131Y-38513303D01*
X44502602Y-38678696D01*
X44334558Y-38846740D01*
X44265297Y-38679531D01*
X44099904Y-38432002D01*
X43889398Y-38221496D01*
X43641869Y-38056103D01*
X43366830Y-37942178D01*
X43074850Y-37884100D01*
X42777150Y-37884100D01*
X42485170Y-37942178D01*
X42210131Y-38056103D01*
X41962602Y-38221496D01*
X41752096Y-38432002D01*
X41586703Y-38679531D01*
X41517442Y-38846740D01*
X41349398Y-38678696D01*
X41101869Y-38513303D01*
X40826830Y-38399378D01*
X40534850Y-38341300D01*
X40237150Y-38341300D01*
X39945170Y-38399378D01*
X39670131Y-38513303D01*
X39422602Y-38678696D01*
X39254914Y-38846384D01*
X39221802Y-38752473D01*
X39144929Y-38608654D01*
X38893169Y-38527837D01*
X38025605Y-39395400D01*
X38893169Y-40262963D01*
X38924704Y-40252840D01*
X38932778Y-40293430D01*
X39046703Y-40568469D01*
X39212096Y-40815998D01*
X39422602Y-41026504D01*
X39670131Y-41191897D01*
X39945170Y-41305822D01*
X40237150Y-41363900D01*
X40534850Y-41363900D01*
X40826830Y-41305822D01*
X41101869Y-41191897D01*
X41349398Y-41026504D01*
X41559904Y-40815998D01*
X41725297Y-40568469D01*
X41794558Y-40401260D01*
X41962602Y-40569304D01*
X42210131Y-40734697D01*
X42485170Y-40848622D01*
X42777150Y-40906700D01*
X43074850Y-40906700D01*
X43366830Y-40848622D01*
X43641869Y-40734697D01*
X43889398Y-40569304D01*
X44057442Y-40401260D01*
X44126703Y-40568469D01*
X44292096Y-40815998D01*
X44502602Y-41026504D01*
X44750131Y-41191897D01*
X45025170Y-41305822D01*
X45317150Y-41363900D01*
X45614850Y-41363900D01*
X45906830Y-41305822D01*
X46181869Y-41191897D01*
X46429398Y-41026504D01*
X46639904Y-40815998D01*
X46805297Y-40568469D01*
X46874558Y-40401260D01*
X47042602Y-40569304D01*
X47290131Y-40734697D01*
X47565170Y-40848622D01*
X47857150Y-40906700D01*
X48154850Y-40906700D01*
X48446830Y-40848622D01*
X48721869Y-40734697D01*
X48969398Y-40569304D01*
X49137442Y-40401260D01*
X49206703Y-40568469D01*
X49372096Y-40815998D01*
X49582602Y-41026504D01*
X49830131Y-41191897D01*
X50105170Y-41305822D01*
X50397150Y-41363900D01*
X50694850Y-41363900D01*
X50986830Y-41305822D01*
X51261869Y-41191897D01*
X51509398Y-41026504D01*
X51719904Y-40815998D01*
X51885297Y-40568469D01*
X51954558Y-40401260D01*
X52122602Y-40569304D01*
X52370131Y-40734697D01*
X52645170Y-40848622D01*
X52937150Y-40906700D01*
X53234850Y-40906700D01*
X53526830Y-40848622D01*
X53801869Y-40734697D01*
X54049398Y-40569304D01*
X54217442Y-40401260D01*
X54286703Y-40568469D01*
X54452096Y-40815998D01*
X54662602Y-41026504D01*
X54910131Y-41191897D01*
X55185170Y-41305822D01*
X55477150Y-41363900D01*
X55774850Y-41363900D01*
X56066830Y-41305822D01*
X56341869Y-41191897D01*
X56589398Y-41026504D01*
X56799904Y-40815998D01*
X56965297Y-40568469D01*
X57034558Y-40401260D01*
X57202602Y-40569304D01*
X57450131Y-40734697D01*
X57725170Y-40848622D01*
X58017150Y-40906700D01*
X58314850Y-40906700D01*
X58606830Y-40848622D01*
X58881869Y-40734697D01*
X59129398Y-40569304D01*
X59339904Y-40358798D01*
X59505297Y-40111269D01*
X59619222Y-39836230D01*
X59677300Y-39544250D01*
X59677300Y-39246550D01*
X59619222Y-38954570D01*
X59505297Y-38679531D01*
X59339904Y-38432002D01*
X59242787Y-38334885D01*
X59357998Y-38257904D01*
X59568504Y-38047398D01*
X59733897Y-37799869D01*
X59847822Y-37524830D01*
X59905900Y-37232850D01*
X59905900Y-36935150D01*
X59847822Y-36643170D01*
X59847627Y-36642699D01*
X60526041Y-36642699D01*
X60522668Y-36650842D01*
X60465600Y-36937740D01*
X60465600Y-37230260D01*
X60522668Y-37517158D01*
X60634610Y-37787411D01*
X60797125Y-38030632D01*
X61003968Y-38237475D01*
X61247189Y-38399990D01*
X61517442Y-38511932D01*
X61804340Y-38569000D01*
X62096860Y-38569000D01*
X62383758Y-38511932D01*
X62654011Y-38399990D01*
X62897232Y-38237475D01*
X63104075Y-38030632D01*
X63266590Y-37787411D01*
X63378532Y-37517158D01*
X63387047Y-37474349D01*
X64899001Y-38986303D01*
X64899000Y-41108190D01*
X64695602Y-41244096D01*
X64485096Y-41454602D01*
X64319703Y-41702131D01*
X64205778Y-41977170D01*
X64147700Y-42269150D01*
X64147700Y-42566850D01*
X64205778Y-42858830D01*
X64319703Y-43133869D01*
X64485096Y-43381398D01*
X64695602Y-43591904D01*
X64943131Y-43757297D01*
X65103203Y-43823601D01*
X61732208Y-43823601D01*
X61844990Y-43654811D01*
X61956932Y-43384558D01*
X62014000Y-43097660D01*
X62014000Y-42805140D01*
X61956932Y-42518242D01*
X61844990Y-42247989D01*
X61682475Y-42004768D01*
X61475632Y-41797925D01*
X61232411Y-41635410D01*
X60962158Y-41523468D01*
X60675260Y-41466400D01*
X60382740Y-41466400D01*
X60095842Y-41523468D01*
X59825589Y-41635410D01*
X59582368Y-41797925D01*
X59375525Y-42004768D01*
X59213010Y-42247989D01*
X59129678Y-42449171D01*
X58935632Y-42255125D01*
X58692411Y-42092610D01*
X58422158Y-41980668D01*
X58135260Y-41923600D01*
X57842740Y-41923600D01*
X57555842Y-41980668D01*
X57285589Y-42092610D01*
X57042368Y-42255125D01*
X56848322Y-42449171D01*
X56764990Y-42247989D01*
X56602475Y-42004768D01*
X56395632Y-41797925D01*
X56152411Y-41635410D01*
X55882158Y-41523468D01*
X55595260Y-41466400D01*
X55302740Y-41466400D01*
X55015842Y-41523468D01*
X54745589Y-41635410D01*
X54502368Y-41797925D01*
X54295525Y-42004768D01*
X54133010Y-42247989D01*
X54049678Y-42449171D01*
X53855632Y-42255125D01*
X53612411Y-42092610D01*
X53342158Y-41980668D01*
X53055260Y-41923600D01*
X52762740Y-41923600D01*
X52475842Y-41980668D01*
X52205589Y-42092610D01*
X51962368Y-42255125D01*
X51768322Y-42449171D01*
X51684990Y-42247989D01*
X51522475Y-42004768D01*
X51315632Y-41797925D01*
X51072411Y-41635410D01*
X50802158Y-41523468D01*
X50515260Y-41466400D01*
X50222740Y-41466400D01*
X49935842Y-41523468D01*
X49665589Y-41635410D01*
X49422368Y-41797925D01*
X49215525Y-42004768D01*
X49053010Y-42247989D01*
X48969678Y-42449171D01*
X48775632Y-42255125D01*
X48532411Y-42092610D01*
X48262158Y-41980668D01*
X47975260Y-41923600D01*
X47682740Y-41923600D01*
X47395842Y-41980668D01*
X47125589Y-42092610D01*
X46882368Y-42255125D01*
X46723677Y-42413816D01*
X46654990Y-42247989D01*
X46492475Y-42004768D01*
X46285632Y-41797925D01*
X46042411Y-41635410D01*
X45772158Y-41523468D01*
X45485260Y-41466400D01*
X45192740Y-41466400D01*
X44905842Y-41523468D01*
X44635589Y-41635410D01*
X44392368Y-41797925D01*
X44185525Y-42004768D01*
X44023010Y-42247989D01*
X43939678Y-42449171D01*
X43745632Y-42255125D01*
X43502411Y-42092610D01*
X43232158Y-41980668D01*
X42945260Y-41923600D01*
X42652740Y-41923600D01*
X42365842Y-41980668D01*
X42095589Y-42092610D01*
X41852368Y-42255125D01*
X41651386Y-42456107D01*
X41603157Y-42320148D01*
X41454178Y-42070045D01*
X41259269Y-41853812D01*
X41025920Y-41679759D01*
X40763099Y-41554575D01*
X40615890Y-41509924D01*
X40386000Y-41631245D01*
X40386000Y-42824400D01*
X40406000Y-42824400D01*
X40406000Y-43078400D01*
X40386000Y-43078400D01*
X40386000Y-44271555D01*
X40615890Y-44392876D01*
X40763099Y-44348225D01*
X41025920Y-44223041D01*
X41259269Y-44048988D01*
X41394680Y-43898762D01*
X41483010Y-44112011D01*
X41645525Y-44355232D01*
X41774043Y-44483750D01*
X38739494Y-44483750D01*
X38914178Y-44289955D01*
X39063157Y-44039852D01*
X39116062Y-43890710D01*
X39258731Y-44048988D01*
X39492080Y-44223041D01*
X39754901Y-44348225D01*
X39902110Y-44392876D01*
X40132000Y-44271555D01*
X40132000Y-43078400D01*
X40112000Y-43078400D01*
X40112000Y-42824400D01*
X40132000Y-42824400D01*
X40132000Y-41631245D01*
X39902110Y-41509924D01*
X39754901Y-41554575D01*
X39492080Y-41679759D01*
X39258731Y-41853812D01*
X39063822Y-42070045D01*
X38914843Y-42320148D01*
X38861938Y-42469290D01*
X38719269Y-42311012D01*
X38485920Y-42136959D01*
X38223099Y-42011775D01*
X38075890Y-41967124D01*
X37846000Y-42088445D01*
X37846000Y-43281600D01*
X37866000Y-43281600D01*
X37866000Y-43535600D01*
X37846000Y-43535600D01*
X37846000Y-43555600D01*
X37592000Y-43555600D01*
X37592000Y-43535600D01*
X37572000Y-43535600D01*
X37572000Y-43281600D01*
X37592000Y-43281600D01*
X37592000Y-42088445D01*
X37362110Y-41967124D01*
X37214901Y-42011775D01*
X36952080Y-42136959D01*
X36718731Y-42311012D01*
X36583320Y-42461238D01*
X36494990Y-42247989D01*
X36332475Y-42004768D01*
X36125632Y-41797925D01*
X35882411Y-41635410D01*
X35612158Y-41523468D01*
X35325260Y-41466400D01*
X35032740Y-41466400D01*
X34745842Y-41523468D01*
X34475589Y-41635410D01*
X34232368Y-41797925D01*
X34025525Y-42004768D01*
X33949420Y-42118668D01*
X33940185Y-42107415D01*
X33843494Y-42028063D01*
X33733180Y-41969098D01*
X33613482Y-41932788D01*
X33489000Y-41920528D01*
X31789000Y-41920528D01*
X31664518Y-41932788D01*
X31544820Y-41969098D01*
X31434506Y-42028063D01*
X31337815Y-42107415D01*
X31258463Y-42204106D01*
X31199498Y-42314420D01*
X31173518Y-42400063D01*
X30945775Y-42258830D01*
X29135605Y-44069000D01*
X28776395Y-44069000D01*
X26966225Y-42258830D01*
X26853750Y-42328581D01*
X26853750Y-42079225D01*
X27145830Y-42079225D01*
X28956000Y-43889395D01*
X30766170Y-42079225D01*
X30526024Y-41691982D01*
X30032123Y-41431359D01*
X29815725Y-41366972D01*
X31102300Y-41366972D01*
X31226782Y-41354712D01*
X31346480Y-41318402D01*
X31456794Y-41259437D01*
X31553485Y-41180085D01*
X31632837Y-41083394D01*
X31691802Y-40973080D01*
X31728112Y-40853382D01*
X31740372Y-40728900D01*
X31740372Y-40507074D01*
X31802602Y-40569304D01*
X32050131Y-40734697D01*
X32325170Y-40848622D01*
X32617150Y-40906700D01*
X32914850Y-40906700D01*
X32949694Y-40899769D01*
X34438437Y-40899769D01*
X34519254Y-41151529D01*
X34787779Y-41280057D01*
X35076219Y-41353729D01*
X35373491Y-41369713D01*
X35668167Y-41327396D01*
X35948927Y-41228402D01*
X36092746Y-41151529D01*
X36173563Y-40899769D01*
X35306000Y-40032205D01*
X34438437Y-40899769D01*
X32949694Y-40899769D01*
X33206830Y-40848622D01*
X33481869Y-40734697D01*
X33729398Y-40569304D01*
X33897086Y-40401616D01*
X33930198Y-40495527D01*
X34007071Y-40639346D01*
X34258831Y-40720163D01*
X35126395Y-39852600D01*
X35485605Y-39852600D01*
X36353169Y-40720163D01*
X36604929Y-40639346D01*
X36699115Y-40442569D01*
X36978437Y-40442569D01*
X37059254Y-40694329D01*
X37327779Y-40822857D01*
X37616219Y-40896529D01*
X37913491Y-40912513D01*
X38208167Y-40870196D01*
X38488927Y-40771202D01*
X38632746Y-40694329D01*
X38713563Y-40442569D01*
X37846000Y-39575005D01*
X36978437Y-40442569D01*
X36699115Y-40442569D01*
X36733457Y-40370821D01*
X36763872Y-40251741D01*
X36798831Y-40262963D01*
X37666395Y-39395400D01*
X36798831Y-38527837D01*
X36547071Y-38608654D01*
X36418543Y-38877179D01*
X36388128Y-38996259D01*
X36353169Y-38985037D01*
X35485605Y-39852600D01*
X35126395Y-39852600D01*
X34258831Y-38985037D01*
X34227296Y-38995160D01*
X34219222Y-38954570D01*
X34157447Y-38805431D01*
X34438437Y-38805431D01*
X35306000Y-39672995D01*
X36173563Y-38805431D01*
X36092746Y-38553671D01*
X35824221Y-38425143D01*
X35535781Y-38351471D01*
X35475524Y-38348231D01*
X36978437Y-38348231D01*
X37846000Y-39215795D01*
X38713563Y-38348231D01*
X38632746Y-38096471D01*
X38364221Y-37967943D01*
X38075781Y-37894271D01*
X37778509Y-37878287D01*
X37483833Y-37920604D01*
X37203073Y-38019598D01*
X37059254Y-38096471D01*
X36978437Y-38348231D01*
X35475524Y-38348231D01*
X35238509Y-38335487D01*
X34943833Y-38377804D01*
X34663073Y-38476798D01*
X34519254Y-38553671D01*
X34438437Y-38805431D01*
X34157447Y-38805431D01*
X34105297Y-38679531D01*
X33939904Y-38432002D01*
X33729398Y-38221496D01*
X33481869Y-38056103D01*
X33206830Y-37942178D01*
X32914850Y-37884100D01*
X32617150Y-37884100D01*
X32325170Y-37942178D01*
X32050131Y-38056103D01*
X31802602Y-38221496D01*
X31592096Y-38432002D01*
X31538240Y-38512604D01*
X31456794Y-38445763D01*
X31346480Y-38386798D01*
X31226782Y-38350488D01*
X31102300Y-38338228D01*
X29349700Y-38338228D01*
X29225218Y-38350488D01*
X29105520Y-38386798D01*
X28995206Y-38445763D01*
X28898515Y-38525115D01*
X28819163Y-38621806D01*
X28760198Y-38732120D01*
X28723888Y-38851818D01*
X28711628Y-38976300D01*
X28711628Y-40728900D01*
X28723888Y-40853382D01*
X28760198Y-40973080D01*
X28819163Y-41083394D01*
X28898515Y-41180085D01*
X28948404Y-41221028D01*
X28940826Y-41220322D01*
X28385368Y-41278019D01*
X27851839Y-41442972D01*
X27385976Y-41691982D01*
X27145830Y-42079225D01*
X26853750Y-42079225D01*
X26853750Y-27987000D01*
X36662928Y-27987000D01*
X36666000Y-28101250D01*
X36824750Y-28260000D01*
X38124000Y-28260000D01*
X38124000Y-27510750D01*
X38378000Y-27510750D01*
X38378000Y-28260000D01*
X39677250Y-28260000D01*
X39836000Y-28101250D01*
X39839072Y-27987000D01*
X39826812Y-27862518D01*
X39790502Y-27742820D01*
X39731537Y-27632506D01*
X39652185Y-27535815D01*
X39555494Y-27456463D01*
X39445180Y-27397498D01*
X39325482Y-27361188D01*
X39201000Y-27348928D01*
X38536750Y-27352000D01*
X38378000Y-27510750D01*
X38124000Y-27510750D01*
X37965250Y-27352000D01*
X37301000Y-27348928D01*
X37176518Y-27361188D01*
X37056820Y-27397498D01*
X36946506Y-27456463D01*
X36849815Y-27535815D01*
X36770463Y-27632506D01*
X36711498Y-27742820D01*
X36675188Y-27862518D01*
X36662928Y-27987000D01*
X26853750Y-27987000D01*
X26853750Y-22182775D01*
X27145830Y-22182775D01*
X27385976Y-22570018D01*
X27879877Y-22830641D01*
X28415133Y-22989901D01*
X28971174Y-23041678D01*
X29229224Y-23014874D01*
X29052096Y-23192002D01*
X28886703Y-23439531D01*
X28772778Y-23714570D01*
X28714700Y-24006550D01*
X28714700Y-24304250D01*
X28772778Y-24596230D01*
X28886703Y-24871269D01*
X29052096Y-25118798D01*
X29262602Y-25329304D01*
X29510131Y-25494697D01*
X29785170Y-25608622D01*
X30077150Y-25666700D01*
X30374850Y-25666700D01*
X30409694Y-25659769D01*
X31898437Y-25659769D01*
X31979254Y-25911529D01*
X32247779Y-26040057D01*
X32536219Y-26113729D01*
X32833491Y-26129713D01*
X33128167Y-26087396D01*
X33408927Y-25988402D01*
X33552746Y-25911529D01*
X33633563Y-25659769D01*
X32766000Y-24792205D01*
X31898437Y-25659769D01*
X30409694Y-25659769D01*
X30666830Y-25608622D01*
X30941869Y-25494697D01*
X31189398Y-25329304D01*
X31357086Y-25161616D01*
X31390198Y-25255527D01*
X31467071Y-25399346D01*
X31718831Y-25480163D01*
X32586395Y-24612600D01*
X31718831Y-23745037D01*
X31687296Y-23755160D01*
X31679222Y-23714570D01*
X31617447Y-23565431D01*
X31898437Y-23565431D01*
X32766000Y-24432995D01*
X33633563Y-23565431D01*
X33552746Y-23313671D01*
X33284221Y-23185143D01*
X32995781Y-23111471D01*
X32698509Y-23095487D01*
X32403833Y-23137804D01*
X32123073Y-23236798D01*
X31979254Y-23313671D01*
X31898437Y-23565431D01*
X31617447Y-23565431D01*
X31565297Y-23439531D01*
X31399904Y-23192002D01*
X31189398Y-22981496D01*
X30941869Y-22816103D01*
X30666830Y-22702178D01*
X30384016Y-22645923D01*
X30526024Y-22570018D01*
X30766170Y-22182775D01*
X28956000Y-20372605D01*
X27145830Y-22182775D01*
X26853750Y-22182775D01*
X26853750Y-21933419D01*
X26966225Y-22003170D01*
X28776395Y-20193000D01*
X29135605Y-20193000D01*
X30945775Y-22003170D01*
X31150928Y-21875946D01*
X31150928Y-21906600D01*
X31163188Y-22031082D01*
X31199498Y-22150780D01*
X31258463Y-22261094D01*
X31337815Y-22357785D01*
X31434506Y-22437137D01*
X31544820Y-22496102D01*
X31664518Y-22532412D01*
X31789000Y-22544672D01*
X33489000Y-22544672D01*
X33613482Y-22532412D01*
X33733180Y-22496102D01*
X33843494Y-22437137D01*
X33940185Y-22357785D01*
X34019537Y-22261094D01*
X34078502Y-22150780D01*
X34114812Y-22031082D01*
X34127072Y-21906600D01*
X34127072Y-21639677D01*
X34178731Y-21696988D01*
X34412080Y-21871041D01*
X34674901Y-21996225D01*
X34822110Y-22040876D01*
X35052000Y-21919555D01*
X35052000Y-20726400D01*
X35032000Y-20726400D01*
X35032000Y-20472400D01*
X35052000Y-20472400D01*
X35052000Y-19279245D01*
X34822110Y-19157924D01*
X34674901Y-19202575D01*
X34412080Y-19327759D01*
X34178731Y-19501812D01*
X33983822Y-19718045D01*
X33952571Y-19770508D01*
X33940185Y-19755415D01*
X33843494Y-19676063D01*
X33733180Y-19617098D01*
X33613482Y-19580788D01*
X33489000Y-19568528D01*
X31789000Y-19568528D01*
X31732069Y-19574135D01*
X31582028Y-19088839D01*
X31333018Y-18622976D01*
X30945775Y-18382830D01*
X29135605Y-20193000D01*
X28776395Y-20193000D01*
X28762253Y-20178858D01*
X28941858Y-19999253D01*
X28956000Y-20013395D01*
X30766170Y-18203225D01*
X30716109Y-18122500D01*
X67747957Y-18122500D01*
X67705733Y-18150713D01*
G37*
G04 #@! TD.AperFunction*
D30*
X76028831Y-35092003D02*
X76052629Y-35121001D01*
X76168354Y-35215974D01*
X76300383Y-35286546D01*
X76443644Y-35330003D01*
X76502481Y-35335798D01*
X76609363Y-35495759D01*
X76809241Y-35695637D01*
X76835928Y-35713469D01*
X76835928Y-35814959D01*
X76769506Y-35850463D01*
X76672815Y-35929815D01*
X76593463Y-36026506D01*
X76534498Y-36136820D01*
X76498188Y-36256518D01*
X76485928Y-36381000D01*
X76485928Y-37881000D01*
X76498188Y-38005482D01*
X76534498Y-38125180D01*
X76593463Y-38235494D01*
X76672815Y-38332185D01*
X76769506Y-38411537D01*
X76879820Y-38470502D01*
X76914427Y-38481000D01*
X76879820Y-38491498D01*
X76769506Y-38550463D01*
X76672815Y-38629815D01*
X76593463Y-38726506D01*
X76534498Y-38836820D01*
X76498188Y-38956518D01*
X76485928Y-39081000D01*
X76485928Y-40581000D01*
X76498188Y-40705482D01*
X76534498Y-40825180D01*
X76593463Y-40935494D01*
X76672815Y-41032185D01*
X76769506Y-41111537D01*
X76835928Y-41147041D01*
X76835928Y-41248531D01*
X76809241Y-41266363D01*
X76609363Y-41466241D01*
X76505957Y-41621000D01*
X74564087Y-41621000D01*
X74452904Y-41454602D01*
X74242398Y-41244096D01*
X73994869Y-41078703D01*
X73719830Y-40964778D01*
X73427850Y-40906700D01*
X73130150Y-40906700D01*
X72838170Y-40964778D01*
X72563131Y-41078703D01*
X72315602Y-41244096D01*
X72105096Y-41454602D01*
X71939703Y-41702131D01*
X71825778Y-41977170D01*
X71767700Y-42269150D01*
X71767700Y-42566850D01*
X71825778Y-42858830D01*
X71939703Y-43133869D01*
X72105096Y-43381398D01*
X72315602Y-43591904D01*
X72462414Y-43690000D01*
X70137390Y-43690000D01*
X70209563Y-43465169D01*
X69342000Y-42597605D01*
X69327858Y-42611748D01*
X69148252Y-42432142D01*
X69162395Y-42418000D01*
X69521605Y-42418000D01*
X70389169Y-43285563D01*
X70640929Y-43204746D01*
X70769457Y-42936221D01*
X70843129Y-42647781D01*
X70859113Y-42350509D01*
X70816796Y-42055833D01*
X70717802Y-41775073D01*
X70640929Y-41631254D01*
X70389169Y-41550437D01*
X69521605Y-42418000D01*
X69162395Y-42418000D01*
X68294831Y-41550437D01*
X68043071Y-41631254D01*
X67914543Y-41899779D01*
X67840871Y-42188219D01*
X67824887Y-42485491D01*
X67867204Y-42780167D01*
X67966198Y-43060927D01*
X67986832Y-43099531D01*
X67847253Y-42959951D01*
X67823450Y-42930948D01*
X67707725Y-42835975D01*
X67620301Y-42789245D01*
X67620301Y-41370831D01*
X68474437Y-41370831D01*
X69342000Y-42238395D01*
X70209563Y-41370831D01*
X70128746Y-41119071D01*
X69860221Y-40990543D01*
X69571781Y-40916871D01*
X69274509Y-40900887D01*
X68979833Y-40943204D01*
X68699073Y-41042198D01*
X68555254Y-41119071D01*
X68474437Y-41370831D01*
X67620301Y-41370831D01*
X67620301Y-39116373D01*
X67623977Y-39079050D01*
X67620301Y-39041727D01*
X67620301Y-39041718D01*
X67609304Y-38930065D01*
X67565847Y-38786804D01*
X67495275Y-38654775D01*
X67482112Y-38638736D01*
X67424100Y-38568047D01*
X67424096Y-38568043D01*
X67400302Y-38539050D01*
X67371309Y-38515256D01*
X66165000Y-37308949D01*
X66165000Y-36965178D01*
X66351632Y-36840475D01*
X66558475Y-36633632D01*
X66708751Y-36408728D01*
X66708751Y-36475168D01*
X66705074Y-36512500D01*
X66708751Y-36549833D01*
X66719575Y-36659724D01*
X66719748Y-36661485D01*
X66763204Y-36804746D01*
X66833776Y-36936776D01*
X66894680Y-37010987D01*
X66928750Y-37052501D01*
X66957748Y-37076299D01*
X67254447Y-37372998D01*
X67278250Y-37402002D01*
X67393975Y-37496975D01*
X67526004Y-37567547D01*
X67669265Y-37611004D01*
X67780918Y-37622001D01*
X67780927Y-37622001D01*
X67818250Y-37625677D01*
X67855573Y-37622001D01*
X73431927Y-37622001D01*
X73469249Y-37625677D01*
X73506571Y-37622001D01*
X73506582Y-37622001D01*
X73618235Y-37611004D01*
X73761496Y-37567547D01*
X73893525Y-37496975D01*
X74009250Y-37402002D01*
X74033053Y-37372999D01*
X75049004Y-36357048D01*
X75078001Y-36333251D01*
X75172974Y-36217526D01*
X75243546Y-36085497D01*
X75287003Y-35942236D01*
X75298000Y-35830583D01*
X75298000Y-35830574D01*
X75301676Y-35793251D01*
X75298000Y-35755928D01*
X75298000Y-34361171D01*
X76028831Y-35092003D01*
G04 #@! TA.AperFunction,Conductor*
D31*
G36*
X76028831Y-35092003D02*
G01*
X76052629Y-35121001D01*
X76168354Y-35215974D01*
X76300383Y-35286546D01*
X76443644Y-35330003D01*
X76502481Y-35335798D01*
X76609363Y-35495759D01*
X76809241Y-35695637D01*
X76835928Y-35713469D01*
X76835928Y-35814959D01*
X76769506Y-35850463D01*
X76672815Y-35929815D01*
X76593463Y-36026506D01*
X76534498Y-36136820D01*
X76498188Y-36256518D01*
X76485928Y-36381000D01*
X76485928Y-37881000D01*
X76498188Y-38005482D01*
X76534498Y-38125180D01*
X76593463Y-38235494D01*
X76672815Y-38332185D01*
X76769506Y-38411537D01*
X76879820Y-38470502D01*
X76914427Y-38481000D01*
X76879820Y-38491498D01*
X76769506Y-38550463D01*
X76672815Y-38629815D01*
X76593463Y-38726506D01*
X76534498Y-38836820D01*
X76498188Y-38956518D01*
X76485928Y-39081000D01*
X76485928Y-40581000D01*
X76498188Y-40705482D01*
X76534498Y-40825180D01*
X76593463Y-40935494D01*
X76672815Y-41032185D01*
X76769506Y-41111537D01*
X76835928Y-41147041D01*
X76835928Y-41248531D01*
X76809241Y-41266363D01*
X76609363Y-41466241D01*
X76505957Y-41621000D01*
X74564087Y-41621000D01*
X74452904Y-41454602D01*
X74242398Y-41244096D01*
X73994869Y-41078703D01*
X73719830Y-40964778D01*
X73427850Y-40906700D01*
X73130150Y-40906700D01*
X72838170Y-40964778D01*
X72563131Y-41078703D01*
X72315602Y-41244096D01*
X72105096Y-41454602D01*
X71939703Y-41702131D01*
X71825778Y-41977170D01*
X71767700Y-42269150D01*
X71767700Y-42566850D01*
X71825778Y-42858830D01*
X71939703Y-43133869D01*
X72105096Y-43381398D01*
X72315602Y-43591904D01*
X72462414Y-43690000D01*
X70137390Y-43690000D01*
X70209563Y-43465169D01*
X69342000Y-42597605D01*
X69327858Y-42611748D01*
X69148252Y-42432142D01*
X69162395Y-42418000D01*
X69521605Y-42418000D01*
X70389169Y-43285563D01*
X70640929Y-43204746D01*
X70769457Y-42936221D01*
X70843129Y-42647781D01*
X70859113Y-42350509D01*
X70816796Y-42055833D01*
X70717802Y-41775073D01*
X70640929Y-41631254D01*
X70389169Y-41550437D01*
X69521605Y-42418000D01*
X69162395Y-42418000D01*
X68294831Y-41550437D01*
X68043071Y-41631254D01*
X67914543Y-41899779D01*
X67840871Y-42188219D01*
X67824887Y-42485491D01*
X67867204Y-42780167D01*
X67966198Y-43060927D01*
X67986832Y-43099531D01*
X67847253Y-42959951D01*
X67823450Y-42930948D01*
X67707725Y-42835975D01*
X67620301Y-42789245D01*
X67620301Y-41370831D01*
X68474437Y-41370831D01*
X69342000Y-42238395D01*
X70209563Y-41370831D01*
X70128746Y-41119071D01*
X69860221Y-40990543D01*
X69571781Y-40916871D01*
X69274509Y-40900887D01*
X68979833Y-40943204D01*
X68699073Y-41042198D01*
X68555254Y-41119071D01*
X68474437Y-41370831D01*
X67620301Y-41370831D01*
X67620301Y-39116373D01*
X67623977Y-39079050D01*
X67620301Y-39041727D01*
X67620301Y-39041718D01*
X67609304Y-38930065D01*
X67565847Y-38786804D01*
X67495275Y-38654775D01*
X67482112Y-38638736D01*
X67424100Y-38568047D01*
X67424096Y-38568043D01*
X67400302Y-38539050D01*
X67371309Y-38515256D01*
X66165000Y-37308949D01*
X66165000Y-36965178D01*
X66351632Y-36840475D01*
X66558475Y-36633632D01*
X66708751Y-36408728D01*
X66708751Y-36475168D01*
X66705074Y-36512500D01*
X66708751Y-36549833D01*
X66719575Y-36659724D01*
X66719748Y-36661485D01*
X66763204Y-36804746D01*
X66833776Y-36936776D01*
X66894680Y-37010987D01*
X66928750Y-37052501D01*
X66957748Y-37076299D01*
X67254447Y-37372998D01*
X67278250Y-37402002D01*
X67393975Y-37496975D01*
X67526004Y-37567547D01*
X67669265Y-37611004D01*
X67780918Y-37622001D01*
X67780927Y-37622001D01*
X67818250Y-37625677D01*
X67855573Y-37622001D01*
X73431927Y-37622001D01*
X73469249Y-37625677D01*
X73506571Y-37622001D01*
X73506582Y-37622001D01*
X73618235Y-37611004D01*
X73761496Y-37567547D01*
X73893525Y-37496975D01*
X74009250Y-37402002D01*
X74033053Y-37372999D01*
X75049004Y-36357048D01*
X75078001Y-36333251D01*
X75172974Y-36217526D01*
X75243546Y-36085497D01*
X75287003Y-35942236D01*
X75298000Y-35830583D01*
X75298000Y-35830574D01*
X75301676Y-35793251D01*
X75298000Y-35755928D01*
X75298000Y-34361171D01*
X76028831Y-35092003D01*
G37*
G04 #@! TD.AperFunction*
D30*
X72959000Y-29196492D02*
X72979764Y-29407309D01*
X73061818Y-29677808D01*
X73195068Y-29927101D01*
X73374393Y-30145608D01*
X73592900Y-30324932D01*
X73842193Y-30458182D01*
X74112692Y-30540236D01*
X74394000Y-30567943D01*
X74675309Y-30540236D01*
X74945808Y-30458182D01*
X75195101Y-30324932D01*
X75413608Y-30145608D01*
X75592932Y-29927101D01*
X75726182Y-29677808D01*
X75808236Y-29407308D01*
X75821620Y-29271421D01*
X78089002Y-31538804D01*
X78089002Y-33190491D01*
X77865335Y-33146000D01*
X77582665Y-33146000D01*
X77326072Y-33197040D01*
X77326072Y-31762000D01*
X77313812Y-31637518D01*
X77277502Y-31517820D01*
X77218537Y-31407506D01*
X77139185Y-31310815D01*
X77042494Y-31231463D01*
X76932180Y-31172498D01*
X76812482Y-31136188D01*
X76688000Y-31123928D01*
X75988000Y-31123928D01*
X75888000Y-31133777D01*
X75788000Y-31123928D01*
X75088000Y-31123928D01*
X74988000Y-31133777D01*
X74888000Y-31123928D01*
X74188000Y-31123928D01*
X74063518Y-31136188D01*
X73943820Y-31172498D01*
X73833506Y-31231463D01*
X73736815Y-31310815D01*
X73657463Y-31407506D01*
X73598498Y-31517820D01*
X73562188Y-31637518D01*
X73549928Y-31762000D01*
X73549928Y-33262000D01*
X73562188Y-33386482D01*
X73598498Y-33506180D01*
X73657463Y-33616494D01*
X73736815Y-33713185D01*
X73778001Y-33746985D01*
X73778000Y-35478448D01*
X73154448Y-36102001D01*
X70641753Y-36102001D01*
X70690339Y-35910589D01*
X70705611Y-35618469D01*
X70663599Y-35328981D01*
X70565919Y-35053253D01*
X70492472Y-34915843D01*
X70243397Y-34838208D01*
X69394605Y-35687000D01*
X69408748Y-35701143D01*
X69229143Y-35880748D01*
X69215000Y-35866605D01*
X69200858Y-35880748D01*
X69021253Y-35701143D01*
X69035395Y-35687000D01*
X68186603Y-34838208D01*
X68139264Y-34852963D01*
X68103724Y-34786474D01*
X68008751Y-34670749D01*
X67979754Y-34646952D01*
X66846209Y-33513408D01*
X66890000Y-33293260D01*
X66890000Y-33000740D01*
X66832932Y-32713842D01*
X66720990Y-32443589D01*
X66558475Y-32200368D01*
X66351632Y-31993525D01*
X66177240Y-31877000D01*
X66351632Y-31760475D01*
X66552653Y-31559454D01*
X67773790Y-32780593D01*
X67730000Y-33000740D01*
X67730000Y-33293260D01*
X67787068Y-33580158D01*
X67899010Y-33850411D01*
X68061525Y-34093632D01*
X68268368Y-34300475D01*
X68441729Y-34416311D01*
X68366208Y-34658603D01*
X69215000Y-35507395D01*
X70063792Y-34658603D01*
X69988271Y-34416311D01*
X70161632Y-34300475D01*
X70368475Y-34093632D01*
X70530990Y-33850411D01*
X70642932Y-33580158D01*
X70700000Y-33293260D01*
X70700000Y-33000740D01*
X70656209Y-32780592D01*
X71948503Y-31488299D01*
X71977501Y-31464501D01*
X72072474Y-31348776D01*
X72143046Y-31216747D01*
X72186503Y-31073486D01*
X72197500Y-30961833D01*
X72197500Y-30961825D01*
X72201176Y-30924500D01*
X72197500Y-30887175D01*
X72197500Y-29683551D01*
X72959000Y-28922051D01*
X72959000Y-29196492D01*
G04 #@! TA.AperFunction,Conductor*
D31*
G36*
X72959000Y-29196492D02*
G01*
X72979764Y-29407309D01*
X73061818Y-29677808D01*
X73195068Y-29927101D01*
X73374393Y-30145608D01*
X73592900Y-30324932D01*
X73842193Y-30458182D01*
X74112692Y-30540236D01*
X74394000Y-30567943D01*
X74675309Y-30540236D01*
X74945808Y-30458182D01*
X75195101Y-30324932D01*
X75413608Y-30145608D01*
X75592932Y-29927101D01*
X75726182Y-29677808D01*
X75808236Y-29407308D01*
X75821620Y-29271421D01*
X78089002Y-31538804D01*
X78089002Y-33190491D01*
X77865335Y-33146000D01*
X77582665Y-33146000D01*
X77326072Y-33197040D01*
X77326072Y-31762000D01*
X77313812Y-31637518D01*
X77277502Y-31517820D01*
X77218537Y-31407506D01*
X77139185Y-31310815D01*
X77042494Y-31231463D01*
X76932180Y-31172498D01*
X76812482Y-31136188D01*
X76688000Y-31123928D01*
X75988000Y-31123928D01*
X75888000Y-31133777D01*
X75788000Y-31123928D01*
X75088000Y-31123928D01*
X74988000Y-31133777D01*
X74888000Y-31123928D01*
X74188000Y-31123928D01*
X74063518Y-31136188D01*
X73943820Y-31172498D01*
X73833506Y-31231463D01*
X73736815Y-31310815D01*
X73657463Y-31407506D01*
X73598498Y-31517820D01*
X73562188Y-31637518D01*
X73549928Y-31762000D01*
X73549928Y-33262000D01*
X73562188Y-33386482D01*
X73598498Y-33506180D01*
X73657463Y-33616494D01*
X73736815Y-33713185D01*
X73778001Y-33746985D01*
X73778000Y-35478448D01*
X73154448Y-36102001D01*
X70641753Y-36102001D01*
X70690339Y-35910589D01*
X70705611Y-35618469D01*
X70663599Y-35328981D01*
X70565919Y-35053253D01*
X70492472Y-34915843D01*
X70243397Y-34838208D01*
X69394605Y-35687000D01*
X69408748Y-35701143D01*
X69229143Y-35880748D01*
X69215000Y-35866605D01*
X69200858Y-35880748D01*
X69021253Y-35701143D01*
X69035395Y-35687000D01*
X68186603Y-34838208D01*
X68139264Y-34852963D01*
X68103724Y-34786474D01*
X68008751Y-34670749D01*
X67979754Y-34646952D01*
X66846209Y-33513408D01*
X66890000Y-33293260D01*
X66890000Y-33000740D01*
X66832932Y-32713842D01*
X66720990Y-32443589D01*
X66558475Y-32200368D01*
X66351632Y-31993525D01*
X66177240Y-31877000D01*
X66351632Y-31760475D01*
X66552653Y-31559454D01*
X67773790Y-32780593D01*
X67730000Y-33000740D01*
X67730000Y-33293260D01*
X67787068Y-33580158D01*
X67899010Y-33850411D01*
X68061525Y-34093632D01*
X68268368Y-34300475D01*
X68441729Y-34416311D01*
X68366208Y-34658603D01*
X69215000Y-35507395D01*
X70063792Y-34658603D01*
X69988271Y-34416311D01*
X70161632Y-34300475D01*
X70368475Y-34093632D01*
X70530990Y-33850411D01*
X70642932Y-33580158D01*
X70700000Y-33293260D01*
X70700000Y-33000740D01*
X70656209Y-32780592D01*
X71948503Y-31488299D01*
X71977501Y-31464501D01*
X72072474Y-31348776D01*
X72143046Y-31216747D01*
X72186503Y-31073486D01*
X72197500Y-30961833D01*
X72197500Y-30961825D01*
X72201176Y-30924500D01*
X72197500Y-30887175D01*
X72197500Y-29683551D01*
X72959000Y-28922051D01*
X72959000Y-29196492D01*
G37*
G04 #@! TD.AperFunction*
D30*
X35627000Y-33905000D02*
X35333000Y-33905000D01*
X35333000Y-33659000D01*
X35627000Y-33659000D01*
X35627000Y-33905000D01*
G04 #@! TA.AperFunction,Conductor*
D31*
G36*
X35627000Y-33905000D02*
G01*
X35333000Y-33905000D01*
X35333000Y-33659000D01*
X35627000Y-33659000D01*
X35627000Y-33905000D01*
G37*
G04 #@! TD.AperFunction*
G04 #@! TD*
M02*
