%TF.GenerationSoftware,KiCad,Pcbnew,(5.1.6)-1*%
%TF.CreationDate,2020-12-18T23:07:10-06:00*%
%TF.ProjectId,macropad_3x3,6d616372-6f70-4616-945f-3378332e6b69,rev?*%
%TF.SameCoordinates,Original*%
%TF.FileFunction,Legend,Top*%
%TF.FilePolarity,Positive*%
%FSLAX46Y46*%
G04 Gerber Fmt 4.6, Leading zero omitted, Abs format (unit mm)*
G04 Created by KiCad (PCBNEW (5.1.6)-1) date 2020-12-18 23:07:10*
%MOMM*%
%LPD*%
G01*
G04 APERTURE LIST*
%ADD10C,0.150000*%
%ADD11C,0.120000*%
%ADD12C,2.101600*%
%ADD13R,2.101600X3.301600*%
%ADD14R,2.101600X2.101600*%
%ADD15C,1.701600*%
%ADD16R,1.601600X1.301600*%
%ADD17C,2.351600*%
%ADD18C,4.089400*%
%ADD19C,1.851600*%
%ADD20C,1.801600*%
%ADD21C,0.901600*%
%ADD22C,2.006600*%
%ADD23R,2.006600X2.006600*%
%ADD24R,1.701600X1.701600*%
%ADD25O,1.701600X2.101600*%
%ADD26C,2.082800*%
G04 APERTURE END LIST*
D10*
X60618619Y-25050904D02*
X60618619Y-25622333D01*
X59618619Y-25336619D02*
X60618619Y-25336619D01*
X60618619Y-25860428D02*
X59618619Y-26527095D01*
X60618619Y-26527095D02*
X59618619Y-25860428D01*
X60618619Y-27098523D02*
X60618619Y-27193761D01*
X60571000Y-27289000D01*
X60523380Y-27336619D01*
X60428142Y-27384238D01*
X60237666Y-27431857D01*
X59999571Y-27431857D01*
X59809095Y-27384238D01*
X59713857Y-27336619D01*
X59666238Y-27289000D01*
X59618619Y-27193761D01*
X59618619Y-27098523D01*
X59666238Y-27003285D01*
X59713857Y-26955666D01*
X59809095Y-26908047D01*
X59999571Y-26860428D01*
X60237666Y-26860428D01*
X60428142Y-26908047D01*
X60523380Y-26955666D01*
X60571000Y-27003285D01*
X60618619Y-27098523D01*
X41727380Y-26852476D02*
X41251190Y-27185809D01*
X41727380Y-27423904D02*
X40727380Y-27423904D01*
X40727380Y-27042952D01*
X40775000Y-26947714D01*
X40822619Y-26900095D01*
X40917857Y-26852476D01*
X41060714Y-26852476D01*
X41155952Y-26900095D01*
X41203571Y-26947714D01*
X41251190Y-27042952D01*
X41251190Y-27423904D01*
X41441666Y-26471523D02*
X41441666Y-25995333D01*
X41727380Y-26566761D02*
X40727380Y-26233428D01*
X41727380Y-25900095D01*
X40727380Y-25662000D02*
X41727380Y-25423904D01*
X41013095Y-25233428D01*
X41727380Y-25042952D01*
X40727380Y-24804857D01*
D11*
%TO.C,RE2*%
X72850000Y-31750000D02*
G75*
G03*
X72850000Y-31750000I-3000000J0D01*
G01*
X63950000Y-29750000D02*
X63950000Y-25650000D01*
X75750000Y-25650000D02*
X75750000Y-29750000D01*
X75750000Y-33750000D02*
X75750000Y-37850000D01*
X63950000Y-33750000D02*
X63950000Y-37850000D01*
X63950000Y-37850000D02*
X75750000Y-37850000D01*
X66050000Y-39250000D02*
X65750000Y-39550000D01*
X65750000Y-39550000D02*
X65750000Y-38950000D01*
X65750000Y-38950000D02*
X66050000Y-39250000D01*
X63950000Y-25650000D02*
X66350000Y-25650000D01*
X68550000Y-25650000D02*
X71150000Y-25650000D01*
X73350000Y-25650000D02*
X75750000Y-25650000D01*
X69350000Y-31750000D02*
X70350000Y-31750000D01*
X69850000Y-32250000D02*
X69850000Y-31250000D01*
%TO.C,RE1*%
X34750000Y-31750000D02*
G75*
G03*
X34750000Y-31750000I-3000000J0D01*
G01*
X25850000Y-29750000D02*
X25850000Y-25650000D01*
X37650000Y-25650000D02*
X37650000Y-29750000D01*
X37650000Y-33750000D02*
X37650000Y-37850000D01*
X25850000Y-33750000D02*
X25850000Y-37850000D01*
X25850000Y-37850000D02*
X37650000Y-37850000D01*
X27950000Y-39250000D02*
X27650000Y-39550000D01*
X27650000Y-39550000D02*
X27650000Y-38950000D01*
X27650000Y-38950000D02*
X27950000Y-39250000D01*
X25850000Y-25650000D02*
X28250000Y-25650000D01*
X30450000Y-25650000D02*
X33050000Y-25650000D01*
X35250000Y-25650000D02*
X37650000Y-25650000D01*
X31250000Y-31750000D02*
X32250000Y-31750000D01*
X31750000Y-32250000D02*
X31750000Y-31250000D01*
%TD*%
%LPC*%
D12*
%TO.C,RE2*%
X72350000Y-24750000D03*
X67350000Y-24750000D03*
D13*
X75450000Y-31750000D03*
X64250000Y-31750000D03*
D12*
X72350000Y-39250000D03*
X69850000Y-39250000D03*
D14*
X67350000Y-39250000D03*
%TD*%
D15*
%TO.C,R11*%
X52705000Y-23812500D03*
X60505000Y-23812500D03*
D16*
X55255000Y-23812500D03*
X57955000Y-23812500D03*
%TD*%
D15*
%TO.C,R10*%
X50662500Y-23622000D03*
X42862500Y-23622000D03*
D16*
X48112500Y-23622000D03*
X45412500Y-23622000D03*
%TD*%
D15*
%TO.C,R9*%
X65950000Y-77216000D03*
X73750000Y-77216000D03*
D16*
X68500000Y-77216000D03*
X71200000Y-77216000D03*
%TD*%
D15*
%TO.C,R8*%
X46900000Y-77216000D03*
X54700000Y-77216000D03*
D16*
X49450000Y-77216000D03*
X52150000Y-77216000D03*
%TD*%
D15*
%TO.C,R7*%
X27850000Y-77216000D03*
X35650000Y-77216000D03*
D16*
X30400000Y-77216000D03*
X33100000Y-77216000D03*
%TD*%
D15*
%TO.C,R6*%
X65950000Y-58166000D03*
X73750000Y-58166000D03*
D16*
X68500000Y-58166000D03*
X71200000Y-58166000D03*
%TD*%
D15*
%TO.C,R5*%
X46900000Y-58166000D03*
X54700000Y-58166000D03*
D16*
X49450000Y-58166000D03*
X52150000Y-58166000D03*
%TD*%
D15*
%TO.C,R4*%
X27850000Y-58166000D03*
X35650000Y-58166000D03*
D16*
X30400000Y-58166000D03*
X33100000Y-58166000D03*
%TD*%
D15*
%TO.C,R3*%
X65950000Y-42418000D03*
X73750000Y-42418000D03*
D16*
X68500000Y-42418000D03*
X71200000Y-42418000D03*
%TD*%
D15*
%TO.C,R2*%
X46900000Y-39116000D03*
X54700000Y-39116000D03*
D16*
X49450000Y-39116000D03*
X52150000Y-39116000D03*
%TD*%
D15*
%TO.C,R1*%
X27850000Y-41656000D03*
X35650000Y-41656000D03*
D16*
X30400000Y-41656000D03*
X33100000Y-41656000D03*
%TD*%
D15*
%TO.C,RQ1*%
X42926000Y-58801000D03*
X42926000Y-66601000D03*
%TD*%
%TO.C,MX6*%
G36*
G01*
X72270027Y-47473077D02*
X72270028Y-47473077D01*
G75*
G02*
X71176923Y-46220028I79972J1173077D01*
G01*
X71216465Y-45639996D01*
G75*
G02*
X72469514Y-44546891I1173077J-79972D01*
G01*
X72469514Y-44546891D01*
G75*
G02*
X73562619Y-45799940I-79972J-1173077D01*
G01*
X73523077Y-46379972D01*
G75*
G02*
X72270028Y-47473077I-1173077J79972D01*
G01*
G37*
D17*
X72390000Y-45720000D03*
G36*
G01*
X65254762Y-49135162D02*
X65254762Y-49135162D01*
G75*
G02*
X65164838Y-47474762I785238J875162D01*
G01*
X66474828Y-46014754D01*
G75*
G02*
X68135228Y-45924830I875162J-785238D01*
G01*
X68135228Y-45924830D01*
G75*
G02*
X68225152Y-47585230I-785238J-875162D01*
G01*
X66915162Y-49045238D01*
G75*
G02*
X65254762Y-49135162I-875162J785238D01*
G01*
G37*
D18*
X69850000Y-50800000D03*
D17*
X67350000Y-46800000D03*
D19*
X64770000Y-50800000D03*
X74930000Y-50800000D03*
D12*
X74850000Y-47000000D03*
X69850000Y-44900000D03*
D20*
X64350000Y-50800000D03*
X75350000Y-50800000D03*
D21*
X64630000Y-55000000D03*
D22*
X68580000Y-55880000D03*
D23*
X71120000Y-55880000D03*
%TD*%
%TO.C,MX9*%
G36*
G01*
X72270027Y-66523077D02*
X72270028Y-66523077D01*
G75*
G02*
X71176923Y-65270028I79972J1173077D01*
G01*
X71216465Y-64689996D01*
G75*
G02*
X72469514Y-63596891I1173077J-79972D01*
G01*
X72469514Y-63596891D01*
G75*
G02*
X73562619Y-64849940I-79972J-1173077D01*
G01*
X73523077Y-65429972D01*
G75*
G02*
X72270028Y-66523077I-1173077J79972D01*
G01*
G37*
D17*
X72390000Y-64770000D03*
G36*
G01*
X65254762Y-68185162D02*
X65254762Y-68185162D01*
G75*
G02*
X65164838Y-66524762I785238J875162D01*
G01*
X66474828Y-65064754D01*
G75*
G02*
X68135228Y-64974830I875162J-785238D01*
G01*
X68135228Y-64974830D01*
G75*
G02*
X68225152Y-66635230I-785238J-875162D01*
G01*
X66915162Y-68095238D01*
G75*
G02*
X65254762Y-68185162I-875162J785238D01*
G01*
G37*
D18*
X69850000Y-69850000D03*
D17*
X67350000Y-65850000D03*
D19*
X64770000Y-69850000D03*
X74930000Y-69850000D03*
D12*
X74850000Y-66050000D03*
X69850000Y-63950000D03*
D20*
X64350000Y-69850000D03*
X75350000Y-69850000D03*
D21*
X64630000Y-74050000D03*
D22*
X68580000Y-74930000D03*
D23*
X71120000Y-74930000D03*
%TD*%
%TO.C,MX8*%
G36*
G01*
X53220027Y-66523077D02*
X53220028Y-66523077D01*
G75*
G02*
X52126923Y-65270028I79972J1173077D01*
G01*
X52166465Y-64689996D01*
G75*
G02*
X53419514Y-63596891I1173077J-79972D01*
G01*
X53419514Y-63596891D01*
G75*
G02*
X54512619Y-64849940I-79972J-1173077D01*
G01*
X54473077Y-65429972D01*
G75*
G02*
X53220028Y-66523077I-1173077J79972D01*
G01*
G37*
D17*
X53340000Y-64770000D03*
G36*
G01*
X46204762Y-68185162D02*
X46204762Y-68185162D01*
G75*
G02*
X46114838Y-66524762I785238J875162D01*
G01*
X47424828Y-65064754D01*
G75*
G02*
X49085228Y-64974830I875162J-785238D01*
G01*
X49085228Y-64974830D01*
G75*
G02*
X49175152Y-66635230I-785238J-875162D01*
G01*
X47865162Y-68095238D01*
G75*
G02*
X46204762Y-68185162I-875162J785238D01*
G01*
G37*
D18*
X50800000Y-69850000D03*
D17*
X48300000Y-65850000D03*
D19*
X45720000Y-69850000D03*
X55880000Y-69850000D03*
D12*
X55800000Y-66050000D03*
X50800000Y-63950000D03*
D20*
X45300000Y-69850000D03*
X56300000Y-69850000D03*
D21*
X45580000Y-74050000D03*
D22*
X49530000Y-74930000D03*
D23*
X52070000Y-74930000D03*
%TD*%
%TO.C,MX7*%
G36*
G01*
X34170027Y-66523077D02*
X34170028Y-66523077D01*
G75*
G02*
X33076923Y-65270028I79972J1173077D01*
G01*
X33116465Y-64689996D01*
G75*
G02*
X34369514Y-63596891I1173077J-79972D01*
G01*
X34369514Y-63596891D01*
G75*
G02*
X35462619Y-64849940I-79972J-1173077D01*
G01*
X35423077Y-65429972D01*
G75*
G02*
X34170028Y-66523077I-1173077J79972D01*
G01*
G37*
D17*
X34290000Y-64770000D03*
G36*
G01*
X27154762Y-68185162D02*
X27154762Y-68185162D01*
G75*
G02*
X27064838Y-66524762I785238J875162D01*
G01*
X28374828Y-65064754D01*
G75*
G02*
X30035228Y-64974830I875162J-785238D01*
G01*
X30035228Y-64974830D01*
G75*
G02*
X30125152Y-66635230I-785238J-875162D01*
G01*
X28815162Y-68095238D01*
G75*
G02*
X27154762Y-68185162I-875162J785238D01*
G01*
G37*
D18*
X31750000Y-69850000D03*
D17*
X29250000Y-65850000D03*
D19*
X26670000Y-69850000D03*
X36830000Y-69850000D03*
D12*
X36750000Y-66050000D03*
X31750000Y-63950000D03*
D20*
X26250000Y-69850000D03*
X37250000Y-69850000D03*
D21*
X26530000Y-74050000D03*
D22*
X30480000Y-74930000D03*
D23*
X33020000Y-74930000D03*
%TD*%
%TO.C,MX5*%
G36*
G01*
X53220027Y-47473077D02*
X53220028Y-47473077D01*
G75*
G02*
X52126923Y-46220028I79972J1173077D01*
G01*
X52166465Y-45639996D01*
G75*
G02*
X53419514Y-44546891I1173077J-79972D01*
G01*
X53419514Y-44546891D01*
G75*
G02*
X54512619Y-45799940I-79972J-1173077D01*
G01*
X54473077Y-46379972D01*
G75*
G02*
X53220028Y-47473077I-1173077J79972D01*
G01*
G37*
D17*
X53340000Y-45720000D03*
G36*
G01*
X46204762Y-49135162D02*
X46204762Y-49135162D01*
G75*
G02*
X46114838Y-47474762I785238J875162D01*
G01*
X47424828Y-46014754D01*
G75*
G02*
X49085228Y-45924830I875162J-785238D01*
G01*
X49085228Y-45924830D01*
G75*
G02*
X49175152Y-47585230I-785238J-875162D01*
G01*
X47865162Y-49045238D01*
G75*
G02*
X46204762Y-49135162I-875162J785238D01*
G01*
G37*
D18*
X50800000Y-50800000D03*
D17*
X48300000Y-46800000D03*
D19*
X45720000Y-50800000D03*
X55880000Y-50800000D03*
D12*
X55800000Y-47000000D03*
X50800000Y-44900000D03*
D20*
X45300000Y-50800000D03*
X56300000Y-50800000D03*
D21*
X45580000Y-55000000D03*
D22*
X49530000Y-55880000D03*
D23*
X52070000Y-55880000D03*
%TD*%
%TO.C,MX4*%
G36*
G01*
X34170027Y-47473077D02*
X34170028Y-47473077D01*
G75*
G02*
X33076923Y-46220028I79972J1173077D01*
G01*
X33116465Y-45639996D01*
G75*
G02*
X34369514Y-44546891I1173077J-79972D01*
G01*
X34369514Y-44546891D01*
G75*
G02*
X35462619Y-45799940I-79972J-1173077D01*
G01*
X35423077Y-46379972D01*
G75*
G02*
X34170028Y-47473077I-1173077J79972D01*
G01*
G37*
D17*
X34290000Y-45720000D03*
G36*
G01*
X27154762Y-49135162D02*
X27154762Y-49135162D01*
G75*
G02*
X27064838Y-47474762I785238J875162D01*
G01*
X28374828Y-46014754D01*
G75*
G02*
X30035228Y-45924830I875162J-785238D01*
G01*
X30035228Y-45924830D01*
G75*
G02*
X30125152Y-47585230I-785238J-875162D01*
G01*
X28815162Y-49045238D01*
G75*
G02*
X27154762Y-49135162I-875162J785238D01*
G01*
G37*
D18*
X31750000Y-50800000D03*
D17*
X29250000Y-46800000D03*
D19*
X26670000Y-50800000D03*
X36830000Y-50800000D03*
D12*
X36750000Y-47000000D03*
X31750000Y-44900000D03*
D20*
X26250000Y-50800000D03*
X37250000Y-50800000D03*
D21*
X26530000Y-55000000D03*
D22*
X30480000Y-55880000D03*
D23*
X33020000Y-55880000D03*
%TD*%
%TO.C,MX3*%
G36*
G01*
X72270027Y-28423077D02*
X72270028Y-28423077D01*
G75*
G02*
X71176923Y-27170028I79972J1173077D01*
G01*
X71216465Y-26589996D01*
G75*
G02*
X72469514Y-25496891I1173077J-79972D01*
G01*
X72469514Y-25496891D01*
G75*
G02*
X73562619Y-26749940I-79972J-1173077D01*
G01*
X73523077Y-27329972D01*
G75*
G02*
X72270028Y-28423077I-1173077J79972D01*
G01*
G37*
D17*
X72390000Y-26670000D03*
G36*
G01*
X65254762Y-30085162D02*
X65254762Y-30085162D01*
G75*
G02*
X65164838Y-28424762I785238J875162D01*
G01*
X66474828Y-26964754D01*
G75*
G02*
X68135228Y-26874830I875162J-785238D01*
G01*
X68135228Y-26874830D01*
G75*
G02*
X68225152Y-28535230I-785238J-875162D01*
G01*
X66915162Y-29995238D01*
G75*
G02*
X65254762Y-30085162I-875162J785238D01*
G01*
G37*
D18*
X69850000Y-31750000D03*
D17*
X67350000Y-27750000D03*
D19*
X64770000Y-31750000D03*
X74930000Y-31750000D03*
D12*
X74850000Y-27950000D03*
X69850000Y-25850000D03*
D20*
X64350000Y-31750000D03*
X75350000Y-31750000D03*
D21*
X64630000Y-35950000D03*
D22*
X68580000Y-36830000D03*
D23*
X71120000Y-36830000D03*
%TD*%
%TO.C,MX2*%
G36*
G01*
X53220027Y-28423077D02*
X53220028Y-28423077D01*
G75*
G02*
X52126923Y-27170028I79972J1173077D01*
G01*
X52166465Y-26589996D01*
G75*
G02*
X53419514Y-25496891I1173077J-79972D01*
G01*
X53419514Y-25496891D01*
G75*
G02*
X54512619Y-26749940I-79972J-1173077D01*
G01*
X54473077Y-27329972D01*
G75*
G02*
X53220028Y-28423077I-1173077J79972D01*
G01*
G37*
D17*
X53340000Y-26670000D03*
G36*
G01*
X46204762Y-30085162D02*
X46204762Y-30085162D01*
G75*
G02*
X46114838Y-28424762I785238J875162D01*
G01*
X47424828Y-26964754D01*
G75*
G02*
X49085228Y-26874830I875162J-785238D01*
G01*
X49085228Y-26874830D01*
G75*
G02*
X49175152Y-28535230I-785238J-875162D01*
G01*
X47865162Y-29995238D01*
G75*
G02*
X46204762Y-30085162I-875162J785238D01*
G01*
G37*
D18*
X50800000Y-31750000D03*
D17*
X48300000Y-27750000D03*
D19*
X45720000Y-31750000D03*
X55880000Y-31750000D03*
D12*
X55800000Y-27950000D03*
X50800000Y-25850000D03*
D20*
X45300000Y-31750000D03*
X56300000Y-31750000D03*
D21*
X45580000Y-35950000D03*
D22*
X49530000Y-36830000D03*
D23*
X52070000Y-36830000D03*
%TD*%
%TO.C,MX1*%
G36*
G01*
X34170027Y-28423077D02*
X34170028Y-28423077D01*
G75*
G02*
X33076923Y-27170028I79972J1173077D01*
G01*
X33116465Y-26589996D01*
G75*
G02*
X34369514Y-25496891I1173077J-79972D01*
G01*
X34369514Y-25496891D01*
G75*
G02*
X35462619Y-26749940I-79972J-1173077D01*
G01*
X35423077Y-27329972D01*
G75*
G02*
X34170028Y-28423077I-1173077J79972D01*
G01*
G37*
D17*
X34290000Y-26670000D03*
G36*
G01*
X27154762Y-30085162D02*
X27154762Y-30085162D01*
G75*
G02*
X27064838Y-28424762I785238J875162D01*
G01*
X28374828Y-26964754D01*
G75*
G02*
X30035228Y-26874830I875162J-785238D01*
G01*
X30035228Y-26874830D01*
G75*
G02*
X30125152Y-28535230I-785238J-875162D01*
G01*
X28815162Y-29995238D01*
G75*
G02*
X27154762Y-30085162I-875162J785238D01*
G01*
G37*
D18*
X31750000Y-31750000D03*
D17*
X29250000Y-27750000D03*
D19*
X26670000Y-31750000D03*
X36830000Y-31750000D03*
D12*
X36750000Y-27950000D03*
X31750000Y-25850000D03*
D20*
X26250000Y-31750000D03*
X37250000Y-31750000D03*
D21*
X26530000Y-35950000D03*
D22*
X30480000Y-36830000D03*
D23*
X33020000Y-36830000D03*
%TD*%
D24*
%TO.C,D9*%
X77470000Y-73750000D03*
D15*
X77470000Y-65950000D03*
%TD*%
D24*
%TO.C,D8*%
X58420000Y-73750000D03*
D15*
X58420000Y-65950000D03*
%TD*%
D24*
%TO.C,D7*%
X39370000Y-73750000D03*
D15*
X39370000Y-65950000D03*
%TD*%
D24*
%TO.C,D6*%
X77470000Y-55562500D03*
D15*
X77470000Y-47762500D03*
%TD*%
D24*
%TO.C,D5*%
X46900000Y-42862500D03*
D15*
X54700000Y-42862500D03*
%TD*%
D24*
%TO.C,D4*%
X39370000Y-54700000D03*
D15*
X39370000Y-46900000D03*
%TD*%
D24*
%TO.C,D3*%
X77470000Y-35650000D03*
D15*
X77470000Y-27850000D03*
%TD*%
D24*
%TO.C,D2*%
X46900000Y-41021000D03*
D15*
X54700000Y-41021000D03*
%TD*%
D24*
%TO.C,D1*%
X39370000Y-35650000D03*
D15*
X39370000Y-27850000D03*
%TD*%
D25*
%TO.C,U1*%
X66593750Y-33525000D03*
X61993750Y-32425000D03*
X61993750Y-25425000D03*
D21*
X64293750Y-30825000D03*
X64293750Y-23825000D03*
D25*
X61993750Y-28425000D03*
%TD*%
D12*
%TO.C,RE1*%
X34250000Y-24750000D03*
X29250000Y-24750000D03*
D13*
X37350000Y-31750000D03*
X26150000Y-31750000D03*
D12*
X34250000Y-39250000D03*
X31750000Y-39250000D03*
D14*
X29250000Y-39250000D03*
%TD*%
D26*
%TO.C,B1*%
X43180000Y-26193750D03*
X43180000Y-28733750D03*
X43180000Y-31273750D03*
X43180000Y-33813750D03*
X43180000Y-36353750D03*
X43180000Y-38893750D03*
X43180000Y-41433750D03*
X43180000Y-43973750D03*
X43180000Y-46513750D03*
X43180000Y-49053750D03*
X43180000Y-51593750D03*
X43180000Y-54133750D03*
X58420000Y-54133750D03*
X58420000Y-51593750D03*
X58420000Y-49053750D03*
X58420000Y-46513750D03*
X58420000Y-43973750D03*
X58420000Y-41433750D03*
X58420000Y-38893750D03*
X58420000Y-36353750D03*
X58420000Y-33813750D03*
X58420000Y-31273750D03*
X58420000Y-28733750D03*
X58420000Y-26193750D03*
%TD*%
M02*
