M48
; DRILL file {KiCad (5.1.6)-1} date 12/18/20 23:07:13
; FORMAT={-:-/ absolute / inch / decimal}
; #@! TF.CreationDate,2020-12-18T23:07:13-06:00
; #@! TF.GenerationSoftware,Kicad,Pcbnew,(5.1.6)-1
; #@! TF.FileFunction,NonPlated,1,2,NPTH
FMAT,2
INCH
T1C0.0315
T2C0.0591
T3C0.0669
T4C0.0689
T5C0.1570
%
G90
G05
T1
X2.5445Y-2.9154
X2.5445Y-1.4154
X2.5445Y-2.1654
X1.0445Y-1.4154
X2.5312Y-0.938
X2.5312Y-1.2136
X1.7945Y-1.4154
X1.7945Y-2.9154
X1.0445Y-2.1654
X1.7945Y-2.1654
X1.0445Y-2.9154
T3
X1.7835Y-2.0
X2.2165Y-2.0
X1.0335Y-2.75
X1.4665Y-2.75
X1.0335Y-1.25
X1.4665Y-1.25
X1.7835Y-1.25
X2.2165Y-1.25
X2.5335Y-2.75
X2.9665Y-2.75
X2.5335Y-1.25
X2.9665Y-1.25
X1.7835Y-2.75
X2.2165Y-2.75
X1.0335Y-2.0
X1.4665Y-2.0
X2.5335Y-2.0
X2.9665Y-2.0
T4
X1.8Y-1.25
X2.2Y-1.25
X2.55Y-2.75
X2.95Y-2.75
X2.55Y-1.25
X2.95Y-1.25
X1.8Y-2.75
X2.2Y-2.75
X1.05Y-2.0
X1.45Y-2.0
X2.55Y-2.0
X2.95Y-2.0
X1.8Y-2.0
X2.2Y-2.0
X1.05Y-2.75
X1.45Y-2.75
X1.05Y-1.25
X1.45Y-1.25
T5
X2.0Y-1.25
X2.75Y-2.75
X2.75Y-1.25
X2.0Y-2.75
X1.25Y-2.0
X2.75Y-2.0
X2.0Y-2.0
X1.25Y-2.75
X1.25Y-1.25
T2
G00X2.5295Y-1.2756
M15
G01X2.5295Y-1.2244
M16
G05
G00X2.9705Y-1.2756
M15
G01X2.9705Y-1.2244
M16
G05
G00X1.0295Y-1.2756
M15
G01X1.0295Y-1.2244
M16
G05
G00X1.4705Y-1.2756
M15
G01X1.4705Y-1.2244
M16
G05
T0
M30
