%TF.GenerationSoftware,KiCad,Pcbnew,(5.1.6)-1*%
%TF.CreationDate,2020-12-18T23:07:10-06:00*%
%TF.ProjectId,macropad_3x3,6d616372-6f70-4616-945f-3378332e6b69,rev?*%
%TF.SameCoordinates,Original*%
%TF.FileFunction,Copper,L1,Top*%
%TF.FilePolarity,Positive*%
%FSLAX46Y46*%
G04 Gerber Fmt 4.6, Leading zero omitted, Abs format (unit mm)*
G04 Created by KiCad (PCBNEW (5.1.6)-1) date 2020-12-18 23:07:10*
%MOMM*%
%LPD*%
G01*
G04 APERTURE LIST*
%TA.AperFunction,ComponentPad*%
%ADD10C,2.000000*%
%TD*%
%TA.AperFunction,WasherPad*%
%ADD11R,2.000000X3.200000*%
%TD*%
%TA.AperFunction,ComponentPad*%
%ADD12R,2.000000X2.000000*%
%TD*%
%TA.AperFunction,ComponentPad*%
%ADD13C,1.600000*%
%TD*%
%TA.AperFunction,Conductor*%
%ADD14R,2.900000X0.500000*%
%TD*%
%TA.AperFunction,SMDPad,CuDef*%
%ADD15R,1.500000X1.200000*%
%TD*%
%TA.AperFunction,ComponentPad*%
%ADD16C,2.250000*%
%TD*%
%TA.AperFunction,ComponentPad*%
%ADD17C,1.905000*%
%TD*%
%TA.AperFunction,ComponentPad*%
%ADD18R,1.905000X1.905000*%
%TD*%
%TA.AperFunction,ComponentPad*%
%ADD19R,1.600000X1.600000*%
%TD*%
%TA.AperFunction,ComponentPad*%
%ADD20O,1.600000X2.000000*%
%TD*%
%TA.AperFunction,ComponentPad*%
%ADD21C,1.879600*%
%TD*%
%TA.AperFunction,ViaPad*%
%ADD22C,0.685800*%
%TD*%
%TA.AperFunction,Conductor*%
%ADD23C,0.152400*%
%TD*%
%TA.AperFunction,Conductor*%
%ADD24C,0.254000*%
%TD*%
%TA.AperFunction,Conductor*%
%ADD25C,0.381000*%
%TD*%
G04 APERTURE END LIST*
D10*
%TO.P,RE2,S1*%
%TO.N,col2*%
X72350000Y-24750000D03*
%TO.P,RE2,S2*%
%TO.N,Net-(D3-Pad2)*%
X67350000Y-24750000D03*
D11*
%TO.P,RE2,*%
%TO.N,*%
X75450000Y-31750000D03*
X64250000Y-31750000D03*
D10*
%TO.P,RE2,B*%
%TO.N,encoder2b*%
X72350000Y-39250000D03*
%TO.P,RE2,C*%
%TO.N,GND*%
X69850000Y-39250000D03*
D12*
%TO.P,RE2,A*%
%TO.N,encoder2a*%
X67350000Y-39250000D03*
%TD*%
D13*
%TO.P,R11,1*%
%TO.N,VCC*%
X52705000Y-23812500D03*
%TO.P,R11,2*%
%TO.N,SDA*%
X60505000Y-23812500D03*
D14*
%TD*%
%TO.N,VCC*%
%TO.C,R11*%
X54105000Y-23812500D03*
D15*
%TO.P,R11,1*%
%TO.N,VCC*%
X55255000Y-23812500D03*
%TO.P,R11,2*%
%TO.N,SDA*%
X57955000Y-23812500D03*
D14*
%TD*%
%TO.N,SDA*%
%TO.C,R11*%
X59105000Y-23812500D03*
D13*
%TO.P,R10,1*%
%TO.N,VCC*%
X50662500Y-23622000D03*
%TO.P,R10,2*%
%TO.N,SCL*%
X42862500Y-23622000D03*
D14*
%TD*%
%TO.N,VCC*%
%TO.C,R10*%
X49262500Y-23622000D03*
D15*
%TO.P,R10,1*%
%TO.N,VCC*%
X48112500Y-23622000D03*
%TO.P,R10,2*%
%TO.N,SCL*%
X45412500Y-23622000D03*
D14*
%TD*%
%TO.N,SCL*%
%TO.C,R10*%
X44262500Y-23622000D03*
D13*
%TO.P,R9,1*%
%TO.N,LEDsOut*%
X65950000Y-77216000D03*
%TO.P,R9,2*%
%TO.N,Net-(MX9-Pad4)*%
X73750000Y-77216000D03*
D14*
%TD*%
%TO.N,LEDsOut*%
%TO.C,R9*%
X67350000Y-77216000D03*
D15*
%TO.P,R9,1*%
%TO.N,LEDsOut*%
X68500000Y-77216000D03*
%TO.P,R9,2*%
%TO.N,Net-(MX9-Pad4)*%
X71200000Y-77216000D03*
D14*
%TD*%
%TO.N,Net-(MX9-Pad4)*%
%TO.C,R9*%
X72350000Y-77216000D03*
D13*
%TO.P,R8,1*%
%TO.N,LEDsOut*%
X46900000Y-77216000D03*
%TO.P,R8,2*%
%TO.N,Net-(MX8-Pad4)*%
X54700000Y-77216000D03*
D14*
%TD*%
%TO.N,LEDsOut*%
%TO.C,R8*%
X48300000Y-77216000D03*
D15*
%TO.P,R8,1*%
%TO.N,LEDsOut*%
X49450000Y-77216000D03*
%TO.P,R8,2*%
%TO.N,Net-(MX8-Pad4)*%
X52150000Y-77216000D03*
D14*
%TD*%
%TO.N,Net-(MX8-Pad4)*%
%TO.C,R8*%
X53300000Y-77216000D03*
D13*
%TO.P,R7,1*%
%TO.N,LEDsOut*%
X27850000Y-77216000D03*
%TO.P,R7,2*%
%TO.N,Net-(MX7-Pad4)*%
X35650000Y-77216000D03*
D14*
%TD*%
%TO.N,LEDsOut*%
%TO.C,R7*%
X29250000Y-77216000D03*
D15*
%TO.P,R7,1*%
%TO.N,LEDsOut*%
X30400000Y-77216000D03*
%TO.P,R7,2*%
%TO.N,Net-(MX7-Pad4)*%
X33100000Y-77216000D03*
D14*
%TD*%
%TO.N,Net-(MX7-Pad4)*%
%TO.C,R7*%
X34250000Y-77216000D03*
D13*
%TO.P,R6,1*%
%TO.N,LEDsOut*%
X65950000Y-58166000D03*
%TO.P,R6,2*%
%TO.N,Net-(MX6-Pad4)*%
X73750000Y-58166000D03*
D14*
%TD*%
%TO.N,LEDsOut*%
%TO.C,R6*%
X67350000Y-58166000D03*
D15*
%TO.P,R6,1*%
%TO.N,LEDsOut*%
X68500000Y-58166000D03*
%TO.P,R6,2*%
%TO.N,Net-(MX6-Pad4)*%
X71200000Y-58166000D03*
D14*
%TD*%
%TO.N,Net-(MX6-Pad4)*%
%TO.C,R6*%
X72350000Y-58166000D03*
D13*
%TO.P,R5,1*%
%TO.N,LEDsOut*%
X46900000Y-58166000D03*
%TO.P,R5,2*%
%TO.N,Net-(MX5-Pad4)*%
X54700000Y-58166000D03*
D14*
%TD*%
%TO.N,LEDsOut*%
%TO.C,R5*%
X48300000Y-58166000D03*
D15*
%TO.P,R5,1*%
%TO.N,LEDsOut*%
X49450000Y-58166000D03*
%TO.P,R5,2*%
%TO.N,Net-(MX5-Pad4)*%
X52150000Y-58166000D03*
D14*
%TD*%
%TO.N,Net-(MX5-Pad4)*%
%TO.C,R5*%
X53300000Y-58166000D03*
D13*
%TO.P,R4,1*%
%TO.N,LEDsOut*%
X27850000Y-58166000D03*
%TO.P,R4,2*%
%TO.N,Net-(MX4-Pad4)*%
X35650000Y-58166000D03*
D14*
%TD*%
%TO.N,LEDsOut*%
%TO.C,R4*%
X29250000Y-58166000D03*
D15*
%TO.P,R4,1*%
%TO.N,LEDsOut*%
X30400000Y-58166000D03*
%TO.P,R4,2*%
%TO.N,Net-(MX4-Pad4)*%
X33100000Y-58166000D03*
D14*
%TD*%
%TO.N,Net-(MX4-Pad4)*%
%TO.C,R4*%
X34250000Y-58166000D03*
D13*
%TO.P,R3,1*%
%TO.N,LEDsOut*%
X65950000Y-42418000D03*
%TO.P,R3,2*%
%TO.N,Net-(MX3-Pad4)*%
X73750000Y-42418000D03*
D14*
%TD*%
%TO.N,LEDsOut*%
%TO.C,R3*%
X67350000Y-42418000D03*
D15*
%TO.P,R3,1*%
%TO.N,LEDsOut*%
X68500000Y-42418000D03*
%TO.P,R3,2*%
%TO.N,Net-(MX3-Pad4)*%
X71200000Y-42418000D03*
D14*
%TD*%
%TO.N,Net-(MX3-Pad4)*%
%TO.C,R3*%
X72350000Y-42418000D03*
D13*
%TO.P,R2,1*%
%TO.N,LEDsOut*%
X46900000Y-39116000D03*
%TO.P,R2,2*%
%TO.N,Net-(MX2-Pad4)*%
X54700000Y-39116000D03*
D14*
%TD*%
%TO.N,LEDsOut*%
%TO.C,R2*%
X48300000Y-39116000D03*
D15*
%TO.P,R2,1*%
%TO.N,LEDsOut*%
X49450000Y-39116000D03*
%TO.P,R2,2*%
%TO.N,Net-(MX2-Pad4)*%
X52150000Y-39116000D03*
D14*
%TD*%
%TO.N,Net-(MX2-Pad4)*%
%TO.C,R2*%
X53300000Y-39116000D03*
D13*
%TO.P,R1,1*%
%TO.N,LEDsOut*%
X27850000Y-41656000D03*
%TO.P,R1,2*%
%TO.N,Net-(MX1-Pad4)*%
X35650000Y-41656000D03*
D14*
%TD*%
%TO.N,LEDsOut*%
%TO.C,R1*%
X29250000Y-41656000D03*
D15*
%TO.P,R1,1*%
%TO.N,LEDsOut*%
X30400000Y-41656000D03*
%TO.P,R1,2*%
%TO.N,Net-(MX1-Pad4)*%
X33100000Y-41656000D03*
D14*
%TD*%
%TO.N,Net-(MX1-Pad4)*%
%TO.C,R1*%
X34250000Y-41656000D03*
D13*
%TO.P,RQ1,2*%
%TO.N,GND*%
X42926000Y-58801000D03*
%TO.P,RQ1,1*%
%TO.N,LEDs*%
X42926000Y-66601000D03*
%TD*%
%TO.P,MX6,2*%
%TO.N,Net-(D6-Pad2)*%
%TA.AperFunction,ComponentPad*%
G36*
G01*
X72273483Y-47422395D02*
X72273483Y-47422395D01*
G75*
G02*
X71227605Y-46223483I76517J1122395D01*
G01*
X71267147Y-45643451D01*
G75*
G02*
X72466059Y-44597573I1122395J-76517D01*
G01*
X72466059Y-44597573D01*
G75*
G02*
X73511937Y-45796485I-76517J-1122395D01*
G01*
X73472395Y-46376517D01*
G75*
G02*
X72273483Y-47422395I-1122395J76517D01*
G01*
G37*
%TD.AperFunction*%
D16*
X72390000Y-45720000D03*
%TO.P,MX6,1*%
%TO.N,col2*%
%TA.AperFunction,ComponentPad*%
G36*
G01*
X65288688Y-49097351D02*
X65288688Y-49097350D01*
G75*
G02*
X65202650Y-47508688I751312J837350D01*
G01*
X66512640Y-46048680D01*
G75*
G02*
X68101302Y-45962642I837350J-751312D01*
G01*
X68101302Y-45962642D01*
G75*
G02*
X68187340Y-47551304I-751312J-837350D01*
G01*
X66877350Y-49011312D01*
G75*
G02*
X65288688Y-49097350I-837350J751312D01*
G01*
G37*
%TD.AperFunction*%
X67350000Y-46800000D03*
D10*
%TO.P,MX6,2*%
%TO.N,Net-(D6-Pad2)*%
X74850000Y-47000000D03*
%TO.P,MX6,1*%
%TO.N,col2*%
X69850000Y-44900000D03*
D17*
%TO.P,MX6,3*%
%TO.N,VCC*%
X68580000Y-55880000D03*
D18*
%TO.P,MX6,4*%
%TO.N,Net-(MX6-Pad4)*%
X71120000Y-55880000D03*
%TD*%
%TO.P,MX9,2*%
%TO.N,Net-(D9-Pad2)*%
%TA.AperFunction,ComponentPad*%
G36*
G01*
X72273483Y-66472395D02*
X72273483Y-66472395D01*
G75*
G02*
X71227605Y-65273483I76517J1122395D01*
G01*
X71267147Y-64693451D01*
G75*
G02*
X72466059Y-63647573I1122395J-76517D01*
G01*
X72466059Y-63647573D01*
G75*
G02*
X73511937Y-64846485I-76517J-1122395D01*
G01*
X73472395Y-65426517D01*
G75*
G02*
X72273483Y-66472395I-1122395J76517D01*
G01*
G37*
%TD.AperFunction*%
D16*
X72390000Y-64770000D03*
%TO.P,MX9,1*%
%TO.N,col2*%
%TA.AperFunction,ComponentPad*%
G36*
G01*
X65288688Y-68147351D02*
X65288688Y-68147350D01*
G75*
G02*
X65202650Y-66558688I751312J837350D01*
G01*
X66512640Y-65098680D01*
G75*
G02*
X68101302Y-65012642I837350J-751312D01*
G01*
X68101302Y-65012642D01*
G75*
G02*
X68187340Y-66601304I-751312J-837350D01*
G01*
X66877350Y-68061312D01*
G75*
G02*
X65288688Y-68147350I-837350J751312D01*
G01*
G37*
%TD.AperFunction*%
X67350000Y-65850000D03*
D10*
%TO.P,MX9,2*%
%TO.N,Net-(D9-Pad2)*%
X74850000Y-66050000D03*
%TO.P,MX9,1*%
%TO.N,col2*%
X69850000Y-63950000D03*
D17*
%TO.P,MX9,3*%
%TO.N,VCC*%
X68580000Y-74930000D03*
D18*
%TO.P,MX9,4*%
%TO.N,Net-(MX9-Pad4)*%
X71120000Y-74930000D03*
%TD*%
%TO.P,MX8,2*%
%TO.N,Net-(D8-Pad2)*%
%TA.AperFunction,ComponentPad*%
G36*
G01*
X53223483Y-66472395D02*
X53223483Y-66472395D01*
G75*
G02*
X52177605Y-65273483I76517J1122395D01*
G01*
X52217147Y-64693451D01*
G75*
G02*
X53416059Y-63647573I1122395J-76517D01*
G01*
X53416059Y-63647573D01*
G75*
G02*
X54461937Y-64846485I-76517J-1122395D01*
G01*
X54422395Y-65426517D01*
G75*
G02*
X53223483Y-66472395I-1122395J76517D01*
G01*
G37*
%TD.AperFunction*%
D16*
X53340000Y-64770000D03*
%TO.P,MX8,1*%
%TO.N,col1*%
%TA.AperFunction,ComponentPad*%
G36*
G01*
X46238688Y-68147351D02*
X46238688Y-68147350D01*
G75*
G02*
X46152650Y-66558688I751312J837350D01*
G01*
X47462640Y-65098680D01*
G75*
G02*
X49051302Y-65012642I837350J-751312D01*
G01*
X49051302Y-65012642D01*
G75*
G02*
X49137340Y-66601304I-751312J-837350D01*
G01*
X47827350Y-68061312D01*
G75*
G02*
X46238688Y-68147350I-837350J751312D01*
G01*
G37*
%TD.AperFunction*%
X48300000Y-65850000D03*
D10*
%TO.P,MX8,2*%
%TO.N,Net-(D8-Pad2)*%
X55800000Y-66050000D03*
%TO.P,MX8,1*%
%TO.N,col1*%
X50800000Y-63950000D03*
D17*
%TO.P,MX8,3*%
%TO.N,VCC*%
X49530000Y-74930000D03*
D18*
%TO.P,MX8,4*%
%TO.N,Net-(MX8-Pad4)*%
X52070000Y-74930000D03*
%TD*%
%TO.P,MX7,2*%
%TO.N,Net-(D7-Pad2)*%
%TA.AperFunction,ComponentPad*%
G36*
G01*
X34173483Y-66472395D02*
X34173483Y-66472395D01*
G75*
G02*
X33127605Y-65273483I76517J1122395D01*
G01*
X33167147Y-64693451D01*
G75*
G02*
X34366059Y-63647573I1122395J-76517D01*
G01*
X34366059Y-63647573D01*
G75*
G02*
X35411937Y-64846485I-76517J-1122395D01*
G01*
X35372395Y-65426517D01*
G75*
G02*
X34173483Y-66472395I-1122395J76517D01*
G01*
G37*
%TD.AperFunction*%
D16*
X34290000Y-64770000D03*
%TO.P,MX7,1*%
%TO.N,col0*%
%TA.AperFunction,ComponentPad*%
G36*
G01*
X27188688Y-68147351D02*
X27188688Y-68147350D01*
G75*
G02*
X27102650Y-66558688I751312J837350D01*
G01*
X28412640Y-65098680D01*
G75*
G02*
X30001302Y-65012642I837350J-751312D01*
G01*
X30001302Y-65012642D01*
G75*
G02*
X30087340Y-66601304I-751312J-837350D01*
G01*
X28777350Y-68061312D01*
G75*
G02*
X27188688Y-68147350I-837350J751312D01*
G01*
G37*
%TD.AperFunction*%
X29250000Y-65850000D03*
D10*
%TO.P,MX7,2*%
%TO.N,Net-(D7-Pad2)*%
X36750000Y-66050000D03*
%TO.P,MX7,1*%
%TO.N,col0*%
X31750000Y-63950000D03*
D17*
%TO.P,MX7,3*%
%TO.N,VCC*%
X30480000Y-74930000D03*
D18*
%TO.P,MX7,4*%
%TO.N,Net-(MX7-Pad4)*%
X33020000Y-74930000D03*
%TD*%
%TO.P,MX5,2*%
%TO.N,Net-(D5-Pad2)*%
%TA.AperFunction,ComponentPad*%
G36*
G01*
X53223483Y-47422395D02*
X53223483Y-47422395D01*
G75*
G02*
X52177605Y-46223483I76517J1122395D01*
G01*
X52217147Y-45643451D01*
G75*
G02*
X53416059Y-44597573I1122395J-76517D01*
G01*
X53416059Y-44597573D01*
G75*
G02*
X54461937Y-45796485I-76517J-1122395D01*
G01*
X54422395Y-46376517D01*
G75*
G02*
X53223483Y-47422395I-1122395J76517D01*
G01*
G37*
%TD.AperFunction*%
D16*
X53340000Y-45720000D03*
%TO.P,MX5,1*%
%TO.N,col1*%
%TA.AperFunction,ComponentPad*%
G36*
G01*
X46238688Y-49097351D02*
X46238688Y-49097350D01*
G75*
G02*
X46152650Y-47508688I751312J837350D01*
G01*
X47462640Y-46048680D01*
G75*
G02*
X49051302Y-45962642I837350J-751312D01*
G01*
X49051302Y-45962642D01*
G75*
G02*
X49137340Y-47551304I-751312J-837350D01*
G01*
X47827350Y-49011312D01*
G75*
G02*
X46238688Y-49097350I-837350J751312D01*
G01*
G37*
%TD.AperFunction*%
X48300000Y-46800000D03*
D10*
%TO.P,MX5,2*%
%TO.N,Net-(D5-Pad2)*%
X55800000Y-47000000D03*
%TO.P,MX5,1*%
%TO.N,col1*%
X50800000Y-44900000D03*
D17*
%TO.P,MX5,3*%
%TO.N,VCC*%
X49530000Y-55880000D03*
D18*
%TO.P,MX5,4*%
%TO.N,Net-(MX5-Pad4)*%
X52070000Y-55880000D03*
%TD*%
%TO.P,MX4,2*%
%TO.N,Net-(D4-Pad2)*%
%TA.AperFunction,ComponentPad*%
G36*
G01*
X34173483Y-47422395D02*
X34173483Y-47422395D01*
G75*
G02*
X33127605Y-46223483I76517J1122395D01*
G01*
X33167147Y-45643451D01*
G75*
G02*
X34366059Y-44597573I1122395J-76517D01*
G01*
X34366059Y-44597573D01*
G75*
G02*
X35411937Y-45796485I-76517J-1122395D01*
G01*
X35372395Y-46376517D01*
G75*
G02*
X34173483Y-47422395I-1122395J76517D01*
G01*
G37*
%TD.AperFunction*%
D16*
X34290000Y-45720000D03*
%TO.P,MX4,1*%
%TO.N,col0*%
%TA.AperFunction,ComponentPad*%
G36*
G01*
X27188688Y-49097351D02*
X27188688Y-49097350D01*
G75*
G02*
X27102650Y-47508688I751312J837350D01*
G01*
X28412640Y-46048680D01*
G75*
G02*
X30001302Y-45962642I837350J-751312D01*
G01*
X30001302Y-45962642D01*
G75*
G02*
X30087340Y-47551304I-751312J-837350D01*
G01*
X28777350Y-49011312D01*
G75*
G02*
X27188688Y-49097350I-837350J751312D01*
G01*
G37*
%TD.AperFunction*%
X29250000Y-46800000D03*
D10*
%TO.P,MX4,2*%
%TO.N,Net-(D4-Pad2)*%
X36750000Y-47000000D03*
%TO.P,MX4,1*%
%TO.N,col0*%
X31750000Y-44900000D03*
D17*
%TO.P,MX4,3*%
%TO.N,VCC*%
X30480000Y-55880000D03*
D18*
%TO.P,MX4,4*%
%TO.N,Net-(MX4-Pad4)*%
X33020000Y-55880000D03*
%TD*%
%TO.P,MX3,2*%
%TO.N,Net-(D3-Pad2)*%
%TA.AperFunction,ComponentPad*%
G36*
G01*
X72273483Y-28372395D02*
X72273483Y-28372395D01*
G75*
G02*
X71227605Y-27173483I76517J1122395D01*
G01*
X71267147Y-26593451D01*
G75*
G02*
X72466059Y-25547573I1122395J-76517D01*
G01*
X72466059Y-25547573D01*
G75*
G02*
X73511937Y-26746485I-76517J-1122395D01*
G01*
X73472395Y-27326517D01*
G75*
G02*
X72273483Y-28372395I-1122395J76517D01*
G01*
G37*
%TD.AperFunction*%
D16*
X72390000Y-26670000D03*
%TO.P,MX3,1*%
%TO.N,col2*%
%TA.AperFunction,ComponentPad*%
G36*
G01*
X65288688Y-30047351D02*
X65288688Y-30047350D01*
G75*
G02*
X65202650Y-28458688I751312J837350D01*
G01*
X66512640Y-26998680D01*
G75*
G02*
X68101302Y-26912642I837350J-751312D01*
G01*
X68101302Y-26912642D01*
G75*
G02*
X68187340Y-28501304I-751312J-837350D01*
G01*
X66877350Y-29961312D01*
G75*
G02*
X65288688Y-30047350I-837350J751312D01*
G01*
G37*
%TD.AperFunction*%
X67350000Y-27750000D03*
D10*
%TO.P,MX3,2*%
%TO.N,Net-(D3-Pad2)*%
X74850000Y-27950000D03*
%TO.P,MX3,1*%
%TO.N,col2*%
X69850000Y-25850000D03*
D17*
%TO.P,MX3,3*%
%TO.N,VCC*%
X68580000Y-36830000D03*
D18*
%TO.P,MX3,4*%
%TO.N,Net-(MX3-Pad4)*%
X71120000Y-36830000D03*
%TD*%
%TO.P,MX2,2*%
%TO.N,Net-(D2-Pad2)*%
%TA.AperFunction,ComponentPad*%
G36*
G01*
X53223483Y-28372395D02*
X53223483Y-28372395D01*
G75*
G02*
X52177605Y-27173483I76517J1122395D01*
G01*
X52217147Y-26593451D01*
G75*
G02*
X53416059Y-25547573I1122395J-76517D01*
G01*
X53416059Y-25547573D01*
G75*
G02*
X54461937Y-26746485I-76517J-1122395D01*
G01*
X54422395Y-27326517D01*
G75*
G02*
X53223483Y-28372395I-1122395J76517D01*
G01*
G37*
%TD.AperFunction*%
D16*
X53340000Y-26670000D03*
%TO.P,MX2,1*%
%TO.N,col1*%
%TA.AperFunction,ComponentPad*%
G36*
G01*
X46238688Y-30047351D02*
X46238688Y-30047350D01*
G75*
G02*
X46152650Y-28458688I751312J837350D01*
G01*
X47462640Y-26998680D01*
G75*
G02*
X49051302Y-26912642I837350J-751312D01*
G01*
X49051302Y-26912642D01*
G75*
G02*
X49137340Y-28501304I-751312J-837350D01*
G01*
X47827350Y-29961312D01*
G75*
G02*
X46238688Y-30047350I-837350J751312D01*
G01*
G37*
%TD.AperFunction*%
X48300000Y-27750000D03*
D10*
%TO.P,MX2,2*%
%TO.N,Net-(D2-Pad2)*%
X55800000Y-27950000D03*
%TO.P,MX2,1*%
%TO.N,col1*%
X50800000Y-25850000D03*
D17*
%TO.P,MX2,3*%
%TO.N,VCC*%
X49530000Y-36830000D03*
D18*
%TO.P,MX2,4*%
%TO.N,Net-(MX2-Pad4)*%
X52070000Y-36830000D03*
%TD*%
%TO.P,MX1,2*%
%TO.N,Net-(D1-Pad2)*%
%TA.AperFunction,ComponentPad*%
G36*
G01*
X34173483Y-28372395D02*
X34173483Y-28372395D01*
G75*
G02*
X33127605Y-27173483I76517J1122395D01*
G01*
X33167147Y-26593451D01*
G75*
G02*
X34366059Y-25547573I1122395J-76517D01*
G01*
X34366059Y-25547573D01*
G75*
G02*
X35411937Y-26746485I-76517J-1122395D01*
G01*
X35372395Y-27326517D01*
G75*
G02*
X34173483Y-28372395I-1122395J76517D01*
G01*
G37*
%TD.AperFunction*%
D16*
X34290000Y-26670000D03*
%TO.P,MX1,1*%
%TO.N,col0*%
%TA.AperFunction,ComponentPad*%
G36*
G01*
X27188688Y-30047351D02*
X27188688Y-30047350D01*
G75*
G02*
X27102650Y-28458688I751312J837350D01*
G01*
X28412640Y-26998680D01*
G75*
G02*
X30001302Y-26912642I837350J-751312D01*
G01*
X30001302Y-26912642D01*
G75*
G02*
X30087340Y-28501304I-751312J-837350D01*
G01*
X28777350Y-29961312D01*
G75*
G02*
X27188688Y-30047350I-837350J751312D01*
G01*
G37*
%TD.AperFunction*%
X29250000Y-27750000D03*
D10*
%TO.P,MX1,2*%
%TO.N,Net-(D1-Pad2)*%
X36750000Y-27950000D03*
%TO.P,MX1,1*%
%TO.N,col0*%
X31750000Y-25850000D03*
D17*
%TO.P,MX1,3*%
%TO.N,VCC*%
X30480000Y-36830000D03*
D18*
%TO.P,MX1,4*%
%TO.N,Net-(MX1-Pad4)*%
X33020000Y-36830000D03*
%TD*%
D19*
%TO.P,D9,1*%
%TO.N,row2*%
X77470000Y-73750000D03*
D13*
%TO.P,D9,2*%
%TO.N,Net-(D9-Pad2)*%
X77470000Y-65950000D03*
%TD*%
D19*
%TO.P,D8,1*%
%TO.N,row2*%
X58420000Y-73750000D03*
D13*
%TO.P,D8,2*%
%TO.N,Net-(D8-Pad2)*%
X58420000Y-65950000D03*
%TD*%
D19*
%TO.P,D7,1*%
%TO.N,row2*%
X39370000Y-73750000D03*
D13*
%TO.P,D7,2*%
%TO.N,Net-(D7-Pad2)*%
X39370000Y-65950000D03*
%TD*%
D19*
%TO.P,D6,1*%
%TO.N,row1*%
X77470000Y-55562500D03*
D13*
%TO.P,D6,2*%
%TO.N,Net-(D6-Pad2)*%
X77470000Y-47762500D03*
%TD*%
D19*
%TO.P,D5,1*%
%TO.N,row1*%
X46900000Y-42862500D03*
D13*
%TO.P,D5,2*%
%TO.N,Net-(D5-Pad2)*%
X54700000Y-42862500D03*
%TD*%
D19*
%TO.P,D4,1*%
%TO.N,row1*%
X39370000Y-54700000D03*
D13*
%TO.P,D4,2*%
%TO.N,Net-(D4-Pad2)*%
X39370000Y-46900000D03*
%TD*%
D19*
%TO.P,D3,1*%
%TO.N,row0*%
X77470000Y-35650000D03*
D13*
%TO.P,D3,2*%
%TO.N,Net-(D3-Pad2)*%
X77470000Y-27850000D03*
%TD*%
D19*
%TO.P,D2,1*%
%TO.N,row0*%
X46900000Y-41021000D03*
D13*
%TO.P,D2,2*%
%TO.N,Net-(D2-Pad2)*%
X54700000Y-41021000D03*
%TD*%
D19*
%TO.P,D1,1*%
%TO.N,row0*%
X39370000Y-35650000D03*
D13*
%TO.P,D1,2*%
%TO.N,Net-(D1-Pad2)*%
X39370000Y-27850000D03*
%TD*%
D20*
%TO.P,U1,1*%
%TO.N,VCC*%
X66593750Y-33525000D03*
%TO.P,U1,2*%
%TO.N,SCL*%
X61993750Y-32425000D03*
%TO.P,U1,4*%
%TO.N,GND*%
X61993750Y-25425000D03*
%TO.P,U1,3*%
%TO.N,SDA*%
X61993750Y-28425000D03*
%TD*%
D10*
%TO.P,RE1,S1*%
%TO.N,col0*%
X34250000Y-24750000D03*
%TO.P,RE1,S2*%
%TO.N,Net-(D1-Pad2)*%
X29250000Y-24750000D03*
D11*
%TO.P,RE1,*%
%TO.N,*%
X37350000Y-31750000D03*
X26150000Y-31750000D03*
D10*
%TO.P,RE1,B*%
%TO.N,encoder1b*%
X34250000Y-39250000D03*
%TO.P,RE1,C*%
%TO.N,GND*%
X31750000Y-39250000D03*
D12*
%TO.P,RE1,A*%
%TO.N,encoder1a*%
X29250000Y-39250000D03*
%TD*%
D21*
%TO.P,B1,24*%
%TO.N,RAW*%
X43180000Y-26193750D03*
%TO.P,B1,23*%
%TO.N,GND*%
X43180000Y-28733750D03*
%TO.P,B1,22*%
%TO.N,Net-(B1-Pad22)*%
X43180000Y-31273750D03*
%TO.P,B1,21*%
%TO.N,VCC*%
X43180000Y-33813750D03*
%TO.P,B1,20*%
%TO.N,col0*%
X43180000Y-36353750D03*
%TO.P,B1,19*%
%TO.N,row0*%
X43180000Y-38893750D03*
%TO.P,B1,18*%
%TO.N,encoder1a*%
X43180000Y-41433750D03*
%TO.P,B1,17*%
%TO.N,encoder1b*%
X43180000Y-43973750D03*
%TO.P,B1,16*%
%TO.N,row2*%
X43180000Y-46513750D03*
%TO.P,B1,15*%
%TO.N,row1*%
X43180000Y-49053750D03*
%TO.P,B1,14*%
%TO.N,col1*%
X43180000Y-51593750D03*
%TO.P,B1,13*%
%TO.N,LEDs*%
X43180000Y-54133750D03*
%TO.P,B1,12*%
%TO.N,col3*%
X58420000Y-54133750D03*
%TO.P,B1,11*%
%TO.N,row3*%
X58420000Y-51593750D03*
%TO.P,B1,10*%
%TO.N,row5*%
X58420000Y-49053750D03*
%TO.P,B1,9*%
%TO.N,row4*%
X58420000Y-46513750D03*
%TO.P,B1,8*%
%TO.N,encoder2b*%
X58420000Y-43973750D03*
%TO.P,B1,7*%
%TO.N,encoder2a*%
X58420000Y-41433750D03*
%TO.P,B1,6*%
%TO.N,SCL*%
X58420000Y-38893750D03*
%TO.P,B1,5*%
%TO.N,SDA*%
X58420000Y-36353750D03*
%TO.P,B1,4*%
%TO.N,GND*%
X58420000Y-33813750D03*
%TO.P,B1,3*%
X58420000Y-31273750D03*
%TO.P,B1,2*%
%TO.N,RGB_leds*%
X58420000Y-28733750D03*
%TO.P,B1,1*%
%TO.N,col2*%
X58420000Y-26193750D03*
%TD*%
D22*
%TO.N,Net-(B1-Pad22)*%
X40767000Y-38354000D03*
%TO.N,row1*%
X41402000Y-63119000D03*
%TO.N,GND*%
X62103000Y-56134000D03*
%TO.N,LEDs*%
X39497000Y-56515000D03*
X41148000Y-61341000D03*
%TO.N,VCC*%
X25400000Y-42068750D03*
X27168842Y-60143658D03*
X62738000Y-41148000D03*
%TD*%
D23*
%TO.N,Net-(B1-Pad22)*%
X44348401Y-32442151D02*
X44348401Y-37566599D01*
X43180000Y-31273750D02*
X44348401Y-32442151D01*
X44348401Y-37566599D02*
X41554401Y-37566599D01*
X41554401Y-37566599D02*
X40767000Y-38354000D01*
X40767000Y-38354000D02*
X40767000Y-38354000D01*
%TO.N,col2*%
X67950000Y-27750000D02*
X67350000Y-27750000D01*
X69850000Y-25850000D02*
X67950000Y-27750000D01*
X70950000Y-24750000D02*
X72350000Y-24750000D01*
X69850000Y-25850000D02*
X70950000Y-24750000D01*
X67950000Y-65850000D02*
X67350000Y-65850000D01*
X69850000Y-63950000D02*
X67950000Y-65850000D01*
X67950000Y-46800000D02*
X67350000Y-46800000D01*
X69850000Y-44900000D02*
X67950000Y-46800000D01*
X66040000Y-48260000D02*
X62865000Y-48260000D01*
X62865000Y-48260000D02*
X62865000Y-52546250D01*
X64690149Y-54371399D02*
X75008899Y-54371399D01*
X62865000Y-52546250D02*
X64690149Y-54371399D01*
X75008899Y-54371399D02*
X75008899Y-63103601D01*
X70696399Y-63103601D02*
X69850000Y-63950000D01*
X75008899Y-63103601D02*
X70696399Y-63103601D01*
X66040000Y-29210000D02*
X63658750Y-29210000D01*
X63658750Y-29210000D02*
X62706250Y-30162500D01*
X62706250Y-30162500D02*
X60325000Y-30162500D01*
X60325000Y-28098750D02*
X58420000Y-26193750D01*
X60325000Y-30162500D02*
X60325000Y-28098750D01*
X69850000Y-44900000D02*
X69850000Y-43656250D01*
X69850000Y-43656250D02*
X76200000Y-43656250D01*
X76200000Y-43656250D02*
X76200000Y-36512500D01*
X69087500Y-27750000D02*
X69818750Y-27750000D01*
X69087500Y-27750000D02*
X67350000Y-27750000D01*
X69139302Y-27750000D02*
X69087500Y-27750000D01*
X69818750Y-27750000D02*
X72231250Y-30162500D01*
X72231250Y-30162500D02*
X73025000Y-30956250D01*
X76200000Y-36512500D02*
X73025000Y-33337500D01*
X73025000Y-30956250D02*
X73025000Y-33337500D01*
%TO.N,col0*%
X34250000Y-24750000D02*
X33193750Y-24750000D01*
X32093750Y-25850000D02*
X31750000Y-25850000D01*
X33193750Y-24750000D02*
X32093750Y-25850000D01*
X29850000Y-27750000D02*
X29250000Y-27750000D01*
X31750000Y-25850000D02*
X29850000Y-27750000D01*
X27940000Y-29210000D02*
X24765000Y-29210000D01*
X24765000Y-29210000D02*
X24606250Y-29368750D01*
X24606250Y-29368750D02*
X24606250Y-48418750D01*
X27781250Y-48418750D02*
X27940000Y-48260000D01*
X24606250Y-48418750D02*
X27781250Y-48418750D01*
X29850000Y-46800000D02*
X29250000Y-46800000D01*
X31750000Y-44900000D02*
X29850000Y-46800000D01*
X29850000Y-65850000D02*
X29250000Y-65850000D01*
X31750000Y-63950000D02*
X29850000Y-65850000D01*
X24606250Y-48418750D02*
X24606250Y-66675000D01*
X27305000Y-66675000D02*
X27940000Y-67310000D01*
X24606250Y-66675000D02*
X27305000Y-66675000D01*
%TO.N,col1*%
X46990000Y-56197500D02*
X45243750Y-57943750D01*
X45243750Y-57943750D02*
X45243750Y-67468750D01*
X46831250Y-67468750D02*
X46990000Y-67310000D01*
X45243750Y-67468750D02*
X46831250Y-67468750D01*
X48900000Y-65850000D02*
X48300000Y-65850000D01*
X50800000Y-63950000D02*
X48900000Y-65850000D01*
X48900000Y-46800000D02*
X48300000Y-46800000D01*
X50800000Y-44900000D02*
X48900000Y-46800000D01*
X48900000Y-27750000D02*
X48300000Y-27750000D01*
X50800000Y-25850000D02*
X48900000Y-27750000D01*
X46990000Y-29210000D02*
X46990000Y-36353750D01*
X46990000Y-36353750D02*
X45243750Y-38100000D01*
X45243750Y-38100000D02*
X45243750Y-47625000D01*
X46355000Y-47625000D02*
X46990000Y-48260000D01*
X45243750Y-47625000D02*
X46355000Y-47625000D01*
X43180000Y-51593750D02*
X44767500Y-53181250D01*
X46831250Y-53181250D02*
X46990000Y-53022500D01*
X44767500Y-53181250D02*
X46831250Y-53181250D01*
X46990000Y-48260000D02*
X46990000Y-53022500D01*
X46990000Y-53022500D02*
X46990000Y-56197500D01*
%TO.N,row2*%
X37306250Y-52387500D02*
X38893750Y-50800000D01*
X38893750Y-50800000D02*
X40481250Y-50800000D01*
X40481250Y-50800000D02*
X40481250Y-49212500D01*
X41292016Y-49212500D02*
X40481250Y-49212500D01*
X43180000Y-47324516D02*
X41292016Y-49212500D01*
X43180000Y-46513750D02*
X43180000Y-47324516D01*
X40398601Y-65456271D02*
X39585330Y-64643000D01*
X39370000Y-73750000D02*
X40398601Y-72721399D01*
X40398601Y-72721399D02*
X40398601Y-65456271D01*
X39585330Y-64643000D02*
X36449000Y-64643000D01*
X36449000Y-64643000D02*
X35306000Y-63500000D01*
X35306000Y-60769500D02*
X37306250Y-58769250D01*
X35306000Y-63500000D02*
X35306000Y-60769500D01*
X37306250Y-58769250D02*
X37306250Y-52387500D01*
%TO.N,row1*%
X39370000Y-54700000D02*
X39756250Y-54700000D01*
X43180000Y-49053750D02*
X39846250Y-52387500D01*
X39846250Y-54223750D02*
X39370000Y-54700000D01*
X39846250Y-52387500D02*
X39846250Y-54223750D01*
X39370000Y-54700000D02*
X38962500Y-54700000D01*
X38962500Y-54700000D02*
X38100000Y-55562500D01*
X38100000Y-55562500D02*
X38100000Y-61912500D01*
X38100000Y-61912500D02*
X38893750Y-62706250D01*
X40989250Y-62706250D02*
X41402000Y-63119000D01*
X38893750Y-62706250D02*
X40989250Y-62706250D01*
%TO.N,row0*%
X39687500Y-35967500D02*
X39370000Y-35650000D01*
%TO.N,Net-(D1-Pad2)*%
X36850000Y-27850000D02*
X36750000Y-27950000D01*
X39370000Y-27850000D02*
X36850000Y-27850000D01*
X34950000Y-27950000D02*
X34250000Y-27250000D01*
X36750000Y-27950000D02*
X34950000Y-27950000D01*
%TO.N,Net-(D2-Pad2)*%
X54700000Y-41021000D02*
X55816500Y-41021000D01*
X55816500Y-41021000D02*
X56356250Y-40481250D01*
X56356250Y-40481250D02*
X56356250Y-34925000D01*
X56356250Y-34925000D02*
X53975000Y-32543750D01*
X53975000Y-29775000D02*
X55800000Y-27950000D01*
X53975000Y-32543750D02*
X53975000Y-29775000D01*
X54000000Y-27950000D02*
X53300000Y-27250000D01*
X55800000Y-27950000D02*
X54000000Y-27950000D01*
%TO.N,Net-(D3-Pad2)*%
X74950000Y-27850000D02*
X74850000Y-27950000D01*
X77470000Y-27850000D02*
X74950000Y-27850000D01*
X73050000Y-27950000D02*
X72350000Y-27250000D01*
X74850000Y-27950000D02*
X73050000Y-27950000D01*
%TO.N,Net-(D4-Pad2)*%
X39270000Y-47000000D02*
X39370000Y-46900000D01*
X36750000Y-47000000D02*
X39270000Y-47000000D01*
X34950000Y-47000000D02*
X34250000Y-46300000D01*
X36750000Y-47000000D02*
X34950000Y-47000000D01*
%TO.N,Net-(D5-Pad2)*%
X54000000Y-47000000D02*
X53300000Y-46300000D01*
X55800000Y-47000000D02*
X54000000Y-47000000D01*
X54700000Y-44360000D02*
X53340000Y-45720000D01*
X54700000Y-42862500D02*
X54700000Y-44360000D01*
%TO.N,Net-(D6-Pad2)*%
X74950000Y-46900000D02*
X74850000Y-47000000D01*
X73050000Y-47000000D02*
X72350000Y-46300000D01*
X74850000Y-47000000D02*
X73050000Y-47000000D01*
D24*
X76707500Y-47000000D02*
X77470000Y-47762500D01*
X74850000Y-47000000D02*
X76707500Y-47000000D01*
D23*
%TO.N,Net-(D7-Pad2)*%
X36850000Y-65950000D02*
X36750000Y-66050000D01*
X39370000Y-65950000D02*
X36850000Y-65950000D01*
X34950000Y-66050000D02*
X34250000Y-65350000D01*
X36750000Y-66050000D02*
X34950000Y-66050000D01*
%TO.N,Net-(D8-Pad2)*%
X55900000Y-65950000D02*
X55800000Y-66050000D01*
X58420000Y-65950000D02*
X55900000Y-65950000D01*
X54000000Y-66050000D02*
X53300000Y-65350000D01*
X55800000Y-66050000D02*
X54000000Y-66050000D01*
%TO.N,Net-(D9-Pad2)*%
X74950000Y-65950000D02*
X74850000Y-66050000D01*
X77470000Y-65950000D02*
X74950000Y-65950000D01*
X73050000Y-66050000D02*
X72350000Y-65350000D01*
X74850000Y-66050000D02*
X73050000Y-66050000D01*
D25*
%TO.N,GND*%
X58420000Y-31273750D02*
X58420000Y-33813750D01*
D23*
X61993750Y-25425000D02*
X61937500Y-25425000D01*
D25*
X65401407Y-41275099D02*
X62103000Y-44573506D01*
X69239114Y-41275099D02*
X65401407Y-41275099D01*
X69850000Y-39250000D02*
X69850000Y-40664213D01*
X69850000Y-40664213D02*
X69239114Y-41275099D01*
X62103000Y-44573506D02*
X62103000Y-56134000D01*
X62103000Y-56134000D02*
X62103000Y-56134000D01*
D23*
%TO.N,SDA*%
X60325000Y-23749000D02*
X60325000Y-24288750D01*
D24*
X60505000Y-23812500D02*
X60505000Y-23936250D01*
D23*
X61846451Y-28780609D02*
X62141049Y-28780609D01*
X62141049Y-28780609D02*
X62245204Y-28676454D01*
X60505000Y-27439158D02*
X61846451Y-28780609D01*
X60505000Y-23812500D02*
X60505000Y-27439158D01*
D24*
X62478750Y-27940000D02*
X61993750Y-28425000D01*
D23*
%TO.N,encoder1a*%
X38815149Y-38021399D02*
X38893750Y-38100000D01*
X41796434Y-41433750D02*
X43180000Y-41433750D01*
X38893750Y-38531066D02*
X41796434Y-41433750D01*
X38893750Y-38100000D02*
X38893750Y-38531066D01*
X29808030Y-39250000D02*
X29250000Y-39250000D01*
X38893750Y-38100000D02*
X35718750Y-34925000D01*
X35718750Y-34925000D02*
X32608518Y-34925000D01*
X32608518Y-34925000D02*
X31661101Y-35872417D01*
X31661101Y-35872417D02*
X31661101Y-37396929D01*
X31661101Y-37396929D02*
X29808030Y-39250000D01*
%TO.N,encoder1b*%
X34250000Y-39250000D02*
X38456250Y-39250000D01*
X38456250Y-39250000D02*
X38893750Y-39687500D01*
X38893750Y-39687500D02*
X43180000Y-43973750D01*
%TO.N,LEDs*%
X43180000Y-54133750D02*
X40798750Y-56515000D01*
X40798750Y-56515000D02*
X39497000Y-56515000D01*
X39497000Y-56515000D02*
X39497000Y-56515000D01*
X42926000Y-63119000D02*
X42926000Y-66601000D01*
X41148000Y-61341000D02*
X42926000Y-63119000D01*
%TO.N,encoder2b*%
X58346251Y-43900001D02*
X58420000Y-43973750D01*
X61912500Y-40481250D02*
X61864875Y-40528875D01*
X61864875Y-40528875D02*
X58420000Y-43973750D01*
X64008000Y-40386000D02*
X62007750Y-40386000D01*
X64100601Y-40478601D02*
X64008000Y-40386000D01*
X68532881Y-40478601D02*
X64100601Y-40478601D01*
X62007750Y-40386000D02*
X61864875Y-40528875D01*
X68578601Y-40432881D02*
X68532881Y-40478601D01*
X68578601Y-38228399D02*
X68578601Y-40432881D01*
X68785601Y-38021399D02*
X68578601Y-38228399D01*
X71121399Y-38021399D02*
X68785601Y-38021399D01*
X72350000Y-39250000D02*
X71121399Y-38021399D01*
%TO.N,encoder2a*%
X58420000Y-41433750D02*
X60166250Y-41433750D01*
X62350000Y-39250000D02*
X67350000Y-39250000D01*
X60166250Y-41433750D02*
X62350000Y-39250000D01*
%TO.N,VCC*%
X49212500Y-74612500D02*
X49530000Y-74930000D01*
X30480000Y-74930000D02*
X30480000Y-74295000D01*
X49530000Y-55245000D02*
X49530000Y-55880000D01*
X25400000Y-42068750D02*
X25400000Y-42068750D01*
X30480000Y-36830000D02*
X30480000Y-36622452D01*
D25*
X43180000Y-33813750D02*
X41897299Y-32531049D01*
X30480000Y-36449000D02*
X30480000Y-36830000D01*
X32842199Y-34086801D02*
X30480000Y-36449000D01*
X33015651Y-34086801D02*
X32842199Y-34086801D01*
X43180000Y-33813750D02*
X33288702Y-33813750D01*
X33288702Y-33813750D02*
X33015651Y-34086801D01*
X30480000Y-36830000D02*
X28956000Y-36830000D01*
X25400000Y-40386000D02*
X25400000Y-42068750D01*
X28956000Y-36830000D02*
X25400000Y-40386000D01*
X31623000Y-57023000D02*
X30480000Y-55880000D01*
X31623000Y-60071000D02*
X31623000Y-57023000D01*
X27168842Y-60143658D02*
X31550342Y-60143658D01*
X31550342Y-60143658D02*
X31623000Y-60071000D01*
X31496000Y-73025000D02*
X34925000Y-73025000D01*
X30480000Y-74930000D02*
X30480000Y-74041000D01*
X34925000Y-73025000D02*
X38100000Y-76200000D01*
X30480000Y-74041000D02*
X31496000Y-73025000D01*
X38100000Y-76200000D02*
X40481250Y-76200000D01*
X40481250Y-76200000D02*
X41751250Y-74930000D01*
X41751250Y-74930000D02*
X49530000Y-74930000D01*
X49530000Y-74930000D02*
X49530000Y-73025000D01*
X49530000Y-73025000D02*
X53975000Y-73025000D01*
X53975000Y-73025000D02*
X57150000Y-76200000D01*
X57150000Y-76200000D02*
X64293750Y-76200000D01*
X64293750Y-76200000D02*
X65563750Y-74930000D01*
X65563750Y-74930000D02*
X68580000Y-74930000D01*
X65563750Y-55880000D02*
X68580000Y-55880000D01*
X64293750Y-57150000D02*
X65563750Y-55880000D01*
X49530000Y-54451250D02*
X50006250Y-53975000D01*
X50006250Y-53975000D02*
X54768750Y-53975000D01*
X49530000Y-55880000D02*
X49530000Y-54451250D01*
X54768750Y-53975000D02*
X57943750Y-57150000D01*
X61214000Y-57150000D02*
X61214000Y-42672000D01*
X61214000Y-57150000D02*
X64293750Y-57150000D01*
X57943750Y-57150000D02*
X61214000Y-57150000D01*
X61214000Y-42672000D02*
X62738000Y-41148000D01*
X62738000Y-41148000D02*
X62738000Y-41148000D01*
X41897299Y-24879299D02*
X48005201Y-24879299D01*
X41897299Y-32531049D02*
X41897299Y-24879299D01*
X48005201Y-23729299D02*
X48112500Y-23622000D01*
X48005201Y-24879299D02*
X48005201Y-23729299D01*
X52514500Y-23622000D02*
X52705000Y-23812500D01*
X50662500Y-23622000D02*
X52514500Y-23622000D01*
D23*
%TO.N,LEDsOut*%
X65727750Y-57943750D02*
X65950000Y-58166000D01*
X67350000Y-58166000D02*
X60452000Y-58166000D01*
X60452000Y-58166000D02*
X60198000Y-58420000D01*
X60198000Y-58420000D02*
X57150000Y-58420000D01*
X57150000Y-58420000D02*
X55880000Y-59690000D01*
X55880000Y-59690000D02*
X49530000Y-59690000D01*
X49530000Y-59396000D02*
X48300000Y-58166000D01*
X49530000Y-59690000D02*
X49530000Y-59396000D01*
%TO.N,Net-(MX1-Pad4)*%
X33020000Y-41576000D02*
X33100000Y-41656000D01*
X33020000Y-36830000D02*
X33020000Y-41576000D01*
%TO.N,Net-(MX3-Pad4)*%
X72224900Y-36830000D02*
X71120000Y-36830000D01*
X73750000Y-38355100D02*
X72224900Y-36830000D01*
X73750000Y-41656000D02*
X73750000Y-38355100D01*
%TD*%
M02*
