M48
; DRILL file {KiCad (5.1.6)-1} date 10/02/20 01:53:32
; FORMAT={-:-/ absolute / inch / decimal}
; #@! TF.CreationDate,2020-10-02T01:53:32-06:00
; #@! TF.GenerationSoftware,Kicad,Pcbnew,(5.1.6)-1
; #@! TF.FileFunction,Plated,1,2,PTH
FMAT,2
INCH
T1C0.0354
T2C0.0400
T3C0.0579
%
G90
G05
T1
X2.5938Y-2.3125
X1.8438Y-1.5625
X2.5938Y-1.5625
X2.8937Y-1.5625
X1.0938Y-3.0625
X1.3938Y-3.0625
X1.0938Y-2.3125
X1.3938Y-2.3125
X1.8438Y-2.3125
X2.1437Y-2.3125
X1.8438Y-3.0625
X2.1437Y-3.0625
X2.5938Y-3.0625
X2.8937Y-3.0625
X2.8937Y-2.3125
X2.1437Y-1.5625
X1.0938Y-1.5625
X1.3938Y-1.5625
T2
X1.7Y-1.0312
X1.7Y-1.1312
X1.7Y-1.2312
X1.7Y-1.3313
X1.7Y-1.4312
X1.7Y-1.5312
X1.7Y-1.6312
X1.7Y-1.7312
X1.7Y-1.8313
X1.7Y-1.9312
X1.7Y-2.0312
X1.7Y-2.1313
X2.3Y-1.0312
X2.3Y-1.1312
X2.3Y-1.2312
X2.3Y-1.3313
X2.3Y-1.4312
X2.3Y-1.5312
X2.3Y-1.6312
X2.3Y-1.7312
X2.3Y-1.8313
X2.3Y-1.9312
X2.3Y-2.0312
X2.3Y-2.1313
T3
X1.1Y-1.9
X1.35Y-1.8
X1.1Y-1.15
X1.35Y-1.05
X1.1Y-2.65
X1.35Y-2.55
X2.6Y-2.65
X2.85Y-2.55
X1.85Y-2.65
X2.1Y-2.55
X2.6Y-1.15
X2.85Y-1.05
X1.85Y-1.15
X2.1Y-1.05
X1.85Y-1.9
X2.1Y-1.8
X2.6Y-1.9
X2.85Y-1.8
T0
M30
