%TF.GenerationSoftware,KiCad,Pcbnew,(5.1.6)-1*%
%TF.CreationDate,2020-10-02T01:53:22-06:00*%
%TF.ProjectId,macropad_3x3,6d616372-6f70-4616-945f-3378332e6b69,rev?*%
%TF.SameCoordinates,Original*%
%TF.FileFunction,Other,User*%
%FSLAX46Y46*%
G04 Gerber Fmt 4.6, Leading zero omitted, Abs format (unit mm)*
G04 Created by KiCad (PCBNEW (5.1.6)-1) date 2020-10-02 01:53:22*
%MOMM*%
%LPD*%
G01*
G04 APERTURE LIST*
%ADD10C,0.050000*%
G04 APERTURE END LIST*
D10*
%TO.C,D9*%
X64731250Y-79387500D02*
X64731250Y-76187500D01*
X64731250Y-76187500D02*
X74651250Y-76187500D01*
X74651250Y-76187500D02*
X74651250Y-79387500D01*
X74651250Y-79387500D02*
X64731250Y-79387500D01*
%TO.C,D8*%
X64731250Y-60337500D02*
X64731250Y-57137500D01*
X64731250Y-57137500D02*
X74651250Y-57137500D01*
X74651250Y-57137500D02*
X74651250Y-60337500D01*
X74651250Y-60337500D02*
X64731250Y-60337500D01*
%TO.C,D7*%
X64731250Y-41287500D02*
X64731250Y-38087500D01*
X64731250Y-38087500D02*
X74651250Y-38087500D01*
X74651250Y-38087500D02*
X74651250Y-41287500D01*
X74651250Y-41287500D02*
X64731250Y-41287500D01*
%TO.C,D6*%
X45681250Y-79387500D02*
X45681250Y-76187500D01*
X45681250Y-76187500D02*
X55601250Y-76187500D01*
X55601250Y-76187500D02*
X55601250Y-79387500D01*
X55601250Y-79387500D02*
X45681250Y-79387500D01*
%TO.C,D5*%
X45681250Y-60337500D02*
X45681250Y-57137500D01*
X45681250Y-57137500D02*
X55601250Y-57137500D01*
X55601250Y-57137500D02*
X55601250Y-60337500D01*
X55601250Y-60337500D02*
X45681250Y-60337500D01*
%TO.C,D4*%
X45681250Y-41287500D02*
X45681250Y-38087500D01*
X45681250Y-38087500D02*
X55601250Y-38087500D01*
X55601250Y-38087500D02*
X55601250Y-41287500D01*
X55601250Y-41287500D02*
X45681250Y-41287500D01*
%TO.C,D3*%
X26631250Y-79387500D02*
X26631250Y-76187500D01*
X26631250Y-76187500D02*
X36551250Y-76187500D01*
X36551250Y-76187500D02*
X36551250Y-79387500D01*
X36551250Y-79387500D02*
X26631250Y-79387500D01*
%TO.C,D2*%
X26631250Y-60337500D02*
X26631250Y-57137500D01*
X26631250Y-57137500D02*
X36551250Y-57137500D01*
X36551250Y-57137500D02*
X36551250Y-60337500D01*
X36551250Y-60337500D02*
X26631250Y-60337500D01*
%TO.C,D1*%
X26631250Y-41287500D02*
X26631250Y-38087500D01*
X26631250Y-38087500D02*
X36551250Y-38087500D01*
X36551250Y-38087500D02*
X36551250Y-41287500D01*
X36551250Y-41287500D02*
X26631250Y-41287500D01*
%TD*%
M02*
