M48
; DRILL file {KiCad (5.1.6)-1} date 10/02/20 01:53:32
; FORMAT={-:-/ absolute / inch / decimal}
; #@! TF.CreationDate,2020-10-02T01:53:32-06:00
; #@! TF.GenerationSoftware,Kicad,Pcbnew,(5.1.6)-1
; #@! TF.FileFunction,NonPlated,1,2,NPTH
FMAT,2
INCH
T1C0.0689
T2C0.1570
%
G90
G05
T1
X1.05Y-2.75
X1.45Y-2.75
X2.55Y-2.75
X2.95Y-2.75
X1.8Y-2.75
X2.2Y-2.75
X2.55Y-1.25
X2.95Y-1.25
X1.8Y-1.25
X2.2Y-1.25
X1.8Y-2.0
X2.2Y-2.0
X2.55Y-2.0
X2.95Y-2.0
X1.05Y-2.0
X1.45Y-2.0
X1.05Y-1.25
X1.45Y-1.25
T2
X1.25Y-2.75
X2.75Y-2.75
X2.0Y-2.75
X2.75Y-1.25
X2.0Y-1.25
X2.0Y-2.0
X2.75Y-2.0
X1.25Y-2.0
X1.25Y-1.25
T0
M30
