%TF.GenerationSoftware,KiCad,Pcbnew,(5.1.6)-1*%
%TF.CreationDate,2020-10-02T01:53:22-06:00*%
%TF.ProjectId,macropad_3x3,6d616372-6f70-4616-945f-3378332e6b69,rev?*%
%TF.SameCoordinates,Original*%
%TF.FileFunction,Legend,Top*%
%TF.FilePolarity,Positive*%
%FSLAX46Y46*%
G04 Gerber Fmt 4.6, Leading zero omitted, Abs format (unit mm)*
G04 Created by KiCad (PCBNEW (5.1.6)-1) date 2020-10-02 01:53:22*
%MOMM*%
%LPD*%
G01*
G04 APERTURE LIST*
%ADD10C,0.150000*%
G04 APERTURE END LIST*
D10*
X59880654Y-25646130D02*
X60452083Y-25646130D01*
X60166369Y-26646130D02*
X60166369Y-25646130D01*
X60690178Y-25646130D02*
X61356845Y-26646130D01*
X61356845Y-25646130D02*
X60690178Y-26646130D01*
X61928273Y-25646130D02*
X62023511Y-25646130D01*
X62118750Y-25693750D01*
X62166369Y-25741369D01*
X62213988Y-25836607D01*
X62261607Y-26027083D01*
X62261607Y-26265178D01*
X62213988Y-26455654D01*
X62166369Y-26550892D01*
X62118750Y-26598511D01*
X62023511Y-26646130D01*
X61928273Y-26646130D01*
X61833035Y-26598511D01*
X61785416Y-26550892D01*
X61737797Y-26455654D01*
X61690178Y-26265178D01*
X61690178Y-26027083D01*
X61737797Y-25836607D01*
X61785416Y-25741369D01*
X61833035Y-25693750D01*
X61928273Y-25646130D01*
X39790773Y-26646130D02*
X39457440Y-26169940D01*
X39219345Y-26646130D02*
X39219345Y-25646130D01*
X39600297Y-25646130D01*
X39695535Y-25693750D01*
X39743154Y-25741369D01*
X39790773Y-25836607D01*
X39790773Y-25979464D01*
X39743154Y-26074702D01*
X39695535Y-26122321D01*
X39600297Y-26169940D01*
X39219345Y-26169940D01*
X40171726Y-26360416D02*
X40647916Y-26360416D01*
X40076488Y-26646130D02*
X40409821Y-25646130D01*
X40743154Y-26646130D01*
X40981250Y-25646130D02*
X41219345Y-26646130D01*
X41409821Y-25931845D01*
X41600297Y-26646130D01*
X41838392Y-25646130D01*
M02*
