%TF.GenerationSoftware,KiCad,Pcbnew,(5.1.6)-1*%
%TF.CreationDate,2020-11-13T18:30:54-06:00*%
%TF.ProjectId,macropad_4x5,6d616372-6f70-4616-945f-3478352e6b69,v1.3*%
%TF.SameCoordinates,Original*%
%TF.FileFunction,Soldermask,Top*%
%TF.FilePolarity,Negative*%
%FSLAX46Y46*%
G04 Gerber Fmt 4.6, Leading zero omitted, Abs format (unit mm)*
G04 Created by KiCad (PCBNEW (5.1.6)-1) date 2020-11-13 18:30:54*
%MOMM*%
%LPD*%
G01*
G04 APERTURE LIST*
%ADD10C,0.800000*%
%ADD11C,4.500000*%
%ADD12C,1.850000*%
%ADD13C,4.087800*%
%ADD14O,1.900000X1.900000*%
%ADD15R,1.900000X1.900000*%
%ADD16C,2.082800*%
G04 APERTURE END LIST*
D10*
%TO.C,REF\u002A\u002A*%
X58316726Y-100433274D03*
X57150000Y-99950000D03*
X55983274Y-100433274D03*
X55500000Y-101600000D03*
X55983274Y-102766726D03*
X57150000Y-103250000D03*
X58316726Y-102766726D03*
X58800000Y-101600000D03*
D11*
X57150000Y-101600000D03*
%TD*%
%TO.C,REF\u002A\u002A*%
X95250000Y-101600000D03*
D10*
X96900000Y-101600000D03*
X96416726Y-102766726D03*
X95250000Y-103250000D03*
X94083274Y-102766726D03*
X93600000Y-101600000D03*
X94083274Y-100433274D03*
X95250000Y-99950000D03*
X96416726Y-100433274D03*
%TD*%
%TO.C,REF\u002A\u002A*%
X96416726Y-41695774D03*
X95250000Y-41212500D03*
X94083274Y-41695774D03*
X93600000Y-42862500D03*
X94083274Y-44029226D03*
X95250000Y-44512500D03*
X96416726Y-44029226D03*
X96900000Y-42862500D03*
D11*
X95250000Y-42862500D03*
%TD*%
D12*
%TO.C,MX3*%
X90805000Y-31750000D03*
X80645000Y-31750000D03*
D13*
X85725000Y-31750000D03*
%TD*%
D14*
%TO.C,D20*%
X108426250Y-115887500D03*
D15*
X100806250Y-115887500D03*
%TD*%
D14*
%TO.C,D19*%
X89376250Y-115887500D03*
D15*
X81756250Y-115887500D03*
%TD*%
D14*
%TO.C,D18*%
X70326250Y-115887500D03*
D15*
X62706250Y-115887500D03*
%TD*%
%TO.C,D17*%
X43656250Y-115887500D03*
D14*
X51276250Y-115887500D03*
%TD*%
%TO.C,D16*%
X108426250Y-97631250D03*
D15*
X100806250Y-97631250D03*
%TD*%
D14*
%TO.C,D15*%
X89376250Y-97631250D03*
D15*
X81756250Y-97631250D03*
%TD*%
D14*
%TO.C,D14*%
X70326250Y-97631250D03*
D15*
X62706250Y-97631250D03*
%TD*%
D14*
%TO.C,D13*%
X51276250Y-97631250D03*
D15*
X43656250Y-97631250D03*
%TD*%
D14*
%TO.C,D12*%
X108426250Y-78581250D03*
D15*
X100806250Y-78581250D03*
%TD*%
D14*
%TO.C,D11*%
X89376250Y-78581250D03*
D15*
X81756250Y-78581250D03*
%TD*%
D14*
%TO.C,D10*%
X70326250Y-78581250D03*
D15*
X62706250Y-78581250D03*
%TD*%
D14*
%TO.C,D9*%
X51276250Y-78581250D03*
D15*
X43656250Y-78581250D03*
%TD*%
D14*
%TO.C,D8*%
X108426250Y-59531250D03*
D15*
X100806250Y-59531250D03*
%TD*%
D14*
%TO.C,D7*%
X89376250Y-59531250D03*
D15*
X81756250Y-59531250D03*
%TD*%
D14*
%TO.C,D6*%
X70326250Y-59531250D03*
D15*
X62706250Y-59531250D03*
%TD*%
D14*
%TO.C,D5*%
X51276250Y-59531250D03*
D15*
X43656250Y-59531250D03*
%TD*%
D14*
%TO.C,D4*%
X108426250Y-40481250D03*
D15*
X100806250Y-40481250D03*
%TD*%
D14*
%TO.C,D3*%
X89376250Y-40481250D03*
D15*
X81756250Y-40481250D03*
%TD*%
D14*
%TO.C,D2*%
X70326250Y-40481250D03*
D15*
X62706250Y-40481250D03*
%TD*%
D14*
%TO.C,D1*%
X51276250Y-40481250D03*
D15*
X43656250Y-40481250D03*
%TD*%
D12*
%TO.C,MX20*%
X109855000Y-107950000D03*
X99695000Y-107950000D03*
D13*
X104775000Y-107950000D03*
%TD*%
D12*
%TO.C,MX19*%
X90805000Y-107950000D03*
X80645000Y-107950000D03*
D13*
X85725000Y-107950000D03*
%TD*%
D12*
%TO.C,MX18*%
X71755000Y-107950000D03*
X61595000Y-107950000D03*
D13*
X66675000Y-107950000D03*
%TD*%
D12*
%TO.C,MX17*%
X52705000Y-107950000D03*
X42545000Y-107950000D03*
D13*
X47625000Y-107950000D03*
%TD*%
D12*
%TO.C,MX16*%
X109855000Y-88900000D03*
X99695000Y-88900000D03*
D13*
X104775000Y-88900000D03*
%TD*%
D12*
%TO.C,MX15*%
X90805000Y-88900000D03*
X80645000Y-88900000D03*
D13*
X85725000Y-88900000D03*
%TD*%
D12*
%TO.C,MX14*%
X71755000Y-88900000D03*
X61595000Y-88900000D03*
D13*
X66675000Y-88900000D03*
%TD*%
D12*
%TO.C,MX13*%
X52705000Y-88900000D03*
X42545000Y-88900000D03*
D13*
X47625000Y-88900000D03*
%TD*%
D12*
%TO.C,MX12*%
X109855000Y-69850000D03*
X99695000Y-69850000D03*
D13*
X104775000Y-69850000D03*
%TD*%
D12*
%TO.C,MX11*%
X90805000Y-69850000D03*
X80645000Y-69850000D03*
D13*
X85725000Y-69850000D03*
%TD*%
D12*
%TO.C,MX10*%
X71755000Y-69850000D03*
X61595000Y-69850000D03*
D13*
X66675000Y-69850000D03*
%TD*%
D12*
%TO.C,MX9*%
X52705000Y-69850000D03*
X42545000Y-69850000D03*
D13*
X47625000Y-69850000D03*
%TD*%
D12*
%TO.C,MX8*%
X109855000Y-50800000D03*
X99695000Y-50800000D03*
D13*
X104775000Y-50800000D03*
%TD*%
D12*
%TO.C,MX7*%
X90805000Y-50800000D03*
X80645000Y-50800000D03*
D13*
X85725000Y-50800000D03*
%TD*%
D12*
%TO.C,MX6*%
X71755000Y-50800000D03*
X61595000Y-50800000D03*
D13*
X66675000Y-50800000D03*
%TD*%
D12*
%TO.C,MX5*%
X52705000Y-50800000D03*
X42545000Y-50800000D03*
D13*
X47625000Y-50800000D03*
%TD*%
D12*
%TO.C,MX4*%
X109855000Y-31750000D03*
X99695000Y-31750000D03*
D13*
X104775000Y-31750000D03*
%TD*%
D12*
%TO.C,MX2*%
X71755000Y-31750000D03*
X61595000Y-31750000D03*
D13*
X66675000Y-31750000D03*
%TD*%
D12*
%TO.C,MX1*%
X52705000Y-31750000D03*
X42545000Y-31750000D03*
D13*
X47625000Y-31750000D03*
%TD*%
D16*
%TO.C,B1*%
X59055000Y-26193750D03*
X59055000Y-28733750D03*
X59055000Y-31273750D03*
X59055000Y-33813750D03*
X59055000Y-36353750D03*
X59055000Y-38893750D03*
X59055000Y-41433750D03*
X59055000Y-43973750D03*
X59055000Y-46513750D03*
X59055000Y-49053750D03*
X59055000Y-51593750D03*
X59055000Y-54133750D03*
X74295000Y-54133750D03*
X74295000Y-51593750D03*
X74295000Y-49053750D03*
X74295000Y-46513750D03*
X74295000Y-43973750D03*
X74295000Y-41433750D03*
X74295000Y-38893750D03*
X74295000Y-36353750D03*
X74295000Y-33813750D03*
X74295000Y-31273750D03*
X74295000Y-28733750D03*
X74295000Y-26193750D03*
%TD*%
M02*
