%TF.GenerationSoftware,KiCad,Pcbnew,(5.1.6)-1*%
%TF.CreationDate,2020-11-13T18:30:54-06:00*%
%TF.ProjectId,macropad_4x5,6d616372-6f70-4616-945f-3478352e6b69,v1.3*%
%TF.SameCoordinates,Original*%
%TF.FileFunction,Legend,Bot*%
%TF.FilePolarity,Positive*%
%FSLAX46Y46*%
G04 Gerber Fmt 4.6, Leading zero omitted, Abs format (unit mm)*
G04 Created by KiCad (PCBNEW (5.1.6)-1) date 2020-11-13 18:30:54*
%MOMM*%
%LPD*%
G01*
G04 APERTURE LIST*
%ADD10C,0.150000*%
%ADD11C,0.120000*%
%ADD12C,0.127000*%
G04 APERTURE END LIST*
D10*
X56935666Y-46934380D02*
X57269000Y-46458190D01*
X57507095Y-46934380D02*
X57507095Y-45934380D01*
X57126142Y-45934380D01*
X57030904Y-45982000D01*
X56983285Y-46029619D01*
X56935666Y-46124857D01*
X56935666Y-46267714D01*
X56983285Y-46362952D01*
X57030904Y-46410571D01*
X57126142Y-46458190D01*
X57507095Y-46458190D01*
X55983285Y-46934380D02*
X56554714Y-46934380D01*
X56269000Y-46934380D02*
X56269000Y-45934380D01*
X56364238Y-46077238D01*
X56459476Y-46172476D01*
X56554714Y-46220095D01*
X56935666Y-44394380D02*
X57269000Y-43918190D01*
X57507095Y-44394380D02*
X57507095Y-43394380D01*
X57126142Y-43394380D01*
X57030904Y-43442000D01*
X56983285Y-43489619D01*
X56935666Y-43584857D01*
X56935666Y-43727714D01*
X56983285Y-43822952D01*
X57030904Y-43870571D01*
X57126142Y-43918190D01*
X57507095Y-43918190D01*
X56554714Y-43489619D02*
X56507095Y-43442000D01*
X56411857Y-43394380D01*
X56173761Y-43394380D01*
X56078523Y-43442000D01*
X56030904Y-43489619D01*
X55983285Y-43584857D01*
X55983285Y-43680095D01*
X56030904Y-43822952D01*
X56602333Y-44394380D01*
X55983285Y-44394380D01*
X56935666Y-41854380D02*
X57269000Y-41378190D01*
X57507095Y-41854380D02*
X57507095Y-40854380D01*
X57126142Y-40854380D01*
X57030904Y-40902000D01*
X56983285Y-40949619D01*
X56935666Y-41044857D01*
X56935666Y-41187714D01*
X56983285Y-41282952D01*
X57030904Y-41330571D01*
X57126142Y-41378190D01*
X57507095Y-41378190D01*
X56602333Y-40854380D02*
X55983285Y-40854380D01*
X56316619Y-41235333D01*
X56173761Y-41235333D01*
X56078523Y-41282952D01*
X56030904Y-41330571D01*
X55983285Y-41425809D01*
X55983285Y-41663904D01*
X56030904Y-41759142D01*
X56078523Y-41806761D01*
X56173761Y-41854380D01*
X56459476Y-41854380D01*
X56554714Y-41806761D01*
X56602333Y-41759142D01*
X56935666Y-39314380D02*
X57269000Y-38838190D01*
X57507095Y-39314380D02*
X57507095Y-38314380D01*
X57126142Y-38314380D01*
X57030904Y-38362000D01*
X56983285Y-38409619D01*
X56935666Y-38504857D01*
X56935666Y-38647714D01*
X56983285Y-38742952D01*
X57030904Y-38790571D01*
X57126142Y-38838190D01*
X57507095Y-38838190D01*
X56078523Y-38647714D02*
X56078523Y-39314380D01*
X56316619Y-38266761D02*
X56554714Y-38981047D01*
X55935666Y-38981047D01*
X56935666Y-36774380D02*
X57269000Y-36298190D01*
X57507095Y-36774380D02*
X57507095Y-35774380D01*
X57126142Y-35774380D01*
X57030904Y-35822000D01*
X56983285Y-35869619D01*
X56935666Y-35964857D01*
X56935666Y-36107714D01*
X56983285Y-36202952D01*
X57030904Y-36250571D01*
X57126142Y-36298190D01*
X57507095Y-36298190D01*
X56316619Y-35774380D02*
X56221380Y-35774380D01*
X56126142Y-35822000D01*
X56078523Y-35869619D01*
X56030904Y-35964857D01*
X55983285Y-36155333D01*
X55983285Y-36393428D01*
X56030904Y-36583904D01*
X56078523Y-36679142D01*
X56126142Y-36726761D01*
X56221380Y-36774380D01*
X56316619Y-36774380D01*
X56411857Y-36726761D01*
X56459476Y-36679142D01*
X56507095Y-36583904D01*
X56554714Y-36393428D01*
X56554714Y-36155333D01*
X56507095Y-35964857D01*
X56459476Y-35869619D01*
X56411857Y-35822000D01*
X56316619Y-35774380D01*
X78279464Y-25646130D02*
X77708035Y-25646130D01*
X77993750Y-26646130D02*
X77993750Y-25646130D01*
X77469940Y-25646130D02*
X76803273Y-26646130D01*
X76803273Y-25646130D02*
X77469940Y-26646130D01*
X76231845Y-25646130D02*
X76041369Y-25646130D01*
X75946130Y-25693750D01*
X75850892Y-25788988D01*
X75803273Y-25979464D01*
X75803273Y-26312797D01*
X75850892Y-26503273D01*
X75946130Y-26598511D01*
X76041369Y-26646130D01*
X76231845Y-26646130D01*
X76327083Y-26598511D01*
X76422321Y-26503273D01*
X76469940Y-26312797D01*
X76469940Y-25979464D01*
X76422321Y-25788988D01*
X76327083Y-25693750D01*
X76231845Y-25646130D01*
X57046726Y-26646130D02*
X57380059Y-26169940D01*
X57618154Y-26646130D02*
X57618154Y-25646130D01*
X57237202Y-25646130D01*
X57141964Y-25693750D01*
X57094345Y-25741369D01*
X57046726Y-25836607D01*
X57046726Y-25979464D01*
X57094345Y-26074702D01*
X57141964Y-26122321D01*
X57237202Y-26169940D01*
X57618154Y-26169940D01*
X56665773Y-26360416D02*
X56189583Y-26360416D01*
X56761011Y-26646130D02*
X56427678Y-25646130D01*
X56094345Y-26646130D01*
X55856250Y-25646130D02*
X55618154Y-26646130D01*
X55427678Y-25931845D01*
X55237202Y-26646130D01*
X54999107Y-25646130D01*
D11*
%TO.C,D20*%
X101896250Y-117027500D02*
X101896250Y-117357500D01*
X101896250Y-117357500D02*
X107336250Y-117357500D01*
X107336250Y-117357500D02*
X107336250Y-117027500D01*
X101896250Y-114747500D02*
X101896250Y-114417500D01*
X101896250Y-114417500D02*
X107336250Y-114417500D01*
X107336250Y-114417500D02*
X107336250Y-114747500D01*
X102796250Y-117357500D02*
X102796250Y-114417500D01*
X102916250Y-117357500D02*
X102916250Y-114417500D01*
X102676250Y-117357500D02*
X102676250Y-114417500D01*
%TO.C,D19*%
X82846250Y-117027500D02*
X82846250Y-117357500D01*
X82846250Y-117357500D02*
X88286250Y-117357500D01*
X88286250Y-117357500D02*
X88286250Y-117027500D01*
X82846250Y-114747500D02*
X82846250Y-114417500D01*
X82846250Y-114417500D02*
X88286250Y-114417500D01*
X88286250Y-114417500D02*
X88286250Y-114747500D01*
X83746250Y-117357500D02*
X83746250Y-114417500D01*
X83866250Y-117357500D02*
X83866250Y-114417500D01*
X83626250Y-117357500D02*
X83626250Y-114417500D01*
%TO.C,D18*%
X63796250Y-117027500D02*
X63796250Y-117357500D01*
X63796250Y-117357500D02*
X69236250Y-117357500D01*
X69236250Y-117357500D02*
X69236250Y-117027500D01*
X63796250Y-114747500D02*
X63796250Y-114417500D01*
X63796250Y-114417500D02*
X69236250Y-114417500D01*
X69236250Y-114417500D02*
X69236250Y-114747500D01*
X64696250Y-117357500D02*
X64696250Y-114417500D01*
X64816250Y-117357500D02*
X64816250Y-114417500D01*
X64576250Y-117357500D02*
X64576250Y-114417500D01*
%TO.C,D17*%
X45526250Y-117357500D02*
X45526250Y-114417500D01*
X45766250Y-117357500D02*
X45766250Y-114417500D01*
X45646250Y-117357500D02*
X45646250Y-114417500D01*
X50186250Y-114417500D02*
X50186250Y-114747500D01*
X44746250Y-114417500D02*
X50186250Y-114417500D01*
X44746250Y-114747500D02*
X44746250Y-114417500D01*
X50186250Y-117357500D02*
X50186250Y-117027500D01*
X44746250Y-117357500D02*
X50186250Y-117357500D01*
X44746250Y-117027500D02*
X44746250Y-117357500D01*
%TO.C,D16*%
X101896250Y-98771250D02*
X101896250Y-99101250D01*
X101896250Y-99101250D02*
X107336250Y-99101250D01*
X107336250Y-99101250D02*
X107336250Y-98771250D01*
X101896250Y-96491250D02*
X101896250Y-96161250D01*
X101896250Y-96161250D02*
X107336250Y-96161250D01*
X107336250Y-96161250D02*
X107336250Y-96491250D01*
X102796250Y-99101250D02*
X102796250Y-96161250D01*
X102916250Y-99101250D02*
X102916250Y-96161250D01*
X102676250Y-99101250D02*
X102676250Y-96161250D01*
%TO.C,D15*%
X82846250Y-98771250D02*
X82846250Y-99101250D01*
X82846250Y-99101250D02*
X88286250Y-99101250D01*
X88286250Y-99101250D02*
X88286250Y-98771250D01*
X82846250Y-96491250D02*
X82846250Y-96161250D01*
X82846250Y-96161250D02*
X88286250Y-96161250D01*
X88286250Y-96161250D02*
X88286250Y-96491250D01*
X83746250Y-99101250D02*
X83746250Y-96161250D01*
X83866250Y-99101250D02*
X83866250Y-96161250D01*
X83626250Y-99101250D02*
X83626250Y-96161250D01*
%TO.C,D14*%
X63796250Y-98771250D02*
X63796250Y-99101250D01*
X63796250Y-99101250D02*
X69236250Y-99101250D01*
X69236250Y-99101250D02*
X69236250Y-98771250D01*
X63796250Y-96491250D02*
X63796250Y-96161250D01*
X63796250Y-96161250D02*
X69236250Y-96161250D01*
X69236250Y-96161250D02*
X69236250Y-96491250D01*
X64696250Y-99101250D02*
X64696250Y-96161250D01*
X64816250Y-99101250D02*
X64816250Y-96161250D01*
X64576250Y-99101250D02*
X64576250Y-96161250D01*
%TO.C,D13*%
X44746250Y-98771250D02*
X44746250Y-99101250D01*
X44746250Y-99101250D02*
X50186250Y-99101250D01*
X50186250Y-99101250D02*
X50186250Y-98771250D01*
X44746250Y-96491250D02*
X44746250Y-96161250D01*
X44746250Y-96161250D02*
X50186250Y-96161250D01*
X50186250Y-96161250D02*
X50186250Y-96491250D01*
X45646250Y-99101250D02*
X45646250Y-96161250D01*
X45766250Y-99101250D02*
X45766250Y-96161250D01*
X45526250Y-99101250D02*
X45526250Y-96161250D01*
%TO.C,D12*%
X101896250Y-79721250D02*
X101896250Y-80051250D01*
X101896250Y-80051250D02*
X107336250Y-80051250D01*
X107336250Y-80051250D02*
X107336250Y-79721250D01*
X101896250Y-77441250D02*
X101896250Y-77111250D01*
X101896250Y-77111250D02*
X107336250Y-77111250D01*
X107336250Y-77111250D02*
X107336250Y-77441250D01*
X102796250Y-80051250D02*
X102796250Y-77111250D01*
X102916250Y-80051250D02*
X102916250Y-77111250D01*
X102676250Y-80051250D02*
X102676250Y-77111250D01*
%TO.C,D11*%
X82846250Y-79721250D02*
X82846250Y-80051250D01*
X82846250Y-80051250D02*
X88286250Y-80051250D01*
X88286250Y-80051250D02*
X88286250Y-79721250D01*
X82846250Y-77441250D02*
X82846250Y-77111250D01*
X82846250Y-77111250D02*
X88286250Y-77111250D01*
X88286250Y-77111250D02*
X88286250Y-77441250D01*
X83746250Y-80051250D02*
X83746250Y-77111250D01*
X83866250Y-80051250D02*
X83866250Y-77111250D01*
X83626250Y-80051250D02*
X83626250Y-77111250D01*
%TO.C,D10*%
X63796250Y-79721250D02*
X63796250Y-80051250D01*
X63796250Y-80051250D02*
X69236250Y-80051250D01*
X69236250Y-80051250D02*
X69236250Y-79721250D01*
X63796250Y-77441250D02*
X63796250Y-77111250D01*
X63796250Y-77111250D02*
X69236250Y-77111250D01*
X69236250Y-77111250D02*
X69236250Y-77441250D01*
X64696250Y-80051250D02*
X64696250Y-77111250D01*
X64816250Y-80051250D02*
X64816250Y-77111250D01*
X64576250Y-80051250D02*
X64576250Y-77111250D01*
%TO.C,D9*%
X44746250Y-79721250D02*
X44746250Y-80051250D01*
X44746250Y-80051250D02*
X50186250Y-80051250D01*
X50186250Y-80051250D02*
X50186250Y-79721250D01*
X44746250Y-77441250D02*
X44746250Y-77111250D01*
X44746250Y-77111250D02*
X50186250Y-77111250D01*
X50186250Y-77111250D02*
X50186250Y-77441250D01*
X45646250Y-80051250D02*
X45646250Y-77111250D01*
X45766250Y-80051250D02*
X45766250Y-77111250D01*
X45526250Y-80051250D02*
X45526250Y-77111250D01*
%TO.C,D8*%
X101896250Y-60671250D02*
X101896250Y-61001250D01*
X101896250Y-61001250D02*
X107336250Y-61001250D01*
X107336250Y-61001250D02*
X107336250Y-60671250D01*
X101896250Y-58391250D02*
X101896250Y-58061250D01*
X101896250Y-58061250D02*
X107336250Y-58061250D01*
X107336250Y-58061250D02*
X107336250Y-58391250D01*
X102796250Y-61001250D02*
X102796250Y-58061250D01*
X102916250Y-61001250D02*
X102916250Y-58061250D01*
X102676250Y-61001250D02*
X102676250Y-58061250D01*
%TO.C,D7*%
X82846250Y-60671250D02*
X82846250Y-61001250D01*
X82846250Y-61001250D02*
X88286250Y-61001250D01*
X88286250Y-61001250D02*
X88286250Y-60671250D01*
X82846250Y-58391250D02*
X82846250Y-58061250D01*
X82846250Y-58061250D02*
X88286250Y-58061250D01*
X88286250Y-58061250D02*
X88286250Y-58391250D01*
X83746250Y-61001250D02*
X83746250Y-58061250D01*
X83866250Y-61001250D02*
X83866250Y-58061250D01*
X83626250Y-61001250D02*
X83626250Y-58061250D01*
%TO.C,D6*%
X63796250Y-60671250D02*
X63796250Y-61001250D01*
X63796250Y-61001250D02*
X69236250Y-61001250D01*
X69236250Y-61001250D02*
X69236250Y-60671250D01*
X63796250Y-58391250D02*
X63796250Y-58061250D01*
X63796250Y-58061250D02*
X69236250Y-58061250D01*
X69236250Y-58061250D02*
X69236250Y-58391250D01*
X64696250Y-61001250D02*
X64696250Y-58061250D01*
X64816250Y-61001250D02*
X64816250Y-58061250D01*
X64576250Y-61001250D02*
X64576250Y-58061250D01*
%TO.C,D5*%
X44746250Y-60671250D02*
X44746250Y-61001250D01*
X44746250Y-61001250D02*
X50186250Y-61001250D01*
X50186250Y-61001250D02*
X50186250Y-60671250D01*
X44746250Y-58391250D02*
X44746250Y-58061250D01*
X44746250Y-58061250D02*
X50186250Y-58061250D01*
X50186250Y-58061250D02*
X50186250Y-58391250D01*
X45646250Y-61001250D02*
X45646250Y-58061250D01*
X45766250Y-61001250D02*
X45766250Y-58061250D01*
X45526250Y-61001250D02*
X45526250Y-58061250D01*
%TO.C,D4*%
X101896250Y-41621250D02*
X101896250Y-41951250D01*
X101896250Y-41951250D02*
X107336250Y-41951250D01*
X107336250Y-41951250D02*
X107336250Y-41621250D01*
X101896250Y-39341250D02*
X101896250Y-39011250D01*
X101896250Y-39011250D02*
X107336250Y-39011250D01*
X107336250Y-39011250D02*
X107336250Y-39341250D01*
X102796250Y-41951250D02*
X102796250Y-39011250D01*
X102916250Y-41951250D02*
X102916250Y-39011250D01*
X102676250Y-41951250D02*
X102676250Y-39011250D01*
%TO.C,D3*%
X82846250Y-41621250D02*
X82846250Y-41951250D01*
X82846250Y-41951250D02*
X88286250Y-41951250D01*
X88286250Y-41951250D02*
X88286250Y-41621250D01*
X82846250Y-39341250D02*
X82846250Y-39011250D01*
X82846250Y-39011250D02*
X88286250Y-39011250D01*
X88286250Y-39011250D02*
X88286250Y-39341250D01*
X83746250Y-41951250D02*
X83746250Y-39011250D01*
X83866250Y-41951250D02*
X83866250Y-39011250D01*
X83626250Y-41951250D02*
X83626250Y-39011250D01*
%TO.C,D2*%
X63796250Y-41621250D02*
X63796250Y-41951250D01*
X63796250Y-41951250D02*
X69236250Y-41951250D01*
X69236250Y-41951250D02*
X69236250Y-41621250D01*
X63796250Y-39341250D02*
X63796250Y-39011250D01*
X63796250Y-39011250D02*
X69236250Y-39011250D01*
X69236250Y-39011250D02*
X69236250Y-39341250D01*
X64696250Y-41951250D02*
X64696250Y-39011250D01*
X64816250Y-41951250D02*
X64816250Y-39011250D01*
X64576250Y-41951250D02*
X64576250Y-39011250D01*
%TO.C,D1*%
X44746250Y-41621250D02*
X44746250Y-41951250D01*
X44746250Y-41951250D02*
X50186250Y-41951250D01*
X50186250Y-41951250D02*
X50186250Y-41621250D01*
X44746250Y-39341250D02*
X44746250Y-39011250D01*
X44746250Y-39011250D02*
X50186250Y-39011250D01*
X50186250Y-39011250D02*
X50186250Y-39341250D01*
X45646250Y-41951250D02*
X45646250Y-39011250D01*
X45766250Y-41951250D02*
X45766250Y-39011250D01*
X45526250Y-41951250D02*
X45526250Y-39011250D01*
%TO.C,D20*%
D10*
X105862285Y-113990380D02*
X105862285Y-112990380D01*
X105624190Y-112990380D01*
X105481333Y-113038000D01*
X105386095Y-113133238D01*
X105338476Y-113228476D01*
X105290857Y-113418952D01*
X105290857Y-113561809D01*
X105338476Y-113752285D01*
X105386095Y-113847523D01*
X105481333Y-113942761D01*
X105624190Y-113990380D01*
X105862285Y-113990380D01*
X104909904Y-113085619D02*
X104862285Y-113038000D01*
X104767047Y-112990380D01*
X104528952Y-112990380D01*
X104433714Y-113038000D01*
X104386095Y-113085619D01*
X104338476Y-113180857D01*
X104338476Y-113276095D01*
X104386095Y-113418952D01*
X104957523Y-113990380D01*
X104338476Y-113990380D01*
X103719428Y-112990380D02*
X103624190Y-112990380D01*
X103528952Y-113038000D01*
X103481333Y-113085619D01*
X103433714Y-113180857D01*
X103386095Y-113371333D01*
X103386095Y-113609428D01*
X103433714Y-113799904D01*
X103481333Y-113895142D01*
X103528952Y-113942761D01*
X103624190Y-113990380D01*
X103719428Y-113990380D01*
X103814666Y-113942761D01*
X103862285Y-113895142D01*
X103909904Y-113799904D01*
X103957523Y-113609428D01*
X103957523Y-113371333D01*
X103909904Y-113180857D01*
X103862285Y-113085619D01*
X103814666Y-113038000D01*
X103719428Y-112990380D01*
X101068154Y-114625380D02*
X101068154Y-113625380D01*
X100496726Y-114625380D02*
X100925297Y-114053952D01*
X100496726Y-113625380D02*
X101068154Y-114196809D01*
%TO.C,D19*%
X86780535Y-113990380D02*
X86780535Y-112990380D01*
X86542440Y-112990380D01*
X86399583Y-113038000D01*
X86304345Y-113133238D01*
X86256726Y-113228476D01*
X86209107Y-113418952D01*
X86209107Y-113561809D01*
X86256726Y-113752285D01*
X86304345Y-113847523D01*
X86399583Y-113942761D01*
X86542440Y-113990380D01*
X86780535Y-113990380D01*
X85256726Y-113990380D02*
X85828154Y-113990380D01*
X85542440Y-113990380D02*
X85542440Y-112990380D01*
X85637678Y-113133238D01*
X85732916Y-113228476D01*
X85828154Y-113276095D01*
X84780535Y-113990380D02*
X84590059Y-113990380D01*
X84494821Y-113942761D01*
X84447202Y-113895142D01*
X84351964Y-113752285D01*
X84304345Y-113561809D01*
X84304345Y-113180857D01*
X84351964Y-113085619D01*
X84399583Y-113038000D01*
X84494821Y-112990380D01*
X84685297Y-112990380D01*
X84780535Y-113038000D01*
X84828154Y-113085619D01*
X84875773Y-113180857D01*
X84875773Y-113418952D01*
X84828154Y-113514190D01*
X84780535Y-113561809D01*
X84685297Y-113609428D01*
X84494821Y-113609428D01*
X84399583Y-113561809D01*
X84351964Y-113514190D01*
X84304345Y-113418952D01*
X82018154Y-114625380D02*
X82018154Y-113625380D01*
X81446726Y-114625380D02*
X81875297Y-114053952D01*
X81446726Y-113625380D02*
X82018154Y-114196809D01*
%TO.C,D18*%
X67762285Y-113990380D02*
X67762285Y-112990380D01*
X67524190Y-112990380D01*
X67381333Y-113038000D01*
X67286095Y-113133238D01*
X67238476Y-113228476D01*
X67190857Y-113418952D01*
X67190857Y-113561809D01*
X67238476Y-113752285D01*
X67286095Y-113847523D01*
X67381333Y-113942761D01*
X67524190Y-113990380D01*
X67762285Y-113990380D01*
X66238476Y-113990380D02*
X66809904Y-113990380D01*
X66524190Y-113990380D02*
X66524190Y-112990380D01*
X66619428Y-113133238D01*
X66714666Y-113228476D01*
X66809904Y-113276095D01*
X65667047Y-113418952D02*
X65762285Y-113371333D01*
X65809904Y-113323714D01*
X65857523Y-113228476D01*
X65857523Y-113180857D01*
X65809904Y-113085619D01*
X65762285Y-113038000D01*
X65667047Y-112990380D01*
X65476571Y-112990380D01*
X65381333Y-113038000D01*
X65333714Y-113085619D01*
X65286095Y-113180857D01*
X65286095Y-113228476D01*
X65333714Y-113323714D01*
X65381333Y-113371333D01*
X65476571Y-113418952D01*
X65667047Y-113418952D01*
X65762285Y-113466571D01*
X65809904Y-113514190D01*
X65857523Y-113609428D01*
X65857523Y-113799904D01*
X65809904Y-113895142D01*
X65762285Y-113942761D01*
X65667047Y-113990380D01*
X65476571Y-113990380D01*
X65381333Y-113942761D01*
X65333714Y-113895142D01*
X65286095Y-113799904D01*
X65286095Y-113609428D01*
X65333714Y-113514190D01*
X65381333Y-113466571D01*
X65476571Y-113418952D01*
X62999904Y-114625380D02*
X62999904Y-113625380D01*
X62428476Y-114625380D02*
X62857047Y-114053952D01*
X62428476Y-113625380D02*
X62999904Y-114196809D01*
%TO.C,D17*%
X48680535Y-113958630D02*
X48680535Y-112958630D01*
X48442440Y-112958630D01*
X48299583Y-113006250D01*
X48204345Y-113101488D01*
X48156726Y-113196726D01*
X48109107Y-113387202D01*
X48109107Y-113530059D01*
X48156726Y-113720535D01*
X48204345Y-113815773D01*
X48299583Y-113911011D01*
X48442440Y-113958630D01*
X48680535Y-113958630D01*
X47156726Y-113958630D02*
X47728154Y-113958630D01*
X47442440Y-113958630D02*
X47442440Y-112958630D01*
X47537678Y-113101488D01*
X47632916Y-113196726D01*
X47728154Y-113244345D01*
X46823392Y-112958630D02*
X46156726Y-112958630D01*
X46585297Y-113958630D01*
X43949904Y-114625380D02*
X43949904Y-113625380D01*
X43378476Y-114625380D02*
X43807047Y-114053952D01*
X43378476Y-113625380D02*
X43949904Y-114196809D01*
%TO.C,D16*%
X105830535Y-100553630D02*
X105830535Y-99553630D01*
X105592440Y-99553630D01*
X105449583Y-99601250D01*
X105354345Y-99696488D01*
X105306726Y-99791726D01*
X105259107Y-99982202D01*
X105259107Y-100125059D01*
X105306726Y-100315535D01*
X105354345Y-100410773D01*
X105449583Y-100506011D01*
X105592440Y-100553630D01*
X105830535Y-100553630D01*
X104306726Y-100553630D02*
X104878154Y-100553630D01*
X104592440Y-100553630D02*
X104592440Y-99553630D01*
X104687678Y-99696488D01*
X104782916Y-99791726D01*
X104878154Y-99839345D01*
X103449583Y-99553630D02*
X103640059Y-99553630D01*
X103735297Y-99601250D01*
X103782916Y-99648869D01*
X103878154Y-99791726D01*
X103925773Y-99982202D01*
X103925773Y-100363154D01*
X103878154Y-100458392D01*
X103830535Y-100506011D01*
X103735297Y-100553630D01*
X103544821Y-100553630D01*
X103449583Y-100506011D01*
X103401964Y-100458392D01*
X103354345Y-100363154D01*
X103354345Y-100125059D01*
X103401964Y-100029821D01*
X103449583Y-99982202D01*
X103544821Y-99934583D01*
X103735297Y-99934583D01*
X103830535Y-99982202D01*
X103878154Y-100029821D01*
X103925773Y-100125059D01*
X101068154Y-99983630D02*
X101068154Y-98983630D01*
X100496726Y-99983630D02*
X100925297Y-99412202D01*
X100496726Y-98983630D02*
X101068154Y-99555059D01*
%TO.C,D15*%
X86780535Y-100553630D02*
X86780535Y-99553630D01*
X86542440Y-99553630D01*
X86399583Y-99601250D01*
X86304345Y-99696488D01*
X86256726Y-99791726D01*
X86209107Y-99982202D01*
X86209107Y-100125059D01*
X86256726Y-100315535D01*
X86304345Y-100410773D01*
X86399583Y-100506011D01*
X86542440Y-100553630D01*
X86780535Y-100553630D01*
X85256726Y-100553630D02*
X85828154Y-100553630D01*
X85542440Y-100553630D02*
X85542440Y-99553630D01*
X85637678Y-99696488D01*
X85732916Y-99791726D01*
X85828154Y-99839345D01*
X84351964Y-99553630D02*
X84828154Y-99553630D01*
X84875773Y-100029821D01*
X84828154Y-99982202D01*
X84732916Y-99934583D01*
X84494821Y-99934583D01*
X84399583Y-99982202D01*
X84351964Y-100029821D01*
X84304345Y-100125059D01*
X84304345Y-100363154D01*
X84351964Y-100458392D01*
X84399583Y-100506011D01*
X84494821Y-100553630D01*
X84732916Y-100553630D01*
X84828154Y-100506011D01*
X84875773Y-100458392D01*
X82018154Y-99983630D02*
X82018154Y-98983630D01*
X81446726Y-99983630D02*
X81875297Y-99412202D01*
X81446726Y-98983630D02*
X82018154Y-99555059D01*
%TO.C,D14*%
X67730535Y-100553630D02*
X67730535Y-99553630D01*
X67492440Y-99553630D01*
X67349583Y-99601250D01*
X67254345Y-99696488D01*
X67206726Y-99791726D01*
X67159107Y-99982202D01*
X67159107Y-100125059D01*
X67206726Y-100315535D01*
X67254345Y-100410773D01*
X67349583Y-100506011D01*
X67492440Y-100553630D01*
X67730535Y-100553630D01*
X66206726Y-100553630D02*
X66778154Y-100553630D01*
X66492440Y-100553630D02*
X66492440Y-99553630D01*
X66587678Y-99696488D01*
X66682916Y-99791726D01*
X66778154Y-99839345D01*
X65349583Y-99886964D02*
X65349583Y-100553630D01*
X65587678Y-99506011D02*
X65825773Y-100220297D01*
X65206726Y-100220297D01*
X62968154Y-99983630D02*
X62968154Y-98983630D01*
X62396726Y-99983630D02*
X62825297Y-99412202D01*
X62396726Y-98983630D02*
X62968154Y-99555059D01*
%TO.C,D13*%
X48680535Y-100553630D02*
X48680535Y-99553630D01*
X48442440Y-99553630D01*
X48299583Y-99601250D01*
X48204345Y-99696488D01*
X48156726Y-99791726D01*
X48109107Y-99982202D01*
X48109107Y-100125059D01*
X48156726Y-100315535D01*
X48204345Y-100410773D01*
X48299583Y-100506011D01*
X48442440Y-100553630D01*
X48680535Y-100553630D01*
X47156726Y-100553630D02*
X47728154Y-100553630D01*
X47442440Y-100553630D02*
X47442440Y-99553630D01*
X47537678Y-99696488D01*
X47632916Y-99791726D01*
X47728154Y-99839345D01*
X46823392Y-99553630D02*
X46204345Y-99553630D01*
X46537678Y-99934583D01*
X46394821Y-99934583D01*
X46299583Y-99982202D01*
X46251964Y-100029821D01*
X46204345Y-100125059D01*
X46204345Y-100363154D01*
X46251964Y-100458392D01*
X46299583Y-100506011D01*
X46394821Y-100553630D01*
X46680535Y-100553630D01*
X46775773Y-100506011D01*
X46823392Y-100458392D01*
X43918154Y-99983630D02*
X43918154Y-98983630D01*
X43346726Y-99983630D02*
X43775297Y-99412202D01*
X43346726Y-98983630D02*
X43918154Y-99555059D01*
%TO.C,D12*%
X105830535Y-81503630D02*
X105830535Y-80503630D01*
X105592440Y-80503630D01*
X105449583Y-80551250D01*
X105354345Y-80646488D01*
X105306726Y-80741726D01*
X105259107Y-80932202D01*
X105259107Y-81075059D01*
X105306726Y-81265535D01*
X105354345Y-81360773D01*
X105449583Y-81456011D01*
X105592440Y-81503630D01*
X105830535Y-81503630D01*
X104306726Y-81503630D02*
X104878154Y-81503630D01*
X104592440Y-81503630D02*
X104592440Y-80503630D01*
X104687678Y-80646488D01*
X104782916Y-80741726D01*
X104878154Y-80789345D01*
X103925773Y-80598869D02*
X103878154Y-80551250D01*
X103782916Y-80503630D01*
X103544821Y-80503630D01*
X103449583Y-80551250D01*
X103401964Y-80598869D01*
X103354345Y-80694107D01*
X103354345Y-80789345D01*
X103401964Y-80932202D01*
X103973392Y-81503630D01*
X103354345Y-81503630D01*
X101068154Y-80933630D02*
X101068154Y-79933630D01*
X100496726Y-80933630D02*
X100925297Y-80362202D01*
X100496726Y-79933630D02*
X101068154Y-80505059D01*
%TO.C,D11*%
X86780535Y-81503630D02*
X86780535Y-80503630D01*
X86542440Y-80503630D01*
X86399583Y-80551250D01*
X86304345Y-80646488D01*
X86256726Y-80741726D01*
X86209107Y-80932202D01*
X86209107Y-81075059D01*
X86256726Y-81265535D01*
X86304345Y-81360773D01*
X86399583Y-81456011D01*
X86542440Y-81503630D01*
X86780535Y-81503630D01*
X85256726Y-81503630D02*
X85828154Y-81503630D01*
X85542440Y-81503630D02*
X85542440Y-80503630D01*
X85637678Y-80646488D01*
X85732916Y-80741726D01*
X85828154Y-80789345D01*
X84304345Y-81503630D02*
X84875773Y-81503630D01*
X84590059Y-81503630D02*
X84590059Y-80503630D01*
X84685297Y-80646488D01*
X84780535Y-80741726D01*
X84875773Y-80789345D01*
X82018154Y-80933630D02*
X82018154Y-79933630D01*
X81446726Y-80933630D02*
X81875297Y-80362202D01*
X81446726Y-79933630D02*
X82018154Y-80505059D01*
%TO.C,D10*%
X67730535Y-81503630D02*
X67730535Y-80503630D01*
X67492440Y-80503630D01*
X67349583Y-80551250D01*
X67254345Y-80646488D01*
X67206726Y-80741726D01*
X67159107Y-80932202D01*
X67159107Y-81075059D01*
X67206726Y-81265535D01*
X67254345Y-81360773D01*
X67349583Y-81456011D01*
X67492440Y-81503630D01*
X67730535Y-81503630D01*
X66206726Y-81503630D02*
X66778154Y-81503630D01*
X66492440Y-81503630D02*
X66492440Y-80503630D01*
X66587678Y-80646488D01*
X66682916Y-80741726D01*
X66778154Y-80789345D01*
X65587678Y-80503630D02*
X65492440Y-80503630D01*
X65397202Y-80551250D01*
X65349583Y-80598869D01*
X65301964Y-80694107D01*
X65254345Y-80884583D01*
X65254345Y-81122678D01*
X65301964Y-81313154D01*
X65349583Y-81408392D01*
X65397202Y-81456011D01*
X65492440Y-81503630D01*
X65587678Y-81503630D01*
X65682916Y-81456011D01*
X65730535Y-81408392D01*
X65778154Y-81313154D01*
X65825773Y-81122678D01*
X65825773Y-80884583D01*
X65778154Y-80694107D01*
X65730535Y-80598869D01*
X65682916Y-80551250D01*
X65587678Y-80503630D01*
X62968154Y-80933630D02*
X62968154Y-79933630D01*
X62396726Y-80933630D02*
X62825297Y-80362202D01*
X62396726Y-79933630D02*
X62968154Y-80505059D01*
%TO.C,D9*%
X48204345Y-81503630D02*
X48204345Y-80503630D01*
X47966250Y-80503630D01*
X47823392Y-80551250D01*
X47728154Y-80646488D01*
X47680535Y-80741726D01*
X47632916Y-80932202D01*
X47632916Y-81075059D01*
X47680535Y-81265535D01*
X47728154Y-81360773D01*
X47823392Y-81456011D01*
X47966250Y-81503630D01*
X48204345Y-81503630D01*
X47156726Y-81503630D02*
X46966250Y-81503630D01*
X46871011Y-81456011D01*
X46823392Y-81408392D01*
X46728154Y-81265535D01*
X46680535Y-81075059D01*
X46680535Y-80694107D01*
X46728154Y-80598869D01*
X46775773Y-80551250D01*
X46871011Y-80503630D01*
X47061488Y-80503630D01*
X47156726Y-80551250D01*
X47204345Y-80598869D01*
X47251964Y-80694107D01*
X47251964Y-80932202D01*
X47204345Y-81027440D01*
X47156726Y-81075059D01*
X47061488Y-81122678D01*
X46871011Y-81122678D01*
X46775773Y-81075059D01*
X46728154Y-81027440D01*
X46680535Y-80932202D01*
X43918154Y-80933630D02*
X43918154Y-79933630D01*
X43346726Y-80933630D02*
X43775297Y-80362202D01*
X43346726Y-79933630D02*
X43918154Y-80505059D01*
%TO.C,D8*%
X105354345Y-62453630D02*
X105354345Y-61453630D01*
X105116250Y-61453630D01*
X104973392Y-61501250D01*
X104878154Y-61596488D01*
X104830535Y-61691726D01*
X104782916Y-61882202D01*
X104782916Y-62025059D01*
X104830535Y-62215535D01*
X104878154Y-62310773D01*
X104973392Y-62406011D01*
X105116250Y-62453630D01*
X105354345Y-62453630D01*
X104211488Y-61882202D02*
X104306726Y-61834583D01*
X104354345Y-61786964D01*
X104401964Y-61691726D01*
X104401964Y-61644107D01*
X104354345Y-61548869D01*
X104306726Y-61501250D01*
X104211488Y-61453630D01*
X104021011Y-61453630D01*
X103925773Y-61501250D01*
X103878154Y-61548869D01*
X103830535Y-61644107D01*
X103830535Y-61691726D01*
X103878154Y-61786964D01*
X103925773Y-61834583D01*
X104021011Y-61882202D01*
X104211488Y-61882202D01*
X104306726Y-61929821D01*
X104354345Y-61977440D01*
X104401964Y-62072678D01*
X104401964Y-62263154D01*
X104354345Y-62358392D01*
X104306726Y-62406011D01*
X104211488Y-62453630D01*
X104021011Y-62453630D01*
X103925773Y-62406011D01*
X103878154Y-62358392D01*
X103830535Y-62263154D01*
X103830535Y-62072678D01*
X103878154Y-61977440D01*
X103925773Y-61929821D01*
X104021011Y-61882202D01*
X101068154Y-61883630D02*
X101068154Y-60883630D01*
X100496726Y-61883630D02*
X100925297Y-61312202D01*
X100496726Y-60883630D02*
X101068154Y-61455059D01*
%TO.C,D7*%
X86304345Y-62453630D02*
X86304345Y-61453630D01*
X86066250Y-61453630D01*
X85923392Y-61501250D01*
X85828154Y-61596488D01*
X85780535Y-61691726D01*
X85732916Y-61882202D01*
X85732916Y-62025059D01*
X85780535Y-62215535D01*
X85828154Y-62310773D01*
X85923392Y-62406011D01*
X86066250Y-62453630D01*
X86304345Y-62453630D01*
X85399583Y-61453630D02*
X84732916Y-61453630D01*
X85161488Y-62453630D01*
X82018154Y-61883630D02*
X82018154Y-60883630D01*
X81446726Y-61883630D02*
X81875297Y-61312202D01*
X81446726Y-60883630D02*
X82018154Y-61455059D01*
%TO.C,D6*%
X67254345Y-62453630D02*
X67254345Y-61453630D01*
X67016250Y-61453630D01*
X66873392Y-61501250D01*
X66778154Y-61596488D01*
X66730535Y-61691726D01*
X66682916Y-61882202D01*
X66682916Y-62025059D01*
X66730535Y-62215535D01*
X66778154Y-62310773D01*
X66873392Y-62406011D01*
X67016250Y-62453630D01*
X67254345Y-62453630D01*
X65825773Y-61453630D02*
X66016250Y-61453630D01*
X66111488Y-61501250D01*
X66159107Y-61548869D01*
X66254345Y-61691726D01*
X66301964Y-61882202D01*
X66301964Y-62263154D01*
X66254345Y-62358392D01*
X66206726Y-62406011D01*
X66111488Y-62453630D01*
X65921011Y-62453630D01*
X65825773Y-62406011D01*
X65778154Y-62358392D01*
X65730535Y-62263154D01*
X65730535Y-62025059D01*
X65778154Y-61929821D01*
X65825773Y-61882202D01*
X65921011Y-61834583D01*
X66111488Y-61834583D01*
X66206726Y-61882202D01*
X66254345Y-61929821D01*
X66301964Y-62025059D01*
X62968154Y-61883630D02*
X62968154Y-60883630D01*
X62396726Y-61883630D02*
X62825297Y-61312202D01*
X62396726Y-60883630D02*
X62968154Y-61455059D01*
%TO.C,D5*%
X48204345Y-62453630D02*
X48204345Y-61453630D01*
X47966250Y-61453630D01*
X47823392Y-61501250D01*
X47728154Y-61596488D01*
X47680535Y-61691726D01*
X47632916Y-61882202D01*
X47632916Y-62025059D01*
X47680535Y-62215535D01*
X47728154Y-62310773D01*
X47823392Y-62406011D01*
X47966250Y-62453630D01*
X48204345Y-62453630D01*
X46728154Y-61453630D02*
X47204345Y-61453630D01*
X47251964Y-61929821D01*
X47204345Y-61882202D01*
X47109107Y-61834583D01*
X46871011Y-61834583D01*
X46775773Y-61882202D01*
X46728154Y-61929821D01*
X46680535Y-62025059D01*
X46680535Y-62263154D01*
X46728154Y-62358392D01*
X46775773Y-62406011D01*
X46871011Y-62453630D01*
X47109107Y-62453630D01*
X47204345Y-62406011D01*
X47251964Y-62358392D01*
X43918154Y-61883630D02*
X43918154Y-60883630D01*
X43346726Y-61883630D02*
X43775297Y-61312202D01*
X43346726Y-60883630D02*
X43918154Y-61455059D01*
%TO.C,D4*%
X105354345Y-43403630D02*
X105354345Y-42403630D01*
X105116250Y-42403630D01*
X104973392Y-42451250D01*
X104878154Y-42546488D01*
X104830535Y-42641726D01*
X104782916Y-42832202D01*
X104782916Y-42975059D01*
X104830535Y-43165535D01*
X104878154Y-43260773D01*
X104973392Y-43356011D01*
X105116250Y-43403630D01*
X105354345Y-43403630D01*
X103925773Y-42736964D02*
X103925773Y-43403630D01*
X104163869Y-42356011D02*
X104401964Y-43070297D01*
X103782916Y-43070297D01*
X101068154Y-42833630D02*
X101068154Y-41833630D01*
X100496726Y-42833630D02*
X100925297Y-42262202D01*
X100496726Y-41833630D02*
X101068154Y-42405059D01*
%TO.C,D3*%
X86304345Y-43403630D02*
X86304345Y-42403630D01*
X86066250Y-42403630D01*
X85923392Y-42451250D01*
X85828154Y-42546488D01*
X85780535Y-42641726D01*
X85732916Y-42832202D01*
X85732916Y-42975059D01*
X85780535Y-43165535D01*
X85828154Y-43260773D01*
X85923392Y-43356011D01*
X86066250Y-43403630D01*
X86304345Y-43403630D01*
X85399583Y-42403630D02*
X84780535Y-42403630D01*
X85113869Y-42784583D01*
X84971011Y-42784583D01*
X84875773Y-42832202D01*
X84828154Y-42879821D01*
X84780535Y-42975059D01*
X84780535Y-43213154D01*
X84828154Y-43308392D01*
X84875773Y-43356011D01*
X84971011Y-43403630D01*
X85256726Y-43403630D01*
X85351964Y-43356011D01*
X85399583Y-43308392D01*
X82018154Y-42833630D02*
X82018154Y-41833630D01*
X81446726Y-42833630D02*
X81875297Y-42262202D01*
X81446726Y-41833630D02*
X82018154Y-42405059D01*
%TO.C,D2*%
X67254345Y-43403630D02*
X67254345Y-42403630D01*
X67016250Y-42403630D01*
X66873392Y-42451250D01*
X66778154Y-42546488D01*
X66730535Y-42641726D01*
X66682916Y-42832202D01*
X66682916Y-42975059D01*
X66730535Y-43165535D01*
X66778154Y-43260773D01*
X66873392Y-43356011D01*
X67016250Y-43403630D01*
X67254345Y-43403630D01*
X66301964Y-42498869D02*
X66254345Y-42451250D01*
X66159107Y-42403630D01*
X65921011Y-42403630D01*
X65825773Y-42451250D01*
X65778154Y-42498869D01*
X65730535Y-42594107D01*
X65730535Y-42689345D01*
X65778154Y-42832202D01*
X66349583Y-43403630D01*
X65730535Y-43403630D01*
X62968154Y-42833630D02*
X62968154Y-41833630D01*
X62396726Y-42833630D02*
X62825297Y-42262202D01*
X62396726Y-41833630D02*
X62968154Y-42405059D01*
%TO.C,D1*%
X48204345Y-43403630D02*
X48204345Y-42403630D01*
X47966250Y-42403630D01*
X47823392Y-42451250D01*
X47728154Y-42546488D01*
X47680535Y-42641726D01*
X47632916Y-42832202D01*
X47632916Y-42975059D01*
X47680535Y-43165535D01*
X47728154Y-43260773D01*
X47823392Y-43356011D01*
X47966250Y-43403630D01*
X48204345Y-43403630D01*
X46680535Y-43403630D02*
X47251964Y-43403630D01*
X46966250Y-43403630D02*
X46966250Y-42403630D01*
X47061488Y-42546488D01*
X47156726Y-42641726D01*
X47251964Y-42689345D01*
X43918154Y-42833630D02*
X43918154Y-41833630D01*
X43346726Y-42833630D02*
X43775297Y-42262202D01*
X43346726Y-41833630D02*
X43918154Y-42405059D01*
%TO.C,B1*%
D12*
X66921742Y-23610207D02*
X66834657Y-23639235D01*
X66805628Y-23668264D01*
X66776600Y-23726321D01*
X66776600Y-23813407D01*
X66805628Y-23871464D01*
X66834657Y-23900492D01*
X66892714Y-23929521D01*
X67124942Y-23929521D01*
X67124942Y-23319921D01*
X66921742Y-23319921D01*
X66863685Y-23348950D01*
X66834657Y-23377978D01*
X66805628Y-23436035D01*
X66805628Y-23494092D01*
X66834657Y-23552150D01*
X66863685Y-23581178D01*
X66921742Y-23610207D01*
X67124942Y-23610207D01*
X66196028Y-23929521D02*
X66544371Y-23929521D01*
X66370200Y-23929521D02*
X66370200Y-23319921D01*
X66428257Y-23407007D01*
X66486314Y-23465064D01*
X66544371Y-23494092D01*
%TD*%
M02*
