M48
; DRILL file {KiCad (5.1.6)-1} date 11/13/20 18:30:56
; FORMAT={-:-/ absolute / inch / decimal}
; #@! TF.CreationDate,2020-11-13T18:30:56-06:00
; #@! TF.GenerationSoftware,Kicad,Pcbnew,(5.1.6)-1
; #@! TF.FileFunction,NonPlated,1,2,NPTH
FMAT,2
INCH
T1C0.0689
T2C0.1570
%
G90
G05
T1
X2.425Y-4.25
X2.825Y-4.25
X3.925Y-2.75
X4.325Y-2.75
X2.425Y-1.25
X2.825Y-1.25
X2.425Y-3.5
X2.825Y-3.5
X3.925Y-1.25
X4.325Y-1.25
X2.425Y-2.75
X2.825Y-2.75
X3.175Y-3.5
X3.575Y-3.5
X3.175Y-1.25
X3.575Y-1.25
X1.675Y-2.75
X2.075Y-2.75
X1.675Y-3.5
X2.075Y-3.5
X3.175Y-2.75
X3.575Y-2.75
X3.175Y-4.25
X3.575Y-4.25
X1.675Y-4.25
X2.075Y-4.25
X1.675Y-1.25
X2.075Y-1.25
X1.675Y-2.0
X2.075Y-2.0
X3.925Y-4.25
X4.325Y-4.25
X3.925Y-3.5
X4.325Y-3.5
X3.175Y-2.0
X3.575Y-2.0
X2.425Y-2.0
X2.825Y-2.0
X3.925Y-2.0
X4.325Y-2.0
T2
X4.125Y-4.25
X4.125Y-3.5
X3.375Y-2.0
X2.625Y-2.0
X4.125Y-2.0
X2.625Y-4.25
X4.125Y-2.75
X2.625Y-1.25
X2.625Y-3.5
X4.125Y-1.25
X2.625Y-2.75
X3.375Y-3.5
X3.375Y-1.25
X1.875Y-2.75
X1.875Y-3.5
X3.375Y-2.75
X3.375Y-4.25
X1.875Y-4.25
X1.875Y-1.25
X1.875Y-2.0
T0
M30
