%TF.GenerationSoftware,KiCad,Pcbnew,(5.1.6)-1*%
%TF.CreationDate,2020-11-13T18:30:54-06:00*%
%TF.ProjectId,macropad_4x5,6d616372-6f70-4616-945f-3478352e6b69,v1.3*%
%TF.SameCoordinates,Original*%
%TF.FileFunction,Soldermask,Bot*%
%TF.FilePolarity,Negative*%
%FSLAX46Y46*%
G04 Gerber Fmt 4.6, Leading zero omitted, Abs format (unit mm)*
G04 Created by KiCad (PCBNEW (5.1.6)-1) date 2020-11-13 18:30:54*
%MOMM*%
%LPD*%
G01*
G04 APERTURE LIST*
%ADD10C,0.800000*%
%ADD11C,4.500000*%
%ADD12C,1.850000*%
%ADD13C,2.350000*%
%ADD14C,4.087800*%
%ADD15O,1.900000X1.900000*%
%ADD16R,1.900000X1.900000*%
%ADD17C,2.082800*%
G04 APERTURE END LIST*
D10*
%TO.C,REF\u002A\u002A*%
X58316726Y-100433274D03*
X57150000Y-99950000D03*
X55983274Y-100433274D03*
X55500000Y-101600000D03*
X55983274Y-102766726D03*
X57150000Y-103250000D03*
X58316726Y-102766726D03*
X58800000Y-101600000D03*
D11*
X57150000Y-101600000D03*
%TD*%
%TO.C,REF\u002A\u002A*%
X95250000Y-101600000D03*
D10*
X96900000Y-101600000D03*
X96416726Y-102766726D03*
X95250000Y-103250000D03*
X94083274Y-102766726D03*
X93600000Y-101600000D03*
X94083274Y-100433274D03*
X95250000Y-99950000D03*
X96416726Y-100433274D03*
%TD*%
%TO.C,REF\u002A\u002A*%
X96416726Y-41695774D03*
X95250000Y-41212500D03*
X94083274Y-41695774D03*
X93600000Y-42862500D03*
X94083274Y-44029226D03*
X95250000Y-44512500D03*
X96416726Y-44029226D03*
X96900000Y-42862500D03*
D11*
X95250000Y-42862500D03*
%TD*%
D12*
%TO.C,MX3*%
X90805000Y-31750000D03*
X80645000Y-31750000D03*
D13*
X83225000Y-27750000D03*
D14*
X85725000Y-31750000D03*
G36*
G01*
X81130291Y-30084560D02*
X81130291Y-30084561D01*
G75*
G02*
X81040439Y-28425291I784709J874561D01*
G01*
X82350441Y-26965291D01*
G75*
G02*
X84009711Y-26875439I874561J-784709D01*
G01*
X84009711Y-26875439D01*
G75*
G02*
X84099563Y-28534709I-784709J-874561D01*
G01*
X82789561Y-29994709D01*
G75*
G02*
X81130291Y-30084561I-874561J784709D01*
G01*
G37*
D13*
X88265000Y-26670000D03*
G36*
G01*
X88144157Y-28422216D02*
X88144157Y-28422216D01*
G75*
G02*
X87052784Y-27169157I80843J1172216D01*
G01*
X87092784Y-26589157D01*
G75*
G02*
X88345843Y-25497784I1172216J-80843D01*
G01*
X88345843Y-25497784D01*
G75*
G02*
X89437216Y-26750843I-80843J-1172216D01*
G01*
X89397216Y-27330843D01*
G75*
G02*
X88144157Y-28422216I-1172216J80843D01*
G01*
G37*
%TD*%
D15*
%TO.C,D20*%
X108426250Y-115887500D03*
D16*
X100806250Y-115887500D03*
%TD*%
D15*
%TO.C,D19*%
X89376250Y-115887500D03*
D16*
X81756250Y-115887500D03*
%TD*%
D15*
%TO.C,D18*%
X70326250Y-115887500D03*
D16*
X62706250Y-115887500D03*
%TD*%
%TO.C,D17*%
X43656250Y-115887500D03*
D15*
X51276250Y-115887500D03*
%TD*%
%TO.C,D16*%
X108426250Y-97631250D03*
D16*
X100806250Y-97631250D03*
%TD*%
D15*
%TO.C,D15*%
X89376250Y-97631250D03*
D16*
X81756250Y-97631250D03*
%TD*%
D15*
%TO.C,D14*%
X70326250Y-97631250D03*
D16*
X62706250Y-97631250D03*
%TD*%
D15*
%TO.C,D13*%
X51276250Y-97631250D03*
D16*
X43656250Y-97631250D03*
%TD*%
D15*
%TO.C,D12*%
X108426250Y-78581250D03*
D16*
X100806250Y-78581250D03*
%TD*%
D15*
%TO.C,D11*%
X89376250Y-78581250D03*
D16*
X81756250Y-78581250D03*
%TD*%
D15*
%TO.C,D10*%
X70326250Y-78581250D03*
D16*
X62706250Y-78581250D03*
%TD*%
D15*
%TO.C,D9*%
X51276250Y-78581250D03*
D16*
X43656250Y-78581250D03*
%TD*%
D15*
%TO.C,D8*%
X108426250Y-59531250D03*
D16*
X100806250Y-59531250D03*
%TD*%
D15*
%TO.C,D7*%
X89376250Y-59531250D03*
D16*
X81756250Y-59531250D03*
%TD*%
D15*
%TO.C,D6*%
X70326250Y-59531250D03*
D16*
X62706250Y-59531250D03*
%TD*%
D15*
%TO.C,D5*%
X51276250Y-59531250D03*
D16*
X43656250Y-59531250D03*
%TD*%
D15*
%TO.C,D4*%
X108426250Y-40481250D03*
D16*
X100806250Y-40481250D03*
%TD*%
D15*
%TO.C,D3*%
X89376250Y-40481250D03*
D16*
X81756250Y-40481250D03*
%TD*%
D15*
%TO.C,D2*%
X70326250Y-40481250D03*
D16*
X62706250Y-40481250D03*
%TD*%
D15*
%TO.C,D1*%
X51276250Y-40481250D03*
D16*
X43656250Y-40481250D03*
%TD*%
D12*
%TO.C,MX20*%
X109855000Y-107950000D03*
X99695000Y-107950000D03*
D13*
X102275000Y-103950000D03*
D14*
X104775000Y-107950000D03*
G36*
G01*
X100180291Y-106284560D02*
X100180291Y-106284561D01*
G75*
G02*
X100090439Y-104625291I784709J874561D01*
G01*
X101400441Y-103165291D01*
G75*
G02*
X103059711Y-103075439I874561J-784709D01*
G01*
X103059711Y-103075439D01*
G75*
G02*
X103149563Y-104734709I-784709J-874561D01*
G01*
X101839561Y-106194709D01*
G75*
G02*
X100180291Y-106284561I-874561J784709D01*
G01*
G37*
D13*
X107315000Y-102870000D03*
G36*
G01*
X107194157Y-104622216D02*
X107194157Y-104622216D01*
G75*
G02*
X106102784Y-103369157I80843J1172216D01*
G01*
X106142784Y-102789157D01*
G75*
G02*
X107395843Y-101697784I1172216J-80843D01*
G01*
X107395843Y-101697784D01*
G75*
G02*
X108487216Y-102950843I-80843J-1172216D01*
G01*
X108447216Y-103530843D01*
G75*
G02*
X107194157Y-104622216I-1172216J80843D01*
G01*
G37*
%TD*%
D12*
%TO.C,MX19*%
X90805000Y-107950000D03*
X80645000Y-107950000D03*
D13*
X83225000Y-103950000D03*
D14*
X85725000Y-107950000D03*
G36*
G01*
X81130291Y-106284560D02*
X81130291Y-106284561D01*
G75*
G02*
X81040439Y-104625291I784709J874561D01*
G01*
X82350441Y-103165291D01*
G75*
G02*
X84009711Y-103075439I874561J-784709D01*
G01*
X84009711Y-103075439D01*
G75*
G02*
X84099563Y-104734709I-784709J-874561D01*
G01*
X82789561Y-106194709D01*
G75*
G02*
X81130291Y-106284561I-874561J784709D01*
G01*
G37*
D13*
X88265000Y-102870000D03*
G36*
G01*
X88144157Y-104622216D02*
X88144157Y-104622216D01*
G75*
G02*
X87052784Y-103369157I80843J1172216D01*
G01*
X87092784Y-102789157D01*
G75*
G02*
X88345843Y-101697784I1172216J-80843D01*
G01*
X88345843Y-101697784D01*
G75*
G02*
X89437216Y-102950843I-80843J-1172216D01*
G01*
X89397216Y-103530843D01*
G75*
G02*
X88144157Y-104622216I-1172216J80843D01*
G01*
G37*
%TD*%
D12*
%TO.C,MX18*%
X71755000Y-107950000D03*
X61595000Y-107950000D03*
D13*
X64175000Y-103950000D03*
D14*
X66675000Y-107950000D03*
G36*
G01*
X62080291Y-106284560D02*
X62080291Y-106284561D01*
G75*
G02*
X61990439Y-104625291I784709J874561D01*
G01*
X63300441Y-103165291D01*
G75*
G02*
X64959711Y-103075439I874561J-784709D01*
G01*
X64959711Y-103075439D01*
G75*
G02*
X65049563Y-104734709I-784709J-874561D01*
G01*
X63739561Y-106194709D01*
G75*
G02*
X62080291Y-106284561I-874561J784709D01*
G01*
G37*
D13*
X69215000Y-102870000D03*
G36*
G01*
X69094157Y-104622216D02*
X69094157Y-104622216D01*
G75*
G02*
X68002784Y-103369157I80843J1172216D01*
G01*
X68042784Y-102789157D01*
G75*
G02*
X69295843Y-101697784I1172216J-80843D01*
G01*
X69295843Y-101697784D01*
G75*
G02*
X70387216Y-102950843I-80843J-1172216D01*
G01*
X70347216Y-103530843D01*
G75*
G02*
X69094157Y-104622216I-1172216J80843D01*
G01*
G37*
%TD*%
D12*
%TO.C,MX17*%
X52705000Y-107950000D03*
X42545000Y-107950000D03*
D13*
X45125000Y-103950000D03*
D14*
X47625000Y-107950000D03*
G36*
G01*
X43030291Y-106284560D02*
X43030291Y-106284561D01*
G75*
G02*
X42940439Y-104625291I784709J874561D01*
G01*
X44250441Y-103165291D01*
G75*
G02*
X45909711Y-103075439I874561J-784709D01*
G01*
X45909711Y-103075439D01*
G75*
G02*
X45999563Y-104734709I-784709J-874561D01*
G01*
X44689561Y-106194709D01*
G75*
G02*
X43030291Y-106284561I-874561J784709D01*
G01*
G37*
D13*
X50165000Y-102870000D03*
G36*
G01*
X50044157Y-104622216D02*
X50044157Y-104622216D01*
G75*
G02*
X48952784Y-103369157I80843J1172216D01*
G01*
X48992784Y-102789157D01*
G75*
G02*
X50245843Y-101697784I1172216J-80843D01*
G01*
X50245843Y-101697784D01*
G75*
G02*
X51337216Y-102950843I-80843J-1172216D01*
G01*
X51297216Y-103530843D01*
G75*
G02*
X50044157Y-104622216I-1172216J80843D01*
G01*
G37*
%TD*%
D12*
%TO.C,MX16*%
X109855000Y-88900000D03*
X99695000Y-88900000D03*
D13*
X102275000Y-84900000D03*
D14*
X104775000Y-88900000D03*
G36*
G01*
X100180291Y-87234560D02*
X100180291Y-87234561D01*
G75*
G02*
X100090439Y-85575291I784709J874561D01*
G01*
X101400441Y-84115291D01*
G75*
G02*
X103059711Y-84025439I874561J-784709D01*
G01*
X103059711Y-84025439D01*
G75*
G02*
X103149563Y-85684709I-784709J-874561D01*
G01*
X101839561Y-87144709D01*
G75*
G02*
X100180291Y-87234561I-874561J784709D01*
G01*
G37*
D13*
X107315000Y-83820000D03*
G36*
G01*
X107194157Y-85572216D02*
X107194157Y-85572216D01*
G75*
G02*
X106102784Y-84319157I80843J1172216D01*
G01*
X106142784Y-83739157D01*
G75*
G02*
X107395843Y-82647784I1172216J-80843D01*
G01*
X107395843Y-82647784D01*
G75*
G02*
X108487216Y-83900843I-80843J-1172216D01*
G01*
X108447216Y-84480843D01*
G75*
G02*
X107194157Y-85572216I-1172216J80843D01*
G01*
G37*
%TD*%
D12*
%TO.C,MX15*%
X90805000Y-88900000D03*
X80645000Y-88900000D03*
D13*
X83225000Y-84900000D03*
D14*
X85725000Y-88900000D03*
G36*
G01*
X81130291Y-87234560D02*
X81130291Y-87234561D01*
G75*
G02*
X81040439Y-85575291I784709J874561D01*
G01*
X82350441Y-84115291D01*
G75*
G02*
X84009711Y-84025439I874561J-784709D01*
G01*
X84009711Y-84025439D01*
G75*
G02*
X84099563Y-85684709I-784709J-874561D01*
G01*
X82789561Y-87144709D01*
G75*
G02*
X81130291Y-87234561I-874561J784709D01*
G01*
G37*
D13*
X88265000Y-83820000D03*
G36*
G01*
X88144157Y-85572216D02*
X88144157Y-85572216D01*
G75*
G02*
X87052784Y-84319157I80843J1172216D01*
G01*
X87092784Y-83739157D01*
G75*
G02*
X88345843Y-82647784I1172216J-80843D01*
G01*
X88345843Y-82647784D01*
G75*
G02*
X89437216Y-83900843I-80843J-1172216D01*
G01*
X89397216Y-84480843D01*
G75*
G02*
X88144157Y-85572216I-1172216J80843D01*
G01*
G37*
%TD*%
D12*
%TO.C,MX14*%
X71755000Y-88900000D03*
X61595000Y-88900000D03*
D13*
X64175000Y-84900000D03*
D14*
X66675000Y-88900000D03*
G36*
G01*
X62080291Y-87234560D02*
X62080291Y-87234561D01*
G75*
G02*
X61990439Y-85575291I784709J874561D01*
G01*
X63300441Y-84115291D01*
G75*
G02*
X64959711Y-84025439I874561J-784709D01*
G01*
X64959711Y-84025439D01*
G75*
G02*
X65049563Y-85684709I-784709J-874561D01*
G01*
X63739561Y-87144709D01*
G75*
G02*
X62080291Y-87234561I-874561J784709D01*
G01*
G37*
D13*
X69215000Y-83820000D03*
G36*
G01*
X69094157Y-85572216D02*
X69094157Y-85572216D01*
G75*
G02*
X68002784Y-84319157I80843J1172216D01*
G01*
X68042784Y-83739157D01*
G75*
G02*
X69295843Y-82647784I1172216J-80843D01*
G01*
X69295843Y-82647784D01*
G75*
G02*
X70387216Y-83900843I-80843J-1172216D01*
G01*
X70347216Y-84480843D01*
G75*
G02*
X69094157Y-85572216I-1172216J80843D01*
G01*
G37*
%TD*%
D12*
%TO.C,MX13*%
X52705000Y-88900000D03*
X42545000Y-88900000D03*
D13*
X45125000Y-84900000D03*
D14*
X47625000Y-88900000D03*
G36*
G01*
X43030291Y-87234560D02*
X43030291Y-87234561D01*
G75*
G02*
X42940439Y-85575291I784709J874561D01*
G01*
X44250441Y-84115291D01*
G75*
G02*
X45909711Y-84025439I874561J-784709D01*
G01*
X45909711Y-84025439D01*
G75*
G02*
X45999563Y-85684709I-784709J-874561D01*
G01*
X44689561Y-87144709D01*
G75*
G02*
X43030291Y-87234561I-874561J784709D01*
G01*
G37*
D13*
X50165000Y-83820000D03*
G36*
G01*
X50044157Y-85572216D02*
X50044157Y-85572216D01*
G75*
G02*
X48952784Y-84319157I80843J1172216D01*
G01*
X48992784Y-83739157D01*
G75*
G02*
X50245843Y-82647784I1172216J-80843D01*
G01*
X50245843Y-82647784D01*
G75*
G02*
X51337216Y-83900843I-80843J-1172216D01*
G01*
X51297216Y-84480843D01*
G75*
G02*
X50044157Y-85572216I-1172216J80843D01*
G01*
G37*
%TD*%
D12*
%TO.C,MX12*%
X109855000Y-69850000D03*
X99695000Y-69850000D03*
D13*
X102275000Y-65850000D03*
D14*
X104775000Y-69850000D03*
G36*
G01*
X100180291Y-68184560D02*
X100180291Y-68184561D01*
G75*
G02*
X100090439Y-66525291I784709J874561D01*
G01*
X101400441Y-65065291D01*
G75*
G02*
X103059711Y-64975439I874561J-784709D01*
G01*
X103059711Y-64975439D01*
G75*
G02*
X103149563Y-66634709I-784709J-874561D01*
G01*
X101839561Y-68094709D01*
G75*
G02*
X100180291Y-68184561I-874561J784709D01*
G01*
G37*
D13*
X107315000Y-64770000D03*
G36*
G01*
X107194157Y-66522216D02*
X107194157Y-66522216D01*
G75*
G02*
X106102784Y-65269157I80843J1172216D01*
G01*
X106142784Y-64689157D01*
G75*
G02*
X107395843Y-63597784I1172216J-80843D01*
G01*
X107395843Y-63597784D01*
G75*
G02*
X108487216Y-64850843I-80843J-1172216D01*
G01*
X108447216Y-65430843D01*
G75*
G02*
X107194157Y-66522216I-1172216J80843D01*
G01*
G37*
%TD*%
D12*
%TO.C,MX11*%
X90805000Y-69850000D03*
X80645000Y-69850000D03*
D13*
X83225000Y-65850000D03*
D14*
X85725000Y-69850000D03*
G36*
G01*
X81130291Y-68184560D02*
X81130291Y-68184561D01*
G75*
G02*
X81040439Y-66525291I784709J874561D01*
G01*
X82350441Y-65065291D01*
G75*
G02*
X84009711Y-64975439I874561J-784709D01*
G01*
X84009711Y-64975439D01*
G75*
G02*
X84099563Y-66634709I-784709J-874561D01*
G01*
X82789561Y-68094709D01*
G75*
G02*
X81130291Y-68184561I-874561J784709D01*
G01*
G37*
D13*
X88265000Y-64770000D03*
G36*
G01*
X88144157Y-66522216D02*
X88144157Y-66522216D01*
G75*
G02*
X87052784Y-65269157I80843J1172216D01*
G01*
X87092784Y-64689157D01*
G75*
G02*
X88345843Y-63597784I1172216J-80843D01*
G01*
X88345843Y-63597784D01*
G75*
G02*
X89437216Y-64850843I-80843J-1172216D01*
G01*
X89397216Y-65430843D01*
G75*
G02*
X88144157Y-66522216I-1172216J80843D01*
G01*
G37*
%TD*%
D12*
%TO.C,MX10*%
X71755000Y-69850000D03*
X61595000Y-69850000D03*
D13*
X64175000Y-65850000D03*
D14*
X66675000Y-69850000D03*
G36*
G01*
X62080291Y-68184560D02*
X62080291Y-68184561D01*
G75*
G02*
X61990439Y-66525291I784709J874561D01*
G01*
X63300441Y-65065291D01*
G75*
G02*
X64959711Y-64975439I874561J-784709D01*
G01*
X64959711Y-64975439D01*
G75*
G02*
X65049563Y-66634709I-784709J-874561D01*
G01*
X63739561Y-68094709D01*
G75*
G02*
X62080291Y-68184561I-874561J784709D01*
G01*
G37*
D13*
X69215000Y-64770000D03*
G36*
G01*
X69094157Y-66522216D02*
X69094157Y-66522216D01*
G75*
G02*
X68002784Y-65269157I80843J1172216D01*
G01*
X68042784Y-64689157D01*
G75*
G02*
X69295843Y-63597784I1172216J-80843D01*
G01*
X69295843Y-63597784D01*
G75*
G02*
X70387216Y-64850843I-80843J-1172216D01*
G01*
X70347216Y-65430843D01*
G75*
G02*
X69094157Y-66522216I-1172216J80843D01*
G01*
G37*
%TD*%
D12*
%TO.C,MX9*%
X52705000Y-69850000D03*
X42545000Y-69850000D03*
D13*
X45125000Y-65850000D03*
D14*
X47625000Y-69850000D03*
G36*
G01*
X43030291Y-68184560D02*
X43030291Y-68184561D01*
G75*
G02*
X42940439Y-66525291I784709J874561D01*
G01*
X44250441Y-65065291D01*
G75*
G02*
X45909711Y-64975439I874561J-784709D01*
G01*
X45909711Y-64975439D01*
G75*
G02*
X45999563Y-66634709I-784709J-874561D01*
G01*
X44689561Y-68094709D01*
G75*
G02*
X43030291Y-68184561I-874561J784709D01*
G01*
G37*
D13*
X50165000Y-64770000D03*
G36*
G01*
X50044157Y-66522216D02*
X50044157Y-66522216D01*
G75*
G02*
X48952784Y-65269157I80843J1172216D01*
G01*
X48992784Y-64689157D01*
G75*
G02*
X50245843Y-63597784I1172216J-80843D01*
G01*
X50245843Y-63597784D01*
G75*
G02*
X51337216Y-64850843I-80843J-1172216D01*
G01*
X51297216Y-65430843D01*
G75*
G02*
X50044157Y-66522216I-1172216J80843D01*
G01*
G37*
%TD*%
D12*
%TO.C,MX8*%
X109855000Y-50800000D03*
X99695000Y-50800000D03*
D13*
X102275000Y-46800000D03*
D14*
X104775000Y-50800000D03*
G36*
G01*
X100180291Y-49134560D02*
X100180291Y-49134561D01*
G75*
G02*
X100090439Y-47475291I784709J874561D01*
G01*
X101400441Y-46015291D01*
G75*
G02*
X103059711Y-45925439I874561J-784709D01*
G01*
X103059711Y-45925439D01*
G75*
G02*
X103149563Y-47584709I-784709J-874561D01*
G01*
X101839561Y-49044709D01*
G75*
G02*
X100180291Y-49134561I-874561J784709D01*
G01*
G37*
D13*
X107315000Y-45720000D03*
G36*
G01*
X107194157Y-47472216D02*
X107194157Y-47472216D01*
G75*
G02*
X106102784Y-46219157I80843J1172216D01*
G01*
X106142784Y-45639157D01*
G75*
G02*
X107395843Y-44547784I1172216J-80843D01*
G01*
X107395843Y-44547784D01*
G75*
G02*
X108487216Y-45800843I-80843J-1172216D01*
G01*
X108447216Y-46380843D01*
G75*
G02*
X107194157Y-47472216I-1172216J80843D01*
G01*
G37*
%TD*%
D12*
%TO.C,MX7*%
X90805000Y-50800000D03*
X80645000Y-50800000D03*
D13*
X83225000Y-46800000D03*
D14*
X85725000Y-50800000D03*
G36*
G01*
X81130291Y-49134560D02*
X81130291Y-49134561D01*
G75*
G02*
X81040439Y-47475291I784709J874561D01*
G01*
X82350441Y-46015291D01*
G75*
G02*
X84009711Y-45925439I874561J-784709D01*
G01*
X84009711Y-45925439D01*
G75*
G02*
X84099563Y-47584709I-784709J-874561D01*
G01*
X82789561Y-49044709D01*
G75*
G02*
X81130291Y-49134561I-874561J784709D01*
G01*
G37*
D13*
X88265000Y-45720000D03*
G36*
G01*
X88144157Y-47472216D02*
X88144157Y-47472216D01*
G75*
G02*
X87052784Y-46219157I80843J1172216D01*
G01*
X87092784Y-45639157D01*
G75*
G02*
X88345843Y-44547784I1172216J-80843D01*
G01*
X88345843Y-44547784D01*
G75*
G02*
X89437216Y-45800843I-80843J-1172216D01*
G01*
X89397216Y-46380843D01*
G75*
G02*
X88144157Y-47472216I-1172216J80843D01*
G01*
G37*
%TD*%
D12*
%TO.C,MX6*%
X71755000Y-50800000D03*
X61595000Y-50800000D03*
D13*
X64175000Y-46800000D03*
D14*
X66675000Y-50800000D03*
G36*
G01*
X62080291Y-49134560D02*
X62080291Y-49134561D01*
G75*
G02*
X61990439Y-47475291I784709J874561D01*
G01*
X63300441Y-46015291D01*
G75*
G02*
X64959711Y-45925439I874561J-784709D01*
G01*
X64959711Y-45925439D01*
G75*
G02*
X65049563Y-47584709I-784709J-874561D01*
G01*
X63739561Y-49044709D01*
G75*
G02*
X62080291Y-49134561I-874561J784709D01*
G01*
G37*
D13*
X69215000Y-45720000D03*
G36*
G01*
X69094157Y-47472216D02*
X69094157Y-47472216D01*
G75*
G02*
X68002784Y-46219157I80843J1172216D01*
G01*
X68042784Y-45639157D01*
G75*
G02*
X69295843Y-44547784I1172216J-80843D01*
G01*
X69295843Y-44547784D01*
G75*
G02*
X70387216Y-45800843I-80843J-1172216D01*
G01*
X70347216Y-46380843D01*
G75*
G02*
X69094157Y-47472216I-1172216J80843D01*
G01*
G37*
%TD*%
D12*
%TO.C,MX5*%
X52705000Y-50800000D03*
X42545000Y-50800000D03*
D13*
X45125000Y-46800000D03*
D14*
X47625000Y-50800000D03*
G36*
G01*
X43030291Y-49134560D02*
X43030291Y-49134561D01*
G75*
G02*
X42940439Y-47475291I784709J874561D01*
G01*
X44250441Y-46015291D01*
G75*
G02*
X45909711Y-45925439I874561J-784709D01*
G01*
X45909711Y-45925439D01*
G75*
G02*
X45999563Y-47584709I-784709J-874561D01*
G01*
X44689561Y-49044709D01*
G75*
G02*
X43030291Y-49134561I-874561J784709D01*
G01*
G37*
D13*
X50165000Y-45720000D03*
G36*
G01*
X50044157Y-47472216D02*
X50044157Y-47472216D01*
G75*
G02*
X48952784Y-46219157I80843J1172216D01*
G01*
X48992784Y-45639157D01*
G75*
G02*
X50245843Y-44547784I1172216J-80843D01*
G01*
X50245843Y-44547784D01*
G75*
G02*
X51337216Y-45800843I-80843J-1172216D01*
G01*
X51297216Y-46380843D01*
G75*
G02*
X50044157Y-47472216I-1172216J80843D01*
G01*
G37*
%TD*%
D12*
%TO.C,MX4*%
X109855000Y-31750000D03*
X99695000Y-31750000D03*
D13*
X102275000Y-27750000D03*
D14*
X104775000Y-31750000D03*
G36*
G01*
X100180291Y-30084560D02*
X100180291Y-30084561D01*
G75*
G02*
X100090439Y-28425291I784709J874561D01*
G01*
X101400441Y-26965291D01*
G75*
G02*
X103059711Y-26875439I874561J-784709D01*
G01*
X103059711Y-26875439D01*
G75*
G02*
X103149563Y-28534709I-784709J-874561D01*
G01*
X101839561Y-29994709D01*
G75*
G02*
X100180291Y-30084561I-874561J784709D01*
G01*
G37*
D13*
X107315000Y-26670000D03*
G36*
G01*
X107194157Y-28422216D02*
X107194157Y-28422216D01*
G75*
G02*
X106102784Y-27169157I80843J1172216D01*
G01*
X106142784Y-26589157D01*
G75*
G02*
X107395843Y-25497784I1172216J-80843D01*
G01*
X107395843Y-25497784D01*
G75*
G02*
X108487216Y-26750843I-80843J-1172216D01*
G01*
X108447216Y-27330843D01*
G75*
G02*
X107194157Y-28422216I-1172216J80843D01*
G01*
G37*
%TD*%
D12*
%TO.C,MX2*%
X71755000Y-31750000D03*
X61595000Y-31750000D03*
D13*
X64175000Y-27750000D03*
D14*
X66675000Y-31750000D03*
G36*
G01*
X62080291Y-30084560D02*
X62080291Y-30084561D01*
G75*
G02*
X61990439Y-28425291I784709J874561D01*
G01*
X63300441Y-26965291D01*
G75*
G02*
X64959711Y-26875439I874561J-784709D01*
G01*
X64959711Y-26875439D01*
G75*
G02*
X65049563Y-28534709I-784709J-874561D01*
G01*
X63739561Y-29994709D01*
G75*
G02*
X62080291Y-30084561I-874561J784709D01*
G01*
G37*
D13*
X69215000Y-26670000D03*
G36*
G01*
X69094157Y-28422216D02*
X69094157Y-28422216D01*
G75*
G02*
X68002784Y-27169157I80843J1172216D01*
G01*
X68042784Y-26589157D01*
G75*
G02*
X69295843Y-25497784I1172216J-80843D01*
G01*
X69295843Y-25497784D01*
G75*
G02*
X70387216Y-26750843I-80843J-1172216D01*
G01*
X70347216Y-27330843D01*
G75*
G02*
X69094157Y-28422216I-1172216J80843D01*
G01*
G37*
%TD*%
D12*
%TO.C,MX1*%
X52705000Y-31750000D03*
X42545000Y-31750000D03*
D13*
X45125000Y-27750000D03*
D14*
X47625000Y-31750000D03*
G36*
G01*
X43030291Y-30084560D02*
X43030291Y-30084561D01*
G75*
G02*
X42940439Y-28425291I784709J874561D01*
G01*
X44250441Y-26965291D01*
G75*
G02*
X45909711Y-26875439I874561J-784709D01*
G01*
X45909711Y-26875439D01*
G75*
G02*
X45999563Y-28534709I-784709J-874561D01*
G01*
X44689561Y-29994709D01*
G75*
G02*
X43030291Y-30084561I-874561J784709D01*
G01*
G37*
D13*
X50165000Y-26670000D03*
G36*
G01*
X50044157Y-28422216D02*
X50044157Y-28422216D01*
G75*
G02*
X48952784Y-27169157I80843J1172216D01*
G01*
X48992784Y-26589157D01*
G75*
G02*
X50245843Y-25497784I1172216J-80843D01*
G01*
X50245843Y-25497784D01*
G75*
G02*
X51337216Y-26750843I-80843J-1172216D01*
G01*
X51297216Y-27330843D01*
G75*
G02*
X50044157Y-28422216I-1172216J80843D01*
G01*
G37*
%TD*%
D17*
%TO.C,B1*%
X59055000Y-26193750D03*
X59055000Y-28733750D03*
X59055000Y-31273750D03*
X59055000Y-33813750D03*
X59055000Y-36353750D03*
X59055000Y-38893750D03*
X59055000Y-41433750D03*
X59055000Y-43973750D03*
X59055000Y-46513750D03*
X59055000Y-49053750D03*
X59055000Y-51593750D03*
X59055000Y-54133750D03*
X74295000Y-54133750D03*
X74295000Y-51593750D03*
X74295000Y-49053750D03*
X74295000Y-46513750D03*
X74295000Y-43973750D03*
X74295000Y-41433750D03*
X74295000Y-38893750D03*
X74295000Y-36353750D03*
X74295000Y-33813750D03*
X74295000Y-31273750D03*
X74295000Y-28733750D03*
X74295000Y-26193750D03*
%TD*%
M02*
