M48
; DRILL file {KiCad (5.1.6)-1} date 11/13/20 18:30:56
; FORMAT={-:-/ absolute / inch / decimal}
; #@! TF.CreationDate,2020-11-13T18:30:56-06:00
; #@! TF.GenerationSoftware,Kicad,Pcbnew,(5.1.6)-1
; #@! TF.FileFunction,Plated,1,2,PTH
FMAT,2
INCH
T1C0.0157
T2C0.0354
T3C0.0400
T4C0.0579
T5C0.0866
%
G90
G05
T1
X3.685Y-1.6875
X3.7041Y-1.6416
X3.7041Y-1.7334
X3.75Y-1.6225
X3.75Y-1.7525
X3.7959Y-1.6416
X3.7959Y-1.7334
X3.815Y-1.6875
X2.185Y-4.0
X2.2041Y-3.9541
X2.2041Y-4.0459
X2.25Y-3.935
X2.25Y-4.065
X2.2959Y-3.9541
X2.2959Y-4.0459
X2.315Y-4.0
X3.685Y-4.0
X3.7041Y-3.9541
X3.7041Y-4.0459
X3.75Y-3.935
X3.75Y-4.065
X3.7959Y-3.9541
X3.7959Y-4.0459
X3.815Y-4.0
T2
X2.4688Y-1.5938
X2.7687Y-1.5938
X2.4688Y-3.0938
X2.7687Y-3.0938
X3.9688Y-1.5938
X4.2687Y-1.5938
X3.2188Y-2.3438
X3.5187Y-2.3438
X3.9688Y-4.5625
X4.2687Y-4.5625
X1.7188Y-1.5938
X2.0187Y-1.5938
X1.7188Y-2.3438
X2.0187Y-2.3438
X1.7188Y-4.5625
X2.0187Y-4.5625
X3.2188Y-3.8438
X3.5187Y-3.8438
X3.2188Y-1.5938
X3.5187Y-1.5938
X1.7188Y-3.8438
X2.0187Y-3.8438
X3.9688Y-3.8438
X4.2687Y-3.8438
X3.9688Y-3.0938
X4.2687Y-3.0938
X2.4688Y-2.3438
X2.7687Y-2.3438
X3.2188Y-4.5625
X3.5187Y-4.5625
X3.2188Y-3.0938
X3.5187Y-3.0938
X1.7188Y-3.0938
X2.0187Y-3.0938
X3.9688Y-2.3438
X4.2687Y-2.3438
X2.4688Y-3.8438
X2.7687Y-3.8438
X2.4688Y-4.5625
X2.7687Y-4.5625
T3
X2.325Y-1.0312
X2.325Y-1.1312
X2.325Y-1.2312
X2.325Y-1.3313
X2.325Y-1.4312
X2.325Y-1.5312
X2.325Y-1.6312
X2.325Y-1.7312
X2.325Y-1.8313
X2.325Y-1.9312
X2.325Y-2.0312
X2.325Y-2.1313
X2.925Y-1.0312
X2.925Y-1.1312
X2.925Y-1.2312
X2.925Y-1.3313
X2.925Y-1.4312
X2.925Y-1.5312
X2.925Y-1.6312
X2.925Y-1.7312
X2.925Y-1.8313
X2.925Y-1.9312
X2.925Y-2.0312
X2.925Y-2.1313
T4
X3.975Y-1.15
X4.0266Y-1.0925
X4.2234Y-1.0728
X4.225Y-1.05
X2.475Y-2.65
X2.5266Y-2.5925
X2.7234Y-2.5728
X2.725Y-2.55
X3.225Y-3.4
X3.2766Y-3.3425
X3.4734Y-3.3228
X3.475Y-3.3
X3.225Y-1.15
X3.2766Y-1.0925
X3.4734Y-1.0728
X3.475Y-1.05
X1.725Y-2.65
X1.7766Y-2.5925
X1.9734Y-2.5728
X1.975Y-2.55
X1.725Y-3.4
X1.7766Y-3.3425
X1.9734Y-3.3228
X1.975Y-3.3
X3.225Y-2.65
X3.2766Y-2.5925
X3.4734Y-2.5728
X3.475Y-2.55
X3.225Y-4.15
X3.2766Y-4.0925
X3.4734Y-4.0728
X3.475Y-4.05
X1.725Y-4.15
X1.7766Y-4.0925
X1.9734Y-4.0728
X1.975Y-4.05
X1.725Y-1.15
X1.7766Y-1.0925
X1.9734Y-1.0728
X1.975Y-1.05
X1.725Y-1.9
X1.7766Y-1.8425
X1.9734Y-1.8228
X1.975Y-1.8
X3.975Y-4.15
X4.0266Y-4.0925
X4.2234Y-4.0728
X4.225Y-4.05
X3.975Y-3.4
X4.0266Y-3.3425
X4.2234Y-3.3228
X4.225Y-3.3
X3.225Y-1.9
X3.2766Y-1.8425
X3.4734Y-1.8228
X3.475Y-1.8
X2.475Y-1.9
X2.5266Y-1.8425
X2.7234Y-1.8228
X2.725Y-1.8
X3.975Y-1.9
X4.0266Y-1.8425
X4.2234Y-1.8228
X4.225Y-1.8
X2.475Y-4.15
X2.5266Y-4.0925
X2.7234Y-4.0728
X2.725Y-4.05
X3.975Y-2.65
X4.0266Y-2.5925
X4.2234Y-2.5728
X4.225Y-2.55
X2.475Y-1.15
X2.5266Y-1.0925
X2.7234Y-1.0728
X2.725Y-1.05
X2.475Y-3.4
X2.5266Y-3.3425
X2.7234Y-3.3228
X2.725Y-3.3
T5
X3.75Y-1.6875
X2.25Y-4.0
X3.75Y-4.0
T0
M30
