%TF.GenerationSoftware,KiCad,Pcbnew,(5.1.6)-1*%
%TF.CreationDate,2020-11-13T18:30:54-06:00*%
%TF.ProjectId,macropad_4x5,6d616372-6f70-4616-945f-3478352e6b69,v1.3*%
%TF.SameCoordinates,Original*%
%TF.FileFunction,Legend,Top*%
%TF.FilePolarity,Positive*%
%FSLAX46Y46*%
G04 Gerber Fmt 4.6, Leading zero omitted, Abs format (unit mm)*
G04 Created by KiCad (PCBNEW (5.1.6)-1) date 2020-11-13 18:30:54*
%MOMM*%
%LPD*%
G01*
G04 APERTURE LIST*
%ADD10C,0.150000*%
G04 APERTURE END LIST*
D10*
X76922333Y-41759142D02*
X76874714Y-41806761D01*
X76731857Y-41854380D01*
X76636619Y-41854380D01*
X76493761Y-41806761D01*
X76398523Y-41711523D01*
X76350904Y-41616285D01*
X76303285Y-41425809D01*
X76303285Y-41282952D01*
X76350904Y-41092476D01*
X76398523Y-40997238D01*
X76493761Y-40902000D01*
X76636619Y-40854380D01*
X76731857Y-40854380D01*
X76874714Y-40902000D01*
X76922333Y-40949619D01*
X77255666Y-40854380D02*
X77874714Y-40854380D01*
X77541380Y-41235333D01*
X77684238Y-41235333D01*
X77779476Y-41282952D01*
X77827095Y-41330571D01*
X77874714Y-41425809D01*
X77874714Y-41663904D01*
X77827095Y-41759142D01*
X77779476Y-41806761D01*
X77684238Y-41854380D01*
X77398523Y-41854380D01*
X77303285Y-41806761D01*
X77255666Y-41759142D01*
X76922333Y-44299142D02*
X76874714Y-44346761D01*
X76731857Y-44394380D01*
X76636619Y-44394380D01*
X76493761Y-44346761D01*
X76398523Y-44251523D01*
X76350904Y-44156285D01*
X76303285Y-43965809D01*
X76303285Y-43822952D01*
X76350904Y-43632476D01*
X76398523Y-43537238D01*
X76493761Y-43442000D01*
X76636619Y-43394380D01*
X76731857Y-43394380D01*
X76874714Y-43442000D01*
X76922333Y-43489619D01*
X77303285Y-43489619D02*
X77350904Y-43442000D01*
X77446142Y-43394380D01*
X77684238Y-43394380D01*
X77779476Y-43442000D01*
X77827095Y-43489619D01*
X77874714Y-43584857D01*
X77874714Y-43680095D01*
X77827095Y-43822952D01*
X77255666Y-44394380D01*
X77874714Y-44394380D01*
X76827083Y-39250892D02*
X76779464Y-39298511D01*
X76636607Y-39346130D01*
X76541369Y-39346130D01*
X76398511Y-39298511D01*
X76303273Y-39203273D01*
X76255654Y-39108035D01*
X76208035Y-38917559D01*
X76208035Y-38774702D01*
X76255654Y-38584226D01*
X76303273Y-38488988D01*
X76398511Y-38393750D01*
X76541369Y-38346130D01*
X76636607Y-38346130D01*
X76779464Y-38393750D01*
X76827083Y-38441369D01*
X77779464Y-39346130D02*
X77208035Y-39346130D01*
X77493750Y-39346130D02*
X77493750Y-38346130D01*
X77398511Y-38488988D01*
X77303273Y-38584226D01*
X77208035Y-38631845D01*
X76827083Y-36869642D02*
X76779464Y-36917261D01*
X76636607Y-36964880D01*
X76541369Y-36964880D01*
X76398511Y-36917261D01*
X76303273Y-36822023D01*
X76255654Y-36726785D01*
X76208035Y-36536309D01*
X76208035Y-36393452D01*
X76255654Y-36202976D01*
X76303273Y-36107738D01*
X76398511Y-36012500D01*
X76541369Y-35964880D01*
X76636607Y-35964880D01*
X76779464Y-36012500D01*
X76827083Y-36060119D01*
X77446130Y-35964880D02*
X77541369Y-35964880D01*
X77636607Y-36012500D01*
X77684226Y-36060119D01*
X77731845Y-36155357D01*
X77779464Y-36345833D01*
X77779464Y-36583928D01*
X77731845Y-36774404D01*
X77684226Y-36869642D01*
X77636607Y-36917261D01*
X77541369Y-36964880D01*
X77446130Y-36964880D01*
X77350892Y-36917261D01*
X77303273Y-36869642D01*
X77255654Y-36774404D01*
X77208035Y-36583928D01*
X77208035Y-36345833D01*
X77255654Y-36155357D01*
X77303273Y-36060119D01*
X77350892Y-36012500D01*
X77446130Y-35964880D01*
M02*
