M48
; DRILL file {KiCad (5.1.6)-1} date 12/19/20 02:44:09
; FORMAT={-:-/ absolute / inch / decimal}
; #@! TF.CreationDate,2020-12-19T02:44:09-06:00
; #@! TF.GenerationSoftware,Kicad,Pcbnew,(5.1.6)-1
; #@! TF.FileFunction,Plated,1,2,PTH
FMAT,2
INCH
T1C0.0130
T2C0.0354
T3C0.0390
T4C0.0394
T5C0.0400
T6C0.0472
T7C0.0579
%
G90
G05
T1
X1.0Y-1.6562
X1.0696Y-2.3679
X1.555Y-2.225
X1.605Y-1.51
X1.62Y-2.415
X1.63Y-2.485
X2.445Y-2.21
X2.47Y-1.62
T3
X1.95Y-2.95
X2.05Y-2.95
X1.2Y-1.45
X1.3Y-1.45
X1.2Y-2.2
X1.3Y-2.2
X2.7Y-2.2
X2.8Y-2.2
X2.7Y-1.45
X2.8Y-1.45
X1.95Y-1.45
X2.05Y-1.45
X2.7Y-2.95
X2.8Y-2.95
X1.2Y-2.95
X1.3Y-2.95
X1.95Y-2.2
X2.05Y-2.2
T4
X1.55Y-1.0965
X1.55Y-1.4035
X3.05Y-1.0965
X3.05Y-1.4035
X2.5965Y-2.29
X2.9035Y-2.29
X1.6875Y-0.93
X1.9946Y-0.93
X1.0965Y-1.64
X1.4035Y-1.64
X1.8465Y-1.6875
X2.1535Y-1.6875
X3.05Y-2.5965
X3.05Y-2.9035
X1.8465Y-2.29
X2.1535Y-2.29
X2.5965Y-3.04
X2.9035Y-3.04
X1.0965Y-3.04
X1.4035Y-3.04
X3.05Y-1.8804
X3.05Y-2.1875
X1.55Y-2.5965
X1.55Y-2.9035
X1.8465Y-3.04
X2.1535Y-3.04
X2.6516Y-0.9744
X2.6516Y-1.5453
X2.75Y-1.5453
X2.8484Y-0.9744
X2.8484Y-1.5453
X1.8465Y-1.54
X2.1535Y-1.54
X1.55Y-1.8465
X1.55Y-2.1535
X2.0729Y-0.9375
X2.38Y-0.9375
X2.3Y-2.5965
X2.3Y-2.9035
X1.0965Y-2.29
X1.4035Y-2.29
X1.1516Y-0.9744
X1.1516Y-1.5453
X1.25Y-1.5453
X1.3484Y-0.9744
X1.3484Y-1.5453
X1.69Y-2.315
X1.69Y-2.6221
X2.5965Y-1.67
X2.9035Y-1.67
X1.8465Y-1.615
X2.1535Y-1.615
T5
X1.7Y-1.0312
X1.7Y-1.1312
X1.7Y-1.2312
X1.7Y-1.3313
X1.7Y-1.4312
X1.7Y-1.5312
X1.7Y-1.6312
X1.7Y-1.7312
X1.7Y-1.8313
X1.7Y-1.9312
X1.7Y-2.0312
X1.7Y-2.1313
X2.3Y-1.0312
X2.3Y-1.1312
X2.3Y-1.2312
X2.3Y-1.3313
X2.3Y-1.4312
X2.3Y-1.5312
X2.3Y-1.6312
X2.3Y-1.7312
X2.3Y-1.8313
X2.3Y-1.9312
X2.3Y-2.0312
X2.3Y-2.1313
T6
X2.0Y-2.5177
X2.1969Y-2.6004
X1.25Y-1.0177
X1.4469Y-1.1004
X1.25Y-1.7677
X1.4469Y-1.8504
X2.75Y-1.7677
X2.9469Y-1.8504
X2.75Y-1.0177
X2.9469Y-1.1004
X2.0Y-1.0177
X2.1969Y-1.1004
X2.75Y-2.5177
X2.9469Y-2.6004
X1.25Y-2.5177
X1.4469Y-2.6004
X2.0Y-1.7677
X2.1969Y-1.8504
T7
X1.85Y-2.65
X1.9016Y-2.5925
X2.0984Y-2.5728
X2.1Y-2.55
X1.1Y-1.15
X1.1516Y-1.0925
X1.3484Y-1.0728
X1.35Y-1.05
X1.1Y-1.9
X1.1516Y-1.8425
X1.3484Y-1.8228
X1.35Y-1.8
X2.6Y-1.9
X2.6516Y-1.8425
X2.8484Y-1.8228
X2.85Y-1.8
X2.6Y-1.15
X2.6516Y-1.0925
X2.8484Y-1.0728
X2.85Y-1.05
X1.85Y-1.15
X1.9016Y-1.0925
X2.0984Y-1.0728
X2.1Y-1.05
X2.6Y-2.65
X2.6516Y-2.5925
X2.8484Y-2.5728
X2.85Y-2.55
X1.1Y-2.65
X1.1516Y-2.5925
X1.3484Y-2.5728
X1.35Y-2.55
X1.85Y-1.9
X1.9016Y-1.8425
X2.0984Y-1.8228
X2.1Y-1.8
T2
G00X2.4314Y-1.0079
M15
G01X2.4314Y-0.9921
M16
G05
G00X2.4314Y-1.126
M15
G01X2.4314Y-1.1102
M16
G05
G00X2.4314Y-1.2835
M15
G01X2.4314Y-1.2677
M16
G05
G00X2.6125Y-1.3268
M15
G01X2.6125Y-1.311
M16
G05
T0
M30
