G04 #@! TF.GenerationSoftware,KiCad,Pcbnew,(5.1.6)-1*
G04 #@! TF.CreationDate,2020-12-19T02:43:37-06:00*
G04 #@! TF.ProjectId,macropad_3x3,6d616372-6f70-4616-945f-3378332e6b69,rev?*
G04 #@! TF.SameCoordinates,Original*
G04 #@! TF.FileFunction,Copper,L2,Bot*
G04 #@! TF.FilePolarity,Positive*
%FSLAX46Y46*%
G04 Gerber Fmt 4.6, Leading zero omitted, Abs format (unit mm)*
G04 Created by KiCad (PCBNEW (5.1.6)-1) date 2020-12-19 02:43:37*
%MOMM*%
%LPD*%
G01*
G04 APERTURE LIST*
G04 #@! TA.AperFunction,ComponentPad*
%ADD10C,2.000000*%
G04 #@! TD*
G04 #@! TA.AperFunction,WasherPad*
%ADD11R,2.000000X3.200000*%
G04 #@! TD*
G04 #@! TA.AperFunction,ComponentPad*
%ADD12R,2.000000X2.000000*%
G04 #@! TD*
G04 #@! TA.AperFunction,SMDPad,CuDef*
%ADD13R,0.800000X1.900000*%
G04 #@! TD*
G04 #@! TA.AperFunction,Conductor*
%ADD14R,2.900000X0.500000*%
G04 #@! TD*
G04 #@! TA.AperFunction,ComponentPad*
%ADD15C,1.600000*%
G04 #@! TD*
G04 #@! TA.AperFunction,SMDPad,CuDef*
%ADD16R,1.500000X1.200000*%
G04 #@! TD*
G04 #@! TA.AperFunction,Conductor*
%ADD17R,0.500000X2.900000*%
G04 #@! TD*
G04 #@! TA.AperFunction,SMDPad,CuDef*
%ADD18R,1.200000X1.500000*%
G04 #@! TD*
G04 #@! TA.AperFunction,ComponentPad*
%ADD19C,2.250000*%
G04 #@! TD*
G04 #@! TA.AperFunction,ComponentPad*
%ADD20C,1.905000*%
G04 #@! TD*
G04 #@! TA.AperFunction,ComponentPad*
%ADD21R,1.905000X1.905000*%
G04 #@! TD*
G04 #@! TA.AperFunction,ComponentPad*
%ADD22R,1.600000X1.600000*%
G04 #@! TD*
G04 #@! TA.AperFunction,SMDPad,CuDef*
%ADD23R,1.200000X1.600000*%
G04 #@! TD*
G04 #@! TA.AperFunction,SMDPad,CuDef*
%ADD24R,1.600000X1.200000*%
G04 #@! TD*
G04 #@! TA.AperFunction,ComponentPad*
%ADD25O,1.600000X2.000000*%
G04 #@! TD*
G04 #@! TA.AperFunction,SMDPad,CuDef*
%ADD26R,0.700000X0.500000*%
G04 #@! TD*
G04 #@! TA.AperFunction,ComponentPad*
%ADD27C,1.879600*%
G04 #@! TD*
G04 #@! TA.AperFunction,ViaPad*
%ADD28C,0.685800*%
G04 #@! TD*
G04 #@! TA.AperFunction,Conductor*
%ADD29C,0.152400*%
G04 #@! TD*
G04 #@! TA.AperFunction,Conductor*
%ADD30C,0.254000*%
G04 #@! TD*
G04 #@! TA.AperFunction,Conductor*
%ADD31C,0.381000*%
G04 #@! TD*
G04 APERTURE END LIST*
D10*
G04 #@! TO.P,RE2,S1*
G04 #@! TO.N,Net-(D3-Pad2)*
X72350000Y-24750000D03*
G04 #@! TO.P,RE2,S2*
G04 #@! TO.N,col2*
X67350000Y-24750000D03*
D11*
G04 #@! TO.P,RE2,*
G04 #@! TO.N,*
X75450000Y-31750000D03*
X64250000Y-31750000D03*
D10*
G04 #@! TO.P,RE2,B*
G04 #@! TO.N,encoder2b*
X72350000Y-39250000D03*
G04 #@! TO.P,RE2,C*
G04 #@! TO.N,GND*
X69850000Y-39250000D03*
D12*
G04 #@! TO.P,RE2,A*
G04 #@! TO.N,encoder2a*
X67350000Y-39250000D03*
G04 #@! TD*
D13*
G04 #@! TO.P,Q1,3*
G04 #@! TO.N,LEDsOut*
X39687500Y-61825000D03*
G04 #@! TO.P,Q1,2*
G04 #@! TO.N,GND*
X40637500Y-58825000D03*
G04 #@! TO.P,Q1,1*
G04 #@! TO.N,LEDs*
X38737500Y-58825000D03*
G04 #@! TD*
D14*
G04 #@! TO.N,VCC*
G04 #@! TO.C,R11*
X54052000Y-23812500D03*
G04 #@! TO.N,SDA*
X59052000Y-23812500D03*
D15*
G04 #@! TD*
G04 #@! TO.P,R11,1*
G04 #@! TO.N,VCC*
X52652000Y-23812500D03*
G04 #@! TO.P,R11,2*
G04 #@! TO.N,SDA*
X60452000Y-23812500D03*
D16*
X57902000Y-23812500D03*
G04 #@! TO.P,R11,1*
G04 #@! TO.N,VCC*
X55202000Y-23812500D03*
G04 #@! TD*
D14*
G04 #@! TO.N,VCC*
G04 #@! TO.C,R10*
X49262500Y-23622000D03*
G04 #@! TO.N,SCL*
X44262500Y-23622000D03*
D15*
G04 #@! TD*
G04 #@! TO.P,R10,1*
G04 #@! TO.N,VCC*
X50662500Y-23622000D03*
G04 #@! TO.P,R10,2*
G04 #@! TO.N,SCL*
X42862500Y-23622000D03*
D16*
X45412500Y-23622000D03*
G04 #@! TO.P,R10,1*
G04 #@! TO.N,VCC*
X48112500Y-23622000D03*
G04 #@! TD*
D14*
G04 #@! TO.N,LEDsOut*
G04 #@! TO.C,R9*
X67350000Y-77216000D03*
G04 #@! TO.N,Net-(MX9-Pad4)*
X72350000Y-77216000D03*
D15*
G04 #@! TD*
G04 #@! TO.P,R9,1*
G04 #@! TO.N,LEDsOut*
X65950000Y-77216000D03*
G04 #@! TO.P,R9,2*
G04 #@! TO.N,Net-(MX9-Pad4)*
X73750000Y-77216000D03*
D16*
X71200000Y-77216000D03*
G04 #@! TO.P,R9,1*
G04 #@! TO.N,LEDsOut*
X68500000Y-77216000D03*
G04 #@! TD*
D14*
G04 #@! TO.N,LEDsOut*
G04 #@! TO.C,R8*
X48300000Y-77216000D03*
G04 #@! TO.N,Net-(MX8-Pad4)*
X53300000Y-77216000D03*
D15*
G04 #@! TD*
G04 #@! TO.P,R8,1*
G04 #@! TO.N,LEDsOut*
X46900000Y-77216000D03*
G04 #@! TO.P,R8,2*
G04 #@! TO.N,Net-(MX8-Pad4)*
X54700000Y-77216000D03*
D16*
X52150000Y-77216000D03*
G04 #@! TO.P,R8,1*
G04 #@! TO.N,LEDsOut*
X49450000Y-77216000D03*
G04 #@! TD*
D14*
G04 #@! TO.N,LEDsOut*
G04 #@! TO.C,R7*
X29250000Y-77216000D03*
G04 #@! TO.N,Net-(MX7-Pad4)*
X34250000Y-77216000D03*
D15*
G04 #@! TD*
G04 #@! TO.P,R7,1*
G04 #@! TO.N,LEDsOut*
X27850000Y-77216000D03*
G04 #@! TO.P,R7,2*
G04 #@! TO.N,Net-(MX7-Pad4)*
X35650000Y-77216000D03*
D16*
X33100000Y-77216000D03*
G04 #@! TO.P,R7,1*
G04 #@! TO.N,LEDsOut*
X30400000Y-77216000D03*
G04 #@! TD*
D14*
G04 #@! TO.N,LEDsOut*
G04 #@! TO.C,R6*
X67350000Y-58166000D03*
G04 #@! TO.N,Net-(MX6-Pad4)*
X72350000Y-58166000D03*
D15*
G04 #@! TD*
G04 #@! TO.P,R6,1*
G04 #@! TO.N,LEDsOut*
X65950000Y-58166000D03*
G04 #@! TO.P,R6,2*
G04 #@! TO.N,Net-(MX6-Pad4)*
X73750000Y-58166000D03*
D16*
X71200000Y-58166000D03*
G04 #@! TO.P,R6,1*
G04 #@! TO.N,LEDsOut*
X68500000Y-58166000D03*
G04 #@! TD*
D14*
G04 #@! TO.N,LEDsOut*
G04 #@! TO.C,R5*
X48300000Y-58166000D03*
G04 #@! TO.N,Net-(MX5-Pad4)*
X53300000Y-58166000D03*
D15*
G04 #@! TD*
G04 #@! TO.P,R5,1*
G04 #@! TO.N,LEDsOut*
X46900000Y-58166000D03*
G04 #@! TO.P,R5,2*
G04 #@! TO.N,Net-(MX5-Pad4)*
X54700000Y-58166000D03*
D16*
X52150000Y-58166000D03*
G04 #@! TO.P,R5,1*
G04 #@! TO.N,LEDsOut*
X49450000Y-58166000D03*
G04 #@! TD*
D14*
G04 #@! TO.N,LEDsOut*
G04 #@! TO.C,R4*
X29250000Y-58166000D03*
G04 #@! TO.N,Net-(MX4-Pad4)*
X34250000Y-58166000D03*
D15*
G04 #@! TD*
G04 #@! TO.P,R4,1*
G04 #@! TO.N,LEDsOut*
X27850000Y-58166000D03*
G04 #@! TO.P,R4,2*
G04 #@! TO.N,Net-(MX4-Pad4)*
X35650000Y-58166000D03*
D16*
X33100000Y-58166000D03*
G04 #@! TO.P,R4,1*
G04 #@! TO.N,LEDsOut*
X30400000Y-58166000D03*
G04 #@! TD*
D14*
G04 #@! TO.N,LEDsOut*
G04 #@! TO.C,R3*
X67350000Y-42418000D03*
G04 #@! TO.N,Net-(MX3-Pad4)*
X72350000Y-42418000D03*
D15*
G04 #@! TD*
G04 #@! TO.P,R3,1*
G04 #@! TO.N,LEDsOut*
X65950000Y-42418000D03*
G04 #@! TO.P,R3,2*
G04 #@! TO.N,Net-(MX3-Pad4)*
X73750000Y-42418000D03*
D16*
X71200000Y-42418000D03*
G04 #@! TO.P,R3,1*
G04 #@! TO.N,LEDsOut*
X68500000Y-42418000D03*
G04 #@! TD*
D14*
G04 #@! TO.N,LEDsOut*
G04 #@! TO.C,R2*
X48300000Y-39116000D03*
G04 #@! TO.N,Net-(MX2-Pad4)*
X53300000Y-39116000D03*
D15*
G04 #@! TD*
G04 #@! TO.P,R2,1*
G04 #@! TO.N,LEDsOut*
X46900000Y-39116000D03*
G04 #@! TO.P,R2,2*
G04 #@! TO.N,Net-(MX2-Pad4)*
X54700000Y-39116000D03*
D16*
X52150000Y-39116000D03*
G04 #@! TO.P,R2,1*
G04 #@! TO.N,LEDsOut*
X49450000Y-39116000D03*
G04 #@! TD*
D14*
G04 #@! TO.N,LEDsOut*
G04 #@! TO.C,R1*
X29250000Y-41656000D03*
G04 #@! TO.N,Net-(MX1-Pad4)*
X34250000Y-41656000D03*
D15*
G04 #@! TD*
G04 #@! TO.P,R1,1*
G04 #@! TO.N,LEDsOut*
X27850000Y-41656000D03*
G04 #@! TO.P,R1,2*
G04 #@! TO.N,Net-(MX1-Pad4)*
X35650000Y-41656000D03*
D16*
X33100000Y-41656000D03*
G04 #@! TO.P,R1,1*
G04 #@! TO.N,LEDsOut*
X30400000Y-41656000D03*
G04 #@! TD*
D17*
G04 #@! TO.N,GND*
G04 #@! TO.C,RQ1*
X42926000Y-60201000D03*
D18*
G04 #@! TD*
G04 #@! TO.P,RQ1,2*
G04 #@! TO.N,GND*
X42926000Y-61351000D03*
G04 #@! TO.P,RQ1,1*
G04 #@! TO.N,LEDs*
X42926000Y-64051000D03*
D17*
G04 #@! TD*
G04 #@! TO.N,LEDs*
G04 #@! TO.C,RQ1*
X42926000Y-65201000D03*
D15*
G04 #@! TO.P,RQ1,2*
G04 #@! TO.N,GND*
X42926000Y-58801000D03*
G04 #@! TO.P,RQ1,1*
G04 #@! TO.N,LEDs*
X42926000Y-66601000D03*
G04 #@! TD*
G04 #@! TO.P,MX6,2*
G04 #@! TO.N,Net-(D6-Pad2)*
G04 #@! TA.AperFunction,ComponentPad*
G36*
G01*
X72273483Y-47422395D02*
X72273483Y-47422395D01*
G75*
G02*
X71227605Y-46223483I76517J1122395D01*
G01*
X71267147Y-45643451D01*
G75*
G02*
X72466059Y-44597573I1122395J-76517D01*
G01*
X72466059Y-44597573D01*
G75*
G02*
X73511937Y-45796485I-76517J-1122395D01*
G01*
X73472395Y-46376517D01*
G75*
G02*
X72273483Y-47422395I-1122395J76517D01*
G01*
G37*
G04 #@! TD.AperFunction*
D19*
X72390000Y-45720000D03*
G04 #@! TO.P,MX6,1*
G04 #@! TO.N,col2*
G04 #@! TA.AperFunction,ComponentPad*
G36*
G01*
X65288688Y-49097351D02*
X65288688Y-49097350D01*
G75*
G02*
X65202650Y-47508688I751312J837350D01*
G01*
X66512640Y-46048680D01*
G75*
G02*
X68101302Y-45962642I837350J-751312D01*
G01*
X68101302Y-45962642D01*
G75*
G02*
X68187340Y-47551304I-751312J-837350D01*
G01*
X66877350Y-49011312D01*
G75*
G02*
X65288688Y-49097350I-837350J751312D01*
G01*
G37*
G04 #@! TD.AperFunction*
X67350000Y-46800000D03*
D10*
G04 #@! TO.P,MX6,2*
G04 #@! TO.N,Net-(D6-Pad2)*
X74850000Y-47000000D03*
G04 #@! TO.P,MX6,1*
G04 #@! TO.N,col2*
X69850000Y-44900000D03*
D20*
G04 #@! TO.P,MX6,3*
G04 #@! TO.N,VCC*
X68580000Y-55880000D03*
D21*
G04 #@! TO.P,MX6,4*
G04 #@! TO.N,Net-(MX6-Pad4)*
X71120000Y-55880000D03*
G04 #@! TD*
G04 #@! TO.P,MX9,2*
G04 #@! TO.N,Net-(D9-Pad2)*
G04 #@! TA.AperFunction,ComponentPad*
G36*
G01*
X72273483Y-66472395D02*
X72273483Y-66472395D01*
G75*
G02*
X71227605Y-65273483I76517J1122395D01*
G01*
X71267147Y-64693451D01*
G75*
G02*
X72466059Y-63647573I1122395J-76517D01*
G01*
X72466059Y-63647573D01*
G75*
G02*
X73511937Y-64846485I-76517J-1122395D01*
G01*
X73472395Y-65426517D01*
G75*
G02*
X72273483Y-66472395I-1122395J76517D01*
G01*
G37*
G04 #@! TD.AperFunction*
D19*
X72390000Y-64770000D03*
G04 #@! TO.P,MX9,1*
G04 #@! TO.N,col2*
G04 #@! TA.AperFunction,ComponentPad*
G36*
G01*
X65288688Y-68147351D02*
X65288688Y-68147350D01*
G75*
G02*
X65202650Y-66558688I751312J837350D01*
G01*
X66512640Y-65098680D01*
G75*
G02*
X68101302Y-65012642I837350J-751312D01*
G01*
X68101302Y-65012642D01*
G75*
G02*
X68187340Y-66601304I-751312J-837350D01*
G01*
X66877350Y-68061312D01*
G75*
G02*
X65288688Y-68147350I-837350J751312D01*
G01*
G37*
G04 #@! TD.AperFunction*
X67350000Y-65850000D03*
D10*
G04 #@! TO.P,MX9,2*
G04 #@! TO.N,Net-(D9-Pad2)*
X74850000Y-66050000D03*
G04 #@! TO.P,MX9,1*
G04 #@! TO.N,col2*
X69850000Y-63950000D03*
D20*
G04 #@! TO.P,MX9,3*
G04 #@! TO.N,VCC*
X68580000Y-74930000D03*
D21*
G04 #@! TO.P,MX9,4*
G04 #@! TO.N,Net-(MX9-Pad4)*
X71120000Y-74930000D03*
G04 #@! TD*
G04 #@! TO.P,MX8,2*
G04 #@! TO.N,Net-(D8-Pad2)*
G04 #@! TA.AperFunction,ComponentPad*
G36*
G01*
X53223483Y-66472395D02*
X53223483Y-66472395D01*
G75*
G02*
X52177605Y-65273483I76517J1122395D01*
G01*
X52217147Y-64693451D01*
G75*
G02*
X53416059Y-63647573I1122395J-76517D01*
G01*
X53416059Y-63647573D01*
G75*
G02*
X54461937Y-64846485I-76517J-1122395D01*
G01*
X54422395Y-65426517D01*
G75*
G02*
X53223483Y-66472395I-1122395J76517D01*
G01*
G37*
G04 #@! TD.AperFunction*
D19*
X53340000Y-64770000D03*
G04 #@! TO.P,MX8,1*
G04 #@! TO.N,col1*
G04 #@! TA.AperFunction,ComponentPad*
G36*
G01*
X46238688Y-68147351D02*
X46238688Y-68147350D01*
G75*
G02*
X46152650Y-66558688I751312J837350D01*
G01*
X47462640Y-65098680D01*
G75*
G02*
X49051302Y-65012642I837350J-751312D01*
G01*
X49051302Y-65012642D01*
G75*
G02*
X49137340Y-66601304I-751312J-837350D01*
G01*
X47827350Y-68061312D01*
G75*
G02*
X46238688Y-68147350I-837350J751312D01*
G01*
G37*
G04 #@! TD.AperFunction*
X48300000Y-65850000D03*
D10*
G04 #@! TO.P,MX8,2*
G04 #@! TO.N,Net-(D8-Pad2)*
X55800000Y-66050000D03*
G04 #@! TO.P,MX8,1*
G04 #@! TO.N,col1*
X50800000Y-63950000D03*
D20*
G04 #@! TO.P,MX8,3*
G04 #@! TO.N,VCC*
X49530000Y-74930000D03*
D21*
G04 #@! TO.P,MX8,4*
G04 #@! TO.N,Net-(MX8-Pad4)*
X52070000Y-74930000D03*
G04 #@! TD*
G04 #@! TO.P,MX7,2*
G04 #@! TO.N,Net-(D7-Pad2)*
G04 #@! TA.AperFunction,ComponentPad*
G36*
G01*
X34173483Y-66472395D02*
X34173483Y-66472395D01*
G75*
G02*
X33127605Y-65273483I76517J1122395D01*
G01*
X33167147Y-64693451D01*
G75*
G02*
X34366059Y-63647573I1122395J-76517D01*
G01*
X34366059Y-63647573D01*
G75*
G02*
X35411937Y-64846485I-76517J-1122395D01*
G01*
X35372395Y-65426517D01*
G75*
G02*
X34173483Y-66472395I-1122395J76517D01*
G01*
G37*
G04 #@! TD.AperFunction*
D19*
X34290000Y-64770000D03*
G04 #@! TO.P,MX7,1*
G04 #@! TO.N,col0*
G04 #@! TA.AperFunction,ComponentPad*
G36*
G01*
X27188688Y-68147351D02*
X27188688Y-68147350D01*
G75*
G02*
X27102650Y-66558688I751312J837350D01*
G01*
X28412640Y-65098680D01*
G75*
G02*
X30001302Y-65012642I837350J-751312D01*
G01*
X30001302Y-65012642D01*
G75*
G02*
X30087340Y-66601304I-751312J-837350D01*
G01*
X28777350Y-68061312D01*
G75*
G02*
X27188688Y-68147350I-837350J751312D01*
G01*
G37*
G04 #@! TD.AperFunction*
X29250000Y-65850000D03*
D10*
G04 #@! TO.P,MX7,2*
G04 #@! TO.N,Net-(D7-Pad2)*
X36750000Y-66050000D03*
G04 #@! TO.P,MX7,1*
G04 #@! TO.N,col0*
X31750000Y-63950000D03*
D20*
G04 #@! TO.P,MX7,3*
G04 #@! TO.N,VCC*
X30480000Y-74930000D03*
D21*
G04 #@! TO.P,MX7,4*
G04 #@! TO.N,Net-(MX7-Pad4)*
X33020000Y-74930000D03*
G04 #@! TD*
G04 #@! TO.P,MX5,2*
G04 #@! TO.N,Net-(D5-Pad2)*
G04 #@! TA.AperFunction,ComponentPad*
G36*
G01*
X53223483Y-47422395D02*
X53223483Y-47422395D01*
G75*
G02*
X52177605Y-46223483I76517J1122395D01*
G01*
X52217147Y-45643451D01*
G75*
G02*
X53416059Y-44597573I1122395J-76517D01*
G01*
X53416059Y-44597573D01*
G75*
G02*
X54461937Y-45796485I-76517J-1122395D01*
G01*
X54422395Y-46376517D01*
G75*
G02*
X53223483Y-47422395I-1122395J76517D01*
G01*
G37*
G04 #@! TD.AperFunction*
D19*
X53340000Y-45720000D03*
G04 #@! TO.P,MX5,1*
G04 #@! TO.N,col1*
G04 #@! TA.AperFunction,ComponentPad*
G36*
G01*
X46238688Y-49097351D02*
X46238688Y-49097350D01*
G75*
G02*
X46152650Y-47508688I751312J837350D01*
G01*
X47462640Y-46048680D01*
G75*
G02*
X49051302Y-45962642I837350J-751312D01*
G01*
X49051302Y-45962642D01*
G75*
G02*
X49137340Y-47551304I-751312J-837350D01*
G01*
X47827350Y-49011312D01*
G75*
G02*
X46238688Y-49097350I-837350J751312D01*
G01*
G37*
G04 #@! TD.AperFunction*
X48300000Y-46800000D03*
D10*
G04 #@! TO.P,MX5,2*
G04 #@! TO.N,Net-(D5-Pad2)*
X55800000Y-47000000D03*
G04 #@! TO.P,MX5,1*
G04 #@! TO.N,col1*
X50800000Y-44900000D03*
D20*
G04 #@! TO.P,MX5,3*
G04 #@! TO.N,VCC*
X49530000Y-55880000D03*
D21*
G04 #@! TO.P,MX5,4*
G04 #@! TO.N,Net-(MX5-Pad4)*
X52070000Y-55880000D03*
G04 #@! TD*
G04 #@! TO.P,MX4,2*
G04 #@! TO.N,Net-(D4-Pad2)*
G04 #@! TA.AperFunction,ComponentPad*
G36*
G01*
X34173483Y-47422395D02*
X34173483Y-47422395D01*
G75*
G02*
X33127605Y-46223483I76517J1122395D01*
G01*
X33167147Y-45643451D01*
G75*
G02*
X34366059Y-44597573I1122395J-76517D01*
G01*
X34366059Y-44597573D01*
G75*
G02*
X35411937Y-45796485I-76517J-1122395D01*
G01*
X35372395Y-46376517D01*
G75*
G02*
X34173483Y-47422395I-1122395J76517D01*
G01*
G37*
G04 #@! TD.AperFunction*
D19*
X34290000Y-45720000D03*
G04 #@! TO.P,MX4,1*
G04 #@! TO.N,col0*
G04 #@! TA.AperFunction,ComponentPad*
G36*
G01*
X27188688Y-49097351D02*
X27188688Y-49097350D01*
G75*
G02*
X27102650Y-47508688I751312J837350D01*
G01*
X28412640Y-46048680D01*
G75*
G02*
X30001302Y-45962642I837350J-751312D01*
G01*
X30001302Y-45962642D01*
G75*
G02*
X30087340Y-47551304I-751312J-837350D01*
G01*
X28777350Y-49011312D01*
G75*
G02*
X27188688Y-49097350I-837350J751312D01*
G01*
G37*
G04 #@! TD.AperFunction*
X29250000Y-46800000D03*
D10*
G04 #@! TO.P,MX4,2*
G04 #@! TO.N,Net-(D4-Pad2)*
X36750000Y-47000000D03*
G04 #@! TO.P,MX4,1*
G04 #@! TO.N,col0*
X31750000Y-44900000D03*
D20*
G04 #@! TO.P,MX4,3*
G04 #@! TO.N,VCC*
X30480000Y-55880000D03*
D21*
G04 #@! TO.P,MX4,4*
G04 #@! TO.N,Net-(MX4-Pad4)*
X33020000Y-55880000D03*
G04 #@! TD*
G04 #@! TO.P,MX3,2*
G04 #@! TO.N,Net-(D3-Pad2)*
G04 #@! TA.AperFunction,ComponentPad*
G36*
G01*
X72273483Y-28372395D02*
X72273483Y-28372395D01*
G75*
G02*
X71227605Y-27173483I76517J1122395D01*
G01*
X71267147Y-26593451D01*
G75*
G02*
X72466059Y-25547573I1122395J-76517D01*
G01*
X72466059Y-25547573D01*
G75*
G02*
X73511937Y-26746485I-76517J-1122395D01*
G01*
X73472395Y-27326517D01*
G75*
G02*
X72273483Y-28372395I-1122395J76517D01*
G01*
G37*
G04 #@! TD.AperFunction*
D19*
X72390000Y-26670000D03*
G04 #@! TO.P,MX3,1*
G04 #@! TO.N,col2*
G04 #@! TA.AperFunction,ComponentPad*
G36*
G01*
X65288688Y-30047351D02*
X65288688Y-30047350D01*
G75*
G02*
X65202650Y-28458688I751312J837350D01*
G01*
X66512640Y-26998680D01*
G75*
G02*
X68101302Y-26912642I837350J-751312D01*
G01*
X68101302Y-26912642D01*
G75*
G02*
X68187340Y-28501304I-751312J-837350D01*
G01*
X66877350Y-29961312D01*
G75*
G02*
X65288688Y-30047350I-837350J751312D01*
G01*
G37*
G04 #@! TD.AperFunction*
X67350000Y-27750000D03*
D10*
G04 #@! TO.P,MX3,2*
G04 #@! TO.N,Net-(D3-Pad2)*
X74850000Y-27950000D03*
G04 #@! TO.P,MX3,1*
G04 #@! TO.N,col2*
X69850000Y-25850000D03*
D20*
G04 #@! TO.P,MX3,3*
G04 #@! TO.N,VCC*
X68580000Y-36830000D03*
D21*
G04 #@! TO.P,MX3,4*
G04 #@! TO.N,Net-(MX3-Pad4)*
X71120000Y-36830000D03*
G04 #@! TD*
G04 #@! TO.P,MX2,2*
G04 #@! TO.N,Net-(D2-Pad2)*
G04 #@! TA.AperFunction,ComponentPad*
G36*
G01*
X53223483Y-28372395D02*
X53223483Y-28372395D01*
G75*
G02*
X52177605Y-27173483I76517J1122395D01*
G01*
X52217147Y-26593451D01*
G75*
G02*
X53416059Y-25547573I1122395J-76517D01*
G01*
X53416059Y-25547573D01*
G75*
G02*
X54461937Y-26746485I-76517J-1122395D01*
G01*
X54422395Y-27326517D01*
G75*
G02*
X53223483Y-28372395I-1122395J76517D01*
G01*
G37*
G04 #@! TD.AperFunction*
D19*
X53340000Y-26670000D03*
G04 #@! TO.P,MX2,1*
G04 #@! TO.N,col1*
G04 #@! TA.AperFunction,ComponentPad*
G36*
G01*
X46238688Y-30047351D02*
X46238688Y-30047350D01*
G75*
G02*
X46152650Y-28458688I751312J837350D01*
G01*
X47462640Y-26998680D01*
G75*
G02*
X49051302Y-26912642I837350J-751312D01*
G01*
X49051302Y-26912642D01*
G75*
G02*
X49137340Y-28501304I-751312J-837350D01*
G01*
X47827350Y-29961312D01*
G75*
G02*
X46238688Y-30047350I-837350J751312D01*
G01*
G37*
G04 #@! TD.AperFunction*
X48300000Y-27750000D03*
D10*
G04 #@! TO.P,MX2,2*
G04 #@! TO.N,Net-(D2-Pad2)*
X55800000Y-27950000D03*
G04 #@! TO.P,MX2,1*
G04 #@! TO.N,col1*
X50800000Y-25850000D03*
D20*
G04 #@! TO.P,MX2,3*
G04 #@! TO.N,VCC*
X49530000Y-36830000D03*
D21*
G04 #@! TO.P,MX2,4*
G04 #@! TO.N,Net-(MX2-Pad4)*
X52070000Y-36830000D03*
G04 #@! TD*
G04 #@! TO.P,MX1,2*
G04 #@! TO.N,Net-(D1-Pad2)*
G04 #@! TA.AperFunction,ComponentPad*
G36*
G01*
X34173483Y-28372395D02*
X34173483Y-28372395D01*
G75*
G02*
X33127605Y-27173483I76517J1122395D01*
G01*
X33167147Y-26593451D01*
G75*
G02*
X34366059Y-25547573I1122395J-76517D01*
G01*
X34366059Y-25547573D01*
G75*
G02*
X35411937Y-26746485I-76517J-1122395D01*
G01*
X35372395Y-27326517D01*
G75*
G02*
X34173483Y-28372395I-1122395J76517D01*
G01*
G37*
G04 #@! TD.AperFunction*
D19*
X34290000Y-26670000D03*
G04 #@! TO.P,MX1,1*
G04 #@! TO.N,col0*
G04 #@! TA.AperFunction,ComponentPad*
G36*
G01*
X27188688Y-30047351D02*
X27188688Y-30047350D01*
G75*
G02*
X27102650Y-28458688I751312J837350D01*
G01*
X28412640Y-26998680D01*
G75*
G02*
X30001302Y-26912642I837350J-751312D01*
G01*
X30001302Y-26912642D01*
G75*
G02*
X30087340Y-28501304I-751312J-837350D01*
G01*
X28777350Y-29961312D01*
G75*
G02*
X27188688Y-30047350I-837350J751312D01*
G01*
G37*
G04 #@! TD.AperFunction*
X29250000Y-27750000D03*
D10*
G04 #@! TO.P,MX1,2*
G04 #@! TO.N,Net-(D1-Pad2)*
X36750000Y-27950000D03*
G04 #@! TO.P,MX1,1*
G04 #@! TO.N,col0*
X31750000Y-25850000D03*
D20*
G04 #@! TO.P,MX1,3*
G04 #@! TO.N,VCC*
X30480000Y-36830000D03*
D21*
G04 #@! TO.P,MX1,4*
G04 #@! TO.N,Net-(MX1-Pad4)*
X33020000Y-36830000D03*
G04 #@! TD*
D22*
G04 #@! TO.P,D9,1*
G04 #@! TO.N,row2*
X77470000Y-73750000D03*
D15*
G04 #@! TO.P,D9,2*
G04 #@! TO.N,Net-(D9-Pad2)*
X77470000Y-65950000D03*
D17*
G04 #@! TD*
G04 #@! TO.N,row2*
G04 #@! TO.C,D9*
X77470000Y-72350000D03*
D23*
G04 #@! TO.P,D9,1*
G04 #@! TO.N,row2*
X77470000Y-71250000D03*
G04 #@! TO.P,D9,2*
G04 #@! TO.N,Net-(D9-Pad2)*
X77470000Y-68450000D03*
D17*
G04 #@! TD*
G04 #@! TO.N,Net-(D9-Pad2)*
G04 #@! TO.C,D9*
X77470000Y-67350000D03*
D22*
G04 #@! TO.P,D8,1*
G04 #@! TO.N,row2*
X58420000Y-73750000D03*
D15*
G04 #@! TO.P,D8,2*
G04 #@! TO.N,Net-(D8-Pad2)*
X58420000Y-65950000D03*
D17*
G04 #@! TD*
G04 #@! TO.N,row2*
G04 #@! TO.C,D8*
X58420000Y-72350000D03*
D23*
G04 #@! TO.P,D8,1*
G04 #@! TO.N,row2*
X58420000Y-71250000D03*
G04 #@! TO.P,D8,2*
G04 #@! TO.N,Net-(D8-Pad2)*
X58420000Y-68450000D03*
D17*
G04 #@! TD*
G04 #@! TO.N,Net-(D8-Pad2)*
G04 #@! TO.C,D8*
X58420000Y-67350000D03*
D22*
G04 #@! TO.P,D7,1*
G04 #@! TO.N,row2*
X39370000Y-73750000D03*
D15*
G04 #@! TO.P,D7,2*
G04 #@! TO.N,Net-(D7-Pad2)*
X39370000Y-65950000D03*
D17*
G04 #@! TD*
G04 #@! TO.N,row2*
G04 #@! TO.C,D7*
X39370000Y-72350000D03*
D23*
G04 #@! TO.P,D7,1*
G04 #@! TO.N,row2*
X39370000Y-71250000D03*
G04 #@! TO.P,D7,2*
G04 #@! TO.N,Net-(D7-Pad2)*
X39370000Y-68450000D03*
D17*
G04 #@! TD*
G04 #@! TO.N,Net-(D7-Pad2)*
G04 #@! TO.C,D7*
X39370000Y-67350000D03*
D22*
G04 #@! TO.P,D6,1*
G04 #@! TO.N,row1*
X77470000Y-55562500D03*
D15*
G04 #@! TO.P,D6,2*
G04 #@! TO.N,Net-(D6-Pad2)*
X77470000Y-47762500D03*
D17*
G04 #@! TD*
G04 #@! TO.N,row1*
G04 #@! TO.C,D6*
X77470000Y-54162500D03*
D23*
G04 #@! TO.P,D6,1*
G04 #@! TO.N,row1*
X77470000Y-53062500D03*
G04 #@! TO.P,D6,2*
G04 #@! TO.N,Net-(D6-Pad2)*
X77470000Y-50262500D03*
D17*
G04 #@! TD*
G04 #@! TO.N,Net-(D6-Pad2)*
G04 #@! TO.C,D6*
X77470000Y-49162500D03*
D22*
G04 #@! TO.P,D5,1*
G04 #@! TO.N,row1*
X46900000Y-42862500D03*
D15*
G04 #@! TO.P,D5,2*
G04 #@! TO.N,Net-(D5-Pad2)*
X54700000Y-42862500D03*
D14*
G04 #@! TD*
G04 #@! TO.N,row1*
G04 #@! TO.C,D5*
X48300000Y-42862500D03*
D24*
G04 #@! TO.P,D5,1*
G04 #@! TO.N,row1*
X49400000Y-42862500D03*
G04 #@! TO.P,D5,2*
G04 #@! TO.N,Net-(D5-Pad2)*
X52200000Y-42862500D03*
D14*
G04 #@! TD*
G04 #@! TO.N,Net-(D5-Pad2)*
G04 #@! TO.C,D5*
X53300000Y-42862500D03*
D22*
G04 #@! TO.P,D4,1*
G04 #@! TO.N,row1*
X39370000Y-54700000D03*
D15*
G04 #@! TO.P,D4,2*
G04 #@! TO.N,Net-(D4-Pad2)*
X39370000Y-46900000D03*
D17*
G04 #@! TD*
G04 #@! TO.N,row1*
G04 #@! TO.C,D4*
X39370000Y-53300000D03*
D23*
G04 #@! TO.P,D4,1*
G04 #@! TO.N,row1*
X39370000Y-52200000D03*
G04 #@! TO.P,D4,2*
G04 #@! TO.N,Net-(D4-Pad2)*
X39370000Y-49400000D03*
D17*
G04 #@! TD*
G04 #@! TO.N,Net-(D4-Pad2)*
G04 #@! TO.C,D4*
X39370000Y-48300000D03*
D22*
G04 #@! TO.P,D3,1*
G04 #@! TO.N,row0*
X77470000Y-35650000D03*
D15*
G04 #@! TO.P,D3,2*
G04 #@! TO.N,Net-(D3-Pad2)*
X77470000Y-27850000D03*
D17*
G04 #@! TD*
G04 #@! TO.N,row0*
G04 #@! TO.C,D3*
X77470000Y-34250000D03*
D23*
G04 #@! TO.P,D3,1*
G04 #@! TO.N,row0*
X77470000Y-33150000D03*
G04 #@! TO.P,D3,2*
G04 #@! TO.N,Net-(D3-Pad2)*
X77470000Y-30350000D03*
D17*
G04 #@! TD*
G04 #@! TO.N,Net-(D3-Pad2)*
G04 #@! TO.C,D3*
X77470000Y-29250000D03*
D22*
G04 #@! TO.P,D2,1*
G04 #@! TO.N,row0*
X46900000Y-41021000D03*
D15*
G04 #@! TO.P,D2,2*
G04 #@! TO.N,Net-(D2-Pad2)*
X54700000Y-41021000D03*
D14*
G04 #@! TD*
G04 #@! TO.N,row0*
G04 #@! TO.C,D2*
X48300000Y-41021000D03*
D24*
G04 #@! TO.P,D2,1*
G04 #@! TO.N,row0*
X49400000Y-41021000D03*
G04 #@! TO.P,D2,2*
G04 #@! TO.N,Net-(D2-Pad2)*
X52200000Y-41021000D03*
D14*
G04 #@! TD*
G04 #@! TO.N,Net-(D2-Pad2)*
G04 #@! TO.C,D2*
X53300000Y-41021000D03*
D22*
G04 #@! TO.P,D1,1*
G04 #@! TO.N,row0*
X39370000Y-35650000D03*
D15*
G04 #@! TO.P,D1,2*
G04 #@! TO.N,Net-(D1-Pad2)*
X39370000Y-27850000D03*
D17*
G04 #@! TD*
G04 #@! TO.N,row0*
G04 #@! TO.C,D1*
X39370000Y-34250000D03*
D23*
G04 #@! TO.P,D1,1*
G04 #@! TO.N,row0*
X39370000Y-33150000D03*
G04 #@! TO.P,D1,2*
G04 #@! TO.N,Net-(D1-Pad2)*
X39370000Y-30350000D03*
D17*
G04 #@! TD*
G04 #@! TO.N,Net-(D1-Pad2)*
G04 #@! TO.C,D1*
X39370000Y-29250000D03*
D25*
G04 #@! TO.P,U1,1*
G04 #@! TO.N,VCC*
X66357500Y-33500000D03*
G04 #@! TO.P,U1,2*
G04 #@! TO.N,SCL*
X61757500Y-32400000D03*
G04 #@! TO.P,U1,4*
G04 #@! TO.N,GND*
X61757500Y-25400000D03*
G04 #@! TO.P,U1,3*
G04 #@! TO.N,SDA*
X61757500Y-28400000D03*
G04 #@! TD*
D26*
G04 #@! TO.P,reset1,2*
G04 #@! TO.N,GND*
X36957000Y-39624000D03*
X40557000Y-39624000D03*
G04 #@! TO.P,reset1,1*
G04 #@! TO.N,Net-(B1-Pad22)*
X36957000Y-37424000D03*
X40557000Y-37424000D03*
G04 #@! TD*
D10*
G04 #@! TO.P,RE1,S1*
G04 #@! TO.N,Net-(D1-Pad2)*
X34250000Y-24750000D03*
G04 #@! TO.P,RE1,S2*
G04 #@! TO.N,col0*
X29250000Y-24750000D03*
D11*
G04 #@! TO.P,RE1,*
G04 #@! TO.N,*
X37350000Y-31750000D03*
X26150000Y-31750000D03*
D10*
G04 #@! TO.P,RE1,B*
G04 #@! TO.N,encoder1b*
X34250000Y-39250000D03*
G04 #@! TO.P,RE1,C*
G04 #@! TO.N,GND*
X31750000Y-39250000D03*
D12*
G04 #@! TO.P,RE1,A*
G04 #@! TO.N,encoder1a*
X29250000Y-39250000D03*
G04 #@! TD*
D27*
G04 #@! TO.P,B1,24*
G04 #@! TO.N,RAW*
X43180000Y-26193750D03*
G04 #@! TO.P,B1,23*
G04 #@! TO.N,GND*
X43180000Y-28733750D03*
G04 #@! TO.P,B1,22*
G04 #@! TO.N,Net-(B1-Pad22)*
X43180000Y-31273750D03*
G04 #@! TO.P,B1,21*
G04 #@! TO.N,VCC*
X43180000Y-33813750D03*
G04 #@! TO.P,B1,20*
G04 #@! TO.N,col0*
X43180000Y-36353750D03*
G04 #@! TO.P,B1,19*
G04 #@! TO.N,row0*
X43180000Y-38893750D03*
G04 #@! TO.P,B1,18*
G04 #@! TO.N,encoder1a*
X43180000Y-41433750D03*
G04 #@! TO.P,B1,17*
G04 #@! TO.N,encoder1b*
X43180000Y-43973750D03*
G04 #@! TO.P,B1,16*
G04 #@! TO.N,row2*
X43180000Y-46513750D03*
G04 #@! TO.P,B1,15*
G04 #@! TO.N,row1*
X43180000Y-49053750D03*
G04 #@! TO.P,B1,14*
G04 #@! TO.N,col1*
X43180000Y-51593750D03*
G04 #@! TO.P,B1,13*
G04 #@! TO.N,LEDs*
X43180000Y-54133750D03*
G04 #@! TO.P,B1,12*
G04 #@! TO.N,col3*
X58420000Y-54133750D03*
G04 #@! TO.P,B1,11*
G04 #@! TO.N,row3*
X58420000Y-51593750D03*
G04 #@! TO.P,B1,10*
G04 #@! TO.N,row5*
X58420000Y-49053750D03*
G04 #@! TO.P,B1,9*
G04 #@! TO.N,row4*
X58420000Y-46513750D03*
G04 #@! TO.P,B1,8*
G04 #@! TO.N,encoder2b*
X58420000Y-43973750D03*
G04 #@! TO.P,B1,7*
G04 #@! TO.N,encoder2a*
X58420000Y-41433750D03*
G04 #@! TO.P,B1,6*
G04 #@! TO.N,SCL*
X58420000Y-38893750D03*
G04 #@! TO.P,B1,5*
G04 #@! TO.N,SDA*
X58420000Y-36353750D03*
G04 #@! TO.P,B1,4*
G04 #@! TO.N,GND*
X58420000Y-33813750D03*
G04 #@! TO.P,B1,3*
X58420000Y-31273750D03*
G04 #@! TO.P,B1,2*
G04 #@! TO.N,RGB_leds*
X58420000Y-28733750D03*
G04 #@! TO.P,B1,1*
G04 #@! TO.N,col2*
X58420000Y-26193750D03*
G04 #@! TD*
D28*
G04 #@! TO.N,Net-(B1-Pad22)*
X40767000Y-38354000D03*
G04 #@! TO.N,row1*
X41402000Y-63119000D03*
G04 #@! TO.N,GND*
X62103000Y-56134000D03*
G04 #@! TO.N,LEDs*
X39497000Y-56515000D03*
X41148000Y-61341000D03*
G04 #@! TO.N,VCC*
X25400000Y-42068750D03*
X27168842Y-60143658D03*
X62738000Y-41148000D03*
G04 #@! TD*
D29*
G04 #@! TO.N,Net-(B1-Pad22)*
X40557000Y-37424000D02*
X36957000Y-37424000D01*
X40767000Y-37634000D02*
X40557000Y-37424000D01*
X40767000Y-38354000D02*
X40767000Y-37634000D01*
G04 #@! TO.N,col2*
X67350000Y-25281250D02*
X67350000Y-24750000D01*
G04 #@! TO.N,col0*
X40925750Y-36353750D02*
X43180000Y-36353750D01*
X40767000Y-26751816D02*
X40767000Y-36195000D01*
X31750000Y-25850000D02*
X31750000Y-24435787D01*
X40767000Y-36195000D02*
X40925750Y-36353750D01*
X31750000Y-24435787D02*
X32747927Y-23437860D01*
X39037500Y-25022316D02*
X40767000Y-26751816D01*
X39037500Y-24750000D02*
X39037500Y-25022316D01*
X37725360Y-23437860D02*
X39037500Y-24750000D01*
X32747927Y-23437860D02*
X37725360Y-23437860D01*
G04 #@! TO.N,row2*
X39370000Y-72350000D02*
X58420000Y-72350000D01*
X58420000Y-72350000D02*
X77470000Y-72350000D01*
G04 #@! TO.N,row1*
X46831250Y-42862500D02*
X46900000Y-42862500D01*
X46900000Y-42862500D02*
X46900000Y-44381250D01*
X46900000Y-44381250D02*
X45243750Y-46037500D01*
X45243750Y-46037500D02*
X45243750Y-47625000D01*
X44608750Y-47625000D02*
X43180000Y-49053750D01*
X45243750Y-47625000D02*
X44608750Y-47625000D01*
D30*
X76993750Y-56038750D02*
X77470000Y-55562500D01*
X76993750Y-62706250D02*
X76993750Y-56038750D01*
D29*
X41814750Y-62706250D02*
X41402000Y-63119000D01*
X47625000Y-62706250D02*
X41814750Y-62706250D01*
X54768750Y-61912500D02*
X48418750Y-61912500D01*
X55562500Y-62706250D02*
X54768750Y-61912500D01*
X72231250Y-62706250D02*
X71437500Y-61912500D01*
X48418750Y-61912500D02*
X47625000Y-62706250D01*
X76993750Y-62706250D02*
X72231250Y-62706250D01*
X71437500Y-61912500D02*
X69056250Y-61912500D01*
X69056250Y-61912500D02*
X68262500Y-62706250D01*
X68262500Y-62706250D02*
X55562500Y-62706250D01*
G04 #@! TO.N,row0*
X43180000Y-38893750D02*
X44772750Y-38893750D01*
X48300000Y-41021000D02*
X49902400Y-41021000D01*
X40944809Y-36658559D02*
X43180000Y-38893750D01*
X40378559Y-36658559D02*
X40944809Y-36658559D01*
X39370000Y-35650000D02*
X40378559Y-36658559D01*
X44772750Y-38893750D02*
X45405125Y-39526125D01*
X45405125Y-39526125D02*
X46900000Y-41021000D01*
X50018851Y-38087399D02*
X50888899Y-37217351D01*
X46406271Y-38087399D02*
X50018851Y-38087399D01*
X45405125Y-39526125D02*
X45405125Y-39088545D01*
X50888899Y-37217351D02*
X50888899Y-35694619D01*
X45405125Y-39088545D02*
X46406271Y-38087399D01*
X56676372Y-39119890D02*
X56676372Y-41419356D01*
X50934619Y-35648899D02*
X53205381Y-35648899D01*
X50888899Y-35694619D02*
X50934619Y-35648899D01*
X58062365Y-42805349D02*
X62980725Y-42805349D01*
X53205381Y-35648899D02*
X56676372Y-39119890D01*
X56676372Y-41419356D02*
X58062365Y-42805349D01*
D30*
X77597000Y-35777000D02*
X77470000Y-35650000D01*
D29*
X62980725Y-42805349D02*
X64511074Y-41275000D01*
X77343000Y-41275000D02*
X77343000Y-35777000D01*
X64511074Y-41275000D02*
X77343000Y-41275000D01*
X77343000Y-35777000D02*
X77470000Y-35650000D01*
G04 #@! TO.N,GND*
X41267649Y-23026101D02*
X41260298Y-23018750D01*
D31*
X43180000Y-28733750D02*
X41267649Y-26821399D01*
X41267649Y-23170149D02*
X41116250Y-23018750D01*
X41267649Y-26821399D02*
X41267649Y-23170149D01*
D29*
X41260298Y-23018750D02*
X41116250Y-23018750D01*
D31*
X41116250Y-23018750D02*
X24606250Y-23018750D01*
X31750000Y-39250000D02*
X32886000Y-40386000D01*
X35021605Y-40592901D02*
X35228506Y-40386000D01*
X33605407Y-40592901D02*
X35021605Y-40592901D01*
X32886000Y-40386000D02*
X33398506Y-40386000D01*
X33398506Y-40386000D02*
X33605407Y-40592901D01*
X35228506Y-40386000D02*
X36830000Y-40386000D01*
X36957000Y-40259000D02*
X36830000Y-40386000D01*
X36957000Y-39624000D02*
X36957000Y-40259000D01*
X36957000Y-39624000D02*
X40557000Y-39624000D01*
X33605472Y-34893250D02*
X24606250Y-34893250D01*
X34315401Y-35603179D02*
X33605472Y-34893250D01*
X34315401Y-36982401D02*
X34315401Y-35603179D01*
X36957000Y-39624000D02*
X34315401Y-36982401D01*
X24606250Y-23018750D02*
X24606250Y-34893250D01*
X36957000Y-40259000D02*
X37877750Y-40259000D01*
X37877750Y-40259000D02*
X41275000Y-43656250D01*
X61976000Y-41910000D02*
X61976000Y-37369750D01*
X61976000Y-37369750D02*
X58420000Y-33813750D01*
X69850000Y-40005000D02*
X69088000Y-40767000D01*
X69088000Y-40767000D02*
X64262000Y-40767000D01*
X69850000Y-39250000D02*
X69850000Y-40005000D01*
X63119000Y-41910000D02*
X61976000Y-41910000D01*
X64262000Y-40767000D02*
X63119000Y-41910000D01*
X41275000Y-43656250D02*
X41275000Y-47445000D01*
X41275000Y-47445000D02*
X41402000Y-47572000D01*
X41275000Y-47445000D02*
X41275000Y-54127148D01*
X41275000Y-54127148D02*
X42532426Y-55384574D01*
X40381000Y-57536000D02*
X42532426Y-55384574D01*
X40381000Y-58547000D02*
X40381000Y-57536000D01*
X40635000Y-58801000D02*
X40381000Y-58547000D01*
X42926000Y-58801000D02*
X40635000Y-58801000D01*
X44297852Y-57150000D02*
X42913426Y-55765574D01*
X57396500Y-56134000D02*
X55847099Y-54584599D01*
X42913426Y-55765574D02*
X42532426Y-55384574D01*
X62103000Y-56134000D02*
X57396500Y-56134000D01*
X55847099Y-54584599D02*
X48789907Y-54584599D01*
X48789907Y-54584599D02*
X46224506Y-57150000D01*
X46224506Y-57150000D02*
X44297852Y-57150000D01*
X58420000Y-31273750D02*
X60261500Y-29432250D01*
X60261500Y-29432250D02*
X60261500Y-26289000D01*
X61150500Y-25400000D02*
X61849000Y-25400000D01*
X60261500Y-26289000D02*
X61150500Y-25400000D01*
D29*
G04 #@! TO.N,SDA*
X54776399Y-32710149D02*
X54776399Y-30791931D01*
X54776399Y-30791931D02*
X57251599Y-28316731D01*
X58420000Y-36353750D02*
X54776399Y-32710149D01*
X57251599Y-24515901D02*
X57955000Y-23812500D01*
X57251599Y-28316731D02*
X57251599Y-24515901D01*
D31*
G04 #@! TO.N,SCL*
X45291101Y-23500601D02*
X45412500Y-23622000D01*
D30*
X54451250Y-34925000D02*
X58420000Y-38893750D01*
X53975000Y-34925000D02*
X54451250Y-34925000D01*
X53975000Y-30956250D02*
X53975000Y-34925000D01*
X49262500Y-26243750D02*
X53975000Y-30956250D01*
X49262500Y-26243750D02*
X48849750Y-26243750D01*
X48849750Y-26243750D02*
X47244000Y-24638000D01*
X47244000Y-24638000D02*
X46428500Y-24638000D01*
X46428500Y-24638000D02*
X45412500Y-23622000D01*
D31*
X44262500Y-23622000D02*
X45412500Y-23622000D01*
D29*
X61487149Y-22593399D02*
X63500000Y-24606250D01*
X63500000Y-24606250D02*
X63500000Y-29368750D01*
X63500000Y-29368750D02*
X61993750Y-30875000D01*
X61993750Y-32255250D02*
X61849000Y-32400000D01*
X43891101Y-22593399D02*
X61487149Y-22593399D01*
X42862500Y-23622000D02*
X43891101Y-22593399D01*
X61993750Y-32163750D02*
X61757500Y-32400000D01*
X61993750Y-30875000D02*
X61993750Y-32163750D01*
G04 #@! TO.N,LEDs*
X39497000Y-57531000D02*
X38481000Y-58547000D01*
X39497000Y-56515000D02*
X39497000Y-57531000D01*
X38737500Y-58930500D02*
X41148000Y-61341000D01*
X38737500Y-58825000D02*
X38737500Y-58930500D01*
G04 #@! TO.N,VCC*
X27168842Y-60143658D02*
X27350184Y-60325000D01*
D31*
X24003000Y-43465750D02*
X25400000Y-42068750D01*
X27168842Y-60143658D02*
X26683909Y-60143658D01*
X24003000Y-57462749D02*
X24003000Y-43465750D01*
X26683909Y-60143658D02*
X24003000Y-57462749D01*
X27168842Y-63318658D02*
X24606250Y-65881250D01*
X27168842Y-60143658D02*
X27168842Y-63318658D01*
X24606250Y-65881250D02*
X24606250Y-75406250D01*
X30003750Y-75406250D02*
X30480000Y-74930000D01*
X24606250Y-75406250D02*
X30003750Y-75406250D01*
X73818750Y-73025000D02*
X70485000Y-73025000D01*
X78030972Y-75406250D02*
X76200000Y-75406250D01*
X78612901Y-74824321D02*
X78030972Y-75406250D01*
X70485000Y-73025000D02*
X68580000Y-74930000D01*
X78612901Y-51625401D02*
X78612901Y-74824321D01*
X69056250Y-53975000D02*
X73940494Y-53975000D01*
X76200000Y-75406250D02*
X73818750Y-73025000D01*
X73940494Y-53975000D02*
X76290093Y-51625401D01*
X68580000Y-54451250D02*
X69056250Y-53975000D01*
X68580000Y-55880000D02*
X68580000Y-54451250D01*
X76290093Y-51625401D02*
X78612901Y-51625401D01*
X43180000Y-33813750D02*
X46513750Y-33813750D01*
X46513750Y-33813750D02*
X49530000Y-36830000D01*
X68453000Y-36957000D02*
X68580000Y-36830000D01*
X62738000Y-41148000D02*
X66929000Y-36957000D01*
X66929000Y-36957000D02*
X68453000Y-36957000D01*
X66929000Y-33860250D02*
X66593750Y-33525000D01*
X66929000Y-34071500D02*
X66357500Y-33500000D01*
X66929000Y-36957000D02*
X66929000Y-34071500D01*
D29*
G04 #@! TO.N,LEDsOut*
X31178500Y-58166000D02*
X30400000Y-58166000D01*
X39410083Y-70221399D02*
X38587119Y-70221399D01*
X38587119Y-70221399D02*
X37306250Y-71502268D01*
X37306250Y-71502268D02*
X37306250Y-76993750D01*
X46677750Y-76993750D02*
X46900000Y-77216000D01*
X37306250Y-76993750D02*
X46677750Y-76993750D01*
X37306250Y-76993750D02*
X37306250Y-78581250D01*
X37306250Y-78581250D02*
X28575000Y-78581250D01*
X28575000Y-77941000D02*
X27850000Y-77216000D01*
X28575000Y-78581250D02*
X28575000Y-77941000D01*
X46900000Y-77216000D02*
X46900000Y-78512500D01*
X46900000Y-78512500D02*
X46968750Y-78581250D01*
X64584750Y-78581250D02*
X65950000Y-77216000D01*
X46968750Y-78581250D02*
X64584750Y-78581250D01*
X27850000Y-58166000D02*
X25622250Y-58166000D01*
X25622250Y-58166000D02*
X24606250Y-57150000D01*
X24606250Y-44899750D02*
X27850000Y-41656000D01*
X24606250Y-57150000D02*
X24606250Y-44899750D01*
X65747600Y-58166000D02*
X65950000Y-58166000D01*
X61912500Y-54330900D02*
X65747600Y-58166000D01*
X61912500Y-44450000D02*
X61912500Y-54330900D01*
X48300000Y-39116000D02*
X50228500Y-39116000D01*
X51217119Y-43691101D02*
X54006271Y-43691101D01*
X51171399Y-43645381D02*
X51217119Y-43691101D01*
X50228500Y-39116000D02*
X51171399Y-40058899D01*
X54006271Y-43691101D02*
X55558920Y-45243750D01*
X51171399Y-40058899D02*
X51171399Y-43645381D01*
X55558920Y-45243750D02*
X61912500Y-45243750D01*
X63918000Y-44450000D02*
X65950000Y-42418000D01*
X61912500Y-44450000D02*
X63918000Y-44450000D01*
X61996500Y-58166000D02*
X61737500Y-58425000D01*
X65950000Y-58166000D02*
X61996500Y-58166000D01*
X35718750Y-62706250D02*
X36988750Y-62706250D01*
X41148000Y-64897000D02*
X41148000Y-68834000D01*
X40797482Y-68834000D02*
X39410083Y-70221399D01*
X41148000Y-68834000D02*
X40797482Y-68834000D01*
X46900000Y-59138482D02*
X46900000Y-58166000D01*
X43708881Y-62329601D02*
X46900000Y-59138482D01*
X40213601Y-62329601D02*
X43708881Y-62329601D01*
X39431000Y-61547000D02*
X40213601Y-62329601D01*
X34559500Y-61547000D02*
X34385250Y-61372750D01*
X39431000Y-61547000D02*
X34559500Y-61547000D01*
X35718750Y-62706250D02*
X34385250Y-61372750D01*
X34385250Y-61372750D02*
X31178500Y-58166000D01*
X41148000Y-64897000D02*
X40259000Y-64897000D01*
X40259000Y-64897000D02*
X38989000Y-63627000D01*
X37909500Y-63627000D02*
X36988750Y-62706250D01*
X38989000Y-63627000D02*
X37909500Y-63627000D01*
G04 #@! TO.N,Net-(MX2-Pad4)*
X52070000Y-39036000D02*
X52150000Y-39116000D01*
X52070000Y-36830000D02*
X52070000Y-39036000D01*
G04 #@! TO.N,Net-(MX4-Pad4)*
X33020000Y-58086000D02*
X33100000Y-58166000D01*
X33020000Y-55880000D02*
X33020000Y-58086000D01*
G04 #@! TO.N,Net-(MX5-Pad4)*
X52070000Y-58086000D02*
X52150000Y-58166000D01*
X52070000Y-55880000D02*
X52070000Y-58086000D01*
G04 #@! TO.N,Net-(MX6-Pad4)*
X71120000Y-58086000D02*
X71200000Y-58166000D01*
X71120000Y-55880000D02*
X71120000Y-58086000D01*
G04 #@! TO.N,Net-(MX7-Pad4)*
X33020000Y-77136000D02*
X33100000Y-77216000D01*
X33020000Y-74930000D02*
X33020000Y-77136000D01*
G04 #@! TO.N,Net-(MX8-Pad4)*
X52070000Y-77136000D02*
X52150000Y-77216000D01*
X52070000Y-74930000D02*
X52070000Y-77136000D01*
G04 #@! TO.N,Net-(MX9-Pad4)*
X71120000Y-77136000D02*
X71200000Y-77216000D01*
X71120000Y-74930000D02*
X71120000Y-77136000D01*
G04 #@! TD*
M02*
