G04 #@! TF.GenerationSoftware,KiCad,Pcbnew,(5.1.9)-1*
G04 #@! TF.CreationDate,2021-05-27T00:57:22-06:00*
G04 #@! TF.ProjectId,cga_proto_boards_top,6367615f-7072-46f7-946f-5f626f617264,rev?*
G04 #@! TF.SameCoordinates,Original*
G04 #@! TF.FileFunction,Copper,L1,Top*
G04 #@! TF.FilePolarity,Positive*
%FSLAX46Y46*%
G04 Gerber Fmt 4.6, Leading zero omitted, Abs format (unit mm)*
G04 Created by KiCad (PCBNEW (5.1.9)-1) date 2021-05-27 00:57:22*
%MOMM*%
%LPD*%
G01*
G04 APERTURE LIST*
G04 #@! TA.AperFunction,SMDPad,CuDef*
%ADD10R,0.500000X2.900000*%
G04 #@! TD*
G04 #@! TA.AperFunction,ComponentPad*
%ADD11C,1.600000*%
G04 #@! TD*
G04 #@! TA.AperFunction,SMDPad,CuDef*
%ADD12R,1.200000X1.500000*%
G04 #@! TD*
G04 #@! TA.AperFunction,ComponentPad*
%ADD13C,2.100000*%
G04 #@! TD*
G04 #@! TA.AperFunction,ComponentPad*
%ADD14C,1.750000*%
G04 #@! TD*
G04 #@! TA.AperFunction,ComponentPad*
%ADD15O,1.600000X2.200000*%
G04 #@! TD*
G04 #@! TA.AperFunction,ComponentPad*
%ADD16C,0.700000*%
G04 #@! TD*
G04 #@! TA.AperFunction,ComponentPad*
%ADD17C,4.400000*%
G04 #@! TD*
G04 #@! TA.AperFunction,SMDPad,CuDef*
%ADD18R,0.700000X1.500000*%
G04 #@! TD*
G04 #@! TA.AperFunction,ComponentPad*
%ADD19C,0.400000*%
G04 #@! TD*
G04 #@! TA.AperFunction,ComponentPad*
%ADD20C,1.752600*%
G04 #@! TD*
G04 #@! TA.AperFunction,SMDPad,CuDef*
%ADD21R,0.800000X1.900000*%
G04 #@! TD*
G04 #@! TA.AperFunction,ComponentPad*
%ADD22R,1.752600X1.752600*%
G04 #@! TD*
G04 #@! TA.AperFunction,ComponentPad*
%ADD23O,1.700000X1.700000*%
G04 #@! TD*
G04 #@! TA.AperFunction,ComponentPad*
%ADD24C,1.700000*%
G04 #@! TD*
G04 #@! TA.AperFunction,ComponentPad*
%ADD25R,1.700000X1.700000*%
G04 #@! TD*
G04 #@! TA.AperFunction,ViaPad*
%ADD26C,0.800000*%
G04 #@! TD*
G04 #@! TA.AperFunction,Conductor*
%ADD27C,0.250000*%
G04 #@! TD*
G04 #@! TA.AperFunction,Conductor*
%ADD28C,0.254000*%
G04 #@! TD*
G04 #@! TA.AperFunction,Conductor*
%ADD29C,0.100000*%
G04 #@! TD*
G04 APERTURE END LIST*
D10*
G04 #@! TO.P,RT2,1*
G04 #@! TO.N,VCC*
X61722000Y-75652000D03*
G04 #@! TO.P,RT2,2*
G04 #@! TO.N,TRRS1*
X61722000Y-70652000D03*
D11*
G04 #@! TO.P,RT2,1*
G04 #@! TO.N,VCC*
X61722000Y-77052000D03*
G04 #@! TO.P,RT2,2*
G04 #@! TO.N,TRRS1*
X61722000Y-69252000D03*
D12*
X61722000Y-71802000D03*
G04 #@! TO.P,RT2,1*
G04 #@! TO.N,VCC*
X61722000Y-74502000D03*
G04 #@! TD*
D10*
G04 #@! TO.P,RT1,1*
G04 #@! TO.N,VCC*
X64293750Y-75652000D03*
G04 #@! TO.P,RT1,2*
G04 #@! TO.N,TRRS2*
X64293750Y-70652000D03*
D11*
G04 #@! TO.P,RT1,1*
G04 #@! TO.N,VCC*
X64293750Y-77052000D03*
G04 #@! TO.P,RT1,2*
G04 #@! TO.N,TRRS2*
X64293750Y-69252000D03*
D12*
X64293750Y-71802000D03*
G04 #@! TO.P,RT1,1*
G04 #@! TO.N,VCC*
X64293750Y-74502000D03*
G04 #@! TD*
D10*
G04 #@! TO.P,RQ1,1*
G04 #@! TO.N,LEDs*
X28829000Y-65206250D03*
G04 #@! TO.P,RQ1,2*
G04 #@! TO.N,GND*
X28829000Y-60206250D03*
D11*
G04 #@! TO.P,RQ1,1*
G04 #@! TO.N,LEDs*
X28829000Y-66606250D03*
G04 #@! TO.P,RQ1,2*
G04 #@! TO.N,GND*
X28829000Y-58806250D03*
D12*
X28829000Y-61356250D03*
G04 #@! TO.P,RQ1,1*
G04 #@! TO.N,LEDs*
X28829000Y-64056250D03*
G04 #@! TD*
D13*
G04 #@! TO.P,Reset,*
G04 #@! TO.N,*
X48403000Y-56973000D03*
D14*
G04 #@! TO.P,Reset,1*
G04 #@! TO.N,RESET*
X49403000Y-54483000D03*
G04 #@! TO.P,Reset,2*
G04 #@! TO.N,GND*
X54403000Y-54483000D03*
D13*
G04 #@! TO.P,Reset,*
G04 #@! TO.N,*
X55413000Y-56973000D03*
G04 #@! TD*
D15*
G04 #@! TO.P,T1,3*
G04 #@! TO.N,GND*
X62484000Y-57889000D03*
G04 #@! TO.P,T1,4*
G04 #@! TO.N,VCC*
X62484000Y-54889000D03*
G04 #@! TO.P,T1,2*
G04 #@! TO.N,TRRS2*
X62484000Y-61889000D03*
G04 #@! TO.P,T1,1*
G04 #@! TO.N,TRRS1*
X57884000Y-62989000D03*
X67084000Y-62989000D03*
G04 #@! TD*
D16*
G04 #@! TO.P,Screw4,1*
G04 #@! TO.N,GND*
X18629226Y-53602024D03*
X17462500Y-53118750D03*
X16295774Y-53602024D03*
X15812500Y-54768750D03*
X16295774Y-55935476D03*
X17462500Y-56418750D03*
X18629226Y-55935476D03*
X19112500Y-54768750D03*
D17*
X17462500Y-54768750D03*
G04 #@! TD*
G04 #@! TO.P,Screw1,1*
G04 #@! TO.N,GND*
X17462500Y-86518750D03*
D16*
X19112500Y-86518750D03*
X18629226Y-87685476D03*
X17462500Y-88168750D03*
X16295774Y-87685476D03*
X15812500Y-86518750D03*
X16295774Y-85352024D03*
X17462500Y-84868750D03*
X18629226Y-85352024D03*
G04 #@! TD*
G04 #@! TO.P,Screw2,1*
G04 #@! TO.N,GND*
X75779226Y-85352024D03*
X74612500Y-84868750D03*
X73445774Y-85352024D03*
X72962500Y-86518750D03*
X73445774Y-87685476D03*
X74612500Y-88168750D03*
X75779226Y-87685476D03*
X76262500Y-86518750D03*
D17*
X74612500Y-86518750D03*
G04 #@! TD*
G04 #@! TO.P,Screw3,1*
G04 #@! TO.N,GND*
X74612500Y-65881250D03*
D16*
X76262500Y-65881250D03*
X75779226Y-67047976D03*
X74612500Y-67531250D03*
X73445774Y-67047976D03*
X72962500Y-65881250D03*
X73445774Y-64714524D03*
X74612500Y-64231250D03*
X75779226Y-64714524D03*
G04 #@! TD*
D18*
G04 #@! TO.P,J2,3*
G04 #@! TO.N,TX*
X66374000Y-67183000D03*
G04 #@! TO.P,J2,2*
G04 #@! TO.N,TRRS2*
X65474000Y-67183000D03*
G04 #@! TO.P,J2,1*
G04 #@! TO.N,SDA*
X64574000Y-67183000D03*
D19*
G04 #@! TO.P,J2,3*
G04 #@! TO.N,TX*
X66374000Y-67183000D03*
G04 #@! TO.P,J2,2*
G04 #@! TO.N,TRRS2*
X65474000Y-67183000D03*
G04 #@! TO.P,J2,1*
G04 #@! TO.N,SDA*
X64574000Y-67183000D03*
G04 #@! TD*
D18*
G04 #@! TO.P,J1,3*
G04 #@! TO.N,RX*
X60336000Y-67183000D03*
G04 #@! TO.P,J1,2*
G04 #@! TO.N,TRRS1*
X59436000Y-67183000D03*
G04 #@! TO.P,J1,1*
G04 #@! TO.N,SCL*
X58536000Y-67183000D03*
D19*
G04 #@! TO.P,J1,3*
G04 #@! TO.N,RX*
X60336000Y-67183000D03*
G04 #@! TO.P,J1,2*
G04 #@! TO.N,TRRS1*
X59436000Y-67183000D03*
G04 #@! TO.P,J1,1*
G04 #@! TO.N,SCL*
X58536000Y-67183000D03*
G04 #@! TD*
D20*
G04 #@! TO.P,H3,1*
G04 #@! TO.N,VCC*
X61690250Y-86550500D03*
G04 #@! TD*
G04 #@! TO.P,H2,1*
G04 #@! TO.N,GND*
X57721500Y-86550500D03*
G04 #@! TD*
G04 #@! TO.P,H1,1*
G04 #@! TO.N,LEDsOut*
X53752750Y-86550500D03*
G04 #@! TD*
D21*
G04 #@! TO.P,Q2,3*
G04 #@! TO.N,LEDsOut*
X35083750Y-61190000D03*
G04 #@! TO.P,Q2,2*
G04 #@! TO.N,GND*
X34133750Y-58190000D03*
G04 #@! TO.P,Q2,1*
G04 #@! TO.N,LEDs*
X36033750Y-58190000D03*
G04 #@! TD*
D20*
G04 #@! TO.P,U1,25*
G04 #@! TO.N,LEDs*
X28797250Y-83794600D03*
G04 #@! TO.P,U1,26*
G04 #@! TO.N,encoder1a*
X31337250Y-83337400D03*
G04 #@! TO.P,U1,27*
G04 #@! TO.N,encoder1b*
X33877250Y-83794600D03*
G04 #@! TO.P,U1,28*
G04 #@! TO.N,encoder2a*
X36417250Y-83337400D03*
G04 #@! TO.P,U1,29*
G04 #@! TO.N,encoder2b*
X38957250Y-83794600D03*
G04 #@! TO.P,U1,24*
G04 #@! TO.N,Net-(U1-Pad24)*
X41725850Y-55626000D03*
G04 #@! TO.P,U1,12*
G04 #@! TO.N,RGB*
X26485850Y-83566000D03*
G04 #@! TO.P,U1,23*
G04 #@! TO.N,GND*
X41268650Y-58166000D03*
G04 #@! TO.P,U1,22*
G04 #@! TO.N,RESET*
X41725850Y-60706000D03*
G04 #@! TO.P,U1,21*
G04 #@! TO.N,VCC*
X41268650Y-63246000D03*
G04 #@! TO.P,U1,20*
G04 #@! TO.N,col0*
X41725850Y-65786000D03*
G04 #@! TO.P,U1,19*
G04 #@! TO.N,col1*
X41268650Y-68326000D03*
G04 #@! TO.P,U1,18*
G04 #@! TO.N,col2*
X41725850Y-70866000D03*
G04 #@! TO.P,U1,17*
G04 #@! TO.N,col3*
X41268650Y-73406000D03*
G04 #@! TO.P,U1,16*
G04 #@! TO.N,col4*
X41725850Y-75946000D03*
G04 #@! TO.P,U1,15*
G04 #@! TO.N,col5*
X41268650Y-78486000D03*
G04 #@! TO.P,U1,14*
G04 #@! TO.N,col6*
X41725850Y-81026000D03*
G04 #@! TO.P,U1,13*
G04 #@! TO.N,col7*
X41268650Y-83566000D03*
G04 #@! TO.P,U1,11*
G04 #@! TO.N,row4*
X26028650Y-81026000D03*
G04 #@! TO.P,U1,10*
G04 #@! TO.N,row3*
X26485850Y-78486000D03*
G04 #@! TO.P,U1,9*
G04 #@! TO.N,row2*
X26028650Y-75946000D03*
G04 #@! TO.P,U1,8*
G04 #@! TO.N,row1*
X26485850Y-73406000D03*
G04 #@! TO.P,U1,7*
G04 #@! TO.N,row0*
X26028650Y-70866000D03*
G04 #@! TO.P,U1,6*
G04 #@! TO.N,SCL*
X26485850Y-68326000D03*
G04 #@! TO.P,U1,5*
G04 #@! TO.N,SDA*
X26028650Y-65786000D03*
G04 #@! TO.P,U1,4*
G04 #@! TO.N,GND*
X26485850Y-63246000D03*
G04 #@! TO.P,U1,3*
X26028650Y-60706000D03*
G04 #@! TO.P,U1,2*
G04 #@! TO.N,RX*
X26485850Y-58166000D03*
D22*
G04 #@! TO.P,U1,1*
G04 #@! TO.N,TX*
X26028650Y-55626000D03*
G04 #@! TD*
D23*
G04 #@! TO.P,O2,4*
G04 #@! TO.N,SDA*
X73914000Y-61595000D03*
G04 #@! TO.P,O2,3*
G04 #@! TO.N,SCL*
X73914000Y-59055000D03*
G04 #@! TO.P,O2,2*
G04 #@! TO.N,VCC*
X73914000Y-56515000D03*
D24*
G04 #@! TO.P,O2,1*
G04 #@! TO.N,GND*
X73914000Y-53975000D03*
G04 #@! TD*
D23*
G04 #@! TO.P,O1,4*
G04 #@! TO.N,SDA*
X70104000Y-53975000D03*
G04 #@! TO.P,O1,3*
G04 #@! TO.N,SCL*
X70104000Y-56515000D03*
G04 #@! TO.P,O1,2*
G04 #@! TO.N,VCC*
X70104000Y-59055000D03*
D24*
G04 #@! TO.P,O1,1*
G04 #@! TO.N,GND*
X70104000Y-61595000D03*
G04 #@! TD*
D23*
G04 #@! TO.P,Cs2,9*
G04 #@! TO.N,col4*
X44824650Y-78309000D03*
G04 #@! TO.P,Cs2,12*
G04 #@! TO.N,col7*
X45281850Y-85929000D03*
D24*
G04 #@! TO.P,Cs2,7*
G04 #@! TO.N,col2*
X44824650Y-73229000D03*
D23*
G04 #@! TO.P,Cs2,11*
G04 #@! TO.N,col6*
X44824650Y-83389000D03*
G04 #@! TO.P,Cs2,8*
G04 #@! TO.N,col3*
X45281850Y-75769000D03*
G04 #@! TO.P,Cs2,10*
G04 #@! TO.N,col5*
X45281850Y-80849000D03*
G04 #@! TO.P,Cs2,6*
G04 #@! TO.N,col1*
X45281850Y-70739000D03*
G04 #@! TO.P,Cs2,5*
G04 #@! TO.N,col0*
X44824650Y-68199000D03*
G04 #@! TO.P,Cs2,4*
G04 #@! TO.N,VCC*
X45281850Y-65659000D03*
G04 #@! TO.P,Cs2,3*
G04 #@! TO.N,RESET*
X44824650Y-63119000D03*
G04 #@! TO.P,Cs2,2*
G04 #@! TO.N,GND*
X45281850Y-60579000D03*
D25*
G04 #@! TO.P,Cs2,1*
G04 #@! TO.N,Net-(Cs2-Pad1)*
X44824650Y-58039000D03*
G04 #@! TD*
D23*
G04 #@! TO.P,Cs1,9*
G04 #@! TO.N,row2*
X22472650Y-78309000D03*
G04 #@! TO.P,Cs1,12*
G04 #@! TO.N,RGB*
X22929850Y-85929000D03*
D24*
G04 #@! TO.P,Cs1,7*
G04 #@! TO.N,row0*
X22472650Y-73229000D03*
D23*
G04 #@! TO.P,Cs1,11*
G04 #@! TO.N,row4*
X22472650Y-83389000D03*
G04 #@! TO.P,Cs1,8*
G04 #@! TO.N,row1*
X22929850Y-75769000D03*
G04 #@! TO.P,Cs1,10*
G04 #@! TO.N,row3*
X22929850Y-80849000D03*
G04 #@! TO.P,Cs1,6*
G04 #@! TO.N,SCL*
X22929850Y-70739000D03*
G04 #@! TO.P,Cs1,5*
G04 #@! TO.N,SDA*
X22472650Y-68199000D03*
G04 #@! TO.P,Cs1,4*
G04 #@! TO.N,GND*
X22929850Y-65659000D03*
G04 #@! TO.P,Cs1,3*
X22472650Y-63119000D03*
G04 #@! TO.P,Cs1,2*
G04 #@! TO.N,RX*
X22929850Y-60579000D03*
D25*
G04 #@! TO.P,Cs1,1*
G04 #@! TO.N,TX*
X22472650Y-58039000D03*
G04 #@! TD*
D23*
G04 #@! TO.P,Cb1,5*
G04 #@! TO.N,encoder2b*
X38893750Y-87350600D03*
G04 #@! TO.P,Cb1,4*
G04 #@! TO.N,encoder2a*
X36353750Y-86893400D03*
G04 #@! TO.P,Cb1,3*
G04 #@! TO.N,encoder1b*
X33813750Y-87350600D03*
G04 #@! TO.P,Cb1,2*
G04 #@! TO.N,encoder1a*
X31273750Y-86893400D03*
D24*
G04 #@! TO.P,Cb1,1*
G04 #@! TO.N,LEDs*
X28733750Y-87350600D03*
G04 #@! TD*
D26*
G04 #@! TO.N,GND*
X31750000Y-62706250D03*
X63500000Y-79375000D03*
X69056250Y-65087500D03*
X62706250Y-65087500D03*
G04 #@! TO.N,LEDsOut*
X35718750Y-56356250D03*
G04 #@! TD*
D27*
G04 #@! TO.N,encoder2b*
X38957250Y-87287100D02*
X38893750Y-87350600D01*
X38957250Y-83794600D02*
X38957250Y-87287100D01*
G04 #@! TO.N,encoder2a*
X36417250Y-86829900D02*
X36353750Y-86893400D01*
X36417250Y-83337400D02*
X36417250Y-86829900D01*
G04 #@! TO.N,encoder1b*
X33877250Y-87287100D02*
X33813750Y-87350600D01*
X33877250Y-83794600D02*
X33877250Y-87287100D01*
G04 #@! TO.N,encoder1a*
X31337250Y-86829900D02*
X31273750Y-86893400D01*
X31337250Y-83337400D02*
X31337250Y-86829900D01*
G04 #@! TO.N,LEDs*
X28797250Y-87287100D02*
X28733750Y-87350600D01*
X28797250Y-83794600D02*
X28797250Y-87287100D01*
X28797250Y-66638000D02*
X28829000Y-66606250D01*
X28797250Y-83794600D02*
X28797250Y-66638000D01*
X28829000Y-66606250D02*
X33406250Y-66606250D01*
X36033750Y-63978750D02*
X36033750Y-58190000D01*
X33406250Y-66606250D02*
X36033750Y-63978750D01*
G04 #@! TO.N,row2*
X23665650Y-78309000D02*
X22472650Y-78309000D01*
X26028650Y-75946000D02*
X23665650Y-78309000D01*
G04 #@! TO.N,RGB*
X24122850Y-85929000D02*
X22929850Y-85929000D01*
X26485850Y-83566000D02*
X24122850Y-85929000D01*
G04 #@! TO.N,row0*
X23665650Y-73229000D02*
X22472650Y-73229000D01*
X26028650Y-70866000D02*
X23665650Y-73229000D01*
G04 #@! TO.N,row4*
X23665650Y-83389000D02*
X22472650Y-83389000D01*
X26028650Y-81026000D02*
X23665650Y-83389000D01*
G04 #@! TO.N,row1*
X24122850Y-75769000D02*
X22929850Y-75769000D01*
X26485850Y-73406000D02*
X24122850Y-75769000D01*
G04 #@! TO.N,row3*
X24122850Y-80849000D02*
X22929850Y-80849000D01*
X26485850Y-78486000D02*
X24122850Y-80849000D01*
G04 #@! TO.N,SCL*
X24072850Y-70739000D02*
X22929850Y-70739000D01*
X26485850Y-68326000D02*
X24072850Y-70739000D01*
X73914000Y-59524002D02*
X73914000Y-59055000D01*
G04 #@! TO.N,SDA*
X23615650Y-68199000D02*
X22472650Y-68199000D01*
X26028650Y-65786000D02*
X23615650Y-68199000D01*
X20637500Y-70034150D02*
X22472650Y-68199000D01*
X20637500Y-86518750D02*
X20637500Y-70034150D01*
X23018750Y-88900000D02*
X20637500Y-86518750D01*
X66179749Y-71139001D02*
X66179749Y-85426501D01*
X66179749Y-85426501D02*
X62706250Y-88900000D01*
X62706250Y-88900000D02*
X23018750Y-88900000D01*
X71437500Y-64071500D02*
X73914000Y-61595000D01*
X71437500Y-65881250D02*
X71437500Y-64071500D01*
X66179749Y-71139001D02*
X71437500Y-65881250D01*
X64574000Y-67867248D02*
X64574000Y-67183000D01*
X66179749Y-69472997D02*
X64574000Y-67867248D01*
X66179749Y-71139001D02*
X66179749Y-69472997D01*
G04 #@! TO.N,GND*
X27928400Y-58806250D02*
X28829000Y-58806250D01*
X26028650Y-60706000D02*
X27928400Y-58806250D01*
G04 #@! TO.N,TRRS1*
X57929750Y-62989000D02*
X58154760Y-63214010D01*
X57929750Y-64703000D02*
X57929750Y-62989000D01*
X59409750Y-66183000D02*
X57929750Y-64703000D01*
X59409750Y-67183000D02*
X59409750Y-66183000D01*
X66758990Y-63314010D02*
X67084000Y-62989000D01*
X58209010Y-63314010D02*
X66758990Y-63314010D01*
X57884000Y-62989000D02*
X58209010Y-63314010D01*
G04 #@! TO.N,col4*
X44088850Y-78309000D02*
X44824650Y-78309000D01*
X41725850Y-75946000D02*
X44088850Y-78309000D01*
G04 #@! TO.N,col7*
X42918850Y-83566000D02*
X45281850Y-85929000D01*
X41268650Y-83566000D02*
X42918850Y-83566000D01*
G04 #@! TO.N,col2*
X44088850Y-73229000D02*
X44824650Y-73229000D01*
X41725850Y-70866000D02*
X44088850Y-73229000D01*
G04 #@! TO.N,col6*
X44088850Y-83389000D02*
X44824650Y-83389000D01*
X41725850Y-81026000D02*
X44088850Y-83389000D01*
G04 #@! TO.N,col3*
X42918850Y-73406000D02*
X45281850Y-75769000D01*
X41268650Y-73406000D02*
X42918850Y-73406000D01*
G04 #@! TO.N,col5*
X42918850Y-78486000D02*
X45281850Y-80849000D01*
X41268650Y-78486000D02*
X42918850Y-78486000D01*
G04 #@! TO.N,col1*
X42868850Y-68326000D02*
X45281850Y-70739000D01*
X41268650Y-68326000D02*
X42868850Y-68326000D01*
G04 #@! TO.N,col0*
X44138850Y-68199000D02*
X44824650Y-68199000D01*
X41725850Y-65786000D02*
X44138850Y-68199000D01*
G04 #@! TO.N,VCC*
X42868850Y-63246000D02*
X45281850Y-65659000D01*
X41268650Y-63246000D02*
X42868850Y-63246000D01*
X61722000Y-77052000D02*
X64293750Y-77052000D01*
X66695750Y-59055000D02*
X62529750Y-54889000D01*
X70104000Y-59055000D02*
X66695750Y-59055000D01*
X61722000Y-86518750D02*
X61690250Y-86550500D01*
X61722000Y-77052000D02*
X61722000Y-86518750D01*
X56674850Y-77052000D02*
X45281850Y-65659000D01*
X61722000Y-77052000D02*
X56674850Y-77052000D01*
X45281850Y-65659000D02*
X49028350Y-61912500D01*
X55446500Y-61912500D02*
X62470000Y-54889000D01*
X49028350Y-61912500D02*
X55446500Y-61912500D01*
X71374000Y-59055000D02*
X73914000Y-56515000D01*
X70104000Y-59055000D02*
X71374000Y-59055000D01*
G04 #@! TO.N,RESET*
X44138850Y-63119000D02*
X44824650Y-63119000D01*
X41725850Y-60706000D02*
X44138850Y-63119000D01*
X44824650Y-63119000D02*
X46418500Y-63119000D01*
X50277999Y-55357999D02*
X49403000Y-54483000D01*
X50277999Y-59259501D02*
X50277999Y-55357999D01*
X46418500Y-63119000D02*
X50277999Y-59259501D01*
G04 #@! TO.N,LEDsOut*
X35718750Y-56569998D02*
X35718750Y-56356250D01*
X35083750Y-57204998D02*
X35718750Y-56569998D01*
X35083750Y-61190000D02*
X35083750Y-57204998D01*
G04 #@! TO.N,RX*
X24072850Y-60579000D02*
X22929850Y-60579000D01*
X26485850Y-58166000D02*
X24072850Y-60579000D01*
G04 #@! TO.N,TX*
X26028650Y-55626000D02*
X26028650Y-55727600D01*
X23717250Y-58039000D02*
X22472650Y-58039000D01*
X26028650Y-55727600D02*
X23717250Y-58039000D01*
G04 #@! TD*
D28*
G04 #@! TO.N,GND*
X76379538Y-52274519D02*
X76552237Y-52326660D01*
X76711518Y-52411352D01*
X76851319Y-52525369D01*
X76966308Y-52664367D01*
X77052110Y-52823055D01*
X77105455Y-52995385D01*
X77127500Y-53205130D01*
X77127500Y-64569372D01*
X76989518Y-64311226D01*
X76602275Y-64071080D01*
X74792105Y-65881250D01*
X76602275Y-67691420D01*
X76989518Y-67451274D01*
X77127500Y-67189787D01*
X77127501Y-85206873D01*
X76989518Y-84948726D01*
X76602275Y-84708580D01*
X74792105Y-86518750D01*
X76602275Y-88328920D01*
X76989518Y-88088774D01*
X77127501Y-87827285D01*
X77127501Y-88073960D01*
X77106731Y-88285788D01*
X77054591Y-88458486D01*
X76969899Y-88617768D01*
X76855878Y-88757571D01*
X76716885Y-88872556D01*
X76558195Y-88958360D01*
X76385865Y-89011705D01*
X76176119Y-89033750D01*
X75924379Y-89033750D01*
X76182524Y-88895768D01*
X76422670Y-88508525D01*
X74612500Y-86698355D01*
X72802330Y-88508525D01*
X73042476Y-88895768D01*
X73303963Y-89033750D01*
X63647301Y-89033750D01*
X66147128Y-86533924D01*
X71763822Y-86533924D01*
X71821519Y-87089382D01*
X71986472Y-87622911D01*
X72235482Y-88088774D01*
X72622725Y-88328920D01*
X74432895Y-86518750D01*
X72622725Y-84708580D01*
X72235482Y-84948726D01*
X71974859Y-85442627D01*
X71815599Y-85977883D01*
X71763822Y-86533924D01*
X66147128Y-86533924D01*
X66690757Y-85990296D01*
X66719750Y-85966502D01*
X66743544Y-85937509D01*
X66743548Y-85937505D01*
X66811616Y-85854563D01*
X66814723Y-85850777D01*
X66885295Y-85718748D01*
X66928752Y-85575487D01*
X66939749Y-85463834D01*
X66939749Y-85463825D01*
X66943425Y-85426502D01*
X66939749Y-85389179D01*
X66939749Y-84528975D01*
X72802330Y-84528975D01*
X74612500Y-86339145D01*
X76422670Y-84528975D01*
X76182524Y-84141732D01*
X75688623Y-83881109D01*
X75153367Y-83721849D01*
X74597326Y-83670072D01*
X74041868Y-83727769D01*
X73508339Y-83892722D01*
X73042476Y-84141732D01*
X72802330Y-84528975D01*
X66939749Y-84528975D01*
X66939749Y-71453802D01*
X70522526Y-67871025D01*
X72802330Y-67871025D01*
X73042476Y-68258268D01*
X73536377Y-68518891D01*
X74071633Y-68678151D01*
X74627674Y-68729928D01*
X75183132Y-68672231D01*
X75716661Y-68507278D01*
X76182524Y-68258268D01*
X76422670Y-67871025D01*
X74612500Y-66060855D01*
X72802330Y-67871025D01*
X70522526Y-67871025D01*
X71849894Y-66543658D01*
X71986472Y-66985411D01*
X72235482Y-67451274D01*
X72622725Y-67691420D01*
X74432895Y-65881250D01*
X74418753Y-65867108D01*
X74598358Y-65687503D01*
X74612500Y-65701645D01*
X76422670Y-63891475D01*
X76182524Y-63504232D01*
X75688623Y-63243609D01*
X75153367Y-63084349D01*
X74597326Y-63032572D01*
X74041868Y-63090269D01*
X73508339Y-63255222D01*
X73122163Y-63461638D01*
X73547592Y-63036210D01*
X73767740Y-63080000D01*
X74060260Y-63080000D01*
X74347158Y-63022932D01*
X74617411Y-62910990D01*
X74860632Y-62748475D01*
X75067475Y-62541632D01*
X75229990Y-62298411D01*
X75341932Y-62028158D01*
X75399000Y-61741260D01*
X75399000Y-61448740D01*
X75341932Y-61161842D01*
X75229990Y-60891589D01*
X75067475Y-60648368D01*
X74860632Y-60441525D01*
X74686240Y-60325000D01*
X74860632Y-60208475D01*
X75067475Y-60001632D01*
X75229990Y-59758411D01*
X75341932Y-59488158D01*
X75399000Y-59201260D01*
X75399000Y-58908740D01*
X75341932Y-58621842D01*
X75229990Y-58351589D01*
X75067475Y-58108368D01*
X74860632Y-57901525D01*
X74686240Y-57785000D01*
X74860632Y-57668475D01*
X75067475Y-57461632D01*
X75229990Y-57218411D01*
X75341932Y-56948158D01*
X75399000Y-56661260D01*
X75399000Y-56368740D01*
X75341932Y-56081842D01*
X75229990Y-55811589D01*
X75067475Y-55568368D01*
X74860632Y-55361525D01*
X74687271Y-55245689D01*
X74762792Y-55003397D01*
X73914000Y-54154605D01*
X73065208Y-55003397D01*
X73140729Y-55245689D01*
X72967368Y-55361525D01*
X72760525Y-55568368D01*
X72598010Y-55811589D01*
X72486068Y-56081842D01*
X72429000Y-56368740D01*
X72429000Y-56661260D01*
X72472790Y-56881407D01*
X71251653Y-58102546D01*
X71050632Y-57901525D01*
X70876240Y-57785000D01*
X71050632Y-57668475D01*
X71257475Y-57461632D01*
X71419990Y-57218411D01*
X71531932Y-56948158D01*
X71589000Y-56661260D01*
X71589000Y-56368740D01*
X71531932Y-56081842D01*
X71419990Y-55811589D01*
X71257475Y-55568368D01*
X71050632Y-55361525D01*
X70876240Y-55245000D01*
X71050632Y-55128475D01*
X71257475Y-54921632D01*
X71419990Y-54678411D01*
X71531932Y-54408158D01*
X71589000Y-54121260D01*
X71589000Y-54043531D01*
X72423389Y-54043531D01*
X72465401Y-54333019D01*
X72563081Y-54608747D01*
X72636528Y-54746157D01*
X72885603Y-54823792D01*
X73734395Y-53975000D01*
X74093605Y-53975000D01*
X74942397Y-54823792D01*
X75191472Y-54746157D01*
X75317371Y-54482117D01*
X75389339Y-54198589D01*
X75404611Y-53906469D01*
X75362599Y-53616981D01*
X75264919Y-53341253D01*
X75191472Y-53203843D01*
X74942397Y-53126208D01*
X74093605Y-53975000D01*
X73734395Y-53975000D01*
X72885603Y-53126208D01*
X72636528Y-53203843D01*
X72510629Y-53467883D01*
X72438661Y-53751411D01*
X72423389Y-54043531D01*
X71589000Y-54043531D01*
X71589000Y-53828740D01*
X71531932Y-53541842D01*
X71419990Y-53271589D01*
X71257475Y-53028368D01*
X71175710Y-52946603D01*
X73065208Y-52946603D01*
X73914000Y-53795395D01*
X74762792Y-52946603D01*
X74685157Y-52697528D01*
X74421117Y-52571629D01*
X74137589Y-52499661D01*
X73845469Y-52484389D01*
X73555981Y-52526401D01*
X73280253Y-52624081D01*
X73142843Y-52697528D01*
X73065208Y-52946603D01*
X71175710Y-52946603D01*
X71050632Y-52821525D01*
X70807411Y-52659010D01*
X70537158Y-52547068D01*
X70250260Y-52490000D01*
X69957740Y-52490000D01*
X69670842Y-52547068D01*
X69400589Y-52659010D01*
X69157368Y-52821525D01*
X68950525Y-53028368D01*
X68788010Y-53271589D01*
X68676068Y-53541842D01*
X68619000Y-53828740D01*
X68619000Y-54121260D01*
X68676068Y-54408158D01*
X68788010Y-54678411D01*
X68950525Y-54921632D01*
X69157368Y-55128475D01*
X69331760Y-55245000D01*
X69157368Y-55361525D01*
X68950525Y-55568368D01*
X68788010Y-55811589D01*
X68676068Y-56081842D01*
X68619000Y-56368740D01*
X68619000Y-56661260D01*
X68676068Y-56948158D01*
X68788010Y-57218411D01*
X68950525Y-57461632D01*
X69157368Y-57668475D01*
X69331760Y-57785000D01*
X69157368Y-57901525D01*
X68950525Y-58108368D01*
X68825822Y-58295000D01*
X67010552Y-58295000D01*
X63919000Y-55203449D01*
X63919000Y-54518508D01*
X63904054Y-54366764D01*
X64127957Y-54516371D01*
X64380011Y-54620775D01*
X64647589Y-54674000D01*
X64920411Y-54674000D01*
X65187989Y-54620775D01*
X65440043Y-54516371D01*
X65666886Y-54364799D01*
X65859799Y-54171886D01*
X66011371Y-53945043D01*
X66115775Y-53692989D01*
X66169000Y-53425411D01*
X66169000Y-53152589D01*
X66115775Y-52885011D01*
X66011371Y-52632957D01*
X65859799Y-52406114D01*
X65707435Y-52253750D01*
X76167721Y-52253750D01*
X76379538Y-52274519D01*
G04 #@! TA.AperFunction,Conductor*
D29*
G36*
X76379538Y-52274519D02*
G01*
X76552237Y-52326660D01*
X76711518Y-52411352D01*
X76851319Y-52525369D01*
X76966308Y-52664367D01*
X77052110Y-52823055D01*
X77105455Y-52995385D01*
X77127500Y-53205130D01*
X77127500Y-64569372D01*
X76989518Y-64311226D01*
X76602275Y-64071080D01*
X74792105Y-65881250D01*
X76602275Y-67691420D01*
X76989518Y-67451274D01*
X77127500Y-67189787D01*
X77127501Y-85206873D01*
X76989518Y-84948726D01*
X76602275Y-84708580D01*
X74792105Y-86518750D01*
X76602275Y-88328920D01*
X76989518Y-88088774D01*
X77127501Y-87827285D01*
X77127501Y-88073960D01*
X77106731Y-88285788D01*
X77054591Y-88458486D01*
X76969899Y-88617768D01*
X76855878Y-88757571D01*
X76716885Y-88872556D01*
X76558195Y-88958360D01*
X76385865Y-89011705D01*
X76176119Y-89033750D01*
X75924379Y-89033750D01*
X76182524Y-88895768D01*
X76422670Y-88508525D01*
X74612500Y-86698355D01*
X72802330Y-88508525D01*
X73042476Y-88895768D01*
X73303963Y-89033750D01*
X63647301Y-89033750D01*
X66147128Y-86533924D01*
X71763822Y-86533924D01*
X71821519Y-87089382D01*
X71986472Y-87622911D01*
X72235482Y-88088774D01*
X72622725Y-88328920D01*
X74432895Y-86518750D01*
X72622725Y-84708580D01*
X72235482Y-84948726D01*
X71974859Y-85442627D01*
X71815599Y-85977883D01*
X71763822Y-86533924D01*
X66147128Y-86533924D01*
X66690757Y-85990296D01*
X66719750Y-85966502D01*
X66743544Y-85937509D01*
X66743548Y-85937505D01*
X66811616Y-85854563D01*
X66814723Y-85850777D01*
X66885295Y-85718748D01*
X66928752Y-85575487D01*
X66939749Y-85463834D01*
X66939749Y-85463825D01*
X66943425Y-85426502D01*
X66939749Y-85389179D01*
X66939749Y-84528975D01*
X72802330Y-84528975D01*
X74612500Y-86339145D01*
X76422670Y-84528975D01*
X76182524Y-84141732D01*
X75688623Y-83881109D01*
X75153367Y-83721849D01*
X74597326Y-83670072D01*
X74041868Y-83727769D01*
X73508339Y-83892722D01*
X73042476Y-84141732D01*
X72802330Y-84528975D01*
X66939749Y-84528975D01*
X66939749Y-71453802D01*
X70522526Y-67871025D01*
X72802330Y-67871025D01*
X73042476Y-68258268D01*
X73536377Y-68518891D01*
X74071633Y-68678151D01*
X74627674Y-68729928D01*
X75183132Y-68672231D01*
X75716661Y-68507278D01*
X76182524Y-68258268D01*
X76422670Y-67871025D01*
X74612500Y-66060855D01*
X72802330Y-67871025D01*
X70522526Y-67871025D01*
X71849894Y-66543658D01*
X71986472Y-66985411D01*
X72235482Y-67451274D01*
X72622725Y-67691420D01*
X74432895Y-65881250D01*
X74418753Y-65867108D01*
X74598358Y-65687503D01*
X74612500Y-65701645D01*
X76422670Y-63891475D01*
X76182524Y-63504232D01*
X75688623Y-63243609D01*
X75153367Y-63084349D01*
X74597326Y-63032572D01*
X74041868Y-63090269D01*
X73508339Y-63255222D01*
X73122163Y-63461638D01*
X73547592Y-63036210D01*
X73767740Y-63080000D01*
X74060260Y-63080000D01*
X74347158Y-63022932D01*
X74617411Y-62910990D01*
X74860632Y-62748475D01*
X75067475Y-62541632D01*
X75229990Y-62298411D01*
X75341932Y-62028158D01*
X75399000Y-61741260D01*
X75399000Y-61448740D01*
X75341932Y-61161842D01*
X75229990Y-60891589D01*
X75067475Y-60648368D01*
X74860632Y-60441525D01*
X74686240Y-60325000D01*
X74860632Y-60208475D01*
X75067475Y-60001632D01*
X75229990Y-59758411D01*
X75341932Y-59488158D01*
X75399000Y-59201260D01*
X75399000Y-58908740D01*
X75341932Y-58621842D01*
X75229990Y-58351589D01*
X75067475Y-58108368D01*
X74860632Y-57901525D01*
X74686240Y-57785000D01*
X74860632Y-57668475D01*
X75067475Y-57461632D01*
X75229990Y-57218411D01*
X75341932Y-56948158D01*
X75399000Y-56661260D01*
X75399000Y-56368740D01*
X75341932Y-56081842D01*
X75229990Y-55811589D01*
X75067475Y-55568368D01*
X74860632Y-55361525D01*
X74687271Y-55245689D01*
X74762792Y-55003397D01*
X73914000Y-54154605D01*
X73065208Y-55003397D01*
X73140729Y-55245689D01*
X72967368Y-55361525D01*
X72760525Y-55568368D01*
X72598010Y-55811589D01*
X72486068Y-56081842D01*
X72429000Y-56368740D01*
X72429000Y-56661260D01*
X72472790Y-56881407D01*
X71251653Y-58102546D01*
X71050632Y-57901525D01*
X70876240Y-57785000D01*
X71050632Y-57668475D01*
X71257475Y-57461632D01*
X71419990Y-57218411D01*
X71531932Y-56948158D01*
X71589000Y-56661260D01*
X71589000Y-56368740D01*
X71531932Y-56081842D01*
X71419990Y-55811589D01*
X71257475Y-55568368D01*
X71050632Y-55361525D01*
X70876240Y-55245000D01*
X71050632Y-55128475D01*
X71257475Y-54921632D01*
X71419990Y-54678411D01*
X71531932Y-54408158D01*
X71589000Y-54121260D01*
X71589000Y-54043531D01*
X72423389Y-54043531D01*
X72465401Y-54333019D01*
X72563081Y-54608747D01*
X72636528Y-54746157D01*
X72885603Y-54823792D01*
X73734395Y-53975000D01*
X74093605Y-53975000D01*
X74942397Y-54823792D01*
X75191472Y-54746157D01*
X75317371Y-54482117D01*
X75389339Y-54198589D01*
X75404611Y-53906469D01*
X75362599Y-53616981D01*
X75264919Y-53341253D01*
X75191472Y-53203843D01*
X74942397Y-53126208D01*
X74093605Y-53975000D01*
X73734395Y-53975000D01*
X72885603Y-53126208D01*
X72636528Y-53203843D01*
X72510629Y-53467883D01*
X72438661Y-53751411D01*
X72423389Y-54043531D01*
X71589000Y-54043531D01*
X71589000Y-53828740D01*
X71531932Y-53541842D01*
X71419990Y-53271589D01*
X71257475Y-53028368D01*
X71175710Y-52946603D01*
X73065208Y-52946603D01*
X73914000Y-53795395D01*
X74762792Y-52946603D01*
X74685157Y-52697528D01*
X74421117Y-52571629D01*
X74137589Y-52499661D01*
X73845469Y-52484389D01*
X73555981Y-52526401D01*
X73280253Y-52624081D01*
X73142843Y-52697528D01*
X73065208Y-52946603D01*
X71175710Y-52946603D01*
X71050632Y-52821525D01*
X70807411Y-52659010D01*
X70537158Y-52547068D01*
X70250260Y-52490000D01*
X69957740Y-52490000D01*
X69670842Y-52547068D01*
X69400589Y-52659010D01*
X69157368Y-52821525D01*
X68950525Y-53028368D01*
X68788010Y-53271589D01*
X68676068Y-53541842D01*
X68619000Y-53828740D01*
X68619000Y-54121260D01*
X68676068Y-54408158D01*
X68788010Y-54678411D01*
X68950525Y-54921632D01*
X69157368Y-55128475D01*
X69331760Y-55245000D01*
X69157368Y-55361525D01*
X68950525Y-55568368D01*
X68788010Y-55811589D01*
X68676068Y-56081842D01*
X68619000Y-56368740D01*
X68619000Y-56661260D01*
X68676068Y-56948158D01*
X68788010Y-57218411D01*
X68950525Y-57461632D01*
X69157368Y-57668475D01*
X69331760Y-57785000D01*
X69157368Y-57901525D01*
X68950525Y-58108368D01*
X68825822Y-58295000D01*
X67010552Y-58295000D01*
X63919000Y-55203449D01*
X63919000Y-54518508D01*
X63904054Y-54366764D01*
X64127957Y-54516371D01*
X64380011Y-54620775D01*
X64647589Y-54674000D01*
X64920411Y-54674000D01*
X65187989Y-54620775D01*
X65440043Y-54516371D01*
X65666886Y-54364799D01*
X65859799Y-54171886D01*
X66011371Y-53945043D01*
X66115775Y-53692989D01*
X66169000Y-53425411D01*
X66169000Y-53152589D01*
X66115775Y-52885011D01*
X66011371Y-52632957D01*
X65859799Y-52406114D01*
X65707435Y-52253750D01*
X76167721Y-52253750D01*
X76379538Y-52274519D01*
G37*
G04 #@! TD.AperFunction*
D28*
X15892476Y-52391732D02*
X15652330Y-52778975D01*
X17462500Y-54589145D01*
X19272670Y-52778975D01*
X19032524Y-52391732D01*
X18771037Y-52253750D01*
X51205474Y-52253750D01*
X51115733Y-52313713D01*
X50943713Y-52485733D01*
X50808557Y-52688008D01*
X50715460Y-52912764D01*
X50668000Y-53151363D01*
X50668000Y-53394637D01*
X50715460Y-53633236D01*
X50808557Y-53857992D01*
X50943713Y-54060267D01*
X51115733Y-54232287D01*
X51318008Y-54367443D01*
X51542764Y-54460540D01*
X51781363Y-54508000D01*
X52024637Y-54508000D01*
X52263236Y-54460540D01*
X52487992Y-54367443D01*
X52690267Y-54232287D01*
X52862287Y-54060267D01*
X52997443Y-53857992D01*
X53090540Y-53633236D01*
X53129621Y-53436760D01*
X53536365Y-53436760D01*
X54403000Y-54303395D01*
X55269635Y-53436760D01*
X55188975Y-53185132D01*
X54920671Y-53056733D01*
X54632474Y-52983145D01*
X54335457Y-52967196D01*
X54041037Y-53009499D01*
X53760526Y-53108428D01*
X53617025Y-53185132D01*
X53536365Y-53436760D01*
X53129621Y-53436760D01*
X53138000Y-53394637D01*
X53138000Y-53151363D01*
X53090540Y-52912764D01*
X52997443Y-52688008D01*
X52862287Y-52485733D01*
X52690267Y-52313713D01*
X52600526Y-52253750D01*
X59260565Y-52253750D01*
X59108201Y-52406114D01*
X58956629Y-52632957D01*
X58852225Y-52885011D01*
X58799000Y-53152589D01*
X58799000Y-53425411D01*
X58852225Y-53692989D01*
X58956629Y-53945043D01*
X59108201Y-54171886D01*
X59301114Y-54364799D01*
X59527957Y-54516371D01*
X59780011Y-54620775D01*
X60047589Y-54674000D01*
X60320411Y-54674000D01*
X60587989Y-54620775D01*
X60840043Y-54516371D01*
X61063946Y-54366764D01*
X61049000Y-54518509D01*
X61049000Y-55235198D01*
X55131699Y-61152500D01*
X49459802Y-61152500D01*
X50789003Y-59823299D01*
X50818000Y-59799502D01*
X50912973Y-59683777D01*
X50983545Y-59551748D01*
X51027002Y-59408487D01*
X51037999Y-59296834D01*
X51037999Y-59296824D01*
X51041675Y-59259501D01*
X51037999Y-59222178D01*
X51037999Y-55529240D01*
X53536365Y-55529240D01*
X53617025Y-55780868D01*
X53885329Y-55909267D01*
X54066347Y-55955488D01*
X53919772Y-56174853D01*
X53792754Y-56481504D01*
X53728000Y-56807042D01*
X53728000Y-57138958D01*
X53792754Y-57464496D01*
X53919772Y-57771147D01*
X54104175Y-58047125D01*
X54338875Y-58281825D01*
X54614853Y-58466228D01*
X54921504Y-58593246D01*
X55247042Y-58658000D01*
X55578958Y-58658000D01*
X55904496Y-58593246D01*
X56211147Y-58466228D01*
X56487125Y-58281825D01*
X56721825Y-58047125D01*
X56906228Y-57771147D01*
X57033246Y-57464496D01*
X57098000Y-57138958D01*
X57098000Y-56807042D01*
X57033246Y-56481504D01*
X56906228Y-56174853D01*
X56721825Y-55898875D01*
X56487125Y-55664175D01*
X56211147Y-55479772D01*
X55904496Y-55352754D01*
X55617562Y-55295679D01*
X55700868Y-55268975D01*
X55829267Y-55000671D01*
X55902855Y-54712474D01*
X55918804Y-54415457D01*
X55876501Y-54121037D01*
X55777572Y-53840526D01*
X55700868Y-53697025D01*
X55449240Y-53616365D01*
X54582605Y-54483000D01*
X54596748Y-54497143D01*
X54417143Y-54676748D01*
X54403000Y-54662605D01*
X53536365Y-55529240D01*
X51037999Y-55529240D01*
X51037999Y-55395321D01*
X51041675Y-55357998D01*
X51037999Y-55320675D01*
X51037999Y-55320666D01*
X51027002Y-55209013D01*
X50983545Y-55065752D01*
X50912973Y-54933723D01*
X50876270Y-54889000D01*
X50864642Y-54874831D01*
X50913000Y-54631722D01*
X50913000Y-54550543D01*
X52887196Y-54550543D01*
X52929499Y-54844963D01*
X53028428Y-55125474D01*
X53105132Y-55268975D01*
X53356760Y-55349635D01*
X54223395Y-54483000D01*
X53356760Y-53616365D01*
X53105132Y-53697025D01*
X52976733Y-53965329D01*
X52903145Y-54253526D01*
X52887196Y-54550543D01*
X50913000Y-54550543D01*
X50913000Y-54334278D01*
X50854971Y-54042549D01*
X50741144Y-53767747D01*
X50575893Y-53520431D01*
X50365569Y-53310107D01*
X50118253Y-53144856D01*
X49843451Y-53031029D01*
X49551722Y-52973000D01*
X49254278Y-52973000D01*
X48962549Y-53031029D01*
X48687747Y-53144856D01*
X48440431Y-53310107D01*
X48230107Y-53520431D01*
X48064856Y-53767747D01*
X47951029Y-54042549D01*
X47893000Y-54334278D01*
X47893000Y-54631722D01*
X47951029Y-54923451D01*
X48064856Y-55198253D01*
X48137988Y-55307703D01*
X47911504Y-55352754D01*
X47604853Y-55479772D01*
X47328875Y-55664175D01*
X47094175Y-55898875D01*
X46909772Y-56174853D01*
X46782754Y-56481504D01*
X46718000Y-56807042D01*
X46718000Y-57138958D01*
X46782754Y-57464496D01*
X46909772Y-57771147D01*
X47094175Y-58047125D01*
X47328875Y-58281825D01*
X47604853Y-58466228D01*
X47911504Y-58593246D01*
X48237042Y-58658000D01*
X48568958Y-58658000D01*
X48894496Y-58593246D01*
X49201147Y-58466228D01*
X49477125Y-58281825D01*
X49517999Y-58240951D01*
X49517999Y-58944699D01*
X46103699Y-62359000D01*
X46102828Y-62359000D01*
X45978125Y-62172368D01*
X45777143Y-61971386D01*
X45913102Y-61923157D01*
X46163205Y-61774178D01*
X46379438Y-61579269D01*
X46553491Y-61345920D01*
X46678675Y-61083099D01*
X46723326Y-60935890D01*
X46602005Y-60706000D01*
X45408850Y-60706000D01*
X45408850Y-60726000D01*
X45154850Y-60726000D01*
X45154850Y-60706000D01*
X43961695Y-60706000D01*
X43840374Y-60935890D01*
X43885025Y-61083099D01*
X44010209Y-61345920D01*
X44184262Y-61579269D01*
X44334488Y-61714680D01*
X44121239Y-61803010D01*
X43987214Y-61892562D01*
X43189426Y-61094775D01*
X43237150Y-60854850D01*
X43237150Y-60557150D01*
X43179072Y-60265170D01*
X43065147Y-59990131D01*
X42899754Y-59742602D01*
X42689248Y-59532096D01*
X42441719Y-59366703D01*
X42166680Y-59252778D01*
X42126090Y-59244704D01*
X42136213Y-59213169D01*
X41268650Y-58345605D01*
X40401087Y-59213169D01*
X40481904Y-59464929D01*
X40717062Y-59577486D01*
X40551946Y-59742602D01*
X40386553Y-59990131D01*
X40272628Y-60265170D01*
X40214550Y-60557150D01*
X40214550Y-60854850D01*
X40272628Y-61146830D01*
X40386553Y-61421869D01*
X40551946Y-61669398D01*
X40719990Y-61837442D01*
X40552781Y-61906703D01*
X40305252Y-62072096D01*
X40094746Y-62282602D01*
X39929353Y-62530131D01*
X39815428Y-62805170D01*
X39757350Y-63097150D01*
X39757350Y-63394850D01*
X39815428Y-63686830D01*
X39929353Y-63961869D01*
X40094746Y-64209398D01*
X40305252Y-64419904D01*
X40552781Y-64585297D01*
X40719990Y-64654558D01*
X40551946Y-64822602D01*
X40386553Y-65070131D01*
X40272628Y-65345170D01*
X40214550Y-65637150D01*
X40214550Y-65934850D01*
X40272628Y-66226830D01*
X40386553Y-66501869D01*
X40551946Y-66749398D01*
X40719990Y-66917442D01*
X40552781Y-66986703D01*
X40305252Y-67152096D01*
X40094746Y-67362602D01*
X39929353Y-67610131D01*
X39815428Y-67885170D01*
X39757350Y-68177150D01*
X39757350Y-68474850D01*
X39815428Y-68766830D01*
X39929353Y-69041869D01*
X40094746Y-69289398D01*
X40305252Y-69499904D01*
X40552781Y-69665297D01*
X40719990Y-69734558D01*
X40551946Y-69902602D01*
X40386553Y-70150131D01*
X40272628Y-70425170D01*
X40214550Y-70717150D01*
X40214550Y-71014850D01*
X40272628Y-71306830D01*
X40386553Y-71581869D01*
X40551946Y-71829398D01*
X40719990Y-71997442D01*
X40552781Y-72066703D01*
X40305252Y-72232096D01*
X40094746Y-72442602D01*
X39929353Y-72690131D01*
X39815428Y-72965170D01*
X39757350Y-73257150D01*
X39757350Y-73554850D01*
X39815428Y-73846830D01*
X39929353Y-74121869D01*
X40094746Y-74369398D01*
X40305252Y-74579904D01*
X40552781Y-74745297D01*
X40719990Y-74814558D01*
X40551946Y-74982602D01*
X40386553Y-75230131D01*
X40272628Y-75505170D01*
X40214550Y-75797150D01*
X40214550Y-76094850D01*
X40272628Y-76386830D01*
X40386553Y-76661869D01*
X40551946Y-76909398D01*
X40719990Y-77077442D01*
X40552781Y-77146703D01*
X40305252Y-77312096D01*
X40094746Y-77522602D01*
X39929353Y-77770131D01*
X39815428Y-78045170D01*
X39757350Y-78337150D01*
X39757350Y-78634850D01*
X39815428Y-78926830D01*
X39929353Y-79201869D01*
X40094746Y-79449398D01*
X40305252Y-79659904D01*
X40552781Y-79825297D01*
X40719990Y-79894558D01*
X40551946Y-80062602D01*
X40386553Y-80310131D01*
X40272628Y-80585170D01*
X40214550Y-80877150D01*
X40214550Y-81174850D01*
X40272628Y-81466830D01*
X40386553Y-81741869D01*
X40551946Y-81989398D01*
X40719990Y-82157442D01*
X40552781Y-82226703D01*
X40305252Y-82392096D01*
X40094746Y-82602602D01*
X40017765Y-82717813D01*
X39920648Y-82620696D01*
X39673119Y-82455303D01*
X39398080Y-82341378D01*
X39106100Y-82283300D01*
X38808400Y-82283300D01*
X38516420Y-82341378D01*
X38241381Y-82455303D01*
X37993852Y-82620696D01*
X37825808Y-82788740D01*
X37756547Y-82621531D01*
X37591154Y-82374002D01*
X37380648Y-82163496D01*
X37133119Y-81998103D01*
X36858080Y-81884178D01*
X36566100Y-81826100D01*
X36268400Y-81826100D01*
X35976420Y-81884178D01*
X35701381Y-81998103D01*
X35453852Y-82163496D01*
X35243346Y-82374002D01*
X35077953Y-82621531D01*
X35008692Y-82788740D01*
X34840648Y-82620696D01*
X34593119Y-82455303D01*
X34318080Y-82341378D01*
X34026100Y-82283300D01*
X33728400Y-82283300D01*
X33436420Y-82341378D01*
X33161381Y-82455303D01*
X32913852Y-82620696D01*
X32745808Y-82788740D01*
X32676547Y-82621531D01*
X32511154Y-82374002D01*
X32300648Y-82163496D01*
X32053119Y-81998103D01*
X31778080Y-81884178D01*
X31486100Y-81826100D01*
X31188400Y-81826100D01*
X30896420Y-81884178D01*
X30621381Y-81998103D01*
X30373852Y-82163496D01*
X30163346Y-82374002D01*
X29997953Y-82621531D01*
X29928692Y-82788740D01*
X29760648Y-82620696D01*
X29557250Y-82484790D01*
X29557250Y-67845508D01*
X29743759Y-67720887D01*
X29943637Y-67521009D01*
X30047043Y-67366250D01*
X33368928Y-67366250D01*
X33406250Y-67369926D01*
X33443572Y-67366250D01*
X33443583Y-67366250D01*
X33555236Y-67355253D01*
X33698497Y-67311796D01*
X33830526Y-67241224D01*
X33946251Y-67146251D01*
X33970054Y-67117247D01*
X36544754Y-64542548D01*
X36573751Y-64518751D01*
X36619376Y-64463157D01*
X36668724Y-64403027D01*
X36739296Y-64270997D01*
X36755518Y-64217519D01*
X36782753Y-64127736D01*
X36793750Y-64016083D01*
X36793750Y-64016074D01*
X36797426Y-63978751D01*
X36793750Y-63941428D01*
X36793750Y-59666018D01*
X36884935Y-59591185D01*
X36964287Y-59494494D01*
X37023252Y-59384180D01*
X37059562Y-59264482D01*
X37071822Y-59140000D01*
X37071822Y-58233491D01*
X39751537Y-58233491D01*
X39793854Y-58528167D01*
X39892848Y-58808927D01*
X39969721Y-58952746D01*
X40221481Y-59033563D01*
X41089045Y-58166000D01*
X41448255Y-58166000D01*
X42315819Y-59033563D01*
X42567579Y-58952746D01*
X42696107Y-58684221D01*
X42769779Y-58395781D01*
X42785763Y-58098509D01*
X42743446Y-57803833D01*
X42644452Y-57523073D01*
X42567579Y-57379254D01*
X42315819Y-57298437D01*
X41448255Y-58166000D01*
X41089045Y-58166000D01*
X40221481Y-57298437D01*
X39969721Y-57379254D01*
X39841193Y-57647779D01*
X39767521Y-57936219D01*
X39751537Y-58233491D01*
X37071822Y-58233491D01*
X37071822Y-57240000D01*
X37059562Y-57115518D01*
X37023252Y-56995820D01*
X36964287Y-56885506D01*
X36884935Y-56788815D01*
X36788244Y-56709463D01*
X36710036Y-56667659D01*
X36713976Y-56658148D01*
X36753750Y-56458189D01*
X36753750Y-56254311D01*
X36713976Y-56054352D01*
X36635955Y-55865994D01*
X36522687Y-55696476D01*
X36378524Y-55552313D01*
X36266035Y-55477150D01*
X40214550Y-55477150D01*
X40214550Y-55774850D01*
X40272628Y-56066830D01*
X40386553Y-56341869D01*
X40551946Y-56589398D01*
X40719634Y-56757086D01*
X40625723Y-56790198D01*
X40481904Y-56867071D01*
X40401087Y-57118831D01*
X41268650Y-57986395D01*
X42066044Y-57189000D01*
X43336578Y-57189000D01*
X43336578Y-58889000D01*
X43348838Y-59013482D01*
X43385148Y-59133180D01*
X43444113Y-59243494D01*
X43523465Y-59340185D01*
X43620156Y-59419537D01*
X43730470Y-59478502D01*
X43850168Y-59514812D01*
X43974650Y-59527072D01*
X44241573Y-59527072D01*
X44184262Y-59578731D01*
X44010209Y-59812080D01*
X43885025Y-60074901D01*
X43840374Y-60222110D01*
X43961695Y-60452000D01*
X45154850Y-60452000D01*
X45154850Y-60432000D01*
X45408850Y-60432000D01*
X45408850Y-60452000D01*
X46602005Y-60452000D01*
X46723326Y-60222110D01*
X46678675Y-60074901D01*
X46553491Y-59812080D01*
X46379438Y-59578731D01*
X46163205Y-59383822D01*
X46110742Y-59352571D01*
X46125835Y-59340185D01*
X46205187Y-59243494D01*
X46264152Y-59133180D01*
X46300462Y-59013482D01*
X46312722Y-58889000D01*
X46312722Y-57189000D01*
X46300462Y-57064518D01*
X46264152Y-56944820D01*
X46205187Y-56834506D01*
X46125835Y-56737815D01*
X46029144Y-56658463D01*
X45918830Y-56599498D01*
X45799132Y-56563188D01*
X45674650Y-56550928D01*
X43974650Y-56550928D01*
X43850168Y-56563188D01*
X43730470Y-56599498D01*
X43620156Y-56658463D01*
X43523465Y-56737815D01*
X43444113Y-56834506D01*
X43385148Y-56944820D01*
X43348838Y-57064518D01*
X43336578Y-57189000D01*
X42066044Y-57189000D01*
X42136213Y-57118831D01*
X42126090Y-57087296D01*
X42166680Y-57079222D01*
X42441719Y-56965297D01*
X42689248Y-56799904D01*
X42899754Y-56589398D01*
X43065147Y-56341869D01*
X43179072Y-56066830D01*
X43237150Y-55774850D01*
X43237150Y-55477150D01*
X43179072Y-55185170D01*
X43065147Y-54910131D01*
X42899754Y-54662602D01*
X42689248Y-54452096D01*
X42441719Y-54286703D01*
X42166680Y-54172778D01*
X41874700Y-54114700D01*
X41577000Y-54114700D01*
X41285020Y-54172778D01*
X41009981Y-54286703D01*
X40762452Y-54452096D01*
X40551946Y-54662602D01*
X40386553Y-54910131D01*
X40272628Y-55185170D01*
X40214550Y-55477150D01*
X36266035Y-55477150D01*
X36209006Y-55439045D01*
X36020648Y-55361024D01*
X35820689Y-55321250D01*
X35616811Y-55321250D01*
X35416852Y-55361024D01*
X35228494Y-55439045D01*
X35058976Y-55552313D01*
X34914813Y-55696476D01*
X34801545Y-55865994D01*
X34723524Y-56054352D01*
X34683750Y-56254311D01*
X34683750Y-56458189D01*
X34695697Y-56518250D01*
X34605001Y-56608945D01*
X34533750Y-56601928D01*
X34419500Y-56605000D01*
X34260750Y-56763750D01*
X34260750Y-58063000D01*
X34280750Y-58063000D01*
X34280750Y-58317000D01*
X34260750Y-58317000D01*
X34260750Y-59616250D01*
X34323750Y-59679250D01*
X34323750Y-59713981D01*
X34232565Y-59788815D01*
X34153213Y-59885506D01*
X34094248Y-59995820D01*
X34057938Y-60115518D01*
X34045678Y-60240000D01*
X34045678Y-62140000D01*
X34057938Y-62264482D01*
X34094248Y-62384180D01*
X34153213Y-62494494D01*
X34232565Y-62591185D01*
X34329256Y-62670537D01*
X34439570Y-62729502D01*
X34559268Y-62765812D01*
X34683750Y-62778072D01*
X35273750Y-62778072D01*
X35273750Y-63663948D01*
X33091449Y-65846250D01*
X30047043Y-65846250D01*
X29943637Y-65691491D01*
X29743759Y-65491613D01*
X29717072Y-65473781D01*
X29717072Y-65372291D01*
X29783494Y-65336787D01*
X29880185Y-65257435D01*
X29959537Y-65160744D01*
X30018502Y-65050430D01*
X30054812Y-64930732D01*
X30067072Y-64806250D01*
X30067072Y-63306250D01*
X30054812Y-63181768D01*
X30018502Y-63062070D01*
X29959537Y-62951756D01*
X29880185Y-62855065D01*
X29783494Y-62775713D01*
X29673180Y-62716748D01*
X29638573Y-62706250D01*
X29673180Y-62695752D01*
X29783494Y-62636787D01*
X29880185Y-62557435D01*
X29959537Y-62460744D01*
X30018502Y-62350430D01*
X30054812Y-62230732D01*
X30067072Y-62106250D01*
X30064000Y-61642000D01*
X29905250Y-61483250D01*
X29716606Y-61483250D01*
X29715938Y-61229250D01*
X29905250Y-61229250D01*
X30064000Y-61070500D01*
X30067072Y-60606250D01*
X30054812Y-60481768D01*
X30018502Y-60362070D01*
X29959537Y-60251756D01*
X29880185Y-60155065D01*
X29783494Y-60075713D01*
X29673180Y-60016748D01*
X29630653Y-60003847D01*
X29714000Y-59920500D01*
X29715072Y-59512717D01*
X29821702Y-59619347D01*
X30065671Y-59547764D01*
X30186571Y-59292254D01*
X30224735Y-59140000D01*
X33095678Y-59140000D01*
X33107938Y-59264482D01*
X33144248Y-59384180D01*
X33203213Y-59494494D01*
X33282565Y-59591185D01*
X33379256Y-59670537D01*
X33489570Y-59729502D01*
X33609268Y-59765812D01*
X33733750Y-59778072D01*
X33848000Y-59775000D01*
X34006750Y-59616250D01*
X34006750Y-58317000D01*
X33257500Y-58317000D01*
X33098750Y-58475750D01*
X33095678Y-59140000D01*
X30224735Y-59140000D01*
X30255300Y-59018066D01*
X30269217Y-58735738D01*
X30227787Y-58456120D01*
X30132603Y-58189958D01*
X30065671Y-58064736D01*
X29821702Y-57993153D01*
X29518695Y-58296160D01*
X29438244Y-58228918D01*
X29328464Y-58168965D01*
X29296645Y-58159000D01*
X29642097Y-57813548D01*
X29570514Y-57569579D01*
X29315004Y-57448679D01*
X29040816Y-57379950D01*
X28758488Y-57366033D01*
X28478870Y-57407463D01*
X28212708Y-57502647D01*
X28087486Y-57569579D01*
X28015903Y-57813546D01*
X27941939Y-57739582D01*
X27939072Y-57725170D01*
X27825147Y-57450131D01*
X27684743Y-57240000D01*
X33095678Y-57240000D01*
X33098750Y-57904250D01*
X33257500Y-58063000D01*
X34006750Y-58063000D01*
X34006750Y-56763750D01*
X33848000Y-56605000D01*
X33733750Y-56601928D01*
X33609268Y-56614188D01*
X33489570Y-56650498D01*
X33379256Y-56709463D01*
X33282565Y-56788815D01*
X33203213Y-56885506D01*
X33144248Y-56995820D01*
X33107938Y-57115518D01*
X33095678Y-57240000D01*
X27684743Y-57240000D01*
X27659754Y-57202602D01*
X27449248Y-56992096D01*
X27368646Y-56938240D01*
X27435487Y-56856794D01*
X27494452Y-56746480D01*
X27530762Y-56626782D01*
X27543022Y-56502300D01*
X27543022Y-54749700D01*
X27530762Y-54625218D01*
X27494452Y-54505520D01*
X27435487Y-54395206D01*
X27356135Y-54298515D01*
X27259444Y-54219163D01*
X27149130Y-54160198D01*
X27029432Y-54123888D01*
X26904950Y-54111628D01*
X25152350Y-54111628D01*
X25027868Y-54123888D01*
X24908170Y-54160198D01*
X24797856Y-54219163D01*
X24701165Y-54298515D01*
X24621813Y-54395206D01*
X24562848Y-54505520D01*
X24526538Y-54625218D01*
X24514278Y-54749700D01*
X24514278Y-56167170D01*
X23850372Y-56831076D01*
X23773835Y-56737815D01*
X23677144Y-56658463D01*
X23566830Y-56599498D01*
X23447132Y-56563188D01*
X23322650Y-56550928D01*
X21622650Y-56550928D01*
X21498168Y-56563188D01*
X21378470Y-56599498D01*
X21268156Y-56658463D01*
X21171465Y-56737815D01*
X21092113Y-56834506D01*
X21033148Y-56944820D01*
X20996838Y-57064518D01*
X20984578Y-57189000D01*
X20984578Y-58889000D01*
X20996838Y-59013482D01*
X21033148Y-59133180D01*
X21092113Y-59243494D01*
X21171465Y-59340185D01*
X21268156Y-59419537D01*
X21378470Y-59478502D01*
X21498168Y-59514812D01*
X21622650Y-59527072D01*
X21881671Y-59527072D01*
X21776375Y-59632368D01*
X21613860Y-59875589D01*
X21501918Y-60145842D01*
X21444850Y-60432740D01*
X21444850Y-60725260D01*
X21501918Y-61012158D01*
X21613860Y-61282411D01*
X21776375Y-61525632D01*
X21977357Y-61726614D01*
X21841398Y-61774843D01*
X21591295Y-61923822D01*
X21375062Y-62118731D01*
X21201009Y-62352080D01*
X21075825Y-62614901D01*
X21031174Y-62762110D01*
X21152495Y-62992000D01*
X22345650Y-62992000D01*
X22345650Y-62972000D01*
X22599650Y-62972000D01*
X22599650Y-62992000D01*
X23792805Y-62992000D01*
X23914126Y-62762110D01*
X23869475Y-62614901D01*
X23744291Y-62352080D01*
X23570238Y-62118731D01*
X23420012Y-61983320D01*
X23633261Y-61894990D01*
X23845511Y-61753169D01*
X25161087Y-61753169D01*
X25241904Y-62004929D01*
X25510429Y-62133457D01*
X25629509Y-62163872D01*
X25618287Y-62198831D01*
X26485850Y-63066395D01*
X27353413Y-62198831D01*
X27272596Y-61947071D01*
X27004071Y-61818543D01*
X26884991Y-61788128D01*
X26896213Y-61753169D01*
X26028650Y-60885605D01*
X25161087Y-61753169D01*
X23845511Y-61753169D01*
X23876482Y-61732475D01*
X24083325Y-61525632D01*
X24214921Y-61328684D01*
X24221836Y-61328003D01*
X24365097Y-61284546D01*
X24497126Y-61213974D01*
X24580996Y-61145144D01*
X24652848Y-61348927D01*
X24729721Y-61492746D01*
X24981481Y-61573563D01*
X25849045Y-60706000D01*
X26208255Y-60706000D01*
X27075819Y-61573563D01*
X27327579Y-61492746D01*
X27456107Y-61224221D01*
X27529779Y-60935781D01*
X27545763Y-60638509D01*
X27503446Y-60343833D01*
X27404452Y-60063073D01*
X27327579Y-59919254D01*
X27075819Y-59838437D01*
X26208255Y-60706000D01*
X25849045Y-60706000D01*
X25834903Y-60691858D01*
X26014508Y-60512253D01*
X26028650Y-60526395D01*
X26896213Y-59658831D01*
X26886090Y-59627296D01*
X26926680Y-59619222D01*
X27201719Y-59505297D01*
X27449248Y-59339904D01*
X27483570Y-59305582D01*
X27525397Y-59422542D01*
X27592329Y-59547764D01*
X27836298Y-59619347D01*
X27942928Y-59512717D01*
X27944000Y-59920500D01*
X28027347Y-60003847D01*
X27984820Y-60016748D01*
X27874506Y-60075713D01*
X27777815Y-60155065D01*
X27698463Y-60251756D01*
X27639498Y-60362070D01*
X27603188Y-60481768D01*
X27590928Y-60606250D01*
X27594000Y-61070500D01*
X27752750Y-61229250D01*
X27942062Y-61229250D01*
X27941394Y-61483250D01*
X27752750Y-61483250D01*
X27594000Y-61642000D01*
X27590928Y-62106250D01*
X27603188Y-62230732D01*
X27639498Y-62350430D01*
X27679623Y-62425498D01*
X27533019Y-62378437D01*
X26665455Y-63246000D01*
X27533019Y-64113563D01*
X27590928Y-64094974D01*
X27590928Y-64806250D01*
X27603188Y-64930732D01*
X27639498Y-65050430D01*
X27698463Y-65160744D01*
X27777815Y-65257435D01*
X27874506Y-65336787D01*
X27940928Y-65372291D01*
X27940928Y-65473781D01*
X27914241Y-65491613D01*
X27714363Y-65691491D01*
X27557320Y-65926523D01*
X27527089Y-65999507D01*
X27539950Y-65934850D01*
X27539950Y-65637150D01*
X27481872Y-65345170D01*
X27367947Y-65070131D01*
X27202554Y-64822602D01*
X27034866Y-64654914D01*
X27128777Y-64621802D01*
X27272596Y-64544929D01*
X27353413Y-64293169D01*
X26485850Y-63425605D01*
X25618287Y-64293169D01*
X25628410Y-64324704D01*
X25587820Y-64332778D01*
X25312781Y-64446703D01*
X25065252Y-64612096D01*
X24854746Y-64822602D01*
X24689353Y-65070131D01*
X24575428Y-65345170D01*
X24517350Y-65637150D01*
X24517350Y-65934850D01*
X24565074Y-66174775D01*
X23556803Y-67183046D01*
X23425143Y-67051386D01*
X23561102Y-67003157D01*
X23811205Y-66854178D01*
X24027438Y-66659269D01*
X24201491Y-66425920D01*
X24326675Y-66163099D01*
X24371326Y-66015890D01*
X24250005Y-65786000D01*
X23056850Y-65786000D01*
X23056850Y-65806000D01*
X22802850Y-65806000D01*
X22802850Y-65786000D01*
X21609695Y-65786000D01*
X21488374Y-66015890D01*
X21533025Y-66163099D01*
X21658209Y-66425920D01*
X21832262Y-66659269D01*
X21982488Y-66794680D01*
X21769239Y-66883010D01*
X21526018Y-67045525D01*
X21319175Y-67252368D01*
X21156660Y-67495589D01*
X21044718Y-67765842D01*
X20987650Y-68052740D01*
X20987650Y-68345260D01*
X21031440Y-68565408D01*
X20126498Y-69470351D01*
X20097500Y-69494149D01*
X20073702Y-69523147D01*
X20073701Y-69523148D01*
X20002526Y-69609874D01*
X19931954Y-69741904D01*
X19916647Y-69792368D01*
X19888498Y-69885164D01*
X19883912Y-69931727D01*
X19873824Y-70034150D01*
X19877501Y-70071483D01*
X19877500Y-85019785D01*
X19839518Y-84948726D01*
X19452275Y-84708580D01*
X17642105Y-86518750D01*
X19452275Y-88328920D01*
X19839518Y-88088774D01*
X20100141Y-87594873D01*
X20223666Y-87179717D01*
X22077698Y-89033750D01*
X18774379Y-89033750D01*
X19032524Y-88895768D01*
X19272670Y-88508525D01*
X17462500Y-86698355D01*
X15652330Y-88508525D01*
X15892476Y-88895768D01*
X16153963Y-89033750D01*
X15907280Y-89033750D01*
X15695462Y-89012981D01*
X15522764Y-88960841D01*
X15363482Y-88876149D01*
X15223679Y-88762128D01*
X15108694Y-88623135D01*
X15022890Y-88464445D01*
X14969545Y-88292115D01*
X14947500Y-88082369D01*
X14947500Y-87830629D01*
X15085482Y-88088774D01*
X15472725Y-88328920D01*
X17282895Y-86518750D01*
X15472725Y-84708580D01*
X15085482Y-84948726D01*
X14947500Y-85210213D01*
X14947500Y-84528975D01*
X15652330Y-84528975D01*
X17462500Y-86339145D01*
X19272670Y-84528975D01*
X19032524Y-84141732D01*
X18538623Y-83881109D01*
X18003367Y-83721849D01*
X17447326Y-83670072D01*
X16891868Y-83727769D01*
X16358339Y-83892722D01*
X15892476Y-84141732D01*
X15652330Y-84528975D01*
X14947500Y-84528975D01*
X14947500Y-63475890D01*
X21031174Y-63475890D01*
X21075825Y-63623099D01*
X21201009Y-63885920D01*
X21375062Y-64119269D01*
X21591295Y-64314178D01*
X21841398Y-64463157D01*
X21990540Y-64516062D01*
X21832262Y-64658731D01*
X21658209Y-64892080D01*
X21533025Y-65154901D01*
X21488374Y-65302110D01*
X21609695Y-65532000D01*
X22802850Y-65532000D01*
X22802850Y-65512000D01*
X23056850Y-65512000D01*
X23056850Y-65532000D01*
X24250005Y-65532000D01*
X24371326Y-65302110D01*
X24326675Y-65154901D01*
X24201491Y-64892080D01*
X24027438Y-64658731D01*
X23811205Y-64463822D01*
X23561102Y-64314843D01*
X23411960Y-64261938D01*
X23570238Y-64119269D01*
X23744291Y-63885920D01*
X23869475Y-63623099D01*
X23914126Y-63475890D01*
X23828423Y-63313491D01*
X24968737Y-63313491D01*
X25011054Y-63608167D01*
X25110048Y-63888927D01*
X25186921Y-64032746D01*
X25438681Y-64113563D01*
X26306245Y-63246000D01*
X25438681Y-62378437D01*
X25186921Y-62459254D01*
X25058393Y-62727779D01*
X24984721Y-63016219D01*
X24968737Y-63313491D01*
X23828423Y-63313491D01*
X23792805Y-63246000D01*
X22599650Y-63246000D01*
X22599650Y-63266000D01*
X22345650Y-63266000D01*
X22345650Y-63246000D01*
X21152495Y-63246000D01*
X21031174Y-63475890D01*
X14947500Y-63475890D01*
X14947500Y-56758525D01*
X15652330Y-56758525D01*
X15892476Y-57145768D01*
X16386377Y-57406391D01*
X16921633Y-57565651D01*
X17477674Y-57617428D01*
X18033132Y-57559731D01*
X18566661Y-57394778D01*
X19032524Y-57145768D01*
X19272670Y-56758525D01*
X17462500Y-54948355D01*
X15652330Y-56758525D01*
X14947500Y-56758525D01*
X14947500Y-56080629D01*
X15085482Y-56338774D01*
X15472725Y-56578920D01*
X17282895Y-54768750D01*
X17642105Y-54768750D01*
X19452275Y-56578920D01*
X19839518Y-56338774D01*
X20100141Y-55844873D01*
X20259401Y-55309617D01*
X20311178Y-54753576D01*
X20253481Y-54198118D01*
X20088528Y-53664589D01*
X19839518Y-53198726D01*
X19452275Y-52958580D01*
X17642105Y-54768750D01*
X17282895Y-54768750D01*
X15472725Y-52958580D01*
X15085482Y-53198726D01*
X14947500Y-53460213D01*
X14947500Y-53213529D01*
X14968269Y-53001712D01*
X15020410Y-52829013D01*
X15105102Y-52669732D01*
X15219119Y-52529931D01*
X15358117Y-52414942D01*
X15516805Y-52329140D01*
X15689135Y-52275795D01*
X15898880Y-52253750D01*
X16150621Y-52253750D01*
X15892476Y-52391732D01*
G04 #@! TA.AperFunction,Conductor*
D29*
G36*
X15892476Y-52391732D02*
G01*
X15652330Y-52778975D01*
X17462500Y-54589145D01*
X19272670Y-52778975D01*
X19032524Y-52391732D01*
X18771037Y-52253750D01*
X51205474Y-52253750D01*
X51115733Y-52313713D01*
X50943713Y-52485733D01*
X50808557Y-52688008D01*
X50715460Y-52912764D01*
X50668000Y-53151363D01*
X50668000Y-53394637D01*
X50715460Y-53633236D01*
X50808557Y-53857992D01*
X50943713Y-54060267D01*
X51115733Y-54232287D01*
X51318008Y-54367443D01*
X51542764Y-54460540D01*
X51781363Y-54508000D01*
X52024637Y-54508000D01*
X52263236Y-54460540D01*
X52487992Y-54367443D01*
X52690267Y-54232287D01*
X52862287Y-54060267D01*
X52997443Y-53857992D01*
X53090540Y-53633236D01*
X53129621Y-53436760D01*
X53536365Y-53436760D01*
X54403000Y-54303395D01*
X55269635Y-53436760D01*
X55188975Y-53185132D01*
X54920671Y-53056733D01*
X54632474Y-52983145D01*
X54335457Y-52967196D01*
X54041037Y-53009499D01*
X53760526Y-53108428D01*
X53617025Y-53185132D01*
X53536365Y-53436760D01*
X53129621Y-53436760D01*
X53138000Y-53394637D01*
X53138000Y-53151363D01*
X53090540Y-52912764D01*
X52997443Y-52688008D01*
X52862287Y-52485733D01*
X52690267Y-52313713D01*
X52600526Y-52253750D01*
X59260565Y-52253750D01*
X59108201Y-52406114D01*
X58956629Y-52632957D01*
X58852225Y-52885011D01*
X58799000Y-53152589D01*
X58799000Y-53425411D01*
X58852225Y-53692989D01*
X58956629Y-53945043D01*
X59108201Y-54171886D01*
X59301114Y-54364799D01*
X59527957Y-54516371D01*
X59780011Y-54620775D01*
X60047589Y-54674000D01*
X60320411Y-54674000D01*
X60587989Y-54620775D01*
X60840043Y-54516371D01*
X61063946Y-54366764D01*
X61049000Y-54518509D01*
X61049000Y-55235198D01*
X55131699Y-61152500D01*
X49459802Y-61152500D01*
X50789003Y-59823299D01*
X50818000Y-59799502D01*
X50912973Y-59683777D01*
X50983545Y-59551748D01*
X51027002Y-59408487D01*
X51037999Y-59296834D01*
X51037999Y-59296824D01*
X51041675Y-59259501D01*
X51037999Y-59222178D01*
X51037999Y-55529240D01*
X53536365Y-55529240D01*
X53617025Y-55780868D01*
X53885329Y-55909267D01*
X54066347Y-55955488D01*
X53919772Y-56174853D01*
X53792754Y-56481504D01*
X53728000Y-56807042D01*
X53728000Y-57138958D01*
X53792754Y-57464496D01*
X53919772Y-57771147D01*
X54104175Y-58047125D01*
X54338875Y-58281825D01*
X54614853Y-58466228D01*
X54921504Y-58593246D01*
X55247042Y-58658000D01*
X55578958Y-58658000D01*
X55904496Y-58593246D01*
X56211147Y-58466228D01*
X56487125Y-58281825D01*
X56721825Y-58047125D01*
X56906228Y-57771147D01*
X57033246Y-57464496D01*
X57098000Y-57138958D01*
X57098000Y-56807042D01*
X57033246Y-56481504D01*
X56906228Y-56174853D01*
X56721825Y-55898875D01*
X56487125Y-55664175D01*
X56211147Y-55479772D01*
X55904496Y-55352754D01*
X55617562Y-55295679D01*
X55700868Y-55268975D01*
X55829267Y-55000671D01*
X55902855Y-54712474D01*
X55918804Y-54415457D01*
X55876501Y-54121037D01*
X55777572Y-53840526D01*
X55700868Y-53697025D01*
X55449240Y-53616365D01*
X54582605Y-54483000D01*
X54596748Y-54497143D01*
X54417143Y-54676748D01*
X54403000Y-54662605D01*
X53536365Y-55529240D01*
X51037999Y-55529240D01*
X51037999Y-55395321D01*
X51041675Y-55357998D01*
X51037999Y-55320675D01*
X51037999Y-55320666D01*
X51027002Y-55209013D01*
X50983545Y-55065752D01*
X50912973Y-54933723D01*
X50876270Y-54889000D01*
X50864642Y-54874831D01*
X50913000Y-54631722D01*
X50913000Y-54550543D01*
X52887196Y-54550543D01*
X52929499Y-54844963D01*
X53028428Y-55125474D01*
X53105132Y-55268975D01*
X53356760Y-55349635D01*
X54223395Y-54483000D01*
X53356760Y-53616365D01*
X53105132Y-53697025D01*
X52976733Y-53965329D01*
X52903145Y-54253526D01*
X52887196Y-54550543D01*
X50913000Y-54550543D01*
X50913000Y-54334278D01*
X50854971Y-54042549D01*
X50741144Y-53767747D01*
X50575893Y-53520431D01*
X50365569Y-53310107D01*
X50118253Y-53144856D01*
X49843451Y-53031029D01*
X49551722Y-52973000D01*
X49254278Y-52973000D01*
X48962549Y-53031029D01*
X48687747Y-53144856D01*
X48440431Y-53310107D01*
X48230107Y-53520431D01*
X48064856Y-53767747D01*
X47951029Y-54042549D01*
X47893000Y-54334278D01*
X47893000Y-54631722D01*
X47951029Y-54923451D01*
X48064856Y-55198253D01*
X48137988Y-55307703D01*
X47911504Y-55352754D01*
X47604853Y-55479772D01*
X47328875Y-55664175D01*
X47094175Y-55898875D01*
X46909772Y-56174853D01*
X46782754Y-56481504D01*
X46718000Y-56807042D01*
X46718000Y-57138958D01*
X46782754Y-57464496D01*
X46909772Y-57771147D01*
X47094175Y-58047125D01*
X47328875Y-58281825D01*
X47604853Y-58466228D01*
X47911504Y-58593246D01*
X48237042Y-58658000D01*
X48568958Y-58658000D01*
X48894496Y-58593246D01*
X49201147Y-58466228D01*
X49477125Y-58281825D01*
X49517999Y-58240951D01*
X49517999Y-58944699D01*
X46103699Y-62359000D01*
X46102828Y-62359000D01*
X45978125Y-62172368D01*
X45777143Y-61971386D01*
X45913102Y-61923157D01*
X46163205Y-61774178D01*
X46379438Y-61579269D01*
X46553491Y-61345920D01*
X46678675Y-61083099D01*
X46723326Y-60935890D01*
X46602005Y-60706000D01*
X45408850Y-60706000D01*
X45408850Y-60726000D01*
X45154850Y-60726000D01*
X45154850Y-60706000D01*
X43961695Y-60706000D01*
X43840374Y-60935890D01*
X43885025Y-61083099D01*
X44010209Y-61345920D01*
X44184262Y-61579269D01*
X44334488Y-61714680D01*
X44121239Y-61803010D01*
X43987214Y-61892562D01*
X43189426Y-61094775D01*
X43237150Y-60854850D01*
X43237150Y-60557150D01*
X43179072Y-60265170D01*
X43065147Y-59990131D01*
X42899754Y-59742602D01*
X42689248Y-59532096D01*
X42441719Y-59366703D01*
X42166680Y-59252778D01*
X42126090Y-59244704D01*
X42136213Y-59213169D01*
X41268650Y-58345605D01*
X40401087Y-59213169D01*
X40481904Y-59464929D01*
X40717062Y-59577486D01*
X40551946Y-59742602D01*
X40386553Y-59990131D01*
X40272628Y-60265170D01*
X40214550Y-60557150D01*
X40214550Y-60854850D01*
X40272628Y-61146830D01*
X40386553Y-61421869D01*
X40551946Y-61669398D01*
X40719990Y-61837442D01*
X40552781Y-61906703D01*
X40305252Y-62072096D01*
X40094746Y-62282602D01*
X39929353Y-62530131D01*
X39815428Y-62805170D01*
X39757350Y-63097150D01*
X39757350Y-63394850D01*
X39815428Y-63686830D01*
X39929353Y-63961869D01*
X40094746Y-64209398D01*
X40305252Y-64419904D01*
X40552781Y-64585297D01*
X40719990Y-64654558D01*
X40551946Y-64822602D01*
X40386553Y-65070131D01*
X40272628Y-65345170D01*
X40214550Y-65637150D01*
X40214550Y-65934850D01*
X40272628Y-66226830D01*
X40386553Y-66501869D01*
X40551946Y-66749398D01*
X40719990Y-66917442D01*
X40552781Y-66986703D01*
X40305252Y-67152096D01*
X40094746Y-67362602D01*
X39929353Y-67610131D01*
X39815428Y-67885170D01*
X39757350Y-68177150D01*
X39757350Y-68474850D01*
X39815428Y-68766830D01*
X39929353Y-69041869D01*
X40094746Y-69289398D01*
X40305252Y-69499904D01*
X40552781Y-69665297D01*
X40719990Y-69734558D01*
X40551946Y-69902602D01*
X40386553Y-70150131D01*
X40272628Y-70425170D01*
X40214550Y-70717150D01*
X40214550Y-71014850D01*
X40272628Y-71306830D01*
X40386553Y-71581869D01*
X40551946Y-71829398D01*
X40719990Y-71997442D01*
X40552781Y-72066703D01*
X40305252Y-72232096D01*
X40094746Y-72442602D01*
X39929353Y-72690131D01*
X39815428Y-72965170D01*
X39757350Y-73257150D01*
X39757350Y-73554850D01*
X39815428Y-73846830D01*
X39929353Y-74121869D01*
X40094746Y-74369398D01*
X40305252Y-74579904D01*
X40552781Y-74745297D01*
X40719990Y-74814558D01*
X40551946Y-74982602D01*
X40386553Y-75230131D01*
X40272628Y-75505170D01*
X40214550Y-75797150D01*
X40214550Y-76094850D01*
X40272628Y-76386830D01*
X40386553Y-76661869D01*
X40551946Y-76909398D01*
X40719990Y-77077442D01*
X40552781Y-77146703D01*
X40305252Y-77312096D01*
X40094746Y-77522602D01*
X39929353Y-77770131D01*
X39815428Y-78045170D01*
X39757350Y-78337150D01*
X39757350Y-78634850D01*
X39815428Y-78926830D01*
X39929353Y-79201869D01*
X40094746Y-79449398D01*
X40305252Y-79659904D01*
X40552781Y-79825297D01*
X40719990Y-79894558D01*
X40551946Y-80062602D01*
X40386553Y-80310131D01*
X40272628Y-80585170D01*
X40214550Y-80877150D01*
X40214550Y-81174850D01*
X40272628Y-81466830D01*
X40386553Y-81741869D01*
X40551946Y-81989398D01*
X40719990Y-82157442D01*
X40552781Y-82226703D01*
X40305252Y-82392096D01*
X40094746Y-82602602D01*
X40017765Y-82717813D01*
X39920648Y-82620696D01*
X39673119Y-82455303D01*
X39398080Y-82341378D01*
X39106100Y-82283300D01*
X38808400Y-82283300D01*
X38516420Y-82341378D01*
X38241381Y-82455303D01*
X37993852Y-82620696D01*
X37825808Y-82788740D01*
X37756547Y-82621531D01*
X37591154Y-82374002D01*
X37380648Y-82163496D01*
X37133119Y-81998103D01*
X36858080Y-81884178D01*
X36566100Y-81826100D01*
X36268400Y-81826100D01*
X35976420Y-81884178D01*
X35701381Y-81998103D01*
X35453852Y-82163496D01*
X35243346Y-82374002D01*
X35077953Y-82621531D01*
X35008692Y-82788740D01*
X34840648Y-82620696D01*
X34593119Y-82455303D01*
X34318080Y-82341378D01*
X34026100Y-82283300D01*
X33728400Y-82283300D01*
X33436420Y-82341378D01*
X33161381Y-82455303D01*
X32913852Y-82620696D01*
X32745808Y-82788740D01*
X32676547Y-82621531D01*
X32511154Y-82374002D01*
X32300648Y-82163496D01*
X32053119Y-81998103D01*
X31778080Y-81884178D01*
X31486100Y-81826100D01*
X31188400Y-81826100D01*
X30896420Y-81884178D01*
X30621381Y-81998103D01*
X30373852Y-82163496D01*
X30163346Y-82374002D01*
X29997953Y-82621531D01*
X29928692Y-82788740D01*
X29760648Y-82620696D01*
X29557250Y-82484790D01*
X29557250Y-67845508D01*
X29743759Y-67720887D01*
X29943637Y-67521009D01*
X30047043Y-67366250D01*
X33368928Y-67366250D01*
X33406250Y-67369926D01*
X33443572Y-67366250D01*
X33443583Y-67366250D01*
X33555236Y-67355253D01*
X33698497Y-67311796D01*
X33830526Y-67241224D01*
X33946251Y-67146251D01*
X33970054Y-67117247D01*
X36544754Y-64542548D01*
X36573751Y-64518751D01*
X36619376Y-64463157D01*
X36668724Y-64403027D01*
X36739296Y-64270997D01*
X36755518Y-64217519D01*
X36782753Y-64127736D01*
X36793750Y-64016083D01*
X36793750Y-64016074D01*
X36797426Y-63978751D01*
X36793750Y-63941428D01*
X36793750Y-59666018D01*
X36884935Y-59591185D01*
X36964287Y-59494494D01*
X37023252Y-59384180D01*
X37059562Y-59264482D01*
X37071822Y-59140000D01*
X37071822Y-58233491D01*
X39751537Y-58233491D01*
X39793854Y-58528167D01*
X39892848Y-58808927D01*
X39969721Y-58952746D01*
X40221481Y-59033563D01*
X41089045Y-58166000D01*
X41448255Y-58166000D01*
X42315819Y-59033563D01*
X42567579Y-58952746D01*
X42696107Y-58684221D01*
X42769779Y-58395781D01*
X42785763Y-58098509D01*
X42743446Y-57803833D01*
X42644452Y-57523073D01*
X42567579Y-57379254D01*
X42315819Y-57298437D01*
X41448255Y-58166000D01*
X41089045Y-58166000D01*
X40221481Y-57298437D01*
X39969721Y-57379254D01*
X39841193Y-57647779D01*
X39767521Y-57936219D01*
X39751537Y-58233491D01*
X37071822Y-58233491D01*
X37071822Y-57240000D01*
X37059562Y-57115518D01*
X37023252Y-56995820D01*
X36964287Y-56885506D01*
X36884935Y-56788815D01*
X36788244Y-56709463D01*
X36710036Y-56667659D01*
X36713976Y-56658148D01*
X36753750Y-56458189D01*
X36753750Y-56254311D01*
X36713976Y-56054352D01*
X36635955Y-55865994D01*
X36522687Y-55696476D01*
X36378524Y-55552313D01*
X36266035Y-55477150D01*
X40214550Y-55477150D01*
X40214550Y-55774850D01*
X40272628Y-56066830D01*
X40386553Y-56341869D01*
X40551946Y-56589398D01*
X40719634Y-56757086D01*
X40625723Y-56790198D01*
X40481904Y-56867071D01*
X40401087Y-57118831D01*
X41268650Y-57986395D01*
X42066044Y-57189000D01*
X43336578Y-57189000D01*
X43336578Y-58889000D01*
X43348838Y-59013482D01*
X43385148Y-59133180D01*
X43444113Y-59243494D01*
X43523465Y-59340185D01*
X43620156Y-59419537D01*
X43730470Y-59478502D01*
X43850168Y-59514812D01*
X43974650Y-59527072D01*
X44241573Y-59527072D01*
X44184262Y-59578731D01*
X44010209Y-59812080D01*
X43885025Y-60074901D01*
X43840374Y-60222110D01*
X43961695Y-60452000D01*
X45154850Y-60452000D01*
X45154850Y-60432000D01*
X45408850Y-60432000D01*
X45408850Y-60452000D01*
X46602005Y-60452000D01*
X46723326Y-60222110D01*
X46678675Y-60074901D01*
X46553491Y-59812080D01*
X46379438Y-59578731D01*
X46163205Y-59383822D01*
X46110742Y-59352571D01*
X46125835Y-59340185D01*
X46205187Y-59243494D01*
X46264152Y-59133180D01*
X46300462Y-59013482D01*
X46312722Y-58889000D01*
X46312722Y-57189000D01*
X46300462Y-57064518D01*
X46264152Y-56944820D01*
X46205187Y-56834506D01*
X46125835Y-56737815D01*
X46029144Y-56658463D01*
X45918830Y-56599498D01*
X45799132Y-56563188D01*
X45674650Y-56550928D01*
X43974650Y-56550928D01*
X43850168Y-56563188D01*
X43730470Y-56599498D01*
X43620156Y-56658463D01*
X43523465Y-56737815D01*
X43444113Y-56834506D01*
X43385148Y-56944820D01*
X43348838Y-57064518D01*
X43336578Y-57189000D01*
X42066044Y-57189000D01*
X42136213Y-57118831D01*
X42126090Y-57087296D01*
X42166680Y-57079222D01*
X42441719Y-56965297D01*
X42689248Y-56799904D01*
X42899754Y-56589398D01*
X43065147Y-56341869D01*
X43179072Y-56066830D01*
X43237150Y-55774850D01*
X43237150Y-55477150D01*
X43179072Y-55185170D01*
X43065147Y-54910131D01*
X42899754Y-54662602D01*
X42689248Y-54452096D01*
X42441719Y-54286703D01*
X42166680Y-54172778D01*
X41874700Y-54114700D01*
X41577000Y-54114700D01*
X41285020Y-54172778D01*
X41009981Y-54286703D01*
X40762452Y-54452096D01*
X40551946Y-54662602D01*
X40386553Y-54910131D01*
X40272628Y-55185170D01*
X40214550Y-55477150D01*
X36266035Y-55477150D01*
X36209006Y-55439045D01*
X36020648Y-55361024D01*
X35820689Y-55321250D01*
X35616811Y-55321250D01*
X35416852Y-55361024D01*
X35228494Y-55439045D01*
X35058976Y-55552313D01*
X34914813Y-55696476D01*
X34801545Y-55865994D01*
X34723524Y-56054352D01*
X34683750Y-56254311D01*
X34683750Y-56458189D01*
X34695697Y-56518250D01*
X34605001Y-56608945D01*
X34533750Y-56601928D01*
X34419500Y-56605000D01*
X34260750Y-56763750D01*
X34260750Y-58063000D01*
X34280750Y-58063000D01*
X34280750Y-58317000D01*
X34260750Y-58317000D01*
X34260750Y-59616250D01*
X34323750Y-59679250D01*
X34323750Y-59713981D01*
X34232565Y-59788815D01*
X34153213Y-59885506D01*
X34094248Y-59995820D01*
X34057938Y-60115518D01*
X34045678Y-60240000D01*
X34045678Y-62140000D01*
X34057938Y-62264482D01*
X34094248Y-62384180D01*
X34153213Y-62494494D01*
X34232565Y-62591185D01*
X34329256Y-62670537D01*
X34439570Y-62729502D01*
X34559268Y-62765812D01*
X34683750Y-62778072D01*
X35273750Y-62778072D01*
X35273750Y-63663948D01*
X33091449Y-65846250D01*
X30047043Y-65846250D01*
X29943637Y-65691491D01*
X29743759Y-65491613D01*
X29717072Y-65473781D01*
X29717072Y-65372291D01*
X29783494Y-65336787D01*
X29880185Y-65257435D01*
X29959537Y-65160744D01*
X30018502Y-65050430D01*
X30054812Y-64930732D01*
X30067072Y-64806250D01*
X30067072Y-63306250D01*
X30054812Y-63181768D01*
X30018502Y-63062070D01*
X29959537Y-62951756D01*
X29880185Y-62855065D01*
X29783494Y-62775713D01*
X29673180Y-62716748D01*
X29638573Y-62706250D01*
X29673180Y-62695752D01*
X29783494Y-62636787D01*
X29880185Y-62557435D01*
X29959537Y-62460744D01*
X30018502Y-62350430D01*
X30054812Y-62230732D01*
X30067072Y-62106250D01*
X30064000Y-61642000D01*
X29905250Y-61483250D01*
X29716606Y-61483250D01*
X29715938Y-61229250D01*
X29905250Y-61229250D01*
X30064000Y-61070500D01*
X30067072Y-60606250D01*
X30054812Y-60481768D01*
X30018502Y-60362070D01*
X29959537Y-60251756D01*
X29880185Y-60155065D01*
X29783494Y-60075713D01*
X29673180Y-60016748D01*
X29630653Y-60003847D01*
X29714000Y-59920500D01*
X29715072Y-59512717D01*
X29821702Y-59619347D01*
X30065671Y-59547764D01*
X30186571Y-59292254D01*
X30224735Y-59140000D01*
X33095678Y-59140000D01*
X33107938Y-59264482D01*
X33144248Y-59384180D01*
X33203213Y-59494494D01*
X33282565Y-59591185D01*
X33379256Y-59670537D01*
X33489570Y-59729502D01*
X33609268Y-59765812D01*
X33733750Y-59778072D01*
X33848000Y-59775000D01*
X34006750Y-59616250D01*
X34006750Y-58317000D01*
X33257500Y-58317000D01*
X33098750Y-58475750D01*
X33095678Y-59140000D01*
X30224735Y-59140000D01*
X30255300Y-59018066D01*
X30269217Y-58735738D01*
X30227787Y-58456120D01*
X30132603Y-58189958D01*
X30065671Y-58064736D01*
X29821702Y-57993153D01*
X29518695Y-58296160D01*
X29438244Y-58228918D01*
X29328464Y-58168965D01*
X29296645Y-58159000D01*
X29642097Y-57813548D01*
X29570514Y-57569579D01*
X29315004Y-57448679D01*
X29040816Y-57379950D01*
X28758488Y-57366033D01*
X28478870Y-57407463D01*
X28212708Y-57502647D01*
X28087486Y-57569579D01*
X28015903Y-57813546D01*
X27941939Y-57739582D01*
X27939072Y-57725170D01*
X27825147Y-57450131D01*
X27684743Y-57240000D01*
X33095678Y-57240000D01*
X33098750Y-57904250D01*
X33257500Y-58063000D01*
X34006750Y-58063000D01*
X34006750Y-56763750D01*
X33848000Y-56605000D01*
X33733750Y-56601928D01*
X33609268Y-56614188D01*
X33489570Y-56650498D01*
X33379256Y-56709463D01*
X33282565Y-56788815D01*
X33203213Y-56885506D01*
X33144248Y-56995820D01*
X33107938Y-57115518D01*
X33095678Y-57240000D01*
X27684743Y-57240000D01*
X27659754Y-57202602D01*
X27449248Y-56992096D01*
X27368646Y-56938240D01*
X27435487Y-56856794D01*
X27494452Y-56746480D01*
X27530762Y-56626782D01*
X27543022Y-56502300D01*
X27543022Y-54749700D01*
X27530762Y-54625218D01*
X27494452Y-54505520D01*
X27435487Y-54395206D01*
X27356135Y-54298515D01*
X27259444Y-54219163D01*
X27149130Y-54160198D01*
X27029432Y-54123888D01*
X26904950Y-54111628D01*
X25152350Y-54111628D01*
X25027868Y-54123888D01*
X24908170Y-54160198D01*
X24797856Y-54219163D01*
X24701165Y-54298515D01*
X24621813Y-54395206D01*
X24562848Y-54505520D01*
X24526538Y-54625218D01*
X24514278Y-54749700D01*
X24514278Y-56167170D01*
X23850372Y-56831076D01*
X23773835Y-56737815D01*
X23677144Y-56658463D01*
X23566830Y-56599498D01*
X23447132Y-56563188D01*
X23322650Y-56550928D01*
X21622650Y-56550928D01*
X21498168Y-56563188D01*
X21378470Y-56599498D01*
X21268156Y-56658463D01*
X21171465Y-56737815D01*
X21092113Y-56834506D01*
X21033148Y-56944820D01*
X20996838Y-57064518D01*
X20984578Y-57189000D01*
X20984578Y-58889000D01*
X20996838Y-59013482D01*
X21033148Y-59133180D01*
X21092113Y-59243494D01*
X21171465Y-59340185D01*
X21268156Y-59419537D01*
X21378470Y-59478502D01*
X21498168Y-59514812D01*
X21622650Y-59527072D01*
X21881671Y-59527072D01*
X21776375Y-59632368D01*
X21613860Y-59875589D01*
X21501918Y-60145842D01*
X21444850Y-60432740D01*
X21444850Y-60725260D01*
X21501918Y-61012158D01*
X21613860Y-61282411D01*
X21776375Y-61525632D01*
X21977357Y-61726614D01*
X21841398Y-61774843D01*
X21591295Y-61923822D01*
X21375062Y-62118731D01*
X21201009Y-62352080D01*
X21075825Y-62614901D01*
X21031174Y-62762110D01*
X21152495Y-62992000D01*
X22345650Y-62992000D01*
X22345650Y-62972000D01*
X22599650Y-62972000D01*
X22599650Y-62992000D01*
X23792805Y-62992000D01*
X23914126Y-62762110D01*
X23869475Y-62614901D01*
X23744291Y-62352080D01*
X23570238Y-62118731D01*
X23420012Y-61983320D01*
X23633261Y-61894990D01*
X23845511Y-61753169D01*
X25161087Y-61753169D01*
X25241904Y-62004929D01*
X25510429Y-62133457D01*
X25629509Y-62163872D01*
X25618287Y-62198831D01*
X26485850Y-63066395D01*
X27353413Y-62198831D01*
X27272596Y-61947071D01*
X27004071Y-61818543D01*
X26884991Y-61788128D01*
X26896213Y-61753169D01*
X26028650Y-60885605D01*
X25161087Y-61753169D01*
X23845511Y-61753169D01*
X23876482Y-61732475D01*
X24083325Y-61525632D01*
X24214921Y-61328684D01*
X24221836Y-61328003D01*
X24365097Y-61284546D01*
X24497126Y-61213974D01*
X24580996Y-61145144D01*
X24652848Y-61348927D01*
X24729721Y-61492746D01*
X24981481Y-61573563D01*
X25849045Y-60706000D01*
X26208255Y-60706000D01*
X27075819Y-61573563D01*
X27327579Y-61492746D01*
X27456107Y-61224221D01*
X27529779Y-60935781D01*
X27545763Y-60638509D01*
X27503446Y-60343833D01*
X27404452Y-60063073D01*
X27327579Y-59919254D01*
X27075819Y-59838437D01*
X26208255Y-60706000D01*
X25849045Y-60706000D01*
X25834903Y-60691858D01*
X26014508Y-60512253D01*
X26028650Y-60526395D01*
X26896213Y-59658831D01*
X26886090Y-59627296D01*
X26926680Y-59619222D01*
X27201719Y-59505297D01*
X27449248Y-59339904D01*
X27483570Y-59305582D01*
X27525397Y-59422542D01*
X27592329Y-59547764D01*
X27836298Y-59619347D01*
X27942928Y-59512717D01*
X27944000Y-59920500D01*
X28027347Y-60003847D01*
X27984820Y-60016748D01*
X27874506Y-60075713D01*
X27777815Y-60155065D01*
X27698463Y-60251756D01*
X27639498Y-60362070D01*
X27603188Y-60481768D01*
X27590928Y-60606250D01*
X27594000Y-61070500D01*
X27752750Y-61229250D01*
X27942062Y-61229250D01*
X27941394Y-61483250D01*
X27752750Y-61483250D01*
X27594000Y-61642000D01*
X27590928Y-62106250D01*
X27603188Y-62230732D01*
X27639498Y-62350430D01*
X27679623Y-62425498D01*
X27533019Y-62378437D01*
X26665455Y-63246000D01*
X27533019Y-64113563D01*
X27590928Y-64094974D01*
X27590928Y-64806250D01*
X27603188Y-64930732D01*
X27639498Y-65050430D01*
X27698463Y-65160744D01*
X27777815Y-65257435D01*
X27874506Y-65336787D01*
X27940928Y-65372291D01*
X27940928Y-65473781D01*
X27914241Y-65491613D01*
X27714363Y-65691491D01*
X27557320Y-65926523D01*
X27527089Y-65999507D01*
X27539950Y-65934850D01*
X27539950Y-65637150D01*
X27481872Y-65345170D01*
X27367947Y-65070131D01*
X27202554Y-64822602D01*
X27034866Y-64654914D01*
X27128777Y-64621802D01*
X27272596Y-64544929D01*
X27353413Y-64293169D01*
X26485850Y-63425605D01*
X25618287Y-64293169D01*
X25628410Y-64324704D01*
X25587820Y-64332778D01*
X25312781Y-64446703D01*
X25065252Y-64612096D01*
X24854746Y-64822602D01*
X24689353Y-65070131D01*
X24575428Y-65345170D01*
X24517350Y-65637150D01*
X24517350Y-65934850D01*
X24565074Y-66174775D01*
X23556803Y-67183046D01*
X23425143Y-67051386D01*
X23561102Y-67003157D01*
X23811205Y-66854178D01*
X24027438Y-66659269D01*
X24201491Y-66425920D01*
X24326675Y-66163099D01*
X24371326Y-66015890D01*
X24250005Y-65786000D01*
X23056850Y-65786000D01*
X23056850Y-65806000D01*
X22802850Y-65806000D01*
X22802850Y-65786000D01*
X21609695Y-65786000D01*
X21488374Y-66015890D01*
X21533025Y-66163099D01*
X21658209Y-66425920D01*
X21832262Y-66659269D01*
X21982488Y-66794680D01*
X21769239Y-66883010D01*
X21526018Y-67045525D01*
X21319175Y-67252368D01*
X21156660Y-67495589D01*
X21044718Y-67765842D01*
X20987650Y-68052740D01*
X20987650Y-68345260D01*
X21031440Y-68565408D01*
X20126498Y-69470351D01*
X20097500Y-69494149D01*
X20073702Y-69523147D01*
X20073701Y-69523148D01*
X20002526Y-69609874D01*
X19931954Y-69741904D01*
X19916647Y-69792368D01*
X19888498Y-69885164D01*
X19883912Y-69931727D01*
X19873824Y-70034150D01*
X19877501Y-70071483D01*
X19877500Y-85019785D01*
X19839518Y-84948726D01*
X19452275Y-84708580D01*
X17642105Y-86518750D01*
X19452275Y-88328920D01*
X19839518Y-88088774D01*
X20100141Y-87594873D01*
X20223666Y-87179717D01*
X22077698Y-89033750D01*
X18774379Y-89033750D01*
X19032524Y-88895768D01*
X19272670Y-88508525D01*
X17462500Y-86698355D01*
X15652330Y-88508525D01*
X15892476Y-88895768D01*
X16153963Y-89033750D01*
X15907280Y-89033750D01*
X15695462Y-89012981D01*
X15522764Y-88960841D01*
X15363482Y-88876149D01*
X15223679Y-88762128D01*
X15108694Y-88623135D01*
X15022890Y-88464445D01*
X14969545Y-88292115D01*
X14947500Y-88082369D01*
X14947500Y-87830629D01*
X15085482Y-88088774D01*
X15472725Y-88328920D01*
X17282895Y-86518750D01*
X15472725Y-84708580D01*
X15085482Y-84948726D01*
X14947500Y-85210213D01*
X14947500Y-84528975D01*
X15652330Y-84528975D01*
X17462500Y-86339145D01*
X19272670Y-84528975D01*
X19032524Y-84141732D01*
X18538623Y-83881109D01*
X18003367Y-83721849D01*
X17447326Y-83670072D01*
X16891868Y-83727769D01*
X16358339Y-83892722D01*
X15892476Y-84141732D01*
X15652330Y-84528975D01*
X14947500Y-84528975D01*
X14947500Y-63475890D01*
X21031174Y-63475890D01*
X21075825Y-63623099D01*
X21201009Y-63885920D01*
X21375062Y-64119269D01*
X21591295Y-64314178D01*
X21841398Y-64463157D01*
X21990540Y-64516062D01*
X21832262Y-64658731D01*
X21658209Y-64892080D01*
X21533025Y-65154901D01*
X21488374Y-65302110D01*
X21609695Y-65532000D01*
X22802850Y-65532000D01*
X22802850Y-65512000D01*
X23056850Y-65512000D01*
X23056850Y-65532000D01*
X24250005Y-65532000D01*
X24371326Y-65302110D01*
X24326675Y-65154901D01*
X24201491Y-64892080D01*
X24027438Y-64658731D01*
X23811205Y-64463822D01*
X23561102Y-64314843D01*
X23411960Y-64261938D01*
X23570238Y-64119269D01*
X23744291Y-63885920D01*
X23869475Y-63623099D01*
X23914126Y-63475890D01*
X23828423Y-63313491D01*
X24968737Y-63313491D01*
X25011054Y-63608167D01*
X25110048Y-63888927D01*
X25186921Y-64032746D01*
X25438681Y-64113563D01*
X26306245Y-63246000D01*
X25438681Y-62378437D01*
X25186921Y-62459254D01*
X25058393Y-62727779D01*
X24984721Y-63016219D01*
X24968737Y-63313491D01*
X23828423Y-63313491D01*
X23792805Y-63246000D01*
X22599650Y-63246000D01*
X22599650Y-63266000D01*
X22345650Y-63266000D01*
X22345650Y-63246000D01*
X21152495Y-63246000D01*
X21031174Y-63475890D01*
X14947500Y-63475890D01*
X14947500Y-56758525D01*
X15652330Y-56758525D01*
X15892476Y-57145768D01*
X16386377Y-57406391D01*
X16921633Y-57565651D01*
X17477674Y-57617428D01*
X18033132Y-57559731D01*
X18566661Y-57394778D01*
X19032524Y-57145768D01*
X19272670Y-56758525D01*
X17462500Y-54948355D01*
X15652330Y-56758525D01*
X14947500Y-56758525D01*
X14947500Y-56080629D01*
X15085482Y-56338774D01*
X15472725Y-56578920D01*
X17282895Y-54768750D01*
X17642105Y-54768750D01*
X19452275Y-56578920D01*
X19839518Y-56338774D01*
X20100141Y-55844873D01*
X20259401Y-55309617D01*
X20311178Y-54753576D01*
X20253481Y-54198118D01*
X20088528Y-53664589D01*
X19839518Y-53198726D01*
X19452275Y-52958580D01*
X17642105Y-54768750D01*
X17282895Y-54768750D01*
X15472725Y-52958580D01*
X15085482Y-53198726D01*
X14947500Y-53460213D01*
X14947500Y-53213529D01*
X14968269Y-53001712D01*
X15020410Y-52829013D01*
X15105102Y-52669732D01*
X15219119Y-52529931D01*
X15358117Y-52414942D01*
X15516805Y-52329140D01*
X15689135Y-52275795D01*
X15898880Y-52253750D01*
X16150621Y-52253750D01*
X15892476Y-52391732D01*
G37*
G04 #@! TD.AperFunction*
D28*
X56111051Y-77563003D02*
X56134849Y-77592001D01*
X56163847Y-77615799D01*
X56250573Y-77686974D01*
X56344159Y-77736997D01*
X56382603Y-77757546D01*
X56525864Y-77801003D01*
X56637517Y-77812000D01*
X56637526Y-77812000D01*
X56674849Y-77815676D01*
X56712172Y-77812000D01*
X60503957Y-77812000D01*
X60607363Y-77966759D01*
X60807241Y-78166637D01*
X60962000Y-78270044D01*
X60962001Y-85219475D01*
X60726852Y-85376596D01*
X60516346Y-85587102D01*
X60350953Y-85834631D01*
X60237028Y-86109670D01*
X60178950Y-86401650D01*
X60178950Y-86699350D01*
X60237028Y-86991330D01*
X60350953Y-87266369D01*
X60516346Y-87513898D01*
X60726852Y-87724404D01*
X60974381Y-87889797D01*
X61249420Y-88003722D01*
X61541400Y-88061800D01*
X61839100Y-88061800D01*
X62131080Y-88003722D01*
X62406119Y-87889797D01*
X62653648Y-87724404D01*
X62864154Y-87513898D01*
X63029547Y-87266369D01*
X63143472Y-86991330D01*
X63201550Y-86699350D01*
X63201550Y-86401650D01*
X63143472Y-86109670D01*
X63029547Y-85834631D01*
X62864154Y-85587102D01*
X62653648Y-85376596D01*
X62482000Y-85261905D01*
X62482000Y-78270043D01*
X62636759Y-78166637D01*
X62836637Y-77966759D01*
X62940043Y-77812000D01*
X63075707Y-77812000D01*
X63179113Y-77966759D01*
X63378991Y-78166637D01*
X63614023Y-78323680D01*
X63875176Y-78431853D01*
X64152415Y-78487000D01*
X64435085Y-78487000D01*
X64712324Y-78431853D01*
X64973477Y-78323680D01*
X65208509Y-78166637D01*
X65408387Y-77966759D01*
X65419749Y-77949754D01*
X65419750Y-85111697D01*
X62391449Y-88140000D01*
X40152284Y-88140000D01*
X40209740Y-88054011D01*
X40321682Y-87783758D01*
X40378750Y-87496860D01*
X40378750Y-87204340D01*
X40321682Y-86917442D01*
X40209740Y-86647189D01*
X40047225Y-86403968D01*
X39840382Y-86197125D01*
X39717250Y-86114851D01*
X39717250Y-85104410D01*
X39920648Y-84968504D01*
X40131154Y-84757998D01*
X40208135Y-84642787D01*
X40305252Y-84739904D01*
X40552781Y-84905297D01*
X40827820Y-85019222D01*
X41119800Y-85077300D01*
X41417500Y-85077300D01*
X41709480Y-85019222D01*
X41984519Y-84905297D01*
X42232048Y-84739904D01*
X42442554Y-84529398D01*
X42578460Y-84326000D01*
X42604049Y-84326000D01*
X43840640Y-85562592D01*
X43796850Y-85782740D01*
X43796850Y-86075260D01*
X43853918Y-86362158D01*
X43965860Y-86632411D01*
X44128375Y-86875632D01*
X44335218Y-87082475D01*
X44578439Y-87244990D01*
X44848692Y-87356932D01*
X45135590Y-87414000D01*
X45428110Y-87414000D01*
X45715008Y-87356932D01*
X45985261Y-87244990D01*
X46228482Y-87082475D01*
X46435325Y-86875632D01*
X46597840Y-86632411D01*
X46693423Y-86401650D01*
X52241450Y-86401650D01*
X52241450Y-86699350D01*
X52299528Y-86991330D01*
X52413453Y-87266369D01*
X52578846Y-87513898D01*
X52789352Y-87724404D01*
X53036881Y-87889797D01*
X53311920Y-88003722D01*
X53603900Y-88061800D01*
X53901600Y-88061800D01*
X54193580Y-88003722D01*
X54468619Y-87889797D01*
X54716148Y-87724404D01*
X54842883Y-87597669D01*
X56853937Y-87597669D01*
X56934754Y-87849429D01*
X57203279Y-87977957D01*
X57491719Y-88051629D01*
X57788991Y-88067613D01*
X58083667Y-88025296D01*
X58364427Y-87926302D01*
X58508246Y-87849429D01*
X58589063Y-87597669D01*
X57721500Y-86730105D01*
X56853937Y-87597669D01*
X54842883Y-87597669D01*
X54926654Y-87513898D01*
X55092047Y-87266369D01*
X55205972Y-86991330D01*
X55264050Y-86699350D01*
X55264050Y-86617991D01*
X56204387Y-86617991D01*
X56246704Y-86912667D01*
X56345698Y-87193427D01*
X56422571Y-87337246D01*
X56674331Y-87418063D01*
X57541895Y-86550500D01*
X57901105Y-86550500D01*
X58768669Y-87418063D01*
X59020429Y-87337246D01*
X59148957Y-87068721D01*
X59222629Y-86780281D01*
X59238613Y-86483009D01*
X59196296Y-86188333D01*
X59097302Y-85907573D01*
X59020429Y-85763754D01*
X58768669Y-85682937D01*
X57901105Y-86550500D01*
X57541895Y-86550500D01*
X56674331Y-85682937D01*
X56422571Y-85763754D01*
X56294043Y-86032279D01*
X56220371Y-86320719D01*
X56204387Y-86617991D01*
X55264050Y-86617991D01*
X55264050Y-86401650D01*
X55205972Y-86109670D01*
X55092047Y-85834631D01*
X54926654Y-85587102D01*
X54842883Y-85503331D01*
X56853937Y-85503331D01*
X57721500Y-86370895D01*
X58589063Y-85503331D01*
X58508246Y-85251571D01*
X58239721Y-85123043D01*
X57951281Y-85049371D01*
X57654009Y-85033387D01*
X57359333Y-85075704D01*
X57078573Y-85174698D01*
X56934754Y-85251571D01*
X56853937Y-85503331D01*
X54842883Y-85503331D01*
X54716148Y-85376596D01*
X54468619Y-85211203D01*
X54193580Y-85097278D01*
X53901600Y-85039200D01*
X53603900Y-85039200D01*
X53311920Y-85097278D01*
X53036881Y-85211203D01*
X52789352Y-85376596D01*
X52578846Y-85587102D01*
X52413453Y-85834631D01*
X52299528Y-86109670D01*
X52241450Y-86401650D01*
X46693423Y-86401650D01*
X46709782Y-86362158D01*
X46766850Y-86075260D01*
X46766850Y-85782740D01*
X46709782Y-85495842D01*
X46597840Y-85225589D01*
X46435325Y-84982368D01*
X46228482Y-84775525D01*
X45985261Y-84613010D01*
X45784079Y-84529678D01*
X45978125Y-84335632D01*
X46140640Y-84092411D01*
X46252582Y-83822158D01*
X46309650Y-83535260D01*
X46309650Y-83242740D01*
X46252582Y-82955842D01*
X46140640Y-82685589D01*
X45978125Y-82442368D01*
X45784079Y-82248322D01*
X45985261Y-82164990D01*
X46228482Y-82002475D01*
X46435325Y-81795632D01*
X46597840Y-81552411D01*
X46709782Y-81282158D01*
X46766850Y-80995260D01*
X46766850Y-80702740D01*
X46709782Y-80415842D01*
X46597840Y-80145589D01*
X46435325Y-79902368D01*
X46228482Y-79695525D01*
X45985261Y-79533010D01*
X45784079Y-79449678D01*
X45978125Y-79255632D01*
X46140640Y-79012411D01*
X46252582Y-78742158D01*
X46309650Y-78455260D01*
X46309650Y-78162740D01*
X46252582Y-77875842D01*
X46140640Y-77605589D01*
X45978125Y-77362368D01*
X45784079Y-77168322D01*
X45985261Y-77084990D01*
X46228482Y-76922475D01*
X46435325Y-76715632D01*
X46597840Y-76472411D01*
X46709782Y-76202158D01*
X46766850Y-75915260D01*
X46766850Y-75622740D01*
X46709782Y-75335842D01*
X46597840Y-75065589D01*
X46435325Y-74822368D01*
X46228482Y-74615525D01*
X45985261Y-74453010D01*
X45784079Y-74369678D01*
X45978125Y-74175632D01*
X46140640Y-73932411D01*
X46252582Y-73662158D01*
X46309650Y-73375260D01*
X46309650Y-73082740D01*
X46252582Y-72795842D01*
X46140640Y-72525589D01*
X45978125Y-72282368D01*
X45819434Y-72123677D01*
X45985261Y-72054990D01*
X46228482Y-71892475D01*
X46435325Y-71685632D01*
X46597840Y-71442411D01*
X46709782Y-71172158D01*
X46766850Y-70885260D01*
X46766850Y-70592740D01*
X46709782Y-70305842D01*
X46597840Y-70035589D01*
X46435325Y-69792368D01*
X46228482Y-69585525D01*
X45985261Y-69423010D01*
X45784079Y-69339678D01*
X45978125Y-69145632D01*
X46140640Y-68902411D01*
X46252582Y-68632158D01*
X46309650Y-68345260D01*
X46309650Y-68052740D01*
X46252582Y-67765842D01*
X46209230Y-67661182D01*
X56111051Y-77563003D01*
G04 #@! TA.AperFunction,Conductor*
D29*
G36*
X56111051Y-77563003D02*
G01*
X56134849Y-77592001D01*
X56163847Y-77615799D01*
X56250573Y-77686974D01*
X56344159Y-77736997D01*
X56382603Y-77757546D01*
X56525864Y-77801003D01*
X56637517Y-77812000D01*
X56637526Y-77812000D01*
X56674849Y-77815676D01*
X56712172Y-77812000D01*
X60503957Y-77812000D01*
X60607363Y-77966759D01*
X60807241Y-78166637D01*
X60962000Y-78270044D01*
X60962001Y-85219475D01*
X60726852Y-85376596D01*
X60516346Y-85587102D01*
X60350953Y-85834631D01*
X60237028Y-86109670D01*
X60178950Y-86401650D01*
X60178950Y-86699350D01*
X60237028Y-86991330D01*
X60350953Y-87266369D01*
X60516346Y-87513898D01*
X60726852Y-87724404D01*
X60974381Y-87889797D01*
X61249420Y-88003722D01*
X61541400Y-88061800D01*
X61839100Y-88061800D01*
X62131080Y-88003722D01*
X62406119Y-87889797D01*
X62653648Y-87724404D01*
X62864154Y-87513898D01*
X63029547Y-87266369D01*
X63143472Y-86991330D01*
X63201550Y-86699350D01*
X63201550Y-86401650D01*
X63143472Y-86109670D01*
X63029547Y-85834631D01*
X62864154Y-85587102D01*
X62653648Y-85376596D01*
X62482000Y-85261905D01*
X62482000Y-78270043D01*
X62636759Y-78166637D01*
X62836637Y-77966759D01*
X62940043Y-77812000D01*
X63075707Y-77812000D01*
X63179113Y-77966759D01*
X63378991Y-78166637D01*
X63614023Y-78323680D01*
X63875176Y-78431853D01*
X64152415Y-78487000D01*
X64435085Y-78487000D01*
X64712324Y-78431853D01*
X64973477Y-78323680D01*
X65208509Y-78166637D01*
X65408387Y-77966759D01*
X65419749Y-77949754D01*
X65419750Y-85111697D01*
X62391449Y-88140000D01*
X40152284Y-88140000D01*
X40209740Y-88054011D01*
X40321682Y-87783758D01*
X40378750Y-87496860D01*
X40378750Y-87204340D01*
X40321682Y-86917442D01*
X40209740Y-86647189D01*
X40047225Y-86403968D01*
X39840382Y-86197125D01*
X39717250Y-86114851D01*
X39717250Y-85104410D01*
X39920648Y-84968504D01*
X40131154Y-84757998D01*
X40208135Y-84642787D01*
X40305252Y-84739904D01*
X40552781Y-84905297D01*
X40827820Y-85019222D01*
X41119800Y-85077300D01*
X41417500Y-85077300D01*
X41709480Y-85019222D01*
X41984519Y-84905297D01*
X42232048Y-84739904D01*
X42442554Y-84529398D01*
X42578460Y-84326000D01*
X42604049Y-84326000D01*
X43840640Y-85562592D01*
X43796850Y-85782740D01*
X43796850Y-86075260D01*
X43853918Y-86362158D01*
X43965860Y-86632411D01*
X44128375Y-86875632D01*
X44335218Y-87082475D01*
X44578439Y-87244990D01*
X44848692Y-87356932D01*
X45135590Y-87414000D01*
X45428110Y-87414000D01*
X45715008Y-87356932D01*
X45985261Y-87244990D01*
X46228482Y-87082475D01*
X46435325Y-86875632D01*
X46597840Y-86632411D01*
X46693423Y-86401650D01*
X52241450Y-86401650D01*
X52241450Y-86699350D01*
X52299528Y-86991330D01*
X52413453Y-87266369D01*
X52578846Y-87513898D01*
X52789352Y-87724404D01*
X53036881Y-87889797D01*
X53311920Y-88003722D01*
X53603900Y-88061800D01*
X53901600Y-88061800D01*
X54193580Y-88003722D01*
X54468619Y-87889797D01*
X54716148Y-87724404D01*
X54842883Y-87597669D01*
X56853937Y-87597669D01*
X56934754Y-87849429D01*
X57203279Y-87977957D01*
X57491719Y-88051629D01*
X57788991Y-88067613D01*
X58083667Y-88025296D01*
X58364427Y-87926302D01*
X58508246Y-87849429D01*
X58589063Y-87597669D01*
X57721500Y-86730105D01*
X56853937Y-87597669D01*
X54842883Y-87597669D01*
X54926654Y-87513898D01*
X55092047Y-87266369D01*
X55205972Y-86991330D01*
X55264050Y-86699350D01*
X55264050Y-86617991D01*
X56204387Y-86617991D01*
X56246704Y-86912667D01*
X56345698Y-87193427D01*
X56422571Y-87337246D01*
X56674331Y-87418063D01*
X57541895Y-86550500D01*
X57901105Y-86550500D01*
X58768669Y-87418063D01*
X59020429Y-87337246D01*
X59148957Y-87068721D01*
X59222629Y-86780281D01*
X59238613Y-86483009D01*
X59196296Y-86188333D01*
X59097302Y-85907573D01*
X59020429Y-85763754D01*
X58768669Y-85682937D01*
X57901105Y-86550500D01*
X57541895Y-86550500D01*
X56674331Y-85682937D01*
X56422571Y-85763754D01*
X56294043Y-86032279D01*
X56220371Y-86320719D01*
X56204387Y-86617991D01*
X55264050Y-86617991D01*
X55264050Y-86401650D01*
X55205972Y-86109670D01*
X55092047Y-85834631D01*
X54926654Y-85587102D01*
X54842883Y-85503331D01*
X56853937Y-85503331D01*
X57721500Y-86370895D01*
X58589063Y-85503331D01*
X58508246Y-85251571D01*
X58239721Y-85123043D01*
X57951281Y-85049371D01*
X57654009Y-85033387D01*
X57359333Y-85075704D01*
X57078573Y-85174698D01*
X56934754Y-85251571D01*
X56853937Y-85503331D01*
X54842883Y-85503331D01*
X54716148Y-85376596D01*
X54468619Y-85211203D01*
X54193580Y-85097278D01*
X53901600Y-85039200D01*
X53603900Y-85039200D01*
X53311920Y-85097278D01*
X53036881Y-85211203D01*
X52789352Y-85376596D01*
X52578846Y-85587102D01*
X52413453Y-85834631D01*
X52299528Y-86109670D01*
X52241450Y-86401650D01*
X46693423Y-86401650D01*
X46709782Y-86362158D01*
X46766850Y-86075260D01*
X46766850Y-85782740D01*
X46709782Y-85495842D01*
X46597840Y-85225589D01*
X46435325Y-84982368D01*
X46228482Y-84775525D01*
X45985261Y-84613010D01*
X45784079Y-84529678D01*
X45978125Y-84335632D01*
X46140640Y-84092411D01*
X46252582Y-83822158D01*
X46309650Y-83535260D01*
X46309650Y-83242740D01*
X46252582Y-82955842D01*
X46140640Y-82685589D01*
X45978125Y-82442368D01*
X45784079Y-82248322D01*
X45985261Y-82164990D01*
X46228482Y-82002475D01*
X46435325Y-81795632D01*
X46597840Y-81552411D01*
X46709782Y-81282158D01*
X46766850Y-80995260D01*
X46766850Y-80702740D01*
X46709782Y-80415842D01*
X46597840Y-80145589D01*
X46435325Y-79902368D01*
X46228482Y-79695525D01*
X45985261Y-79533010D01*
X45784079Y-79449678D01*
X45978125Y-79255632D01*
X46140640Y-79012411D01*
X46252582Y-78742158D01*
X46309650Y-78455260D01*
X46309650Y-78162740D01*
X46252582Y-77875842D01*
X46140640Y-77605589D01*
X45978125Y-77362368D01*
X45784079Y-77168322D01*
X45985261Y-77084990D01*
X46228482Y-76922475D01*
X46435325Y-76715632D01*
X46597840Y-76472411D01*
X46709782Y-76202158D01*
X46766850Y-75915260D01*
X46766850Y-75622740D01*
X46709782Y-75335842D01*
X46597840Y-75065589D01*
X46435325Y-74822368D01*
X46228482Y-74615525D01*
X45985261Y-74453010D01*
X45784079Y-74369678D01*
X45978125Y-74175632D01*
X46140640Y-73932411D01*
X46252582Y-73662158D01*
X46309650Y-73375260D01*
X46309650Y-73082740D01*
X46252582Y-72795842D01*
X46140640Y-72525589D01*
X45978125Y-72282368D01*
X45819434Y-72123677D01*
X45985261Y-72054990D01*
X46228482Y-71892475D01*
X46435325Y-71685632D01*
X46597840Y-71442411D01*
X46709782Y-71172158D01*
X46766850Y-70885260D01*
X46766850Y-70592740D01*
X46709782Y-70305842D01*
X46597840Y-70035589D01*
X46435325Y-69792368D01*
X46228482Y-69585525D01*
X45985261Y-69423010D01*
X45784079Y-69339678D01*
X45978125Y-69145632D01*
X46140640Y-68902411D01*
X46252582Y-68632158D01*
X46309650Y-68345260D01*
X46309650Y-68052740D01*
X46252582Y-67765842D01*
X46209230Y-67661182D01*
X56111051Y-77563003D01*
G37*
G04 #@! TD.AperFunction*
D28*
X66131951Y-59566003D02*
X66155749Y-59595001D01*
X66271474Y-59689974D01*
X66403503Y-59760546D01*
X66546764Y-59804003D01*
X66658417Y-59815000D01*
X66658425Y-59815000D01*
X66695750Y-59818676D01*
X66733075Y-59815000D01*
X68825822Y-59815000D01*
X68950525Y-60001632D01*
X69157368Y-60208475D01*
X69330729Y-60324311D01*
X69255208Y-60566603D01*
X70104000Y-61415395D01*
X70952792Y-60566603D01*
X70877271Y-60324311D01*
X71050632Y-60208475D01*
X71257475Y-60001632D01*
X71380125Y-59818073D01*
X71411322Y-59815000D01*
X71411333Y-59815000D01*
X71522986Y-59804003D01*
X71666247Y-59760546D01*
X71798276Y-59689974D01*
X71914001Y-59595001D01*
X71937804Y-59565997D01*
X72429000Y-59074801D01*
X72429000Y-59201260D01*
X72486068Y-59488158D01*
X72598010Y-59758411D01*
X72760525Y-60001632D01*
X72967368Y-60208475D01*
X73141760Y-60325000D01*
X72967368Y-60441525D01*
X72760525Y-60648368D01*
X72598010Y-60891589D01*
X72486068Y-61161842D01*
X72429000Y-61448740D01*
X72429000Y-61741260D01*
X72472790Y-61961408D01*
X70926498Y-63507701D01*
X70897500Y-63531499D01*
X70873702Y-63560497D01*
X70873701Y-63560498D01*
X70802526Y-63647224D01*
X70731954Y-63779254D01*
X70710803Y-63848983D01*
X70689396Y-63919556D01*
X70688498Y-63922515D01*
X70673824Y-64071500D01*
X70677501Y-64108832D01*
X70677500Y-65566448D01*
X66926701Y-69317248D01*
X66885295Y-69180750D01*
X66866524Y-69145632D01*
X66814723Y-69048720D01*
X66743548Y-68961994D01*
X66719750Y-68932996D01*
X66690752Y-68909198D01*
X66352626Y-68571072D01*
X66724000Y-68571072D01*
X66848482Y-68558812D01*
X66968180Y-68522502D01*
X67078494Y-68463537D01*
X67175185Y-68384185D01*
X67254537Y-68287494D01*
X67313502Y-68177180D01*
X67349812Y-68057482D01*
X67362072Y-67933000D01*
X67362072Y-66433000D01*
X67349812Y-66308518D01*
X67313502Y-66188820D01*
X67254537Y-66078506D01*
X67175185Y-65981815D01*
X67078494Y-65902463D01*
X66968180Y-65843498D01*
X66848482Y-65807188D01*
X66724000Y-65794928D01*
X66024000Y-65794928D01*
X65924000Y-65804777D01*
X65824000Y-65794928D01*
X65124000Y-65794928D01*
X65024000Y-65804777D01*
X64924000Y-65794928D01*
X64224000Y-65794928D01*
X64099518Y-65807188D01*
X63979820Y-65843498D01*
X63869506Y-65902463D01*
X63772815Y-65981815D01*
X63693463Y-66078506D01*
X63634498Y-66188820D01*
X63598188Y-66308518D01*
X63585928Y-66433000D01*
X63585928Y-67933000D01*
X63592035Y-67995012D01*
X63378991Y-68137363D01*
X63179113Y-68337241D01*
X63022070Y-68572273D01*
X63007875Y-68606543D01*
X62993680Y-68572273D01*
X62836637Y-68337241D01*
X62636759Y-68137363D01*
X62401727Y-67980320D01*
X62140574Y-67872147D01*
X61863335Y-67817000D01*
X61580665Y-67817000D01*
X61324072Y-67868040D01*
X61324072Y-66433000D01*
X61311812Y-66308518D01*
X61275502Y-66188820D01*
X61216537Y-66078506D01*
X61137185Y-65981815D01*
X61040494Y-65902463D01*
X60930180Y-65843498D01*
X60810482Y-65807188D01*
X60686000Y-65794928D01*
X60064076Y-65794928D01*
X60044724Y-65758723D01*
X59973549Y-65671997D01*
X59949751Y-65642999D01*
X59920753Y-65619201D01*
X58742432Y-64440881D01*
X58903608Y-64308608D01*
X59082932Y-64090101D01*
X59091533Y-64074010D01*
X65876467Y-64074010D01*
X65885068Y-64090101D01*
X66064393Y-64308608D01*
X66282900Y-64487932D01*
X66532193Y-64621182D01*
X66802692Y-64703236D01*
X67084000Y-64730943D01*
X67365309Y-64703236D01*
X67635808Y-64621182D01*
X67885101Y-64487932D01*
X68103608Y-64308608D01*
X68282932Y-64090101D01*
X68416182Y-63840808D01*
X68498236Y-63570308D01*
X68519000Y-63359491D01*
X68519000Y-62623397D01*
X69255208Y-62623397D01*
X69332843Y-62872472D01*
X69596883Y-62998371D01*
X69880411Y-63070339D01*
X70172531Y-63085611D01*
X70462019Y-63043599D01*
X70737747Y-62945919D01*
X70875157Y-62872472D01*
X70952792Y-62623397D01*
X70104000Y-61774605D01*
X69255208Y-62623397D01*
X68519000Y-62623397D01*
X68519000Y-62618508D01*
X68498236Y-62407691D01*
X68416182Y-62137192D01*
X68282932Y-61887899D01*
X68103607Y-61669392D01*
X68096466Y-61663531D01*
X68613389Y-61663531D01*
X68655401Y-61953019D01*
X68753081Y-62228747D01*
X68826528Y-62366157D01*
X69075603Y-62443792D01*
X69924395Y-61595000D01*
X70283605Y-61595000D01*
X71132397Y-62443792D01*
X71381472Y-62366157D01*
X71507371Y-62102117D01*
X71579339Y-61818589D01*
X71594611Y-61526469D01*
X71552599Y-61236981D01*
X71454919Y-60961253D01*
X71381472Y-60823843D01*
X71132397Y-60746208D01*
X70283605Y-61595000D01*
X69924395Y-61595000D01*
X69075603Y-60746208D01*
X68826528Y-60823843D01*
X68700629Y-61087883D01*
X68628661Y-61371411D01*
X68613389Y-61663531D01*
X68096466Y-61663531D01*
X67885100Y-61490068D01*
X67635807Y-61356818D01*
X67365308Y-61274764D01*
X67084000Y-61247057D01*
X66802691Y-61274764D01*
X66532192Y-61356818D01*
X66282899Y-61490068D01*
X66064392Y-61669393D01*
X65885068Y-61887900D01*
X65751818Y-62137193D01*
X65669764Y-62407692D01*
X65655353Y-62554010D01*
X63872846Y-62554010D01*
X63898236Y-62470308D01*
X63919000Y-62259491D01*
X63919000Y-61518508D01*
X63904054Y-61366764D01*
X64127957Y-61516371D01*
X64380011Y-61620775D01*
X64647589Y-61674000D01*
X64920411Y-61674000D01*
X65187989Y-61620775D01*
X65440043Y-61516371D01*
X65666886Y-61364799D01*
X65859799Y-61171886D01*
X66011371Y-60945043D01*
X66115775Y-60692989D01*
X66169000Y-60425411D01*
X66169000Y-60152589D01*
X66115775Y-59885011D01*
X66011371Y-59632957D01*
X65859799Y-59406114D01*
X65666886Y-59213201D01*
X65440043Y-59061629D01*
X65187989Y-58957225D01*
X64920411Y-58904000D01*
X64647589Y-58904000D01*
X64380011Y-58957225D01*
X64127957Y-59061629D01*
X63901114Y-59213201D01*
X63708201Y-59406114D01*
X63556629Y-59632957D01*
X63452225Y-59885011D01*
X63399000Y-60152589D01*
X63399000Y-60425411D01*
X63412819Y-60494884D01*
X63285100Y-60390068D01*
X63035807Y-60256818D01*
X62765308Y-60174764D01*
X62484000Y-60147057D01*
X62202691Y-60174764D01*
X61932192Y-60256818D01*
X61682899Y-60390068D01*
X61555181Y-60494884D01*
X61569000Y-60425411D01*
X61569000Y-60152589D01*
X61515775Y-59885011D01*
X61411371Y-59632957D01*
X61259799Y-59406114D01*
X61066886Y-59213201D01*
X60840043Y-59061629D01*
X60587989Y-58957225D01*
X60320411Y-58904000D01*
X60047589Y-58904000D01*
X59780011Y-58957225D01*
X59527957Y-59061629D01*
X59301114Y-59213201D01*
X59108201Y-59406114D01*
X58956629Y-59632957D01*
X58852225Y-59885011D01*
X58799000Y-60152589D01*
X58799000Y-60425411D01*
X58852225Y-60692989D01*
X58956629Y-60945043D01*
X59108201Y-61171886D01*
X59301114Y-61364799D01*
X59527957Y-61516371D01*
X59780011Y-61620775D01*
X60047589Y-61674000D01*
X60320411Y-61674000D01*
X60587989Y-61620775D01*
X60840043Y-61516371D01*
X61063946Y-61366764D01*
X61049000Y-61518509D01*
X61049000Y-62259492D01*
X61069764Y-62470309D01*
X61095154Y-62554010D01*
X59312647Y-62554010D01*
X59298236Y-62407691D01*
X59216182Y-62137192D01*
X59082932Y-61887899D01*
X58903607Y-61669392D01*
X58685100Y-61490068D01*
X58435807Y-61356818D01*
X58165308Y-61274764D01*
X57884000Y-61247057D01*
X57602691Y-61274764D01*
X57332192Y-61356818D01*
X57082899Y-61490068D01*
X56864392Y-61669393D01*
X56685068Y-61887900D01*
X56551818Y-62137193D01*
X56469764Y-62407692D01*
X56449000Y-62618509D01*
X56449000Y-63359492D01*
X56469764Y-63570309D01*
X56551818Y-63840808D01*
X56685068Y-64090101D01*
X56864393Y-64308608D01*
X57082900Y-64487932D01*
X57169750Y-64534354D01*
X57169750Y-64665677D01*
X57166074Y-64703000D01*
X57169750Y-64740322D01*
X57169750Y-64740332D01*
X57180747Y-64851985D01*
X57223678Y-64993513D01*
X57224204Y-64995246D01*
X57294776Y-65127276D01*
X57317448Y-65154901D01*
X57389749Y-65243001D01*
X57418753Y-65266804D01*
X57982965Y-65831017D01*
X57941820Y-65843498D01*
X57831506Y-65902463D01*
X57734815Y-65981815D01*
X57655463Y-66078506D01*
X57596498Y-66188820D01*
X57560188Y-66308518D01*
X57547928Y-66433000D01*
X57547928Y-67933000D01*
X57560188Y-68057482D01*
X57596498Y-68177180D01*
X57655463Y-68287494D01*
X57734815Y-68384185D01*
X57831506Y-68463537D01*
X57941820Y-68522502D01*
X58061518Y-68558812D01*
X58186000Y-68571072D01*
X58886000Y-68571072D01*
X58986000Y-68561223D01*
X59086000Y-68571072D01*
X59786000Y-68571072D01*
X59886000Y-68561223D01*
X59986000Y-68571072D01*
X60451122Y-68571072D01*
X60450320Y-68572273D01*
X60342147Y-68833426D01*
X60287000Y-69110665D01*
X60287000Y-69393335D01*
X60342147Y-69670574D01*
X60450320Y-69931727D01*
X60607363Y-70166759D01*
X60807241Y-70366637D01*
X60833928Y-70384469D01*
X60833928Y-70485959D01*
X60767506Y-70521463D01*
X60670815Y-70600815D01*
X60591463Y-70697506D01*
X60532498Y-70807820D01*
X60496188Y-70927518D01*
X60483928Y-71052000D01*
X60483928Y-72552000D01*
X60496188Y-72676482D01*
X60532498Y-72796180D01*
X60591463Y-72906494D01*
X60670815Y-73003185D01*
X60767506Y-73082537D01*
X60877820Y-73141502D01*
X60912427Y-73152000D01*
X60877820Y-73162498D01*
X60767506Y-73221463D01*
X60670815Y-73300815D01*
X60591463Y-73397506D01*
X60532498Y-73507820D01*
X60496188Y-73627518D01*
X60483928Y-73752000D01*
X60483928Y-75252000D01*
X60496188Y-75376482D01*
X60532498Y-75496180D01*
X60591463Y-75606494D01*
X60670815Y-75703185D01*
X60767506Y-75782537D01*
X60833928Y-75818041D01*
X60833928Y-75919531D01*
X60807241Y-75937363D01*
X60607363Y-76137241D01*
X60503957Y-76292000D01*
X56989652Y-76292000D01*
X46723059Y-66025408D01*
X46766850Y-65805260D01*
X46766850Y-65512740D01*
X46723059Y-65292592D01*
X49343152Y-62672500D01*
X55409178Y-62672500D01*
X55446500Y-62676176D01*
X55483822Y-62672500D01*
X55483833Y-62672500D01*
X55595486Y-62661503D01*
X55738747Y-62618046D01*
X55870776Y-62547474D01*
X55986501Y-62452501D01*
X56010304Y-62423497D01*
X60417801Y-58016000D01*
X61049000Y-58016000D01*
X61049000Y-58316000D01*
X61101350Y-58593514D01*
X61206834Y-58855483D01*
X61361399Y-59091839D01*
X61559105Y-59293500D01*
X61792354Y-59452715D01*
X62052182Y-59563367D01*
X62134961Y-59580904D01*
X62357000Y-59458915D01*
X62357000Y-58016000D01*
X62611000Y-58016000D01*
X62611000Y-59458915D01*
X62833039Y-59580904D01*
X62915818Y-59563367D01*
X63175646Y-59452715D01*
X63408895Y-59293500D01*
X63606601Y-59091839D01*
X63761166Y-58855483D01*
X63866650Y-58593514D01*
X63919000Y-58316000D01*
X63919000Y-58016000D01*
X62611000Y-58016000D01*
X62357000Y-58016000D01*
X61049000Y-58016000D01*
X60417801Y-58016000D01*
X61066948Y-57366853D01*
X61049000Y-57462000D01*
X61049000Y-57762000D01*
X62357000Y-57762000D01*
X62357000Y-57742000D01*
X62611000Y-57742000D01*
X62611000Y-57762000D01*
X63919000Y-57762000D01*
X63919000Y-57462000D01*
X63893670Y-57327721D01*
X66131951Y-59566003D01*
G04 #@! TA.AperFunction,Conductor*
D29*
G36*
X66131951Y-59566003D02*
G01*
X66155749Y-59595001D01*
X66271474Y-59689974D01*
X66403503Y-59760546D01*
X66546764Y-59804003D01*
X66658417Y-59815000D01*
X66658425Y-59815000D01*
X66695750Y-59818676D01*
X66733075Y-59815000D01*
X68825822Y-59815000D01*
X68950525Y-60001632D01*
X69157368Y-60208475D01*
X69330729Y-60324311D01*
X69255208Y-60566603D01*
X70104000Y-61415395D01*
X70952792Y-60566603D01*
X70877271Y-60324311D01*
X71050632Y-60208475D01*
X71257475Y-60001632D01*
X71380125Y-59818073D01*
X71411322Y-59815000D01*
X71411333Y-59815000D01*
X71522986Y-59804003D01*
X71666247Y-59760546D01*
X71798276Y-59689974D01*
X71914001Y-59595001D01*
X71937804Y-59565997D01*
X72429000Y-59074801D01*
X72429000Y-59201260D01*
X72486068Y-59488158D01*
X72598010Y-59758411D01*
X72760525Y-60001632D01*
X72967368Y-60208475D01*
X73141760Y-60325000D01*
X72967368Y-60441525D01*
X72760525Y-60648368D01*
X72598010Y-60891589D01*
X72486068Y-61161842D01*
X72429000Y-61448740D01*
X72429000Y-61741260D01*
X72472790Y-61961408D01*
X70926498Y-63507701D01*
X70897500Y-63531499D01*
X70873702Y-63560497D01*
X70873701Y-63560498D01*
X70802526Y-63647224D01*
X70731954Y-63779254D01*
X70710803Y-63848983D01*
X70689396Y-63919556D01*
X70688498Y-63922515D01*
X70673824Y-64071500D01*
X70677501Y-64108832D01*
X70677500Y-65566448D01*
X66926701Y-69317248D01*
X66885295Y-69180750D01*
X66866524Y-69145632D01*
X66814723Y-69048720D01*
X66743548Y-68961994D01*
X66719750Y-68932996D01*
X66690752Y-68909198D01*
X66352626Y-68571072D01*
X66724000Y-68571072D01*
X66848482Y-68558812D01*
X66968180Y-68522502D01*
X67078494Y-68463537D01*
X67175185Y-68384185D01*
X67254537Y-68287494D01*
X67313502Y-68177180D01*
X67349812Y-68057482D01*
X67362072Y-67933000D01*
X67362072Y-66433000D01*
X67349812Y-66308518D01*
X67313502Y-66188820D01*
X67254537Y-66078506D01*
X67175185Y-65981815D01*
X67078494Y-65902463D01*
X66968180Y-65843498D01*
X66848482Y-65807188D01*
X66724000Y-65794928D01*
X66024000Y-65794928D01*
X65924000Y-65804777D01*
X65824000Y-65794928D01*
X65124000Y-65794928D01*
X65024000Y-65804777D01*
X64924000Y-65794928D01*
X64224000Y-65794928D01*
X64099518Y-65807188D01*
X63979820Y-65843498D01*
X63869506Y-65902463D01*
X63772815Y-65981815D01*
X63693463Y-66078506D01*
X63634498Y-66188820D01*
X63598188Y-66308518D01*
X63585928Y-66433000D01*
X63585928Y-67933000D01*
X63592035Y-67995012D01*
X63378991Y-68137363D01*
X63179113Y-68337241D01*
X63022070Y-68572273D01*
X63007875Y-68606543D01*
X62993680Y-68572273D01*
X62836637Y-68337241D01*
X62636759Y-68137363D01*
X62401727Y-67980320D01*
X62140574Y-67872147D01*
X61863335Y-67817000D01*
X61580665Y-67817000D01*
X61324072Y-67868040D01*
X61324072Y-66433000D01*
X61311812Y-66308518D01*
X61275502Y-66188820D01*
X61216537Y-66078506D01*
X61137185Y-65981815D01*
X61040494Y-65902463D01*
X60930180Y-65843498D01*
X60810482Y-65807188D01*
X60686000Y-65794928D01*
X60064076Y-65794928D01*
X60044724Y-65758723D01*
X59973549Y-65671997D01*
X59949751Y-65642999D01*
X59920753Y-65619201D01*
X58742432Y-64440881D01*
X58903608Y-64308608D01*
X59082932Y-64090101D01*
X59091533Y-64074010D01*
X65876467Y-64074010D01*
X65885068Y-64090101D01*
X66064393Y-64308608D01*
X66282900Y-64487932D01*
X66532193Y-64621182D01*
X66802692Y-64703236D01*
X67084000Y-64730943D01*
X67365309Y-64703236D01*
X67635808Y-64621182D01*
X67885101Y-64487932D01*
X68103608Y-64308608D01*
X68282932Y-64090101D01*
X68416182Y-63840808D01*
X68498236Y-63570308D01*
X68519000Y-63359491D01*
X68519000Y-62623397D01*
X69255208Y-62623397D01*
X69332843Y-62872472D01*
X69596883Y-62998371D01*
X69880411Y-63070339D01*
X70172531Y-63085611D01*
X70462019Y-63043599D01*
X70737747Y-62945919D01*
X70875157Y-62872472D01*
X70952792Y-62623397D01*
X70104000Y-61774605D01*
X69255208Y-62623397D01*
X68519000Y-62623397D01*
X68519000Y-62618508D01*
X68498236Y-62407691D01*
X68416182Y-62137192D01*
X68282932Y-61887899D01*
X68103607Y-61669392D01*
X68096466Y-61663531D01*
X68613389Y-61663531D01*
X68655401Y-61953019D01*
X68753081Y-62228747D01*
X68826528Y-62366157D01*
X69075603Y-62443792D01*
X69924395Y-61595000D01*
X70283605Y-61595000D01*
X71132397Y-62443792D01*
X71381472Y-62366157D01*
X71507371Y-62102117D01*
X71579339Y-61818589D01*
X71594611Y-61526469D01*
X71552599Y-61236981D01*
X71454919Y-60961253D01*
X71381472Y-60823843D01*
X71132397Y-60746208D01*
X70283605Y-61595000D01*
X69924395Y-61595000D01*
X69075603Y-60746208D01*
X68826528Y-60823843D01*
X68700629Y-61087883D01*
X68628661Y-61371411D01*
X68613389Y-61663531D01*
X68096466Y-61663531D01*
X67885100Y-61490068D01*
X67635807Y-61356818D01*
X67365308Y-61274764D01*
X67084000Y-61247057D01*
X66802691Y-61274764D01*
X66532192Y-61356818D01*
X66282899Y-61490068D01*
X66064392Y-61669393D01*
X65885068Y-61887900D01*
X65751818Y-62137193D01*
X65669764Y-62407692D01*
X65655353Y-62554010D01*
X63872846Y-62554010D01*
X63898236Y-62470308D01*
X63919000Y-62259491D01*
X63919000Y-61518508D01*
X63904054Y-61366764D01*
X64127957Y-61516371D01*
X64380011Y-61620775D01*
X64647589Y-61674000D01*
X64920411Y-61674000D01*
X65187989Y-61620775D01*
X65440043Y-61516371D01*
X65666886Y-61364799D01*
X65859799Y-61171886D01*
X66011371Y-60945043D01*
X66115775Y-60692989D01*
X66169000Y-60425411D01*
X66169000Y-60152589D01*
X66115775Y-59885011D01*
X66011371Y-59632957D01*
X65859799Y-59406114D01*
X65666886Y-59213201D01*
X65440043Y-59061629D01*
X65187989Y-58957225D01*
X64920411Y-58904000D01*
X64647589Y-58904000D01*
X64380011Y-58957225D01*
X64127957Y-59061629D01*
X63901114Y-59213201D01*
X63708201Y-59406114D01*
X63556629Y-59632957D01*
X63452225Y-59885011D01*
X63399000Y-60152589D01*
X63399000Y-60425411D01*
X63412819Y-60494884D01*
X63285100Y-60390068D01*
X63035807Y-60256818D01*
X62765308Y-60174764D01*
X62484000Y-60147057D01*
X62202691Y-60174764D01*
X61932192Y-60256818D01*
X61682899Y-60390068D01*
X61555181Y-60494884D01*
X61569000Y-60425411D01*
X61569000Y-60152589D01*
X61515775Y-59885011D01*
X61411371Y-59632957D01*
X61259799Y-59406114D01*
X61066886Y-59213201D01*
X60840043Y-59061629D01*
X60587989Y-58957225D01*
X60320411Y-58904000D01*
X60047589Y-58904000D01*
X59780011Y-58957225D01*
X59527957Y-59061629D01*
X59301114Y-59213201D01*
X59108201Y-59406114D01*
X58956629Y-59632957D01*
X58852225Y-59885011D01*
X58799000Y-60152589D01*
X58799000Y-60425411D01*
X58852225Y-60692989D01*
X58956629Y-60945043D01*
X59108201Y-61171886D01*
X59301114Y-61364799D01*
X59527957Y-61516371D01*
X59780011Y-61620775D01*
X60047589Y-61674000D01*
X60320411Y-61674000D01*
X60587989Y-61620775D01*
X60840043Y-61516371D01*
X61063946Y-61366764D01*
X61049000Y-61518509D01*
X61049000Y-62259492D01*
X61069764Y-62470309D01*
X61095154Y-62554010D01*
X59312647Y-62554010D01*
X59298236Y-62407691D01*
X59216182Y-62137192D01*
X59082932Y-61887899D01*
X58903607Y-61669392D01*
X58685100Y-61490068D01*
X58435807Y-61356818D01*
X58165308Y-61274764D01*
X57884000Y-61247057D01*
X57602691Y-61274764D01*
X57332192Y-61356818D01*
X57082899Y-61490068D01*
X56864392Y-61669393D01*
X56685068Y-61887900D01*
X56551818Y-62137193D01*
X56469764Y-62407692D01*
X56449000Y-62618509D01*
X56449000Y-63359492D01*
X56469764Y-63570309D01*
X56551818Y-63840808D01*
X56685068Y-64090101D01*
X56864393Y-64308608D01*
X57082900Y-64487932D01*
X57169750Y-64534354D01*
X57169750Y-64665677D01*
X57166074Y-64703000D01*
X57169750Y-64740322D01*
X57169750Y-64740332D01*
X57180747Y-64851985D01*
X57223678Y-64993513D01*
X57224204Y-64995246D01*
X57294776Y-65127276D01*
X57317448Y-65154901D01*
X57389749Y-65243001D01*
X57418753Y-65266804D01*
X57982965Y-65831017D01*
X57941820Y-65843498D01*
X57831506Y-65902463D01*
X57734815Y-65981815D01*
X57655463Y-66078506D01*
X57596498Y-66188820D01*
X57560188Y-66308518D01*
X57547928Y-66433000D01*
X57547928Y-67933000D01*
X57560188Y-68057482D01*
X57596498Y-68177180D01*
X57655463Y-68287494D01*
X57734815Y-68384185D01*
X57831506Y-68463537D01*
X57941820Y-68522502D01*
X58061518Y-68558812D01*
X58186000Y-68571072D01*
X58886000Y-68571072D01*
X58986000Y-68561223D01*
X59086000Y-68571072D01*
X59786000Y-68571072D01*
X59886000Y-68561223D01*
X59986000Y-68571072D01*
X60451122Y-68571072D01*
X60450320Y-68572273D01*
X60342147Y-68833426D01*
X60287000Y-69110665D01*
X60287000Y-69393335D01*
X60342147Y-69670574D01*
X60450320Y-69931727D01*
X60607363Y-70166759D01*
X60807241Y-70366637D01*
X60833928Y-70384469D01*
X60833928Y-70485959D01*
X60767506Y-70521463D01*
X60670815Y-70600815D01*
X60591463Y-70697506D01*
X60532498Y-70807820D01*
X60496188Y-70927518D01*
X60483928Y-71052000D01*
X60483928Y-72552000D01*
X60496188Y-72676482D01*
X60532498Y-72796180D01*
X60591463Y-72906494D01*
X60670815Y-73003185D01*
X60767506Y-73082537D01*
X60877820Y-73141502D01*
X60912427Y-73152000D01*
X60877820Y-73162498D01*
X60767506Y-73221463D01*
X60670815Y-73300815D01*
X60591463Y-73397506D01*
X60532498Y-73507820D01*
X60496188Y-73627518D01*
X60483928Y-73752000D01*
X60483928Y-75252000D01*
X60496188Y-75376482D01*
X60532498Y-75496180D01*
X60591463Y-75606494D01*
X60670815Y-75703185D01*
X60767506Y-75782537D01*
X60833928Y-75818041D01*
X60833928Y-75919531D01*
X60807241Y-75937363D01*
X60607363Y-76137241D01*
X60503957Y-76292000D01*
X56989652Y-76292000D01*
X46723059Y-66025408D01*
X46766850Y-65805260D01*
X46766850Y-65512740D01*
X46723059Y-65292592D01*
X49343152Y-62672500D01*
X55409178Y-62672500D01*
X55446500Y-62676176D01*
X55483822Y-62672500D01*
X55483833Y-62672500D01*
X55595486Y-62661503D01*
X55738747Y-62618046D01*
X55870776Y-62547474D01*
X55986501Y-62452501D01*
X56010304Y-62423497D01*
X60417801Y-58016000D01*
X61049000Y-58016000D01*
X61049000Y-58316000D01*
X61101350Y-58593514D01*
X61206834Y-58855483D01*
X61361399Y-59091839D01*
X61559105Y-59293500D01*
X61792354Y-59452715D01*
X62052182Y-59563367D01*
X62134961Y-59580904D01*
X62357000Y-59458915D01*
X62357000Y-58016000D01*
X62611000Y-58016000D01*
X62611000Y-59458915D01*
X62833039Y-59580904D01*
X62915818Y-59563367D01*
X63175646Y-59452715D01*
X63408895Y-59293500D01*
X63606601Y-59091839D01*
X63761166Y-58855483D01*
X63866650Y-58593514D01*
X63919000Y-58316000D01*
X63919000Y-58016000D01*
X62611000Y-58016000D01*
X62357000Y-58016000D01*
X61049000Y-58016000D01*
X60417801Y-58016000D01*
X61066948Y-57366853D01*
X61049000Y-57462000D01*
X61049000Y-57762000D01*
X62357000Y-57762000D01*
X62357000Y-57742000D01*
X62611000Y-57742000D01*
X62611000Y-57762000D01*
X63919000Y-57762000D01*
X63919000Y-57462000D01*
X63893670Y-57327721D01*
X66131951Y-59566003D01*
G37*
G04 #@! TD.AperFunction*
D28*
X28952000Y-61503250D02*
X28706000Y-61503250D01*
X28706000Y-61209250D01*
X28952000Y-61209250D01*
X28952000Y-61503250D01*
G04 #@! TA.AperFunction,Conductor*
D29*
G36*
X28952000Y-61503250D02*
G01*
X28706000Y-61503250D01*
X28706000Y-61209250D01*
X28952000Y-61209250D01*
X28952000Y-61503250D01*
G37*
G04 #@! TD.AperFunction*
G04 #@! TD*
M02*
