G04 #@! TF.GenerationSoftware,KiCad,Pcbnew,(5.1.9)-1*
G04 #@! TF.CreationDate,2021-05-27T00:57:22-06:00*
G04 #@! TF.ProjectId,cga_proto_boards_top,6367615f-7072-46f7-946f-5f626f617264,rev?*
G04 #@! TF.SameCoordinates,Original*
G04 #@! TF.FileFunction,Legend,Bot*
G04 #@! TF.FilePolarity,Positive*
%FSLAX46Y46*%
G04 Gerber Fmt 4.6, Leading zero omitted, Abs format (unit mm)*
G04 Created by KiCad (PCBNEW (5.1.9)-1) date 2021-05-27 00:57:22*
%MOMM*%
%LPD*%
G01*
G04 APERTURE LIST*
%ADD10C,0.150000*%
%ADD11C,0.200000*%
%ADD12C,0.120000*%
%ADD13C,0.381000*%
%ADD14C,1.600000*%
%ADD15R,1.200000X1.500000*%
%ADD16C,1.200000*%
%ADD17C,2.100000*%
%ADD18C,1.750000*%
%ADD19O,1.600000X2.200000*%
%ADD20C,1.500000*%
%ADD21C,0.700000*%
%ADD22C,4.400000*%
%ADD23C,0.402000*%
%ADD24C,1.752600*%
%ADD25R,0.800000X1.900000*%
%ADD26R,1.752600X1.752600*%
%ADD27O,1.700000X1.700000*%
%ADD28C,1.700000*%
%ADD29R,1.700000X1.700000*%
G04 APERTURE END LIST*
D10*
X71301523Y-81557761D02*
X71396761Y-81605380D01*
X71587238Y-81605380D01*
X71682476Y-81557761D01*
X71730095Y-81510142D01*
X71777714Y-81414904D01*
X71777714Y-81129190D01*
X71730095Y-81033952D01*
X71682476Y-80986333D01*
X71587238Y-80938714D01*
X71396761Y-80938714D01*
X71301523Y-80986333D01*
X70444380Y-80938714D02*
X70444380Y-81748238D01*
X70492000Y-81843476D01*
X70539619Y-81891095D01*
X70634857Y-81938714D01*
X70777714Y-81938714D01*
X70872952Y-81891095D01*
X70444380Y-81557761D02*
X70539619Y-81605380D01*
X70730095Y-81605380D01*
X70825333Y-81557761D01*
X70872952Y-81510142D01*
X70920571Y-81414904D01*
X70920571Y-81129190D01*
X70872952Y-81033952D01*
X70825333Y-80986333D01*
X70730095Y-80938714D01*
X70539619Y-80938714D01*
X70444380Y-80986333D01*
X69539619Y-81605380D02*
X69539619Y-81081571D01*
X69587238Y-80986333D01*
X69682476Y-80938714D01*
X69872952Y-80938714D01*
X69968190Y-80986333D01*
X69539619Y-81557761D02*
X69634857Y-81605380D01*
X69872952Y-81605380D01*
X69968190Y-81557761D01*
X70015809Y-81462523D01*
X70015809Y-81367285D01*
X69968190Y-81272047D01*
X69872952Y-81224428D01*
X69634857Y-81224428D01*
X69539619Y-81176809D01*
X69301523Y-81700619D02*
X68539619Y-81700619D01*
X68301523Y-80938714D02*
X68301523Y-81938714D01*
X68301523Y-80986333D02*
X68206285Y-80938714D01*
X68015809Y-80938714D01*
X67920571Y-80986333D01*
X67872952Y-81033952D01*
X67825333Y-81129190D01*
X67825333Y-81414904D01*
X67872952Y-81510142D01*
X67920571Y-81557761D01*
X68015809Y-81605380D01*
X68206285Y-81605380D01*
X68301523Y-81557761D01*
X67396761Y-81605380D02*
X67396761Y-80938714D01*
X67396761Y-81129190D02*
X67349142Y-81033952D01*
X67301523Y-80986333D01*
X67206285Y-80938714D01*
X67111047Y-80938714D01*
X66634857Y-81605380D02*
X66730095Y-81557761D01*
X66777714Y-81510142D01*
X66825333Y-81414904D01*
X66825333Y-81129190D01*
X66777714Y-81033952D01*
X66730095Y-80986333D01*
X66634857Y-80938714D01*
X66492000Y-80938714D01*
X66396761Y-80986333D01*
X66349142Y-81033952D01*
X66301523Y-81129190D01*
X66301523Y-81414904D01*
X66349142Y-81510142D01*
X66396761Y-81557761D01*
X66492000Y-81605380D01*
X66634857Y-81605380D01*
X66015809Y-80938714D02*
X65634857Y-80938714D01*
X65872952Y-80605380D02*
X65872952Y-81462523D01*
X65825333Y-81557761D01*
X65730095Y-81605380D01*
X65634857Y-81605380D01*
X65158666Y-81605380D02*
X65253904Y-81557761D01*
X65301523Y-81510142D01*
X65349142Y-81414904D01*
X65349142Y-81129190D01*
X65301523Y-81033952D01*
X65253904Y-80986333D01*
X65158666Y-80938714D01*
X65015809Y-80938714D01*
X64920571Y-80986333D01*
X64872952Y-81033952D01*
X64825333Y-81129190D01*
X64825333Y-81414904D01*
X64872952Y-81510142D01*
X64920571Y-81557761D01*
X65015809Y-81605380D01*
X65158666Y-81605380D01*
X64634857Y-81700619D02*
X63872952Y-81700619D01*
X63634857Y-81605380D02*
X63634857Y-80605380D01*
X63634857Y-80986333D02*
X63539619Y-80938714D01*
X63349142Y-80938714D01*
X63253904Y-80986333D01*
X63206285Y-81033952D01*
X63158666Y-81129190D01*
X63158666Y-81414904D01*
X63206285Y-81510142D01*
X63253904Y-81557761D01*
X63349142Y-81605380D01*
X63539619Y-81605380D01*
X63634857Y-81557761D01*
X62587238Y-81605380D02*
X62682476Y-81557761D01*
X62730095Y-81510142D01*
X62777714Y-81414904D01*
X62777714Y-81129190D01*
X62730095Y-81033952D01*
X62682476Y-80986333D01*
X62587238Y-80938714D01*
X62444380Y-80938714D01*
X62349142Y-80986333D01*
X62301523Y-81033952D01*
X62253904Y-81129190D01*
X62253904Y-81414904D01*
X62301523Y-81510142D01*
X62349142Y-81557761D01*
X62444380Y-81605380D01*
X62587238Y-81605380D01*
X61396761Y-81605380D02*
X61396761Y-81081571D01*
X61444380Y-80986333D01*
X61539619Y-80938714D01*
X61730095Y-80938714D01*
X61825333Y-80986333D01*
X61396761Y-81557761D02*
X61492000Y-81605380D01*
X61730095Y-81605380D01*
X61825333Y-81557761D01*
X61872952Y-81462523D01*
X61872952Y-81367285D01*
X61825333Y-81272047D01*
X61730095Y-81224428D01*
X61492000Y-81224428D01*
X61396761Y-81176809D01*
X60920571Y-81605380D02*
X60920571Y-80938714D01*
X60920571Y-81129190D02*
X60872952Y-81033952D01*
X60825333Y-80986333D01*
X60730095Y-80938714D01*
X60634857Y-80938714D01*
X59872952Y-81605380D02*
X59872952Y-80605380D01*
X59872952Y-81557761D02*
X59968190Y-81605380D01*
X60158666Y-81605380D01*
X60253904Y-81557761D01*
X60301523Y-81510142D01*
X60349142Y-81414904D01*
X60349142Y-81129190D01*
X60301523Y-81033952D01*
X60253904Y-80986333D01*
X60158666Y-80938714D01*
X59968190Y-80938714D01*
X59872952Y-80986333D01*
X59634857Y-81700619D02*
X58872952Y-81700619D01*
X58777714Y-80938714D02*
X58396761Y-80938714D01*
X58634857Y-80605380D02*
X58634857Y-81462523D01*
X58587238Y-81557761D01*
X58492000Y-81605380D01*
X58396761Y-81605380D01*
X57920571Y-81605380D02*
X58015809Y-81557761D01*
X58063428Y-81510142D01*
X58111047Y-81414904D01*
X58111047Y-81129190D01*
X58063428Y-81033952D01*
X58015809Y-80986333D01*
X57920571Y-80938714D01*
X57777714Y-80938714D01*
X57682476Y-80986333D01*
X57634857Y-81033952D01*
X57587238Y-81129190D01*
X57587238Y-81414904D01*
X57634857Y-81510142D01*
X57682476Y-81557761D01*
X57777714Y-81605380D01*
X57920571Y-81605380D01*
X57158666Y-80938714D02*
X57158666Y-81938714D01*
X57158666Y-80986333D02*
X57063428Y-80938714D01*
X56872952Y-80938714D01*
X56777714Y-80986333D01*
X56730095Y-81033952D01*
X56682476Y-81129190D01*
X56682476Y-81414904D01*
X56730095Y-81510142D01*
X56777714Y-81557761D01*
X56872952Y-81605380D01*
X57063428Y-81605380D01*
X57158666Y-81557761D01*
X56492000Y-81700619D02*
X55730095Y-81700619D01*
X55587238Y-80938714D02*
X55349142Y-81605380D01*
X55111047Y-80938714D01*
X54206285Y-81605380D02*
X54777714Y-81605380D01*
X54492000Y-81605380D02*
X54492000Y-80605380D01*
X54587238Y-80748238D01*
X54682476Y-80843476D01*
X54777714Y-80891095D01*
D11*
X54895619Y-88844380D02*
X55371809Y-88844380D01*
X55371809Y-87844380D01*
X54562285Y-88320571D02*
X54228952Y-88320571D01*
X54086095Y-88844380D02*
X54562285Y-88844380D01*
X54562285Y-87844380D01*
X54086095Y-87844380D01*
X53657523Y-88844380D02*
X53657523Y-87844380D01*
X53419428Y-87844380D01*
X53276571Y-87892000D01*
X53181333Y-87987238D01*
X53133714Y-88082476D01*
X53086095Y-88272952D01*
X53086095Y-88415809D01*
X53133714Y-88606285D01*
X53181333Y-88701523D01*
X53276571Y-88796761D01*
X53419428Y-88844380D01*
X53657523Y-88844380D01*
X52705142Y-88796761D02*
X52609904Y-88844380D01*
X52419428Y-88844380D01*
X52324190Y-88796761D01*
X52276571Y-88701523D01*
X52276571Y-88653904D01*
X52324190Y-88558666D01*
X52419428Y-88511047D01*
X52562285Y-88511047D01*
X52657523Y-88463428D01*
X52705142Y-88368190D01*
X52705142Y-88320571D01*
X52657523Y-88225333D01*
X52562285Y-88177714D01*
X52419428Y-88177714D01*
X52324190Y-88225333D01*
X63055333Y-87844380D02*
X62722000Y-88844380D01*
X62388666Y-87844380D01*
X61483904Y-88749142D02*
X61531523Y-88796761D01*
X61674380Y-88844380D01*
X61769619Y-88844380D01*
X61912476Y-88796761D01*
X62007714Y-88701523D01*
X62055333Y-88606285D01*
X62102952Y-88415809D01*
X62102952Y-88272952D01*
X62055333Y-88082476D01*
X62007714Y-87987238D01*
X61912476Y-87892000D01*
X61769619Y-87844380D01*
X61674380Y-87844380D01*
X61531523Y-87892000D01*
X61483904Y-87939619D01*
X60483904Y-88749142D02*
X60531523Y-88796761D01*
X60674380Y-88844380D01*
X60769619Y-88844380D01*
X60912476Y-88796761D01*
X61007714Y-88701523D01*
X61055333Y-88606285D01*
X61102952Y-88415809D01*
X61102952Y-88272952D01*
X61055333Y-88082476D01*
X61007714Y-87987238D01*
X60912476Y-87892000D01*
X60769619Y-87844380D01*
X60674380Y-87844380D01*
X60531523Y-87892000D01*
X60483904Y-87939619D01*
X58546904Y-87892000D02*
X58642142Y-87844380D01*
X58785000Y-87844380D01*
X58927857Y-87892000D01*
X59023095Y-87987238D01*
X59070714Y-88082476D01*
X59118333Y-88272952D01*
X59118333Y-88415809D01*
X59070714Y-88606285D01*
X59023095Y-88701523D01*
X58927857Y-88796761D01*
X58785000Y-88844380D01*
X58689761Y-88844380D01*
X58546904Y-88796761D01*
X58499285Y-88749142D01*
X58499285Y-88415809D01*
X58689761Y-88415809D01*
X58070714Y-88844380D02*
X58070714Y-87844380D01*
X57499285Y-88844380D01*
X57499285Y-87844380D01*
X57023095Y-88844380D02*
X57023095Y-87844380D01*
X56785000Y-87844380D01*
X56642142Y-87892000D01*
X56546904Y-87987238D01*
X56499285Y-88082476D01*
X56451666Y-88272952D01*
X56451666Y-88415809D01*
X56499285Y-88606285D01*
X56546904Y-88701523D01*
X56642142Y-88796761D01*
X56785000Y-88844380D01*
X57023095Y-88844380D01*
D10*
X63984130Y-66444904D02*
X62984130Y-66444904D01*
X62984130Y-66683000D01*
X63031750Y-66825857D01*
X63126988Y-66921095D01*
X63222226Y-66968714D01*
X63412702Y-67016333D01*
X63555559Y-67016333D01*
X63746035Y-66968714D01*
X63841273Y-66921095D01*
X63936511Y-66825857D01*
X63984130Y-66683000D01*
X63984130Y-66444904D01*
X62984130Y-67635380D02*
X62984130Y-67730619D01*
X63031750Y-67825857D01*
X63079369Y-67873476D01*
X63174607Y-67921095D01*
X63365083Y-67968714D01*
X63603178Y-67968714D01*
X63793654Y-67921095D01*
X63888892Y-67873476D01*
X63936511Y-67825857D01*
X63984130Y-67730619D01*
X63984130Y-67635380D01*
X63936511Y-67540142D01*
X63888892Y-67492523D01*
X63793654Y-67444904D01*
X63603178Y-67397285D01*
X63365083Y-67397285D01*
X63174607Y-67444904D01*
X63079369Y-67492523D01*
X63031750Y-67540142D01*
X62984130Y-67635380D01*
X66905130Y-68349904D02*
X65905130Y-68349904D01*
X65905130Y-68588000D01*
X65952750Y-68730857D01*
X66047988Y-68826095D01*
X66143226Y-68873714D01*
X66333702Y-68921333D01*
X66476559Y-68921333D01*
X66667035Y-68873714D01*
X66762273Y-68826095D01*
X66857511Y-68730857D01*
X66905130Y-68588000D01*
X66905130Y-68349904D01*
X66000369Y-69302285D02*
X65952750Y-69349904D01*
X65905130Y-69445142D01*
X65905130Y-69683238D01*
X65952750Y-69778476D01*
X66000369Y-69826095D01*
X66095607Y-69873714D01*
X66190845Y-69873714D01*
X66333702Y-69826095D01*
X66905130Y-69254666D01*
X66905130Y-69873714D01*
X61952130Y-66444904D02*
X60952130Y-66444904D01*
X60952130Y-66683000D01*
X60999750Y-66825857D01*
X61094988Y-66921095D01*
X61190226Y-66968714D01*
X61380702Y-67016333D01*
X61523559Y-67016333D01*
X61714035Y-66968714D01*
X61809273Y-66921095D01*
X61904511Y-66825857D01*
X61952130Y-66683000D01*
X61952130Y-66444904D01*
X60952130Y-67349666D02*
X60952130Y-67968714D01*
X61333083Y-67635380D01*
X61333083Y-67778238D01*
X61380702Y-67873476D01*
X61428321Y-67921095D01*
X61523559Y-67968714D01*
X61761654Y-67968714D01*
X61856892Y-67921095D01*
X61904511Y-67873476D01*
X61952130Y-67778238D01*
X61952130Y-67492523D01*
X61904511Y-67397285D01*
X61856892Y-67349666D01*
X58904130Y-68349904D02*
X57904130Y-68349904D01*
X57904130Y-68588000D01*
X57951750Y-68730857D01*
X58046988Y-68826095D01*
X58142226Y-68873714D01*
X58332702Y-68921333D01*
X58475559Y-68921333D01*
X58666035Y-68873714D01*
X58761273Y-68826095D01*
X58856511Y-68730857D01*
X58904130Y-68588000D01*
X58904130Y-68349904D01*
X58904130Y-69873714D02*
X58904130Y-69302285D01*
X58904130Y-69588000D02*
X57904130Y-69588000D01*
X58046988Y-69492761D01*
X58142226Y-69397523D01*
X58189845Y-69302285D01*
X76606333Y-53529750D02*
X76673000Y-53496416D01*
X76773000Y-53496416D01*
X76873000Y-53529750D01*
X76939666Y-53596416D01*
X76973000Y-53663083D01*
X77006333Y-53796416D01*
X77006333Y-53896416D01*
X76973000Y-54029750D01*
X76939666Y-54096416D01*
X76873000Y-54163083D01*
X76773000Y-54196416D01*
X76706333Y-54196416D01*
X76606333Y-54163083D01*
X76573000Y-54129750D01*
X76573000Y-53896416D01*
X76706333Y-53896416D01*
X76273000Y-54196416D02*
X76273000Y-53496416D01*
X75873000Y-54196416D01*
X75873000Y-53496416D01*
X75539666Y-54196416D02*
X75539666Y-53496416D01*
X75373000Y-53496416D01*
X75273000Y-53529750D01*
X75206333Y-53596416D01*
X75173000Y-53663083D01*
X75139666Y-53796416D01*
X75139666Y-53896416D01*
X75173000Y-54029750D01*
X75206333Y-54096416D01*
X75273000Y-54163083D01*
X75373000Y-54196416D01*
X75539666Y-54196416D01*
X77006333Y-56131666D02*
X76773000Y-56831666D01*
X76539666Y-56131666D01*
X75906333Y-56765000D02*
X75939666Y-56798333D01*
X76039666Y-56831666D01*
X76106333Y-56831666D01*
X76206333Y-56798333D01*
X76273000Y-56731666D01*
X76306333Y-56665000D01*
X76339666Y-56531666D01*
X76339666Y-56431666D01*
X76306333Y-56298333D01*
X76273000Y-56231666D01*
X76206333Y-56165000D01*
X76106333Y-56131666D01*
X76039666Y-56131666D01*
X75939666Y-56165000D01*
X75906333Y-56198333D01*
X75206333Y-56765000D02*
X75239666Y-56798333D01*
X75339666Y-56831666D01*
X75406333Y-56831666D01*
X75506333Y-56798333D01*
X75573000Y-56731666D01*
X75606333Y-56665000D01*
X75639666Y-56531666D01*
X75639666Y-56431666D01*
X75606333Y-56298333D01*
X75573000Y-56231666D01*
X75506333Y-56165000D01*
X75406333Y-56131666D01*
X75339666Y-56131666D01*
X75239666Y-56165000D01*
X75206333Y-56198333D01*
X76906333Y-59211333D02*
X76806333Y-59244666D01*
X76639666Y-59244666D01*
X76573000Y-59211333D01*
X76539666Y-59178000D01*
X76506333Y-59111333D01*
X76506333Y-59044666D01*
X76539666Y-58978000D01*
X76573000Y-58944666D01*
X76639666Y-58911333D01*
X76773000Y-58878000D01*
X76839666Y-58844666D01*
X76873000Y-58811333D01*
X76906333Y-58744666D01*
X76906333Y-58678000D01*
X76873000Y-58611333D01*
X76839666Y-58578000D01*
X76773000Y-58544666D01*
X76606333Y-58544666D01*
X76506333Y-58578000D01*
X75806333Y-59178000D02*
X75839666Y-59211333D01*
X75939666Y-59244666D01*
X76006333Y-59244666D01*
X76106333Y-59211333D01*
X76173000Y-59144666D01*
X76206333Y-59078000D01*
X76239666Y-58944666D01*
X76239666Y-58844666D01*
X76206333Y-58711333D01*
X76173000Y-58644666D01*
X76106333Y-58578000D01*
X76006333Y-58544666D01*
X75939666Y-58544666D01*
X75839666Y-58578000D01*
X75806333Y-58611333D01*
X75173000Y-59244666D02*
X75506333Y-59244666D01*
X75506333Y-58544666D01*
X76923000Y-61751333D02*
X76823000Y-61784666D01*
X76656333Y-61784666D01*
X76589666Y-61751333D01*
X76556333Y-61718000D01*
X76523000Y-61651333D01*
X76523000Y-61584666D01*
X76556333Y-61518000D01*
X76589666Y-61484666D01*
X76656333Y-61451333D01*
X76789666Y-61418000D01*
X76856333Y-61384666D01*
X76889666Y-61351333D01*
X76923000Y-61284666D01*
X76923000Y-61218000D01*
X76889666Y-61151333D01*
X76856333Y-61118000D01*
X76789666Y-61084666D01*
X76623000Y-61084666D01*
X76523000Y-61118000D01*
X76223000Y-61784666D02*
X76223000Y-61084666D01*
X76056333Y-61084666D01*
X75956333Y-61118000D01*
X75889666Y-61184666D01*
X75856333Y-61251333D01*
X75823000Y-61384666D01*
X75823000Y-61484666D01*
X75856333Y-61618000D01*
X75889666Y-61684666D01*
X75956333Y-61751333D01*
X76056333Y-61784666D01*
X76223000Y-61784666D01*
X75556333Y-61584666D02*
X75223000Y-61584666D01*
X75623000Y-61784666D02*
X75389666Y-61084666D01*
X75156333Y-61784666D01*
G04 #@! TO.C,RT2*
X62738000Y-70866000D02*
X62738000Y-70612000D01*
X62484000Y-71120000D02*
X62738000Y-70866000D01*
X62738000Y-75438000D02*
X62484000Y-75184000D01*
X60706000Y-75692000D02*
X60960000Y-75946000D01*
X60706000Y-70612000D02*
X60706000Y-70866000D01*
X60960000Y-75184000D02*
X60706000Y-75438000D01*
X60960000Y-70358000D02*
X60706000Y-70612000D01*
X60960000Y-75946000D02*
X62484000Y-75946000D01*
X62484000Y-75184000D02*
X62484000Y-71120000D01*
X62738000Y-75692000D02*
X62738000Y-75438000D01*
X60706000Y-75438000D02*
X60706000Y-75692000D01*
X60960000Y-71120000D02*
X60960000Y-75184000D01*
X60706000Y-70866000D02*
X60960000Y-71120000D01*
X62738000Y-70612000D02*
X62484000Y-70358000D01*
X62484000Y-70358000D02*
X60960000Y-70358000D01*
X62484000Y-75946000D02*
X62738000Y-75692000D01*
G04 #@! TO.C,RT1*
X65309750Y-70866000D02*
X65309750Y-70612000D01*
X65055750Y-71120000D02*
X65309750Y-70866000D01*
X65309750Y-75438000D02*
X65055750Y-75184000D01*
X63277750Y-75692000D02*
X63531750Y-75946000D01*
X63277750Y-70612000D02*
X63277750Y-70866000D01*
X63531750Y-75184000D02*
X63277750Y-75438000D01*
X63531750Y-70358000D02*
X63277750Y-70612000D01*
X63531750Y-75946000D02*
X65055750Y-75946000D01*
X65055750Y-75184000D02*
X65055750Y-71120000D01*
X65309750Y-75692000D02*
X65309750Y-75438000D01*
X63277750Y-75438000D02*
X63277750Y-75692000D01*
X63531750Y-71120000D02*
X63531750Y-75184000D01*
X63277750Y-70866000D02*
X63531750Y-71120000D01*
X65309750Y-70612000D02*
X65055750Y-70358000D01*
X65055750Y-70358000D02*
X63531750Y-70358000D01*
X65055750Y-75946000D02*
X65309750Y-75692000D01*
G04 #@! TO.C,RQ1*
X29845000Y-60420250D02*
X29845000Y-60166250D01*
X29591000Y-60674250D02*
X29845000Y-60420250D01*
X29845000Y-64992250D02*
X29591000Y-64738250D01*
X27813000Y-65246250D02*
X28067000Y-65500250D01*
X27813000Y-60166250D02*
X27813000Y-60420250D01*
X28067000Y-64738250D02*
X27813000Y-64992250D01*
X28067000Y-59912250D02*
X27813000Y-60166250D01*
X28067000Y-65500250D02*
X29591000Y-65500250D01*
X29591000Y-64738250D02*
X29591000Y-60674250D01*
X29845000Y-65246250D02*
X29845000Y-64992250D01*
X27813000Y-64992250D02*
X27813000Y-65246250D01*
X28067000Y-60674250D02*
X28067000Y-64738250D01*
X27813000Y-60420250D02*
X28067000Y-60674250D01*
X29845000Y-60166250D02*
X29591000Y-59912250D01*
X29591000Y-59912250D02*
X28067000Y-59912250D01*
X29591000Y-65500250D02*
X29845000Y-65246250D01*
D12*
G04 #@! TO.C,Reset*
X55763000Y-51783000D02*
X55763000Y-55683000D01*
X53603000Y-55453000D02*
X50203000Y-55453000D01*
X55243000Y-55453000D02*
X55243000Y-55683000D01*
X55243000Y-55453000D02*
X54703000Y-55453000D01*
X48563000Y-55453000D02*
X48563000Y-55683000D01*
X55763000Y-51783000D02*
X48043000Y-51783000D01*
X48043000Y-51783000D02*
X48043000Y-55683000D01*
X49103000Y-55453000D02*
X48563000Y-55453000D01*
D10*
G04 #@! TO.C,T1*
X61734000Y-51689000D02*
X61734000Y-63789000D01*
X61734000Y-51689000D02*
X67834000Y-51689000D01*
X67834000Y-51689000D02*
X67834000Y-63789000D01*
X61734000Y-63789000D02*
X67834000Y-63789000D01*
X61984000Y-51689000D02*
X61984000Y-49689000D01*
X61984000Y-49689000D02*
X67584000Y-49689000D01*
X67584000Y-51689000D02*
X67584000Y-49689000D01*
D12*
G04 #@! TO.C,Q1*
X36663750Y-60450000D02*
X36663750Y-58990000D01*
X33503750Y-60450000D02*
X33503750Y-57290000D01*
X33503750Y-60450000D02*
X34433750Y-60450000D01*
X36663750Y-60450000D02*
X35733750Y-60450000D01*
D13*
G04 #@! TO.C,U1*
X27527250Y-54356000D02*
X24987250Y-54356000D01*
X42767250Y-51816000D02*
X24987250Y-51816000D01*
X24987250Y-51816000D02*
X24987250Y-84836000D01*
X24987250Y-84836000D02*
X42767250Y-84836000D01*
X42767250Y-84836000D02*
X42767250Y-51816000D01*
D10*
G36*
X39721885Y-60245030D02*
G01*
X39721885Y-60345030D01*
X40221885Y-60345030D01*
X40221885Y-60245030D01*
X39721885Y-60245030D01*
G37*
X39721885Y-60245030D02*
X39721885Y-60345030D01*
X40221885Y-60345030D01*
X40221885Y-60245030D01*
X39721885Y-60245030D01*
G36*
X39721885Y-60245030D02*
G01*
X39721885Y-60545030D01*
X39821885Y-60545030D01*
X39821885Y-60245030D01*
X39721885Y-60245030D01*
G37*
X39721885Y-60245030D02*
X39721885Y-60545030D01*
X39821885Y-60545030D01*
X39821885Y-60245030D01*
X39721885Y-60245030D01*
G36*
X39721885Y-60845030D02*
G01*
X39721885Y-61045030D01*
X39821885Y-61045030D01*
X39821885Y-60845030D01*
X39721885Y-60845030D01*
G37*
X39721885Y-60845030D02*
X39721885Y-61045030D01*
X39821885Y-61045030D01*
X39821885Y-60845030D01*
X39721885Y-60845030D01*
G36*
X40121885Y-60245030D02*
G01*
X40121885Y-61045030D01*
X40221885Y-61045030D01*
X40221885Y-60245030D01*
X40121885Y-60245030D01*
G37*
X40121885Y-60245030D02*
X40121885Y-61045030D01*
X40221885Y-61045030D01*
X40221885Y-60245030D01*
X40121885Y-60245030D01*
G36*
X39921885Y-60645030D02*
G01*
X39921885Y-60745030D01*
X40021885Y-60745030D01*
X40021885Y-60645030D01*
X39921885Y-60645030D01*
G37*
X39921885Y-60645030D02*
X39921885Y-60745030D01*
X40021885Y-60745030D01*
X40021885Y-60645030D01*
X39921885Y-60645030D01*
D13*
X27527250Y-54356000D02*
X27527250Y-56896000D01*
X27527250Y-56896000D02*
X24987250Y-56896000D01*
G04 #@! TO.C,RT2*
D10*
X60583904Y-72688504D02*
X60202952Y-72421838D01*
X60583904Y-72231361D02*
X59783904Y-72231361D01*
X59783904Y-72536123D01*
X59822000Y-72612314D01*
X59860095Y-72650409D01*
X59936285Y-72688504D01*
X60050571Y-72688504D01*
X60126761Y-72650409D01*
X60164857Y-72612314D01*
X60202952Y-72536123D01*
X60202952Y-72231361D01*
X59783904Y-72917076D02*
X59783904Y-73374219D01*
X60583904Y-73145647D02*
X59783904Y-73145647D01*
X59860095Y-73602790D02*
X59822000Y-73640885D01*
X59783904Y-73717076D01*
X59783904Y-73907552D01*
X59822000Y-73983742D01*
X59860095Y-74021838D01*
X59936285Y-74059933D01*
X60012476Y-74059933D01*
X60126761Y-74021838D01*
X60583904Y-73564695D01*
X60583904Y-74059933D01*
G04 #@! TO.C,RT1*
X66147904Y-72688504D02*
X65766952Y-72421838D01*
X66147904Y-72231361D02*
X65347904Y-72231361D01*
X65347904Y-72536123D01*
X65386000Y-72612314D01*
X65424095Y-72650409D01*
X65500285Y-72688504D01*
X65614571Y-72688504D01*
X65690761Y-72650409D01*
X65728857Y-72612314D01*
X65766952Y-72536123D01*
X65766952Y-72231361D01*
X65347904Y-72917076D02*
X65347904Y-73374219D01*
X66147904Y-73145647D02*
X65347904Y-73145647D01*
X66147904Y-74059933D02*
X66147904Y-73602790D01*
X66147904Y-73831361D02*
X65347904Y-73831361D01*
X65462190Y-73755171D01*
X65538380Y-73678980D01*
X65576476Y-73602790D01*
G04 #@! TO.C,RQ1*
X28784571Y-68218142D02*
X29317904Y-68218142D01*
X28479809Y-68027666D02*
X29051238Y-67837190D01*
X29051238Y-68332428D01*
X29241714Y-68637190D02*
X29279809Y-68675285D01*
X29317904Y-68637190D01*
X29279809Y-68599095D01*
X29241714Y-68637190D01*
X29317904Y-68637190D01*
X28517904Y-68941952D02*
X28517904Y-69475285D01*
X29317904Y-69132428D01*
X29317904Y-69780047D02*
X28517904Y-69780047D01*
X29013142Y-69856238D02*
X29317904Y-70084809D01*
X28784571Y-70084809D02*
X29089333Y-69780047D01*
G04 #@! TO.C,Reset*
X53141095Y-56615380D02*
X53474428Y-56139190D01*
X53712523Y-56615380D02*
X53712523Y-55615380D01*
X53331571Y-55615380D01*
X53236333Y-55663000D01*
X53188714Y-55710619D01*
X53141095Y-55805857D01*
X53141095Y-55948714D01*
X53188714Y-56043952D01*
X53236333Y-56091571D01*
X53331571Y-56139190D01*
X53712523Y-56139190D01*
X52331571Y-56567761D02*
X52426809Y-56615380D01*
X52617285Y-56615380D01*
X52712523Y-56567761D01*
X52760142Y-56472523D01*
X52760142Y-56091571D01*
X52712523Y-55996333D01*
X52617285Y-55948714D01*
X52426809Y-55948714D01*
X52331571Y-55996333D01*
X52283952Y-56091571D01*
X52283952Y-56186809D01*
X52760142Y-56282047D01*
X51903000Y-56567761D02*
X51807761Y-56615380D01*
X51617285Y-56615380D01*
X51522047Y-56567761D01*
X51474428Y-56472523D01*
X51474428Y-56424904D01*
X51522047Y-56329666D01*
X51617285Y-56282047D01*
X51760142Y-56282047D01*
X51855380Y-56234428D01*
X51903000Y-56139190D01*
X51903000Y-56091571D01*
X51855380Y-55996333D01*
X51760142Y-55948714D01*
X51617285Y-55948714D01*
X51522047Y-55996333D01*
X50664904Y-56567761D02*
X50760142Y-56615380D01*
X50950619Y-56615380D01*
X51045857Y-56567761D01*
X51093476Y-56472523D01*
X51093476Y-56091571D01*
X51045857Y-55996333D01*
X50950619Y-55948714D01*
X50760142Y-55948714D01*
X50664904Y-55996333D01*
X50617285Y-56091571D01*
X50617285Y-56186809D01*
X51093476Y-56282047D01*
X50331571Y-55948714D02*
X49950619Y-55948714D01*
X50188714Y-55615380D02*
X50188714Y-56472523D01*
X50141095Y-56567761D01*
X50045857Y-56615380D01*
X49950619Y-56615380D01*
G04 #@! TO.C,Q1*
X35599619Y-63500011D02*
X35552000Y-63404773D01*
X35456761Y-63309535D01*
X35313904Y-63166678D01*
X35266285Y-63071440D01*
X35266285Y-62976202D01*
X35504380Y-63023821D02*
X35456761Y-62928583D01*
X35361523Y-62833345D01*
X35171047Y-62785726D01*
X34837714Y-62785726D01*
X34647238Y-62833345D01*
X34552000Y-62928583D01*
X34504380Y-63023821D01*
X34504380Y-63214297D01*
X34552000Y-63309535D01*
X34647238Y-63404773D01*
X34837714Y-63452392D01*
X35171047Y-63452392D01*
X35361523Y-63404773D01*
X35456761Y-63309535D01*
X35504380Y-63214297D01*
X35504380Y-63023821D01*
X35504380Y-64404773D02*
X35504380Y-63833345D01*
X35504380Y-64119059D02*
X34504380Y-64119059D01*
X34647238Y-64023821D01*
X34742476Y-63928583D01*
X34790095Y-63833345D01*
G04 #@! TO.C,U1*
X31927726Y-89261904D02*
X31927726Y-88461904D01*
X31737250Y-88461904D01*
X31622964Y-88500000D01*
X31546773Y-88576190D01*
X31508678Y-88652380D01*
X31470583Y-88804761D01*
X31470583Y-88919047D01*
X31508678Y-89071428D01*
X31546773Y-89147619D01*
X31622964Y-89223809D01*
X31737250Y-89261904D01*
X31927726Y-89261904D01*
X30746773Y-88461904D02*
X31127726Y-88461904D01*
X31165821Y-88842857D01*
X31127726Y-88804761D01*
X31051535Y-88766666D01*
X30861059Y-88766666D01*
X30784869Y-88804761D01*
X30746773Y-88842857D01*
X30708678Y-88919047D01*
X30708678Y-89109523D01*
X30746773Y-89185714D01*
X30784869Y-89223809D01*
X30861059Y-89261904D01*
X31051535Y-89261904D01*
X31127726Y-89223809D01*
X31165821Y-89185714D01*
X36683916Y-88842857D02*
X36950583Y-88842857D01*
X36950583Y-89261904D02*
X36950583Y-88461904D01*
X36569630Y-88461904D01*
X35845821Y-89261904D02*
X36302964Y-89261904D01*
X36074392Y-89261904D02*
X36074392Y-88461904D01*
X36150583Y-88576190D01*
X36226773Y-88652380D01*
X36302964Y-88690476D01*
X34010583Y-89185714D02*
X34048678Y-89223809D01*
X34162964Y-89261904D01*
X34239154Y-89261904D01*
X34353440Y-89223809D01*
X34429630Y-89147619D01*
X34467726Y-89071428D01*
X34505821Y-88919047D01*
X34505821Y-88804761D01*
X34467726Y-88652380D01*
X34429630Y-88576190D01*
X34353440Y-88500000D01*
X34239154Y-88461904D01*
X34162964Y-88461904D01*
X34048678Y-88500000D01*
X34010583Y-88538095D01*
X33743916Y-88461904D02*
X33210583Y-88461904D01*
X33553440Y-89261904D01*
X47781333Y-85929000D02*
X47681333Y-85962333D01*
X47648000Y-85995666D01*
X47614666Y-86062333D01*
X47614666Y-86162333D01*
X47648000Y-86229000D01*
X47681333Y-86262333D01*
X47748000Y-86295666D01*
X48014666Y-86295666D01*
X48014666Y-85595666D01*
X47781333Y-85595666D01*
X47714666Y-85629000D01*
X47681333Y-85662333D01*
X47648000Y-85729000D01*
X47648000Y-85795666D01*
X47681333Y-85862333D01*
X47714666Y-85895666D01*
X47781333Y-85929000D01*
X48014666Y-85929000D01*
X47014666Y-85595666D02*
X47148000Y-85595666D01*
X47214666Y-85629000D01*
X47248000Y-85662333D01*
X47314666Y-85762333D01*
X47348000Y-85895666D01*
X47348000Y-86162333D01*
X47314666Y-86229000D01*
X47281333Y-86262333D01*
X47214666Y-86295666D01*
X47081333Y-86295666D01*
X47014666Y-86262333D01*
X46981333Y-86229000D01*
X46948000Y-86162333D01*
X46948000Y-85995666D01*
X46981333Y-85929000D01*
X47014666Y-85895666D01*
X47081333Y-85862333D01*
X47214666Y-85862333D01*
X47281333Y-85895666D01*
X47314666Y-85929000D01*
X47348000Y-85995666D01*
X39190583Y-88850000D02*
X39423916Y-88850000D01*
X39423916Y-89216666D02*
X39423916Y-88516666D01*
X39090583Y-88516666D01*
X38690583Y-88516666D02*
X38623916Y-88516666D01*
X38557250Y-88550000D01*
X38523916Y-88583333D01*
X38490583Y-88650000D01*
X38457250Y-88783333D01*
X38457250Y-88950000D01*
X38490583Y-89083333D01*
X38523916Y-89150000D01*
X38557250Y-89183333D01*
X38623916Y-89216666D01*
X38690583Y-89216666D01*
X38757250Y-89183333D01*
X38790583Y-89150000D01*
X38823916Y-89083333D01*
X38857250Y-88950000D01*
X38857250Y-88783333D01*
X38823916Y-88650000D01*
X38790583Y-88583333D01*
X38757250Y-88550000D01*
X38690583Y-88516666D01*
X29080583Y-88850000D02*
X28980583Y-88883333D01*
X28947250Y-88916666D01*
X28913916Y-88983333D01*
X28913916Y-89083333D01*
X28947250Y-89150000D01*
X28980583Y-89183333D01*
X29047250Y-89216666D01*
X29313916Y-89216666D01*
X29313916Y-88516666D01*
X29080583Y-88516666D01*
X29013916Y-88550000D01*
X28980583Y-88583333D01*
X28947250Y-88650000D01*
X28947250Y-88716666D01*
X28980583Y-88783333D01*
X29013916Y-88816666D01*
X29080583Y-88850000D01*
X29313916Y-88850000D01*
X28680583Y-88516666D02*
X28213916Y-88516666D01*
X28513916Y-89216666D01*
X47936095Y-63480904D02*
X48202761Y-63099952D01*
X48393238Y-63480904D02*
X48393238Y-62680904D01*
X48088476Y-62680904D01*
X48012285Y-62719000D01*
X47974190Y-62757095D01*
X47936095Y-62833285D01*
X47936095Y-62947571D01*
X47974190Y-63023761D01*
X48012285Y-63061857D01*
X48088476Y-63099952D01*
X48393238Y-63099952D01*
X47631333Y-63442809D02*
X47517047Y-63480904D01*
X47326571Y-63480904D01*
X47250380Y-63442809D01*
X47212285Y-63404714D01*
X47174190Y-63328523D01*
X47174190Y-63252333D01*
X47212285Y-63176142D01*
X47250380Y-63138047D01*
X47326571Y-63099952D01*
X47478952Y-63061857D01*
X47555142Y-63023761D01*
X47593238Y-62985666D01*
X47631333Y-62909476D01*
X47631333Y-62833285D01*
X47593238Y-62757095D01*
X47555142Y-62719000D01*
X47478952Y-62680904D01*
X47288476Y-62680904D01*
X47174190Y-62719000D01*
X46945619Y-62680904D02*
X46488476Y-62680904D01*
X46717047Y-63480904D02*
X46717047Y-62680904D01*
X20783476Y-58400904D02*
X20783476Y-57600904D01*
X20593000Y-57600904D01*
X20478714Y-57639000D01*
X20402523Y-57715190D01*
X20364428Y-57791380D01*
X20326333Y-57943761D01*
X20326333Y-58058047D01*
X20364428Y-58210428D01*
X20402523Y-58286619D01*
X20478714Y-58362809D01*
X20593000Y-58400904D01*
X20783476Y-58400904D01*
X20059666Y-57600904D02*
X19564428Y-57600904D01*
X19831095Y-57905666D01*
X19716809Y-57905666D01*
X19640619Y-57943761D01*
X19602523Y-57981857D01*
X19564428Y-58058047D01*
X19564428Y-58248523D01*
X19602523Y-58324714D01*
X19640619Y-58362809D01*
X19716809Y-58400904D01*
X19945380Y-58400904D01*
X20021571Y-58362809D01*
X20059666Y-58324714D01*
X47821809Y-83381857D02*
X47707523Y-83419952D01*
X47669428Y-83458047D01*
X47631333Y-83534238D01*
X47631333Y-83648523D01*
X47669428Y-83724714D01*
X47707523Y-83762809D01*
X47783714Y-83800904D01*
X48088476Y-83800904D01*
X48088476Y-83000904D01*
X47821809Y-83000904D01*
X47745619Y-83039000D01*
X47707523Y-83077095D01*
X47669428Y-83153285D01*
X47669428Y-83229476D01*
X47707523Y-83305666D01*
X47745619Y-83343761D01*
X47821809Y-83381857D01*
X48088476Y-83381857D01*
X47326571Y-83077095D02*
X47288476Y-83039000D01*
X47212285Y-83000904D01*
X47021809Y-83000904D01*
X46945619Y-83039000D01*
X46907523Y-83077095D01*
X46869428Y-83153285D01*
X46869428Y-83229476D01*
X46907523Y-83343761D01*
X47364666Y-83800904D01*
X46869428Y-83800904D01*
X47764666Y-75761857D02*
X48031333Y-75761857D01*
X48031333Y-76180904D02*
X48031333Y-75380904D01*
X47650380Y-75380904D01*
X47421809Y-75380904D02*
X46888476Y-75380904D01*
X47231333Y-76180904D01*
X47764666Y-73094857D02*
X48031333Y-73094857D01*
X48031333Y-73513904D02*
X48031333Y-72713904D01*
X47650380Y-72713904D01*
X47002761Y-72713904D02*
X47155142Y-72713904D01*
X47231333Y-72752000D01*
X47269428Y-72790095D01*
X47345619Y-72904380D01*
X47383714Y-73056761D01*
X47383714Y-73361523D01*
X47345619Y-73437714D01*
X47307523Y-73475809D01*
X47231333Y-73513904D01*
X47078952Y-73513904D01*
X47002761Y-73475809D01*
X46964666Y-73437714D01*
X46926571Y-73361523D01*
X46926571Y-73171047D01*
X46964666Y-73094857D01*
X47002761Y-73056761D01*
X47078952Y-73018666D01*
X47231333Y-73018666D01*
X47307523Y-73056761D01*
X47345619Y-73094857D01*
X47383714Y-73171047D01*
X47764666Y-70681857D02*
X48031333Y-70681857D01*
X48031333Y-71100904D02*
X48031333Y-70300904D01*
X47650380Y-70300904D01*
X46964666Y-70300904D02*
X47345619Y-70300904D01*
X47383714Y-70681857D01*
X47345619Y-70643761D01*
X47269428Y-70605666D01*
X47078952Y-70605666D01*
X47002761Y-70643761D01*
X46964666Y-70681857D01*
X46926571Y-70758047D01*
X46926571Y-70948523D01*
X46964666Y-71024714D01*
X47002761Y-71062809D01*
X47078952Y-71100904D01*
X47269428Y-71100904D01*
X47345619Y-71062809D01*
X47383714Y-71024714D01*
X48107523Y-60179000D02*
X48183714Y-60140904D01*
X48298000Y-60140904D01*
X48412285Y-60179000D01*
X48488476Y-60255190D01*
X48526571Y-60331380D01*
X48564666Y-60483761D01*
X48564666Y-60598047D01*
X48526571Y-60750428D01*
X48488476Y-60826619D01*
X48412285Y-60902809D01*
X48298000Y-60940904D01*
X48221809Y-60940904D01*
X48107523Y-60902809D01*
X48069428Y-60864714D01*
X48069428Y-60598047D01*
X48221809Y-60598047D01*
X47726571Y-60940904D02*
X47726571Y-60140904D01*
X47269428Y-60940904D01*
X47269428Y-60140904D01*
X46888476Y-60940904D02*
X46888476Y-60140904D01*
X46698000Y-60140904D01*
X46583714Y-60179000D01*
X46507523Y-60255190D01*
X46469428Y-60331380D01*
X46431333Y-60483761D01*
X46431333Y-60598047D01*
X46469428Y-60750428D01*
X46507523Y-60826619D01*
X46583714Y-60902809D01*
X46698000Y-60940904D01*
X46888476Y-60940904D01*
X48564666Y-65220904D02*
X48298000Y-66020904D01*
X48031333Y-65220904D01*
X47307523Y-65944714D02*
X47345619Y-65982809D01*
X47459904Y-66020904D01*
X47536095Y-66020904D01*
X47650380Y-65982809D01*
X47726571Y-65906619D01*
X47764666Y-65830428D01*
X47802761Y-65678047D01*
X47802761Y-65563761D01*
X47764666Y-65411380D01*
X47726571Y-65335190D01*
X47650380Y-65259000D01*
X47536095Y-65220904D01*
X47459904Y-65220904D01*
X47345619Y-65259000D01*
X47307523Y-65297095D01*
X46507523Y-65944714D02*
X46545619Y-65982809D01*
X46659904Y-66020904D01*
X46736095Y-66020904D01*
X46850380Y-65982809D01*
X46926571Y-65906619D01*
X46964666Y-65830428D01*
X47002761Y-65678047D01*
X47002761Y-65563761D01*
X46964666Y-65411380D01*
X46926571Y-65335190D01*
X46850380Y-65259000D01*
X46736095Y-65220904D01*
X46659904Y-65220904D01*
X46545619Y-65259000D01*
X46507523Y-65297095D01*
X47764666Y-68141857D02*
X48031333Y-68141857D01*
X48031333Y-68560904D02*
X48031333Y-67760904D01*
X47650380Y-67760904D01*
X47002761Y-68027571D02*
X47002761Y-68560904D01*
X47193238Y-67722809D02*
X47383714Y-68294238D01*
X46888476Y-68294238D01*
X47821809Y-78301857D02*
X47707523Y-78339952D01*
X47669428Y-78378047D01*
X47631333Y-78454238D01*
X47631333Y-78568523D01*
X47669428Y-78644714D01*
X47707523Y-78682809D01*
X47783714Y-78720904D01*
X48088476Y-78720904D01*
X48088476Y-77920904D01*
X47821809Y-77920904D01*
X47745619Y-77959000D01*
X47707523Y-77997095D01*
X47669428Y-78073285D01*
X47669428Y-78149476D01*
X47707523Y-78225666D01*
X47745619Y-78263761D01*
X47821809Y-78301857D01*
X48088476Y-78301857D01*
X46869428Y-78720904D02*
X47326571Y-78720904D01*
X47098000Y-78720904D02*
X47098000Y-77920904D01*
X47174190Y-78035190D01*
X47250380Y-78111380D01*
X47326571Y-78149476D01*
X47821809Y-80841857D02*
X47707523Y-80879952D01*
X47669428Y-80918047D01*
X47631333Y-80994238D01*
X47631333Y-81108523D01*
X47669428Y-81184714D01*
X47707523Y-81222809D01*
X47783714Y-81260904D01*
X48088476Y-81260904D01*
X48088476Y-80460904D01*
X47821809Y-80460904D01*
X47745619Y-80499000D01*
X47707523Y-80537095D01*
X47669428Y-80613285D01*
X47669428Y-80689476D01*
X47707523Y-80765666D01*
X47745619Y-80803761D01*
X47821809Y-80841857D01*
X48088476Y-80841857D01*
X47364666Y-80460904D02*
X46869428Y-80460904D01*
X47136095Y-80765666D01*
X47021809Y-80765666D01*
X46945619Y-80803761D01*
X46907523Y-80841857D01*
X46869428Y-80918047D01*
X46869428Y-81108523D01*
X46907523Y-81184714D01*
X46945619Y-81222809D01*
X47021809Y-81260904D01*
X47250380Y-81260904D01*
X47326571Y-81222809D01*
X47364666Y-81184714D01*
X20984333Y-85929000D02*
X20884333Y-85962333D01*
X20851000Y-85995666D01*
X20817666Y-86062333D01*
X20817666Y-86162333D01*
X20851000Y-86229000D01*
X20884333Y-86262333D01*
X20951000Y-86295666D01*
X21217666Y-86295666D01*
X21217666Y-85595666D01*
X20984333Y-85595666D01*
X20917666Y-85629000D01*
X20884333Y-85662333D01*
X20851000Y-85729000D01*
X20851000Y-85795666D01*
X20884333Y-85862333D01*
X20917666Y-85895666D01*
X20984333Y-85929000D01*
X21217666Y-85929000D01*
X20184333Y-85595666D02*
X20517666Y-85595666D01*
X20551000Y-85929000D01*
X20517666Y-85895666D01*
X20451000Y-85862333D01*
X20284333Y-85862333D01*
X20217666Y-85895666D01*
X20184333Y-85929000D01*
X20151000Y-85995666D01*
X20151000Y-86162333D01*
X20184333Y-86229000D01*
X20217666Y-86262333D01*
X20284333Y-86295666D01*
X20451000Y-86295666D01*
X20517666Y-86262333D01*
X20551000Y-86229000D01*
X20516809Y-83381857D02*
X20402523Y-83419952D01*
X20364428Y-83458047D01*
X20326333Y-83534238D01*
X20326333Y-83648523D01*
X20364428Y-83724714D01*
X20402523Y-83762809D01*
X20478714Y-83800904D01*
X20783476Y-83800904D01*
X20783476Y-83000904D01*
X20516809Y-83000904D01*
X20440619Y-83039000D01*
X20402523Y-83077095D01*
X20364428Y-83153285D01*
X20364428Y-83229476D01*
X20402523Y-83305666D01*
X20440619Y-83343761D01*
X20516809Y-83381857D01*
X20783476Y-83381857D01*
X19640619Y-83267571D02*
X19640619Y-83800904D01*
X19831095Y-82962809D02*
X20021571Y-83534238D01*
X19526333Y-83534238D01*
X20745380Y-80841857D02*
X20478714Y-80841857D01*
X20364428Y-81260904D02*
X20745380Y-81260904D01*
X20745380Y-80460904D01*
X20364428Y-80460904D01*
X19678714Y-80460904D02*
X19831095Y-80460904D01*
X19907285Y-80499000D01*
X19945380Y-80537095D01*
X20021571Y-80651380D01*
X20059666Y-80803761D01*
X20059666Y-81108523D01*
X20021571Y-81184714D01*
X19983476Y-81222809D01*
X19907285Y-81260904D01*
X19754904Y-81260904D01*
X19678714Y-81222809D01*
X19640619Y-81184714D01*
X19602523Y-81108523D01*
X19602523Y-80918047D01*
X19640619Y-80841857D01*
X19678714Y-80803761D01*
X19754904Y-80765666D01*
X19907285Y-80765666D01*
X19983476Y-80803761D01*
X20021571Y-80841857D01*
X20059666Y-80918047D01*
X20783476Y-78720904D02*
X20783476Y-77920904D01*
X20593000Y-77920904D01*
X20478714Y-77959000D01*
X20402523Y-78035190D01*
X20364428Y-78111380D01*
X20326333Y-78263761D01*
X20326333Y-78378047D01*
X20364428Y-78530428D01*
X20402523Y-78606619D01*
X20478714Y-78682809D01*
X20593000Y-78720904D01*
X20783476Y-78720904D01*
X20059666Y-77920904D02*
X19526333Y-77920904D01*
X19869190Y-78720904D01*
X20326333Y-76104714D02*
X20364428Y-76142809D01*
X20478714Y-76180904D01*
X20554904Y-76180904D01*
X20669190Y-76142809D01*
X20745380Y-76066619D01*
X20783476Y-75990428D01*
X20821571Y-75838047D01*
X20821571Y-75723761D01*
X20783476Y-75571380D01*
X20745380Y-75495190D01*
X20669190Y-75419000D01*
X20554904Y-75380904D01*
X20478714Y-75380904D01*
X20364428Y-75419000D01*
X20326333Y-75457095D01*
X19640619Y-75380904D02*
X19793000Y-75380904D01*
X19869190Y-75419000D01*
X19907285Y-75457095D01*
X19983476Y-75571380D01*
X20021571Y-75723761D01*
X20021571Y-76028523D01*
X19983476Y-76104714D01*
X19945380Y-76142809D01*
X19869190Y-76180904D01*
X19716809Y-76180904D01*
X19640619Y-76142809D01*
X19602523Y-76104714D01*
X19564428Y-76028523D01*
X19564428Y-75838047D01*
X19602523Y-75761857D01*
X19640619Y-75723761D01*
X19716809Y-75685666D01*
X19869190Y-75685666D01*
X19945380Y-75723761D01*
X19983476Y-75761857D01*
X20021571Y-75838047D01*
X20783476Y-73640904D02*
X20783476Y-72840904D01*
X20593000Y-72840904D01*
X20478714Y-72879000D01*
X20402523Y-72955190D01*
X20364428Y-73031380D01*
X20326333Y-73183761D01*
X20326333Y-73298047D01*
X20364428Y-73450428D01*
X20402523Y-73526619D01*
X20478714Y-73602809D01*
X20593000Y-73640904D01*
X20783476Y-73640904D01*
X19640619Y-73107571D02*
X19640619Y-73640904D01*
X19831095Y-72802809D02*
X20021571Y-73374238D01*
X19526333Y-73374238D01*
X20802523Y-62719000D02*
X20878714Y-62680904D01*
X20993000Y-62680904D01*
X21107285Y-62719000D01*
X21183476Y-62795190D01*
X21221571Y-62871380D01*
X21259666Y-63023761D01*
X21259666Y-63138047D01*
X21221571Y-63290428D01*
X21183476Y-63366619D01*
X21107285Y-63442809D01*
X20993000Y-63480904D01*
X20916809Y-63480904D01*
X20802523Y-63442809D01*
X20764428Y-63404714D01*
X20764428Y-63138047D01*
X20916809Y-63138047D01*
X20421571Y-63480904D02*
X20421571Y-62680904D01*
X19964428Y-63480904D01*
X19964428Y-62680904D01*
X19583476Y-63480904D02*
X19583476Y-62680904D01*
X19393000Y-62680904D01*
X19278714Y-62719000D01*
X19202523Y-62795190D01*
X19164428Y-62871380D01*
X19126333Y-63023761D01*
X19126333Y-63138047D01*
X19164428Y-63290428D01*
X19202523Y-63366619D01*
X19278714Y-63442809D01*
X19393000Y-63480904D01*
X19583476Y-63480904D01*
X20802523Y-65259000D02*
X20878714Y-65220904D01*
X20993000Y-65220904D01*
X21107285Y-65259000D01*
X21183476Y-65335190D01*
X21221571Y-65411380D01*
X21259666Y-65563761D01*
X21259666Y-65678047D01*
X21221571Y-65830428D01*
X21183476Y-65906619D01*
X21107285Y-65982809D01*
X20993000Y-66020904D01*
X20916809Y-66020904D01*
X20802523Y-65982809D01*
X20764428Y-65944714D01*
X20764428Y-65678047D01*
X20916809Y-65678047D01*
X20421571Y-66020904D02*
X20421571Y-65220904D01*
X19964428Y-66020904D01*
X19964428Y-65220904D01*
X19583476Y-66020904D02*
X19583476Y-65220904D01*
X19393000Y-65220904D01*
X19278714Y-65259000D01*
X19202523Y-65335190D01*
X19164428Y-65411380D01*
X19126333Y-65563761D01*
X19126333Y-65678047D01*
X19164428Y-65830428D01*
X19202523Y-65906619D01*
X19278714Y-65982809D01*
X19393000Y-66020904D01*
X19583476Y-66020904D01*
X20783476Y-68560904D02*
X20783476Y-67760904D01*
X20593000Y-67760904D01*
X20478714Y-67799000D01*
X20402523Y-67875190D01*
X20364428Y-67951380D01*
X20326333Y-68103761D01*
X20326333Y-68218047D01*
X20364428Y-68370428D01*
X20402523Y-68446619D01*
X20478714Y-68522809D01*
X20593000Y-68560904D01*
X20783476Y-68560904D01*
X19564428Y-68560904D02*
X20021571Y-68560904D01*
X19793000Y-68560904D02*
X19793000Y-67760904D01*
X19869190Y-67875190D01*
X19945380Y-67951380D01*
X20021571Y-67989476D01*
X20783476Y-71100904D02*
X20783476Y-70300904D01*
X20593000Y-70300904D01*
X20478714Y-70339000D01*
X20402523Y-70415190D01*
X20364428Y-70491380D01*
X20326333Y-70643761D01*
X20326333Y-70758047D01*
X20364428Y-70910428D01*
X20402523Y-70986619D01*
X20478714Y-71062809D01*
X20593000Y-71100904D01*
X20783476Y-71100904D01*
X19831095Y-70300904D02*
X19754904Y-70300904D01*
X19678714Y-70339000D01*
X19640619Y-70377095D01*
X19602523Y-70453285D01*
X19564428Y-70605666D01*
X19564428Y-70796142D01*
X19602523Y-70948523D01*
X19640619Y-71024714D01*
X19678714Y-71062809D01*
X19754904Y-71100904D01*
X19831095Y-71100904D01*
X19907285Y-71062809D01*
X19945380Y-71024714D01*
X19983476Y-70948523D01*
X20021571Y-70796142D01*
X20021571Y-70605666D01*
X19983476Y-70453285D01*
X19945380Y-70377095D01*
X19907285Y-70339000D01*
X19831095Y-70300904D01*
X20783476Y-60940904D02*
X20783476Y-60140904D01*
X20593000Y-60140904D01*
X20478714Y-60179000D01*
X20402523Y-60255190D01*
X20364428Y-60331380D01*
X20326333Y-60483761D01*
X20326333Y-60598047D01*
X20364428Y-60750428D01*
X20402523Y-60826619D01*
X20478714Y-60902809D01*
X20593000Y-60940904D01*
X20783476Y-60940904D01*
X20021571Y-60217095D02*
X19983476Y-60179000D01*
X19907285Y-60140904D01*
X19716809Y-60140904D01*
X19640619Y-60179000D01*
X19602523Y-60217095D01*
X19564428Y-60293285D01*
X19564428Y-60369476D01*
X19602523Y-60483761D01*
X20059666Y-60940904D01*
X19564428Y-60940904D01*
G04 #@! TD*
%LPC*%
D14*
G04 #@! TO.C,RT2*
X61722000Y-77052000D03*
X61722000Y-69252000D03*
D15*
X61722000Y-74502000D03*
X61722000Y-71802000D03*
G04 #@! TD*
D14*
G04 #@! TO.C,RT1*
X64293750Y-77052000D03*
X64293750Y-69252000D03*
D15*
X64293750Y-74502000D03*
X64293750Y-71802000D03*
G04 #@! TD*
D14*
G04 #@! TO.C,RQ1*
X28829000Y-66606250D03*
X28829000Y-58806250D03*
D15*
X28829000Y-64056250D03*
X28829000Y-61356250D03*
G04 #@! TD*
D16*
G04 #@! TO.C,Reset*
X51903000Y-53273000D03*
D17*
X48403000Y-56973000D03*
D18*
X49403000Y-54483000D03*
X54403000Y-54483000D03*
D17*
X55413000Y-56973000D03*
G04 #@! TD*
D19*
G04 #@! TO.C,T1*
X62484000Y-57889000D03*
D20*
X60184000Y-53289000D03*
X60184000Y-60289000D03*
D19*
X62484000Y-54889000D03*
X62484000Y-61889000D03*
X57884000Y-62989000D03*
X67084000Y-62989000D03*
D20*
X64784000Y-53289000D03*
X64784000Y-60289000D03*
G04 #@! TD*
D21*
G04 #@! TO.C,Screw4*
X18629226Y-53602024D03*
X17462500Y-53118750D03*
X16295774Y-53602024D03*
X15812500Y-54768750D03*
X16295774Y-55935476D03*
X17462500Y-56418750D03*
X18629226Y-55935476D03*
X19112500Y-54768750D03*
D22*
X17462500Y-54768750D03*
G04 #@! TD*
G04 #@! TO.C,Screw1*
X17462500Y-86518750D03*
D21*
X19112500Y-86518750D03*
X18629226Y-87685476D03*
X17462500Y-88168750D03*
X16295774Y-87685476D03*
X15812500Y-86518750D03*
X16295774Y-85352024D03*
X17462500Y-84868750D03*
X18629226Y-85352024D03*
G04 #@! TD*
G04 #@! TO.C,Screw2*
X75779226Y-85352024D03*
X74612500Y-84868750D03*
X73445774Y-85352024D03*
X72962500Y-86518750D03*
X73445774Y-87685476D03*
X74612500Y-88168750D03*
X75779226Y-87685476D03*
X76262500Y-86518750D03*
D22*
X74612500Y-86518750D03*
G04 #@! TD*
G04 #@! TO.C,Screw3*
X74612500Y-65881250D03*
D21*
X76262500Y-65881250D03*
X75779226Y-67047976D03*
X74612500Y-67531250D03*
X73445774Y-67047976D03*
X72962500Y-65881250D03*
X73445774Y-64714524D03*
X74612500Y-64231250D03*
X75779226Y-64714524D03*
G04 #@! TD*
G04 #@! TO.C,J2*
G36*
G01*
X66023000Y-67933000D02*
X66023000Y-66433000D01*
G75*
G02*
X66024000Y-66432000I1000J0D01*
G01*
X66724000Y-66432000D01*
G75*
G02*
X66725000Y-66433000I0J-1000D01*
G01*
X66725000Y-67933000D01*
G75*
G02*
X66724000Y-67934000I-1000J0D01*
G01*
X66024000Y-67934000D01*
G75*
G02*
X66023000Y-67933000I0J1000D01*
G01*
G37*
G36*
G01*
X65123000Y-67933000D02*
X65123000Y-66433000D01*
G75*
G02*
X65124000Y-66432000I1000J0D01*
G01*
X65824000Y-66432000D01*
G75*
G02*
X65825000Y-66433000I0J-1000D01*
G01*
X65825000Y-67933000D01*
G75*
G02*
X65824000Y-67934000I-1000J0D01*
G01*
X65124000Y-67934000D01*
G75*
G02*
X65123000Y-67933000I0J1000D01*
G01*
G37*
G36*
G01*
X64223000Y-67933000D02*
X64223000Y-66433000D01*
G75*
G02*
X64224000Y-66432000I1000J0D01*
G01*
X64924000Y-66432000D01*
G75*
G02*
X64925000Y-66433000I0J-1000D01*
G01*
X64925000Y-67933000D01*
G75*
G02*
X64924000Y-67934000I-1000J0D01*
G01*
X64224000Y-67934000D01*
G75*
G02*
X64223000Y-67933000I0J1000D01*
G01*
G37*
D23*
X66374000Y-67183000D03*
X65474000Y-67183000D03*
X64574000Y-67183000D03*
G04 #@! TD*
G04 #@! TO.C,J1*
G36*
G01*
X59985000Y-67933000D02*
X59985000Y-66433000D01*
G75*
G02*
X59986000Y-66432000I1000J0D01*
G01*
X60686000Y-66432000D01*
G75*
G02*
X60687000Y-66433000I0J-1000D01*
G01*
X60687000Y-67933000D01*
G75*
G02*
X60686000Y-67934000I-1000J0D01*
G01*
X59986000Y-67934000D01*
G75*
G02*
X59985000Y-67933000I0J1000D01*
G01*
G37*
G36*
G01*
X59085000Y-67933000D02*
X59085000Y-66433000D01*
G75*
G02*
X59086000Y-66432000I1000J0D01*
G01*
X59786000Y-66432000D01*
G75*
G02*
X59787000Y-66433000I0J-1000D01*
G01*
X59787000Y-67933000D01*
G75*
G02*
X59786000Y-67934000I-1000J0D01*
G01*
X59086000Y-67934000D01*
G75*
G02*
X59085000Y-67933000I0J1000D01*
G01*
G37*
G36*
G01*
X58185000Y-67933000D02*
X58185000Y-66433000D01*
G75*
G02*
X58186000Y-66432000I1000J0D01*
G01*
X58886000Y-66432000D01*
G75*
G02*
X58887000Y-66433000I0J-1000D01*
G01*
X58887000Y-67933000D01*
G75*
G02*
X58886000Y-67934000I-1000J0D01*
G01*
X58186000Y-67934000D01*
G75*
G02*
X58185000Y-67933000I0J1000D01*
G01*
G37*
X60336000Y-67183000D03*
X59436000Y-67183000D03*
X58536000Y-67183000D03*
G04 #@! TD*
D24*
G04 #@! TO.C,H3*
X61690250Y-86550500D03*
G04 #@! TD*
G04 #@! TO.C,H2*
X57721500Y-86550500D03*
G04 #@! TD*
G04 #@! TO.C,H1*
X53752750Y-86550500D03*
G04 #@! TD*
D25*
G04 #@! TO.C,Q1*
X35083750Y-61190000D03*
X36033750Y-58190000D03*
X34133750Y-58190000D03*
G04 #@! TD*
D24*
G04 #@! TO.C,U1*
X28797250Y-83794600D03*
X31337250Y-83337400D03*
X33877250Y-83794600D03*
X36417250Y-83337400D03*
X38957250Y-83794600D03*
X41725850Y-55626000D03*
X26485850Y-83566000D03*
X41268650Y-58166000D03*
X41725850Y-60706000D03*
X41268650Y-63246000D03*
X41725850Y-65786000D03*
X41268650Y-68326000D03*
X41725850Y-70866000D03*
X41268650Y-73406000D03*
X41725850Y-75946000D03*
X41268650Y-78486000D03*
X41725850Y-81026000D03*
X41268650Y-83566000D03*
X26028650Y-81026000D03*
X26485850Y-78486000D03*
X26028650Y-75946000D03*
X26485850Y-73406000D03*
X26028650Y-70866000D03*
X26485850Y-68326000D03*
X26028650Y-65786000D03*
X26485850Y-63246000D03*
X26028650Y-60706000D03*
X26485850Y-58166000D03*
D26*
X26028650Y-55626000D03*
G04 #@! TD*
D27*
G04 #@! TO.C,O2*
X73914000Y-61595000D03*
X73914000Y-59055000D03*
X73914000Y-56515000D03*
D28*
X73914000Y-53975000D03*
G04 #@! TD*
D27*
G04 #@! TO.C,O1*
X70104000Y-53975000D03*
X70104000Y-56515000D03*
X70104000Y-59055000D03*
D28*
X70104000Y-61595000D03*
G04 #@! TD*
D27*
G04 #@! TO.C,Cs2*
X44824650Y-78309000D03*
X45281850Y-85929000D03*
D28*
X44824650Y-73229000D03*
D27*
X44824650Y-83389000D03*
X45281850Y-75769000D03*
X45281850Y-80849000D03*
X45281850Y-70739000D03*
X44824650Y-68199000D03*
X45281850Y-65659000D03*
X44824650Y-63119000D03*
X45281850Y-60579000D03*
D29*
X44824650Y-58039000D03*
G04 #@! TD*
D27*
G04 #@! TO.C,Cs1*
X22472650Y-78309000D03*
X22929850Y-85929000D03*
D28*
X22472650Y-73229000D03*
D27*
X22472650Y-83389000D03*
X22929850Y-75769000D03*
X22929850Y-80849000D03*
X22929850Y-70739000D03*
X22472650Y-68199000D03*
X22929850Y-65659000D03*
X22472650Y-63119000D03*
X22929850Y-60579000D03*
D29*
X22472650Y-58039000D03*
G04 #@! TD*
D27*
G04 #@! TO.C,Cb1*
X38893750Y-87350600D03*
X36353750Y-86893400D03*
X33813750Y-87350600D03*
X31273750Y-86893400D03*
D28*
X28733750Y-87350600D03*
G04 #@! TD*
M02*
