G04 #@! TF.GenerationSoftware,KiCad,Pcbnew,(5.1.9)-1*
G04 #@! TF.CreationDate,2021-05-27T00:57:22-06:00*
G04 #@! TF.ProjectId,cga_proto_boards_top,6367615f-7072-46f7-946f-5f626f617264,rev?*
G04 #@! TF.SameCoordinates,Original*
G04 #@! TF.FileFunction,Soldermask,Top*
G04 #@! TF.FilePolarity,Negative*
%FSLAX46Y46*%
G04 Gerber Fmt 4.6, Leading zero omitted, Abs format (unit mm)*
G04 Created by KiCad (PCBNEW (5.1.9)-1) date 2021-05-27 00:57:22*
%MOMM*%
%LPD*%
G01*
G04 APERTURE LIST*
%ADD10C,1.600000*%
%ADD11R,1.200000X1.500000*%
%ADD12C,1.200000*%
%ADD13C,2.100000*%
%ADD14C,1.750000*%
%ADD15O,1.600000X2.200000*%
%ADD16C,1.500000*%
%ADD17C,0.700000*%
%ADD18C,4.400000*%
%ADD19C,0.402000*%
%ADD20C,1.752600*%
%ADD21R,0.800000X1.900000*%
%ADD22R,1.752600X1.752600*%
%ADD23O,1.700000X1.700000*%
%ADD24C,1.700000*%
%ADD25R,1.700000X1.700000*%
G04 APERTURE END LIST*
D10*
G04 #@! TO.C,RT2*
X61722000Y-77052000D03*
X61722000Y-69252000D03*
D11*
X61722000Y-71802000D03*
X61722000Y-74502000D03*
G04 #@! TD*
D10*
G04 #@! TO.C,RT1*
X64293750Y-77052000D03*
X64293750Y-69252000D03*
D11*
X64293750Y-71802000D03*
X64293750Y-74502000D03*
G04 #@! TD*
D10*
G04 #@! TO.C,RQ1*
X28829000Y-66606250D03*
X28829000Y-58806250D03*
D11*
X28829000Y-61356250D03*
X28829000Y-64056250D03*
G04 #@! TD*
D12*
G04 #@! TO.C,Reset*
X51903000Y-53273000D03*
D13*
X48403000Y-56973000D03*
D14*
X49403000Y-54483000D03*
X54403000Y-54483000D03*
D13*
X55413000Y-56973000D03*
G04 #@! TD*
D15*
G04 #@! TO.C,T1*
X62484000Y-57889000D03*
D16*
X60184000Y-53289000D03*
X60184000Y-60289000D03*
D15*
X62484000Y-54889000D03*
X62484000Y-61889000D03*
X57884000Y-62989000D03*
X67084000Y-62989000D03*
D16*
X64784000Y-53289000D03*
X64784000Y-60289000D03*
G04 #@! TD*
D17*
G04 #@! TO.C,Screw4*
X18629226Y-53602024D03*
X17462500Y-53118750D03*
X16295774Y-53602024D03*
X15812500Y-54768750D03*
X16295774Y-55935476D03*
X17462500Y-56418750D03*
X18629226Y-55935476D03*
X19112500Y-54768750D03*
D18*
X17462500Y-54768750D03*
G04 #@! TD*
G04 #@! TO.C,Screw1*
X17462500Y-86518750D03*
D17*
X19112500Y-86518750D03*
X18629226Y-87685476D03*
X17462500Y-88168750D03*
X16295774Y-87685476D03*
X15812500Y-86518750D03*
X16295774Y-85352024D03*
X17462500Y-84868750D03*
X18629226Y-85352024D03*
G04 #@! TD*
G04 #@! TO.C,Screw2*
X75779226Y-85352024D03*
X74612500Y-84868750D03*
X73445774Y-85352024D03*
X72962500Y-86518750D03*
X73445774Y-87685476D03*
X74612500Y-88168750D03*
X75779226Y-87685476D03*
X76262500Y-86518750D03*
D18*
X74612500Y-86518750D03*
G04 #@! TD*
G04 #@! TO.C,Screw3*
X74612500Y-65881250D03*
D17*
X76262500Y-65881250D03*
X75779226Y-67047976D03*
X74612500Y-67531250D03*
X73445774Y-67047976D03*
X72962500Y-65881250D03*
X73445774Y-64714524D03*
X74612500Y-64231250D03*
X75779226Y-64714524D03*
G04 #@! TD*
G04 #@! TO.C,J2*
G36*
G01*
X66023000Y-67933000D02*
X66023000Y-66433000D01*
G75*
G02*
X66024000Y-66432000I1000J0D01*
G01*
X66724000Y-66432000D01*
G75*
G02*
X66725000Y-66433000I0J-1000D01*
G01*
X66725000Y-67933000D01*
G75*
G02*
X66724000Y-67934000I-1000J0D01*
G01*
X66024000Y-67934000D01*
G75*
G02*
X66023000Y-67933000I0J1000D01*
G01*
G37*
G36*
G01*
X65123000Y-67933000D02*
X65123000Y-66433000D01*
G75*
G02*
X65124000Y-66432000I1000J0D01*
G01*
X65824000Y-66432000D01*
G75*
G02*
X65825000Y-66433000I0J-1000D01*
G01*
X65825000Y-67933000D01*
G75*
G02*
X65824000Y-67934000I-1000J0D01*
G01*
X65124000Y-67934000D01*
G75*
G02*
X65123000Y-67933000I0J1000D01*
G01*
G37*
G36*
G01*
X64223000Y-67933000D02*
X64223000Y-66433000D01*
G75*
G02*
X64224000Y-66432000I1000J0D01*
G01*
X64924000Y-66432000D01*
G75*
G02*
X64925000Y-66433000I0J-1000D01*
G01*
X64925000Y-67933000D01*
G75*
G02*
X64924000Y-67934000I-1000J0D01*
G01*
X64224000Y-67934000D01*
G75*
G02*
X64223000Y-67933000I0J1000D01*
G01*
G37*
D19*
X66374000Y-67183000D03*
X65474000Y-67183000D03*
X64574000Y-67183000D03*
G04 #@! TD*
G04 #@! TO.C,J1*
G36*
G01*
X59985000Y-67933000D02*
X59985000Y-66433000D01*
G75*
G02*
X59986000Y-66432000I1000J0D01*
G01*
X60686000Y-66432000D01*
G75*
G02*
X60687000Y-66433000I0J-1000D01*
G01*
X60687000Y-67933000D01*
G75*
G02*
X60686000Y-67934000I-1000J0D01*
G01*
X59986000Y-67934000D01*
G75*
G02*
X59985000Y-67933000I0J1000D01*
G01*
G37*
G36*
G01*
X59085000Y-67933000D02*
X59085000Y-66433000D01*
G75*
G02*
X59086000Y-66432000I1000J0D01*
G01*
X59786000Y-66432000D01*
G75*
G02*
X59787000Y-66433000I0J-1000D01*
G01*
X59787000Y-67933000D01*
G75*
G02*
X59786000Y-67934000I-1000J0D01*
G01*
X59086000Y-67934000D01*
G75*
G02*
X59085000Y-67933000I0J1000D01*
G01*
G37*
G36*
G01*
X58185000Y-67933000D02*
X58185000Y-66433000D01*
G75*
G02*
X58186000Y-66432000I1000J0D01*
G01*
X58886000Y-66432000D01*
G75*
G02*
X58887000Y-66433000I0J-1000D01*
G01*
X58887000Y-67933000D01*
G75*
G02*
X58886000Y-67934000I-1000J0D01*
G01*
X58186000Y-67934000D01*
G75*
G02*
X58185000Y-67933000I0J1000D01*
G01*
G37*
X60336000Y-67183000D03*
X59436000Y-67183000D03*
X58536000Y-67183000D03*
G04 #@! TD*
D20*
G04 #@! TO.C,H3*
X61690250Y-86550500D03*
G04 #@! TD*
G04 #@! TO.C,H2*
X57721500Y-86550500D03*
G04 #@! TD*
G04 #@! TO.C,H1*
X53752750Y-86550500D03*
G04 #@! TD*
D21*
G04 #@! TO.C,Q2*
X35083750Y-61190000D03*
X34133750Y-58190000D03*
X36033750Y-58190000D03*
G04 #@! TD*
D20*
G04 #@! TO.C,U1*
X28797250Y-83794600D03*
X31337250Y-83337400D03*
X33877250Y-83794600D03*
X36417250Y-83337400D03*
X38957250Y-83794600D03*
X41725850Y-55626000D03*
X26485850Y-83566000D03*
X41268650Y-58166000D03*
X41725850Y-60706000D03*
X41268650Y-63246000D03*
X41725850Y-65786000D03*
X41268650Y-68326000D03*
X41725850Y-70866000D03*
X41268650Y-73406000D03*
X41725850Y-75946000D03*
X41268650Y-78486000D03*
X41725850Y-81026000D03*
X41268650Y-83566000D03*
X26028650Y-81026000D03*
X26485850Y-78486000D03*
X26028650Y-75946000D03*
X26485850Y-73406000D03*
X26028650Y-70866000D03*
X26485850Y-68326000D03*
X26028650Y-65786000D03*
X26485850Y-63246000D03*
X26028650Y-60706000D03*
X26485850Y-58166000D03*
D22*
X26028650Y-55626000D03*
G04 #@! TD*
D23*
G04 #@! TO.C,O2*
X73914000Y-61595000D03*
X73914000Y-59055000D03*
X73914000Y-56515000D03*
D24*
X73914000Y-53975000D03*
G04 #@! TD*
D23*
G04 #@! TO.C,O1*
X70104000Y-53975000D03*
X70104000Y-56515000D03*
X70104000Y-59055000D03*
D24*
X70104000Y-61595000D03*
G04 #@! TD*
D23*
G04 #@! TO.C,Cs2*
X44824650Y-78309000D03*
X45281850Y-85929000D03*
D24*
X44824650Y-73229000D03*
D23*
X44824650Y-83389000D03*
X45281850Y-75769000D03*
X45281850Y-80849000D03*
X45281850Y-70739000D03*
X44824650Y-68199000D03*
X45281850Y-65659000D03*
X44824650Y-63119000D03*
X45281850Y-60579000D03*
D25*
X44824650Y-58039000D03*
G04 #@! TD*
D23*
G04 #@! TO.C,Cs1*
X22472650Y-78309000D03*
X22929850Y-85929000D03*
D24*
X22472650Y-73229000D03*
D23*
X22472650Y-83389000D03*
X22929850Y-75769000D03*
X22929850Y-80849000D03*
X22929850Y-70739000D03*
X22472650Y-68199000D03*
X22929850Y-65659000D03*
X22472650Y-63119000D03*
X22929850Y-60579000D03*
D25*
X22472650Y-58039000D03*
G04 #@! TD*
D23*
G04 #@! TO.C,Cb1*
X38893750Y-87350600D03*
X36353750Y-86893400D03*
X33813750Y-87350600D03*
X31273750Y-86893400D03*
D24*
X28733750Y-87350600D03*
G04 #@! TD*
M02*
