M48
; DRILL file {KiCad (5.1.9)-1} date 05/27/21 00:57:25
; FORMAT={-:-/ absolute / inch / decimal}
; #@! TF.CreationDate,2021-05-27T00:57:25-06:00
; #@! TF.GenerationSoftware,Kicad,Pcbnew,(5.1.9)-1
; #@! TF.FileFunction,Plated,1,2,PTH
FMAT,2
INCH
T1C0.0118
T2C0.0157
T3C0.0354
T4C0.0390
T5C0.0394
T6C0.0430
T7C0.0512
T8C0.0866
%
G90
G05
T1
X2.3046Y-2.645
X2.34Y-2.645
X2.3754Y-2.645
X2.5423Y-2.645
X2.5777Y-2.645
X2.6131Y-2.645
T2
X0.6225Y-2.1562
X0.6225Y-3.4062
X0.6416Y-2.1103
X0.6416Y-2.2022
X0.6416Y-3.3603
X0.6416Y-3.4522
X0.6875Y-2.0913
X0.6875Y-2.2212
X0.6875Y-3.3413
X0.6875Y-3.4712
X0.7334Y-2.1103
X0.7334Y-2.2022
X0.7334Y-3.3603
X0.7334Y-3.4522
X0.7525Y-2.1562
X0.7525Y-3.4062
X1.25Y-2.4688
X1.4062Y-2.2188
X2.4688Y-2.5625
X2.5Y-3.125
X2.7188Y-2.5625
X2.8725Y-2.5938
X2.8725Y-3.4062
X2.8916Y-2.5478
X2.8916Y-2.6397
X2.8916Y-3.3603
X2.8916Y-3.4522
X2.9375Y-2.5288
X2.9375Y-2.6587
X2.9375Y-3.3413
X2.9375Y-3.4712
X2.9834Y-2.5478
X2.9834Y-2.6397
X2.9834Y-3.3603
X2.9834Y-3.4522
X3.0025Y-2.5938
X3.0025Y-3.4062
T4
X1.945Y-2.145
X2.1419Y-2.145
T5
X0.8847Y-2.285
X0.8847Y-2.485
X0.8847Y-2.685
X0.8847Y-2.883
X0.8847Y-3.083
X0.8847Y-3.283
X0.9027Y-2.385
X0.9027Y-2.585
X0.9027Y-2.785
X0.9027Y-2.983
X0.9027Y-3.183
X0.9027Y-3.383
X1.1312Y-3.439
X1.135Y-2.3152
X1.135Y-2.6223
X1.2312Y-3.421
X1.3313Y-3.439
X1.4312Y-3.421
X1.5312Y-3.439
X1.7648Y-2.285
X1.7648Y-2.485
X1.7648Y-2.685
X1.7648Y-2.883
X1.7648Y-3.083
X1.7648Y-3.283
X1.7828Y-2.385
X1.7828Y-2.585
X1.7828Y-2.785
X1.7828Y-2.983
X1.7828Y-3.183
X1.7828Y-3.383
X2.43Y-2.7265
X2.43Y-3.0335
X2.5312Y-2.7265
X2.5312Y-3.0335
X2.76Y-2.125
X2.76Y-2.225
X2.76Y-2.325
X2.76Y-2.425
X2.91Y-2.125
X2.91Y-2.225
X2.91Y-2.325
X2.91Y-2.425
T6
X1.0248Y-2.19
X1.0248Y-2.39
X1.0248Y-2.59
X1.0248Y-2.79
X1.0248Y-2.99
X1.0248Y-3.19
X1.0428Y-2.29
X1.0428Y-2.49
X1.0428Y-2.69
X1.0428Y-2.89
X1.0428Y-3.09
X1.0428Y-3.29
X1.1338Y-3.299
X1.2337Y-3.281
X1.3337Y-3.299
X1.4337Y-3.281
X1.5337Y-3.299
X1.6247Y-2.29
X1.6247Y-2.49
X1.6247Y-2.69
X1.6247Y-2.89
X1.6247Y-3.09
X1.6247Y-3.29
X1.6427Y-2.19
X1.6427Y-2.39
X1.6427Y-2.59
X1.6427Y-2.79
X1.6427Y-2.99
X1.6427Y-3.19
X2.1162Y-3.4075
X2.2725Y-3.4075
X2.4287Y-3.4075
T7
X1.9056Y-2.243
X2.1816Y-2.243
T8
X0.6875Y-2.1562
X0.6875Y-3.4062
X2.9375Y-2.5938
X2.9375Y-3.4062
T3
G00X2.2789Y-2.4681
M15
G01X2.2789Y-2.4917
M16
G05
G00X2.46Y-2.1492
M15
G01X2.46Y-2.1728
M16
G05
G00X2.46Y-2.2673
M15
G01X2.46Y-2.2909
M16
G05
G00X2.46Y-2.4248
M15
G01X2.46Y-2.4484
M16
G05
G00X2.6411Y-2.4681
M15
G01X2.6411Y-2.4917
M16
G05
T0
M30
