M48
; DRILL file {KiCad (5.1.9)-1} date 05/27/21 01:04:47
; FORMAT={-:-/ absolute / inch / decimal}
; #@! TF.CreationDate,2021-05-27T01:04:47-06:00
; #@! TF.GenerationSoftware,Kicad,Pcbnew,(5.1.9)-1
; #@! TF.FileFunction,Plated,1,2,PTH
FMAT,2
INCH
T1C0.0118
T2C0.0157
T3C0.0354
T4C0.0390
T5C0.0394
T6C0.0430
T7C0.0512
T8C0.0866
%
G90
G05
T1
X2.9346Y-1.28
X2.97Y-1.28
X3.0054Y-1.28
X3.1746Y-1.28
X3.21Y-1.28
X3.2454Y-1.28
T2
X1.075Y-0.795
X1.075Y-1.735
X1.0941Y-0.7491
X1.0941Y-0.8409
X1.0941Y-1.6891
X1.0941Y-1.7809
X1.14Y-0.73
X1.14Y-0.86
X1.14Y-1.67
X1.14Y-1.8
X1.1859Y-0.7491
X1.1859Y-0.8409
X1.1859Y-1.6891
X1.1859Y-1.7809
X1.205Y-0.795
X1.205Y-1.735
X1.8438Y-1.1562
X2.0312Y-1.375
X2.875Y-1.375
X2.975Y-1.4688
X3.39Y-0.795
X3.39Y-1.735
X3.4091Y-0.7491
X3.4091Y-0.8409
X3.4091Y-1.6891
X3.4091Y-1.7809
X3.455Y-0.73
X3.455Y-0.86
X3.455Y-1.67
X3.455Y-1.8
X3.5009Y-0.7491
X3.5009Y-0.8409
X3.5009Y-1.6891
X3.5009Y-1.7809
X3.52Y-0.795
X3.52Y-1.735
T4
X2.5981Y-0.8
X2.795Y-0.8
T5
X1.285Y-0.829
X1.285Y-1.709
X1.2965Y-1.33
X1.385Y-0.811
X1.385Y-1.691
X1.485Y-0.829
X1.485Y-1.709
X1.585Y-0.811
X1.585Y-1.691
X1.6035Y-1.33
X1.685Y-0.829
X1.685Y-1.709
X1.785Y-0.811
X1.785Y-1.691
X1.883Y-0.829
X1.883Y-1.709
X1.983Y-0.811
X1.983Y-1.691
X2.083Y-0.829
X2.083Y-1.709
X2.183Y-0.811
X2.183Y-1.691
X2.283Y-0.829
X2.283Y-1.709
X2.383Y-0.811
X2.383Y-1.691
X2.421Y-1.16
X2.421Y-1.36
X2.439Y-1.06
X2.439Y-1.26
X2.439Y-1.46
X2.575Y-1.105
X2.575Y-1.205
X2.575Y-1.305
X2.575Y-1.405
X2.725Y-1.105
X2.725Y-1.205
X2.725Y-1.305
X2.725Y-1.405
X3.06Y-1.3615
X3.06Y-1.6685
X3.16Y-1.3615
X3.16Y-1.6685
T6
X1.19Y-0.951
X1.19Y-1.569
X1.29Y-0.969
X1.29Y-1.551
X1.39Y-0.951
X1.39Y-1.569
X1.49Y-0.969
X1.49Y-1.551
X1.59Y-0.951
X1.59Y-1.569
X1.69Y-0.969
X1.69Y-1.551
X1.79Y-0.951
X1.79Y-1.569
X1.89Y-0.969
X1.89Y-1.551
X1.99Y-0.951
X1.99Y-1.569
X2.09Y-0.969
X2.09Y-1.551
X2.19Y-0.951
X2.19Y-1.569
X2.281Y-1.16
X2.281Y-1.36
X2.29Y-0.969
X2.29Y-1.551
X2.299Y-1.06
X2.299Y-1.26
X2.299Y-1.46
X2.585Y-1.67
X2.73Y-1.67
X2.885Y-1.67
T7
X2.5584Y-0.898
X2.8344Y-0.898
T8
X1.14Y-0.795
X1.14Y-1.735
X3.455Y-0.795
X3.455Y-1.735
T3
G00X2.9289Y-1.1231
M15
G01X2.9289Y-1.1467
M16
G05
G00X3.11Y-0.8042
M15
G01X3.11Y-0.8278
M16
G05
G00X3.11Y-0.9223
M15
G01X3.11Y-0.9459
M16
G05
G00X3.11Y-1.0798
M15
G01X3.11Y-1.1034
M16
G05
G00X3.2911Y-1.1231
M15
G01X3.2911Y-1.1467
M16
G05
T0
M30
